<svg xmlns="http://www.w3.org/2000/svg" viewBox="0 0 106 163.41"><defs><style>.cls-1{fill:#26315E;}</style></defs><title>bastien</title><g id="Layer_2" data-name="Layer 2"><g id="Layer_1-2" data-name="Layer 1"><path class="cls-1" d="M105.3,40.79c-.5-1.69-.94-3.4-1.51-5.06-1.15-3.35-4.32-8.14-7.73-9.75-.09-.05-.15-.18-.37-.45a15.43,15.43,0,0,1-1.4-3.69q-1-3.56-2.17-7.07A15.72,15.72,0,0,0,88,8.05c-1.73-1.63-3.51-3.2-5.36-4.66a9.37,9.37,0,0,0-2.91-1.61,31.53,31.53,0,0,0-9-1.77c-2.32-.08-4.54.7-6.83.84a3,3,0,0,0-1.23.47c-2,1.18-4.29,1.74-6.26,3.07a6.93,6.93,0,0,1-3.73,1.24,33.34,33.34,0,0,1-7.2-.22A15.84,15.84,0,0,0,37.68,6c-1.26.39-2.5.87-3.78,1.14a16.65,16.65,0,0,0-5.18,2.18q-3.13,1.94-6.15,4.08a15,15,0,0,0-4.33,4.29,6.8,6.8,0,0,1-.88,1.05,24.58,24.58,0,0,0-3,4.16c-.62,1-1.23,2-1.87,2.92A17.32,17.32,0,0,1,8.49,30c-.54.4-1,.85-1.61,1.21a13.82,13.82,0,0,0-4.13,4.5A15.35,15.35,0,0,0,.12,44c0,.24,0,.47,0,.71A27.74,27.74,0,0,0,3.17,59.35a6.14,6.14,0,0,0,.53.89,31.18,31.18,0,0,0,5.38,6.17A13.25,13.25,0,0,0,11,67.74a7.61,7.61,0,0,1,2.59,1.44,3,3,0,0,1,.21.67c0,1.78.06,3.55,0,5.33a2.7,2.7,0,0,1-2,2.85A5.4,5.4,0,0,0,9.3,79.62c-.4.41-.8.8-1.12,1.12-.13.47-.23.81-.32,1.15A11.27,11.27,0,0,0,8,88.17a31.71,31.71,0,0,0,1.69,4.61c1.67,3.73,3.35,7.45,5,11.18a46.29,46.29,0,0,0,2.54,5,73,73,0,0,1,3.92,7.81c-.68,1.41-1.32,2.77-2,4.12-.2.41-.48.78-.71,1.19a61.92,61.92,0,0,0-4.84,10c-.68,2-1.55,3.91-2.39,5.84a87.2,87.2,0,0,0-4.51,12.55c-.6,2.27-1,4.6-1.76,6.83a7.45,7.45,0,0,0-.26,3.16A2.13,2.13,0,0,0,6,162.28a8.22,8.22,0,0,0,1.6.31c1.31.08,2.63.12,3.94.14a56.28,56.28,0,0,1,6.87.38,5.88,5.88,0,0,0,2-.08,19.24,19.24,0,0,1,6.85-.2,21.49,21.49,0,0,0,3.93.09c1.74-.08,3.5-.12,5.24,0a19.67,19.67,0,0,0,3.6,0,8.78,8.78,0,0,1,2.93.17,17.28,17.28,0,0,0,3.58.38c2.51,0,5-.15,7.54-.16s4.8-.15,7.21-.06a79.9,79.9,0,0,0,8.19.17c2.3-.16,4.59-.24,6.89-.29,1.31,0,2.62.08,3.93.09s2.41-.13,3.6,0,2.59-.45,3.91-.33c.21,0,.43,0,.65,0,2.4.14,4.82-.12,7.21.25a4.77,4.77,0,0,0,1.3-.11,1.66,1.66,0,0,0,1.42-1.68c0-1.18.07-2.37,0-3.55s-.25-2.11-.35-3.17a47.29,47.29,0,0,0-1.56-9.76,21.32,21.32,0,0,1-.49-2.43c-.38-2.08-.68-4.19-1.16-6.25A64.9,64.9,0,0,0,92.15,127c-.57-1.41-1-2.87-1.44-4.34a30.15,30.15,0,0,0-2.24-5.51c-1-2-2-3.94-2.93-5.8a2.77,2.77,0,0,1,.53-1.76c.69-1.07,1.46-2.09,2.05-3.21a28.7,28.7,0,0,1,2.07-3.2c.94-1.3,1.94-2.56,2.8-3.93a72,72,0,0,0,6-10.56,32.71,32.71,0,0,0,2.13-8.16,5.69,5.69,0,0,0-.24-2.45c-.51-1.68-1-3.38-1.46-5,.3-.94.51-1.86.86-2.72,1.47-3.58,2.47-7.33,3.63-11a44.77,44.77,0,0,0,2-11.45,20.76,20.76,0,0,0-.66-7Zm-84,80.41a2,2,0,0,1,2.13.72,3.09,3.09,0,0,1-2.35,0,.49.49,0,0,1,.22-.77Zm73.86,26.07a2.72,2.72,0,0,1-.91.33c-3.27-.11-6.55.21-9.81-.35a18.06,18.06,0,0,0-2.95-.14c-7.42,0-14.85-.05-22.28,0-3.06,0-6.12-.05-9.17-.33s-6.33-.29-9.5-.31c-3.6,0-7.2-.29-10.79-.59-1.09-.09-2.18-.1-3.27-.13l-10.82-.23a18.9,18.9,0,0,1-4.52-.8.88.88,0,0,1-.57-.78c0-.45.28-1.1.6-1.14.54-.07,1.08-.16,1.63-.18,2.07-.05,4.14-.1,6.21-.29s4.37-.09,6.55-.12c2.24.7,4.56.4,6.83.59s4.37.13,6.56.12c3.27,0,6.55-.06,9.83-.07,2.4,0,4.81,0,7.21.05,1.31,0,2.61.14,3.92.27,2.28.21,4.58.23,6.87.25,5.79.07,11.59.08,17.38.12,1.85,0,3.71.1,5.57.07,1.54,0,3,.68,4.6.63a5,5,0,0,1,.83,3Zm-4.39-9.13a6.8,6.8,0,0,1,2.25.4,1.24,1.24,0,0,1,.69.68,4.15,4.15,0,0,1,.28,2.07c0,.25-.4.7-.64.71-.76,0-1.52.1-2.29.1-6.12,0-12.24,0-18.36-.07-4.59-.06-9.18,0-13.76-.38-3.49-.27-7-.3-10.49-.23-7.11.14-14.21.14-21.31-.28-3.71-.22-7.41-.38-11.12-.51a17.44,17.44,0,0,1-2.6-.33,7.58,7.58,0,0,1-1.46-.62l.87-1.88a3.56,3.56,0,0,1,1-.28c4.26.19,8.51.41,12.77.63,1.53-.36,3,.33,4.56.23a31.84,31.84,0,0,1,4.58.08,80.12,80.12,0,0,0,8.2,0c.65,0,1.31-.06,2,0,9.84.26,19.68.1,29.51,0,2.3,0,4.59,0,6.89-.08,1.09,0,2.17-.12,3.26-.19,1.74-.1,3.48.1,5.22,0ZM86,116.8a5,5,0,0,1,.38.56c.19.4.08.79-.21.85a3.48,3.48,0,0,1-.61.17c-1.61.07-3.22.13-4.83.16a1.62,1.62,0,0,1-.58-.25,1.79,1.79,0,0,1,.79-1.43A11.26,11.26,0,0,1,86,116.8Zm11.48-29a45.25,45.25,0,0,1-2.59,4.93,112.6,112.6,0,0,1-6.3,9.51,13.2,13.2,0,0,0-1,1.42c-2.41,4.09-5.1,8-7.87,11.77-.61.83-1.16,1.73-1.74,2.58a57.87,57.87,0,0,1-7.19,8.24A68,68,0,0,1,65.1,131a7.49,7.49,0,0,1-1.43.87c-2,1-4,2-6,2.83a7.72,7.72,0,0,1-5.45.58,7,7,0,0,0-2-.19,25.55,25.55,0,0,1-11.91-3.5c-1.26-.72-2.5-1.46-3.76-2.17a6.62,6.62,0,0,1-2-1.78c-2-2.65-4.27-5.09-6.06-7.93-1.23-2-2.41-3.94-3.6-5.91-.66-1.09-1.29-2.2-1.93-3.3a27.33,27.33,0,0,1-1.67-3,93.54,93.54,0,0,0-5.06-9.93c-1.13-2-2.14-4.12-3.09-6.25a21,21,0,0,1-1.59-5.32c.14-.87.33-2,.48-2.93a5,5,0,0,1,2.56-2.51c2.24-1.11,3.14-3.17,3.37-5.65.11-1.18,0-2.37,0-3.55,0-.58,0-1.16.07-1.75.35-.2.62-.48.91-.51a22.39,22.39,0,0,0,3.87-.74,8.59,8.59,0,0,1,2.27-.23c2.07,0,4.15.12,6.23.16a8.45,8.45,0,0,1,2.58.42,16.69,16.69,0,0,0,2.86.74,10.37,10.37,0,0,0,2.61.06,4.78,4.78,0,0,0,1.51-.62.89.89,0,0,0,.17-1.23c-.5-.45-1-.91-1.53-1.32a10,10,0,0,1-2.42-2.86,5.53,5.53,0,0,1,1.11-7,2.65,2.65,0,0,1,.26-.21,37,37,0,0,1,6.5-4.1,33.22,33.22,0,0,1,8.83-2.55c4.23-.51,8.46-1.17,12.65-2a47.13,47.13,0,0,0,11.32-3.46.86.86,0,0,1,.32,0,4.09,4.09,0,0,1,.37.51c0,.08,0,.23,0,.34-1.28,4.15-1,8.41-.8,12.66a7.89,7.89,0,0,0,1.44,4.26A8,8,0,0,1,77.85,63c1.27,2.79,2.83,3.8,6.21,6.09.47.31,1,.55,1.45.83a11.82,11.82,0,0,1,5.43,7.24,29.35,29.35,0,0,1,1,6.26,4.75,4.75,0,0,0,.55,2.37,1.08,1.08,0,0,0,1.71.15,2.74,2.74,0,0,0,.39-.57c.9-2.4,2.27-4.58,3-7.06,0-.16.35-.23.53-.34.08,0,.2.08.22.14a14.73,14.73,0,0,1-.93,9.66Zm5.88-35a92.5,92.5,0,0,1-4.49,16.28C97.55,72.47,96,75.72,94.52,79c0,.09-.16.14-.29.25-.21-.24-.54-.45-.63-.74-.34-1.12-.57-2.28-.93-3.4a31.45,31.45,0,0,0-1.22-3.28,5,5,0,0,0-2-2.29c-1-.57-1.88-1.2-2.82-1.79-.76-.47-1.54-.91-2.31-1.36a7.77,7.77,0,0,1-3.49-4.08c-.21-.55-.46-1.07-.68-1.62a14.28,14.28,0,0,1-1.05-7.26,40.81,40.81,0,0,1,2.49-11c1-2.47,1.87-5.05,2.79-7.58a4.92,4.92,0,0,0,.27-3.49c-.26-.15-.56-.45-.83-.43a2.8,2.8,0,0,0-1.21.45,2.26,2.26,0,0,0-.7.74,9.56,9.56,0,0,0-.65,1.23,9.23,9.23,0,0,1-3.88,4.21,72.78,72.78,0,0,1-7.52,4.29,8.67,8.67,0,0,1-1.85.7c-3.66.7-7.32,1.39-11,2-1.4.22-2.84.16-4.26.26a28.06,28.06,0,0,0-10.19,2.43c-1.5.71-3,1.43-4.43,2.29a11,11,0,0,0-4.63,5.32c-.27.65-.51,1.31-.81,1.94a6.13,6.13,0,0,0-.6,2.74c0,1.28-.5,2.55-.12,3.86,0,0-.39.33-.51.27A8.27,8.27,0,0,1,27,58.34c-.17-.55-.2-1.15-.32-1.73-.2-1-1-1.29-1.73-.65a2.37,2.37,0,0,0-.46.49c-.17.3-.29.63-.47,1a14.19,14.19,0,0,0,2.5,5.67,2.63,2.63,0,0,1,.72,1.94,8.94,8.94,0,0,1-5.81-.67,8.74,8.74,0,0,1-4.23-4.27,6.4,6.4,0,0,1-.64-2.73c0-.46-.07-.93-.11-1.44-.26-.21-.5-.51-.78-.59a1,1,0,0,0-1.23.8,6.73,6.73,0,0,0-.13,1.41A11,11,0,0,0,16.5,63.4c.47.65,1,1.22,1.52,1.86.1.14,0,.42.07.72a7.74,7.74,0,0,1-6.86-1.3c-.62-.5-1.26-1-1.88-1.43A10.94,10.94,0,0,1,5.53,58.5,29.76,29.76,0,0,0,3.8,55.07a10.74,10.74,0,0,1-1.19-4.38,24.92,24.92,0,0,1,.61-8.08c.32-1.26.61-2.52.95-3.77a4.12,4.12,0,0,1,1.29-2c.84-.75,1.63-1.57,2.46-2.34a13.63,13.63,0,0,1,2-1.78,15.7,15.7,0,0,0,4.4-4.7c.4-.57.76-1.17,1.1-1.77a40.93,40.93,0,0,1,4.32-5.77,30.41,30.41,0,0,1,5-5,9.88,9.88,0,0,0,.74-.71c1-.88,1.81-2.12,3.06-2.65A42.68,42.68,0,0,1,35.39,9.4a35.73,35.73,0,0,1,9.77-.91c.76,0,1.52.17,2.28.28.54.09,1.07.22,1.61.31a12.68,12.68,0,0,0,8-1.06c2.07-1,4.25-1.85,6.35-2.86a15.64,15.64,0,0,1,6-1.69,21.58,21.58,0,0,1,4.24-.18A22.45,22.45,0,0,1,79,4.92a25.78,25.78,0,0,1,5.48,3.19,29.66,29.66,0,0,1,2.29,3.43,43.46,43.46,0,0,1,3,5.5,15.68,15.68,0,0,1,1.6,5.36c0,.35.1.7.17,1.11.33.68.74,1.39,1,2.15A9.19,9.19,0,0,0,96,29.83c.65.46,1.3.89,2,1.3a6.17,6.17,0,0,1,2.22,2.54A71.39,71.39,0,0,1,103,41.22c.53,3.84,1.46,7.68.34,11.58ZM50.14,104.13a6.26,6.26,0,0,1,3.38-.63,2.34,2.34,0,0,0,1-.18,3.16,3.16,0,0,0,1.94-1.77,1.44,1.44,0,0,0-.37-1.58,1,1,0,0,0-1.45,0c-.36.42-.69.86-1,1.29l-1.7-.83c-1.07.15-1.29,1.51-2.36,1.41l-1.27-1-1.9-.17a8.6,8.6,0,0,1-.74-3.92,29.29,29.29,0,0,0,.28-4.57c-.08-1.52-.41-3-.41-4.57,0-.82-.11-1.64-.18-2.47a6.54,6.54,0,0,0-1-3,31.37,31.37,0,0,0-2-2.8,10.08,10.08,0,0,0-3.1-2.57,17.52,17.52,0,0,0-6.54-2.12c-1.95-.22-3.9-.38-5.86-.55a4.59,4.59,0,0,0-1,0c-1.29.19-2.59.39-3.88.61a1.92,1.92,0,0,0-.6.28,1.7,1.7,0,0,0-.52,1.55,1.18,1.18,0,0,0,.91.91,8,8,0,0,0,1.63.08l5.56-.12a23.75,23.75,0,0,1,6.49.74,9.77,9.77,0,0,1,4.14,2,10.54,10.54,0,0,1,3.76,5.63,23.9,23.9,0,0,1,.63,9.81,17.35,17.35,0,0,0,.19,5.62,2,2,0,0,0,1.13,1.62,9.55,9.55,0,0,0,1.86.65c1,.23,1.91.39,3,.61ZM81.27,85.46A9.08,9.08,0,0,0,77.6,84a20.33,20.33,0,0,0-9.37.87,7.43,7.43,0,0,0-3.68,2.78c-.33.47-.6,1-.94,1.56A5.2,5.2,0,0,0,64,90.51a2.82,2.82,0,0,0,1,.9c1.48.86,3.16.79,4.75,1.14,2.5.55,5,.23,7.49.17a12.17,12.17,0,0,0,2.89-.59,4,4,0,0,0,2.18-1.46,2.68,2.68,0,0,0,.49-.91,3.94,3.94,0,0,0-1.5-4.3ZM70.41,90.05c0,.18-.26.34-.41.52a6.32,6.32,0,0,1-2.82-.67A1.66,1.66,0,0,1,66,88.31a4.83,4.83,0,0,1,3.08-2.25,2.92,2.92,0,0,1,1,.15,13.94,13.94,0,0,1,.36,3.84Zm10-.11a3.61,3.61,0,0,1-3.68.67,8.41,8.41,0,0,0,.93-3.4c0-.29.48-.53.76-.43a3.63,3.63,0,0,1,2.23,1.88,1.29,1.29,0,0,1-.24,1.28ZM37.2,86.42a38.71,38.71,0,0,0-4.72-1.34c-2.78-.84-5.4-.23-8,.7a6.48,6.48,0,0,0-1.69,1c-1.28,1-1.42,3.85.43,4.74,1.09.53,2.17,1.09,3.27,1.59a3.83,3.83,0,0,0,1.26.35,39.17,39.17,0,0,0,6.85.19,13.27,13.27,0,0,0,3.17-.79,2.73,2.73,0,0,0,1.93-2.19c0-.23.1-.45.16-.73a4.06,4.06,0,0,0-2.66-3.56Zm-9,3.14c-.2,1.86-.75,1.8-2.19,1.31a7.63,7.63,0,0,1-1.73-.93,1.39,1.39,0,0,1-.07-2.1,5.34,5.34,0,0,1,3.33-1.17c.28,0,.55.26.9.43-.09.85-.15,1.66-.24,2.46Zm9.2.9a3.43,3.43,0,0,1-2.61,1.11c-.28,0-.58-.2-.87-.31.27-1.17.39-2.34,1.31-3.18.62.39,1.2.72,1.73,1.11a1.28,1.28,0,0,1,.44,1.27ZM65.22,78.87a11.58,11.58,0,0,1,4.52-.62c.54,0,1.09,0,1.63,0a13.92,13.92,0,0,1,4.54.48c1.27.37,2.57.6,3.85.86a4.77,4.77,0,0,0,1.3.11,1.45,1.45,0,0,0,1.45-1.26,2.71,2.71,0,0,0-.46-.83,5.75,5.75,0,0,0-1.41-.88,33.15,33.15,0,0,0-7.06-1.36,30.1,30.1,0,0,0-4.25.18c-1.18.19-2.35.47-3.55.59a4.4,4.4,0,0,0-2.89,1.49.75.75,0,0,0,0,1,7,7,0,0,0,.78.7c.53-.13,1.06-.22,1.58-.4Zm-7.47,36.35c-1.53.38-3,0-4.56,0a13.44,13.44,0,0,1-2.57-.45c-.63-.14-1.25-.35-1.68-.47a6,6,0,0,0-2.67,1,1.4,1.4,0,0,0-.49,1.24,1.29,1.29,0,0,0,.68,1.12,4.13,4.13,0,0,0,1.24.42c2.15.38,4.3.74,6.72,1.15,1.12-.37,2.17-.69,3.21-1a8.06,8.06,0,0,0,1.18-.58,1.14,1.14,0,0,0,.09-1.79c-.34-.26-.82-.61-1.15-.53ZM78.6,99.34a1.72,1.72,0,0,0-.79,2.33,3.11,3.11,0,0,0,.54.86,1.2,1.2,0,0,0,1.49.14,1.83,1.83,0,0,0,.89-1.73,5.4,5.4,0,0,0-.08-.69,1.34,1.34,0,0,0-2.05-.91ZM38.21,43a2.72,2.72,0,0,0-2.5,0A7.72,7.72,0,0,0,32,46.71a2.51,2.51,0,0,0-.15.67c-.06.34.52,1,.84.91a1.57,1.57,0,0,0,.62-.14c1.38-.9,2.76-1.81,4.11-2.77a6.38,6.38,0,0,0,1.14-1.23,1.73,1.73,0,0,0,.13-.64c-.15-.16-.27-.38-.45-.47Zm-5.3-20.41C34,22.19,35,21.74,36,21.41a15.15,15.15,0,0,0,3.48-1.2c-.3-.31-.5-.69-.73-.71-1.39-.13-2.78-.19-4.13-.26-1.1.63-2.31.92-2.79,2.19a1.49,1.49,0,0,0,1.06,1.2ZM25.13,44.26c-.27-.14-.68-.3-.88-.18A4.07,4.07,0,0,0,23,45.21,14.56,14.56,0,0,0,21.32,49a5.08,5.08,0,0,0,.52.89.93.93,0,0,0,1.63-.25c.37-.71.74-1.42,1.1-2.14a7.7,7.7,0,0,0,.81-2.65.71.71,0,0,0-.25-.6Zm30.71-4.78a1.15,1.15,0,0,0-.63-.12c-.66.06-1.3.18-2,.26-1,.12-2,.21-2.93.35a1.1,1.1,0,0,0-.89.87,1.11,1.11,0,0,0,.86,1,10.23,10.23,0,0,0,4.85-.33,2.7,2.7,0,0,0,1-.87.77.77,0,0,0,.11-.63.92.92,0,0,0-.41-.5ZM12,42.88a7,7,0,0,0-2.07,5.34,2.2,2.2,0,0,0,.33,1,.75.75,0,0,0,.53.32.86.86,0,0,0,.55-.28,1.27,1.27,0,0,0,.31-.61A14.75,14.75,0,0,1,12.78,45a4.23,4.23,0,0,0,.43-1.33,2.7,2.7,0,0,0-.29-1c-.36.08-.77,0-1,.24ZM95.72,46.5a1.41,1.41,0,0,0-1,1,34.62,34.62,0,0,0-.48,3.5,3,3,0,0,0,.33,1.34,1,1,0,0,0,1.11.62,3.43,3.43,0,0,0,.49-.83,11.78,11.78,0,0,0,.14-4.91c0-.27-.42-.48-.63-.69ZM24.88,34.36c-.18-.12-.37-.33-.55-.33a4.5,4.5,0,0,0-1.6.15,8.92,8.92,0,0,0-3,2,1.17,1.17,0,0,0,.14,1.8c.15.13.4.12.77.22A25.44,25.44,0,0,0,24.71,35c.13-.13.12-.42.17-.64Zm45.32-.15a16.71,16.71,0,0,0-4.3,3,3.34,3.34,0,0,0,0,.79.78.78,0,0,0,1,.65A11.62,11.62,0,0,0,70.68,36,1.81,1.81,0,0,0,71,35a.82.82,0,0,0-.23-.61c-.13-.14-.43-.27-.57-.2ZM56.82,16.8c0-.66-.41-1-.83-.88-1.79.37-3.56.81-5.33,1.27-.32.08-.4.48-.29.94,2.44,1.24,4.48.08,6.45-1.33ZM34,31.82c-.1,0-.18.13-.28.18s-.51.72-.36.89a2,2,0,0,0,.75.57,1.62,1.62,0,0,0,.95,0,11.1,11.1,0,0,0,4.39-2.17c.12-.1.13-.36.19-.55a2.32,2.32,0,0,0-.61-.17,12.65,12.65,0,0,0-5,1.25Zm23.09-5.67a25.39,25.39,0,0,0-3.86,1.45c-.22.11-.25.72-.07.93a1.32,1.32,0,0,0,1.14.57,7.27,7.27,0,0,0,3.3-1.34c.08-.06.12-.19.18-.28a.79.79,0,0,0,0-.95,3.67,3.67,0,0,0-.67-.38ZM87.25,45.79a7,7,0,0,0,.86-3.33,2.71,2.71,0,0,0-.36-.91c-.84,0-1.29.22-1.42.59a10.48,10.48,0,0,0-.68,3,1.06,1.06,0,0,0,.77,1,.79.79,0,0,0,.83-.38Zm-1,10.93A2.24,2.24,0,0,0,85.92,58a6.59,6.59,0,0,0,1.67,3.29c.23.24.46.26.83-.09.14-.13.16-.4.25-.69l-1.61-4.19c-.33.14-.72.18-.83.39ZM83,19.55A21,21,0,0,0,81,21.79a5.25,5.25,0,0,0-.59,1.6c-.09.3.33.73.6.64a1.71,1.71,0,0,0,.6-.21,6.68,6.68,0,0,0,2-2.69,3.25,3.25,0,0,0,.25-1,.72.72,0,0,0-.26-.58.57.57,0,0,0-.58,0ZM72,21.56c-.19-.06-.46-.15-.59-.06a14.48,14.48,0,0,0-3.14,2.77c0,.55.24.81.56.79a15.6,15.6,0,0,0,1.73-.31,6,6,0,0,0,1.7-2.29c.13-.26,0-.82-.26-.9ZM91.31,32.77c-.42-.31-.8-.07-1.1.33a2.45,2.45,0,0,0,1,2.41,3.72,3.72,0,0,0,1.95,1.1,1.07,1.07,0,0,0,.25-1.25,6,6,0,0,0-2.07-2.59ZM72.45,12a3.66,3.66,0,0,0-3.1,1.54.88.88,0,0,0,0,1,4.08,4.08,0,0,0,.66.39,5.18,5.18,0,0,0,3-1.69,1.16,1.16,0,0,0,.15-.65c0-.26-.44-.56-.72-.56ZM94.84,63.72a.85.85,0,0,0-.48.45,5.8,5.8,0,0,0-.11,3.18c.22.2.47.41.76.65.26-.24.65-.42.73-.69a3.91,3.91,0,0,0-.39-3.38.58.58,0,0,0-.51-.21Z"/></g></g></svg>