<svg xmlns="http://www.w3.org/2000/svg" viewBox="0 0 155.75 151.33"><defs><style>.cls-1{fill:#26315E;}</style></defs><title>lisa</title><g id="Layer_2" data-name="Layer 2"><g id="Layer_1-2" data-name="Layer 1"><path class="cls-1" d="M154.3,122.86a16.9,16.9,0,0,1-2.42-1.74A24.41,24.41,0,0,1,145,109.9c-.31-1.19-.77-2.34-1.18-3.5-.82-2.32-1.67-4.63-2.48-7A11.44,11.44,0,0,1,141,98c-.69-3.37-.9-6.81-1.58-10.19-.43-2.16-.61-4.38-.91-6.57s-.5-4.41-.95-6.58a23,23,0,0,1-.58-5.48,8,8,0,0,0-.09-1.84c-.62-3.27-.53-6.63-1.29-9.88-.63-2.63-1-5.32-1.68-7.94s-1.63-5.42-2.43-8.13A29.46,29.46,0,0,1,130,33.09,3.37,3.37,0,0,1,131,30.43c.18-.16.37-.33.57-.48a15.47,15.47,0,0,0,5-6.8c.52-1.25,1-2.51,1.56-3.76a7.47,7.47,0,0,0,.6-3.61c-.1-1.47-.24-2.93-.34-4.16a32.34,32.34,0,0,0-3.55-6.36,9.93,9.93,0,0,0-3.68-3.07c-1.11-.58-2.27-1-3.42-1.55A6.94,6.94,0,0,0,123,.26c-.84.23-1.71.37-2.55.61a10.42,10.42,0,0,0-3.75,1.65c-.87.69-1.84,1.27-2.75,1.92s-2,1.47-3,2.24c-.61-.26-1.18-.49-1.74-.75a28.26,28.26,0,0,0-4.39-2.07C101.9,3.07,99,2.06,96,2.14A8.4,8.4,0,0,1,94.1,2c-2-.41-4-.44-6-.73a20.34,20.34,0,0,0-7.46-.09A46.67,46.67,0,0,0,71,1.93c-2.2.4-4.47.55-6.7.87A17.16,17.16,0,0,0,59.9,3.91a60.07,60.07,0,0,0-9.1,4.4l-4.74,3a2.4,2.4,0,0,1-1.85.41,4.26,4.26,0,0,1-.69-.76,13.31,13.31,0,0,0-4.71-4.69c-1.17-.71-2.33-1.44-3.49-2.17a7.18,7.18,0,0,0-4.68-1c-2.11.26-4.21.66-6.29,1.08A7.53,7.53,0,0,0,19,8.36c-.5,1-1,2-1.48,3-1.44,3.27-2,6.58-.48,10,.4.9.66,1.86,1,2.77a8.22,8.22,0,0,0,2.12,3,24.54,24.54,0,0,0,6,4.45,14.7,14.7,0,0,1,1.42.88A2.64,2.64,0,0,1,28,34.73c-.38,1.8-.73,3.62-1.24,5.39-.68,2.37-1,4.81-1.62,7.19a46.57,46.57,0,0,0-1.81,9.78A7.51,7.51,0,0,1,23,58.9a62.83,62.83,0,0,0-1.7,10.19,75.69,75.69,0,0,1-1.66,9.07c-.29,1.19-.54,2.4-.79,3.6a68.08,68.08,0,0,1-2.5,10c-.82,2.19-1.72,4.36-2.67,6.5a74.57,74.57,0,0,1-6.51,12.46A63.9,63.9,0,0,1,.82,119a2.83,2.83,0,0,0-.45,3.41,9.22,9.22,0,0,0,2.13,3,24,24,0,0,0,8.18,5.11c1.64.6,3.34,1.07,5,1.53s3.65.91,5.47,1.37c.36.09.71.22,1.07.33a1.09,1.09,0,0,1,.46.94,72.62,72.62,0,0,0-2.14,7.06c-.33,1.29,1.17,2.15,2.06,2a3,3,0,0,0,.72-.16c3.14-1.25,6.27-2.5,9.4-3.78a13.44,13.44,0,0,0,2-1.08,1.77,1.77,0,0,0,.65-2,2.38,2.38,0,0,0-1.09-1.45,8.5,8.5,0,0,0-1-.41c-1.74-.7-3.48-1.4-5.21-2.12a1.33,1.33,0,0,1-.74-1.83c.49-1.13,1-2.25,1.54-3.36a2.22,2.22,0,0,1,2.09-1.33,48.2,48.2,0,0,0,7.1-.79,1.63,1.63,0,0,0,1-2.38,10,10,0,0,0-1.46-1.66c-.92-.82-1.91-1.57-2.88-2.36a2.94,2.94,0,0,1,.21-1.12c.76-1.12,1.64-2.18,2.41-3.3a15.16,15.16,0,0,1,2.75-3,1.78,1.78,0,0,1,1.29-.61c2.23,1.38,2.23,1.38,2.91,2.62-.2.64-.79.92-1.27,1.3-.88.69-1.79,1.34-2.66,2a1.3,1.3,0,0,0-.42,1.32l2.64,3.13c.88,1,1.77,2.07,2.66,3.11a4.49,4.49,0,0,0,.78.79,1.82,1.82,0,0,0,1,.39c.33,0,.64-.31.94-.46.69-2,1.36-4,2.08-6,.11-.3.48-.5.74-.76a8.07,8.07,0,0,1,1.06.52A26.71,26.71,0,0,0,59,122.89a15.36,15.36,0,0,1,1.72.74c2.6,1.26,5.58,1.34,8.21,2.53a2.93,2.93,0,0,0,1.11.15c2.76.13,5.48.67,8.25.6.22,0,.45.18.74.31,1.56,1.67,2.74,3.72,4.17,5.41a1.45,1.45,0,0,0,1.44-.64c1.1-1.64,2.15-3.32,3.23-5a5.81,5.81,0,0,1,1.63-2c4-1.24,7.83-2.65,11.17-5.17.59-.44,1.18-.9,1.81-1.31,1.15-.73,2.32-1.45,3.5-2.13.16-.1.45,0,.7,0a3.54,3.54,0,0,1,.79,1.64,11.78,11.78,0,0,0,1.46,3,1.15,1.15,0,0,0,1.9.11c.52-.54,1-1.1,1.46-1.68,1-1.26,2-2.56,3-3.8.19-.22.63-.23,1.06-.38.43.68.87,1.28,1.22,1.91a21.66,21.66,0,0,1,1,2,1.85,1.85,0,0,1,0,1.66c-1.16,1.12-2.41,2.49-3.86,3.68a6.93,6.93,0,0,0-1.21,1.38,1.24,1.24,0,0,0,.76,2,22.81,22.81,0,0,0,3,.41,8.56,8.56,0,0,1,5.58,2.36,59.22,59.22,0,0,1,2,5.74,8.87,8.87,0,0,1,.22,1.46,3.44,3.44,0,0,1-.75,2.76c-1.58,2.07-3.11,4.17-4.65,6.26a12.1,12.1,0,0,0-1,1.58,1.43,1.43,0,0,0,.13,1.41,1.29,1.29,0,0,0,1.24.65,4.58,4.58,0,0,0,1.12-.13,28.1,28.1,0,0,1,6.62-1.28c1.89-.16,2.39-.8,2.25-2.65-.07-1-.24-1.95-.36-2.93a3.73,3.73,0,0,1,.07-2.13c.91-.3,1.75-.54,2.56-.84a27,27,0,0,0,2.78-1.14A23.35,23.35,0,0,1,139,138a28.56,28.56,0,0,0,10.14-5.48c.66-.56,1.42-1,2.07-1.59,1.29-1.16,2.61-2.31,3.78-3.58a2.89,2.89,0,0,0-.66-4.47ZM131.79,79.31c-.26,1.57-.4,3.17-.66,4.75a9.78,9.78,0,0,1-2.08,4.68,18.07,18.07,0,0,0-1.13,1.48,13.75,13.75,0,0,1-3.75,3.58c-1.12.78-2.2,1.63-3.33,2.41a6.21,6.21,0,0,0-2.14,2.52,36.06,36.06,0,0,1-6.11,8.36c-.59.64-1.22,1.25-1.77,1.91a20.08,20.08,0,0,1-3.87,3.49c-2,1.44-4.07,2.87-6.08,4.34a40.11,40.11,0,0,1-11.07,5.42,35.43,35.43,0,0,1-6.58,1.5,64.78,64.78,0,0,1-7.51.34c-2,0-4-.16-6.33-.26a26.78,26.78,0,0,0-5.77-1.92,32.71,32.71,0,0,1-7-2.64A12.52,12.52,0,0,1,54.76,118a17.67,17.67,0,0,0-1.47-1.15,25.07,25.07,0,0,1-6.38-5.67c-1.58-1.75-3.12-3.54-4.6-5.37-1.32-1.63-2.55-3.35-3.82-5a15,15,0,0,1-2.31-4.22c-.56-1.66-1.59-3.06-2.21-4.54-1.71-1.3-3.3-2.5-4.87-3.73A5.74,5.74,0,0,1,27.78,87a12.28,12.28,0,0,1-2.2-8.75,4.85,4.85,0,0,1,1.64-2.83,3.31,3.31,0,0,1,3.16-.74,9.11,9.11,0,0,1,3.27,1.76c.3.22.33.2,1.53.13a4,4,0,0,0,.4-1.33,21.35,21.35,0,0,0-.39-3.67A25,25,0,0,1,35,62.08c.15-1,.31-1.95.41-2.93A23.51,23.51,0,0,1,39,48.7c1.25-1,2.52-2,3.83-2.93A15.77,15.77,0,0,1,45,44.4a36.62,36.62,0,0,1,8-3.09c3.05-.72,6-1.87,9-2.76,2.16-.65,4.3-1.36,6.47-1.95A76,76,0,0,0,78,33.15a83.73,83.73,0,0,0,8.11-3.88,73.87,73.87,0,0,0,8.12-5.35,4.07,4.07,0,0,1,1.68-1,3.86,3.86,0,0,1,.8.58,11.53,11.53,0,0,1,.78,1.26,23.6,23.6,0,0,0,5.77,6.27c3.51,2.58,6.9,5.31,10.64,7.58a16.31,16.31,0,0,1,3.93,3.41,33.35,33.35,0,0,1,5.67,8.67,31.37,31.37,0,0,1,2,7.48,58.69,58.69,0,0,1,1.17,9.88,12.72,12.72,0,0,0,.17,1.84,5.05,5.05,0,0,0,2.11,3.76,7,7,0,0,1,1.14.95,5.27,5.27,0,0,1,1.71,4.68ZM88.15,142a3.37,3.37,0,0,0-.26-1.18A69.49,69.49,0,0,1,80,136a7.61,7.61,0,0,0-1.35-.64,2.46,2.46,0,0,0-2.77.55,16.19,16.19,0,0,0-1.17,1.43,97.1,97.1,0,0,1-6.39,8.18,3.3,3.3,0,0,0-.38.63,1.24,1.24,0,0,0,.59,1.55,2.58,2.58,0,0,0,1.82.25q3.08-.85,6.12-1.77c1.32-.4,2.6-.9,3.93-1.23,1.58-.38,3.18-.69,4.78-.92a5.53,5.53,0,0,0,2.35-1.09,1.63,1.63,0,0,0,.61-.88ZM71,134.78a1.32,1.32,0,0,0,.22-1.94c-2.14-2-4.31-4.05-6.47-6.06a3.65,3.65,0,0,0-.62-.4,1.73,1.73,0,0,0-2,.38,30.58,30.58,0,0,1-1.8,2.77c-2.17,2.6-3.34,5.7-4.82,8.65a4,4,0,0,0-.33,1.42c0,.52.22.93,1.12,1.28,1.63-.61,3.28-1.15,4.86-1.86,2.73-1.2,5.45-2.39,8.29-3.32a6.51,6.51,0,0,0,1.59-.92Zm46.3,6.08c-1.05-2-2.1-3.91-3.17-5.85a13.45,13.45,0,0,0-1.19-1.87,2.32,2.32,0,0,0-2.26-1c-1.24,1.61-2.51,3.13-3.62,4.75s-2,3.14-2.86,4.75a1.57,1.57,0,0,0,1.52,2.3,14.35,14.35,0,0,0,3.35-.2,22.43,22.43,0,0,1,5.23-.4,20.84,20.84,0,0,0,2.23-.13,1.41,1.41,0,0,0,1-1.69,5.07,5.07,0,0,0-.27-.68Zm-17.11,6.34c-1.08-1.36-2.18-2.7-3.26-4-.47-.58-.88-1.2-1.36-1.76a2.19,2.19,0,0,0-2.76-.19,3.23,3.23,0,0,0-.56.48c-2,2.52-4,5-6,7.56a1.39,1.39,0,0,0,1,2,10.6,10.6,0,0,0,1.86.1c2.87-.22,5.74-.44,8.6-.75a27.18,27.18,0,0,0,3.24-.79,4.92,4.92,0,0,0,0-1.32,4.55,4.55,0,0,0-.73-1.26Zm-4-12a12,12,0,0,0,1.32-.44,31.86,31.86,0,0,1,7.45-2.31c.62-.11,1.22-.27,1.82-.43a1.11,1.11,0,0,0,.61-1.49,5.71,5.71,0,0,0-2-2.16,27.31,27.31,0,0,1-3.67-3.11,18,18,0,0,0-1.35-1.27,5.64,5.64,0,0,0-.95-.56,1.29,1.29,0,0,0-1.37.29,5.66,5.66,0,0,0-.53,1c-.77,2.45-1.56,4.9-2.27,7.36a7.27,7.27,0,0,0-.14,2.19c0,.54.43.83,1.06,1Zm-46.07-5.15a37.46,37.46,0,0,0-4.07-.65c-2.24-.14-4.49-.15-6.74-.15-.67,0-1.12.47-1.36,1.27a15.89,15.89,0,0,0,.69,2.33,27,27,0,0,1,1.72,5.24,8.26,8.26,0,0,0,.74,1.67,1,1,0,0,0,1.32.21,3.3,3.3,0,0,0,.3-.22,59.42,59.42,0,0,1,6.12-6,13.1,13.1,0,0,0,1.47-1.67,5.44,5.44,0,0,0,.39-.62,1,1,0,0,0-.58-1.45ZM70.56,95.34a3,3,0,0,0,3.81,0c.16-.12.47-.06.75-.09l1.88,1c1.1-.53,1.1-.53,1.18-1.7a19.32,19.32,0,0,0-2.88-2.16,1.79,1.79,0,0,0-.49-.08l-2,1.35c-1-.09-1.28-1.33-2.47-1.25l-1.58.84c-.25-.18-.75-.34-.8-.59-.39-2-.79-4.1-1-6.16a48.24,48.24,0,0,0-1.71-7.91,8.8,8.8,0,0,0-2.81-4.29,19.74,19.74,0,0,0-6-3.89,4.92,4.92,0,0,0-3.63-2.84,15.53,15.53,0,0,0-4.07-.54c-2.28,0-4.45.66-6.68.93a2.43,2.43,0,0,0-.68.31,1.64,1.64,0,0,0-.68,1.92,3,3,0,0,0,1.5,1.59,10.7,10.7,0,0,0,1.76.59,16.21,16.21,0,0,0,2.6.16,18.92,18.92,0,0,0,6-.2,5.83,5.83,0,0,1,3.31.39,12.44,12.44,0,0,1,3.6,2,22.83,22.83,0,0,1,3.46,3.11c1,2.6,1,5.24,1.85,7.67a2.31,2.31,0,0,1,0,.37c.24,2.07.49,4.14.69,6.22a5.49,5.49,0,0,0,1,2.73,2,2,0,0,0,1.55,1l1.86-.58a3.59,3.59,0,0,1,.62.16Zm38.59-15.2a5.86,5.86,0,0,0-3.53-1,41.84,41.84,0,0,0-6.32.69A11,11,0,0,0,95.78,81a4,4,0,0,0-2,2.55A1.51,1.51,0,0,0,94.1,85a4.68,4.68,0,0,0,3.49,1.92,59.46,59.46,0,0,0,6,.1,16.76,16.76,0,0,0,6.4-1.9,2.9,2.9,0,0,0,1.43-1.64,2.19,2.19,0,0,0-.43-2.13c-.57-.36-1.21-.74-1.81-1.17Zm-9.3,3.14c-.17.68-.16,1.47-1,1.94a3.55,3.55,0,0,1-3.1-1.58c.21-.3.34-.7.62-.85a10.72,10.72,0,0,1,2.06-.8c1.12-.33,1.68.19,1.41,1.29Zm8.88.66a2.81,2.81,0,0,1-2.11.48c-.11,0-.19-.15-.38-.31a15.09,15.09,0,0,1-.33-1.7.68.68,0,0,1,.4-.53,4.26,4.26,0,0,1,2.57.21c.32.12.54.48.77.69a1.55,1.55,0,0,1-.92,1.16ZM51,78.22c-3.62.28-7.14.94-10.16,3.15a6.64,6.64,0,0,0-.39,1,1.83,1.83,0,0,0,1.1,2.08,8.22,8.22,0,0,0,1.06.35,38.48,38.48,0,0,0,6.87,1.09c1.08-.19,2.06-.32,3-.53a13.19,13.19,0,0,0,3.87-1.3,3.1,3.1,0,0,0,1.37-1.42,6.68,6.68,0,0,0-1.9-3.56c-2.61-.91-3-1-4.85-.9Zm-5.57,5.59A5.11,5.11,0,0,1,42.67,83c-.14-.11-.13-.42-.13-.64s.13-.23.23-.28a10.24,10.24,0,0,1,3.44-1.13c.12.1.29.19.29.27a4.64,4.64,0,0,1-1,2.6Zm7.17-.13c-.73-1-.73-1.34,0-2.52,1.11,0,2.21-.09,2.84,1.12-.64,1.1-1.74,1.24-2.82,1.4ZM94,73.59a5.8,5.8,0,0,0,.69.27,24.5,24.5,0,0,0,8.23.38,12.09,12.09,0,0,0,5.69-1.71,2.6,2.6,0,0,0,1.36-2.09,1.57,1.57,0,0,0-1-1A17.75,17.75,0,0,0,94.49,71a4.11,4.11,0,0,0-.85.72A1.32,1.32,0,0,0,94,73.59Zm-14.69,33a6.31,6.31,0,0,0-1.19-.06l-2.91,2.12c-.61-.44-1-.76-1.42-1a6.78,6.78,0,0,0-1.32-.66,2.26,2.26,0,0,0-2.41.59,2,2,0,0,0-.4,2.37,6.7,6.7,0,0,0,2.5,3.14c.72.48,1.42,1,2.14,1.49a2.72,2.72,0,0,0,3.45-.28,11.63,11.63,0,0,0,2.74-3.92,3.73,3.73,0,0,0,.08-2.53,1.74,1.74,0,0,0-1.26-1.25Zm45.39-21.79a2.3,2.3,0,0,0-2.4,2.26c-.11,1.09,1.06,2.12,2.48,2.23a2.35,2.35,0,0,0,2.22-2,2.56,2.56,0,0,0-2.3-2.44ZM34,84.32c-1.32-1.33-2.81-1-3.45.72a1.61,1.61,0,0,0,0,1,2.5,2.5,0,0,0,1.89,1.59,1.25,1.25,0,0,0,.72,0,2.36,2.36,0,0,0,1.39-2,4,4,0,0,0-.17-.72,2.19,2.19,0,0,0-.42-.59Z"/></g></g></svg>