<svg xmlns="http://www.w3.org/2000/svg" viewBox="0 0 119.56 175.36"><defs><style>.cls-1{fill:#26315E;}</style></defs><title>laura</title><g id="Layer_2" data-name="Layer 2"><g id="Layer_1-2" data-name="Layer 1"><path class="cls-1" d="M2.64,160.77c.78-2.43,1.47-4.9,2.31-7.32a11.46,11.46,0,0,0,.28-6.06,22.55,22.55,0,0,1-.51-3c-.12-2.69-.23-5.38-.19-8.07.06-3.59.06-7.18-.06-10.77-.09-2.43-.23-4.86-.37-7.29-.51-8.84-.12-17.69-.3-26.54a4.93,4.93,0,0,1,0-.77c.28-2.41.71-4.82.24-7.25.48-2.14,0-4.35.49-6.49a12.6,12.6,0,0,0,.18-2.3A73.82,73.82,0,0,1,5.94,64.19a2.24,2.24,0,0,0-.14-.73C2.63,62.05,2.63,62.05,1,60.34.91,59.94.77,59.45.62,59a10.59,10.59,0,0,1-.1-6.81A5.23,5.23,0,0,0,.71,51c.51-3.31,2.32-5.94,4.46-8.36a15.43,15.43,0,0,1,6.44-4.07q5.25-1.94,10.51-3.76a26.93,26.93,0,0,1,5.61-1.32c.89-.11,1.78-.28,2.65-.45a129.21,129.21,0,0,1,13-1.74c4-.36,8-.19,11.93-.6.25,0,.51,0,.77,0,5.52-.05,11-.12,16.56-.16a26.56,26.56,0,0,1,3.46.1c3.06.38,6.13.73,9.15,1.29s6.35.86,9.49,1.54a44.28,44.28,0,0,1,10.59,3.42c1,.52,2,1.07,3.11,1.53a19.68,19.68,0,0,1,4.52,2.8l1.84,2.52a21.56,21.56,0,0,1,2.83,5.45,10.91,10.91,0,0,1,.59,4.15,6.56,6.56,0,0,1-1,3.26A12.61,12.61,0,0,1,112.69,61a10.08,10.08,0,0,0,.15,3.73,151,151,0,0,1,2.1,16.4c.45,5.1.91,10.21,1.28,15.32a21.41,21.41,0,0,1-.13,4.6,34.64,34.64,0,0,0-.27,5.38c0,2.43.1,4.87.1,7.31,0,1.66-.2,3.33-.13,5,.28,6.44-.7,12.79-1.2,19.18-.1,1.28-.3,2.55-.35,3.83a25.42,25.42,0,0,1-.74,6.08,6.4,6.4,0,0,0,.32,4.52c1.66,3.65,2.36,7.57,3.44,11.38a70,70,0,0,0,2.14,7.78,3.81,3.81,0,0,1,.16,1.13,1.94,1.94,0,0,1-.93,1.59,16.7,16.7,0,0,1-5.23,1.15c-4.61,0-9.25.25-14-1.15l-7.54-5a14.37,14.37,0,0,0-2.26.14,45.61,45.61,0,0,1-6.9.62,2.28,2.28,0,0,1-2.64-2.53c0-.77.17-1.53.16-2.3a1.37,1.37,0,0,0-.79-1.23,7.38,7.38,0,0,0-5.22-.71,41.26,41.26,0,0,0-9,3.35c-2.3,1.14-4.62,2.22-6.93,3.34a15.71,15.71,0,0,1-4.8,1.34A17.3,17.3,0,0,1,43,169.62c-1.7-.89-3.4-1.77-5.06-2.72a.66.66,0,0,0-.62.22,10.42,10.42,0,0,0-.33,1.47,2.4,2.4,0,0,1-2.45,2,7.47,7.47,0,0,1-1.14-.17c-2-.47-4-.95-6-1.44a13.17,13.17,0,0,0-1.85-.52,22.19,22.19,0,0,1-5.23-1.26,10.43,10.43,0,0,0-6.44-.19c-1.1.3-2.19.7-3.28,1.08a13.1,13.1,0,0,1-2.15.81,12.5,12.5,0,0,0-4.22,1.81c-.67.37-1.29.84-2,1.2a3.74,3.74,0,0,1-1.12.26,1.14,1.14,0,0,1-1-.93,4.8,4.8,0,0,1,0-1.14c.8-3.1,1.48-6.23,2.47-9.29ZM110.83,165c1.24.9,2.5,1.75,3.78,2.59a10.3,10.3,0,0,0,1.25.62,1.06,1.06,0,0,0,.63-1.33c-.29-1.37-.58-2.74-1-4.07-.67-2.19-1.43-4.34-2.18-6.5-.07-.2-.29-.35-.44-.53-.76.78-.75.78-1.72,4.08-.4,1.34-.84,2.66-1.31,4.12a7.22,7.22,0,0,0,1,1ZM35.1,143.71a9.31,9.31,0,0,0,.9,2.11c.79,1.46,1.66,2.89,2.48,4.33A11.15,11.15,0,0,0,44,154.77a4.83,4.83,0,0,0,2.24.44,22.3,22.3,0,0,0,10.28-2.75A7.23,7.23,0,0,0,58,151.35c2.92-2.78,6.47-4.56,10.08-6.23a13.14,13.14,0,0,1,8.25-1,11.76,11.76,0,0,1,3.91,1.5c1.2.73,2.43,1.42,3.65,2.11a1.42,1.42,0,0,0,.48,0,5.7,5.7,0,0,0,.43-.93c.59-2.22,1.19-4.44,1.73-6.68a13.15,13.15,0,0,0,.19-1.92,7.16,7.16,0,0,0-5.29-2.78,6.7,6.7,0,0,0-3,.15,3.58,3.58,0,0,1-1.13.2c-3.48.11-6.81,1.15-10.21,1.74a11.15,11.15,0,0,0-2.51.92,19.12,19.12,0,0,1-4.38,1.4,23.08,23.08,0,0,0-3.29,1A19.34,19.34,0,0,1,51.25,142a27,27,0,0,1-3.81-.27,26.31,26.31,0,0,1-9-3.09c-1-.54-1.82-1.39-2.79-2a5.58,5.58,0,0,0-1-.46c-.1,0-.24,0-.42,0A5,5,0,0,0,34,137.3a30.24,30.24,0,0,0,1.14,6.41Zm54.55-25.9a4.36,4.36,0,0,0,.29-.56A43.12,43.12,0,0,0,92.72,103c.08-2.29.37-4.58.49-6.87a4.69,4.69,0,0,0-.37-3,3.42,3.42,0,0,0-1.06.25c-.88.52-1.72,1.12-2.59,1.66-3,1.87-6.28,2.09-9.65,1.66a4.82,4.82,0,0,1-2.1-.88,50.3,50.3,0,0,1-4.22-3.34,7.85,7.85,0,0,1-1.59-2.14c-.66-1.23-1.19-2.54-1.79-3.83a4.43,4.43,0,0,0-2.79-.93,1.26,1.26,0,0,0-.5,1.37,36.83,36.83,0,0,1,.29,5.35c.14,1.79.24,3.58.36,5.37a4.62,4.62,0,0,1-1.06,3.21,1.43,1.43,0,0,1-1.73.33,6.68,6.68,0,0,1-.89-.72c-.27-.26-.46-.61-.75-.86a2.52,2.52,0,0,0-.75-.32c-.45.4-.89.86-1.41,1.24a3.82,3.82,0,0,1-1.33.68c-.71.17-1.15-.41-1.62-.83-.1-.08-.22-.14-.34-.22-.93-.37-1.69.44-2.58.41a1.94,1.94,0,0,1-1.4-.49c-.48-.47-.43-1.43.12-1.63,1-.35,1.92-.68,2.88-1a3.09,3.09,0,0,1,.54,0L59,98.89a3.89,3.89,0,0,0,.94-.66c.37-.52.59-1.13.91-1.68a1.16,1.16,0,0,1,1.69-.21c.58.5,1.12,1,1.72,1.52.13.1.45,0,.66-.1s.17-.19.22-.31a.8.8,0,0,0,.08-.37c-.44-3.31-.14-6.65-.37-10a5.79,5.79,0,0,0-.22-1.5,2.79,2.79,0,0,0-.71-.84.63.63,0,0,0-.36-.13,20.49,20.49,0,0,0-10.7.81,11,11,0,0,0-1.59,3.82,21,21,0,0,1-1.53,3.5,9.33,9.33,0,0,1-5.15,4.41,15.25,15.25,0,0,1-5.25,1,14,14,0,0,1-6.66-1.59c-1.41-.89-2.3-2.39-3.73-3.29-.09.29-.26.55-.22.77.84,4.14,1.46,8.31,2,12.5.14,1,.19,2,.3,3.06a7.81,7.81,0,0,0,1.13,3.23A57.1,57.1,0,0,0,41,124.52c.72.71,1.25,1.63,2,2.31,1.33,1.21,2.74,2.31,4.13,3.45a5.47,5.47,0,0,0,.63.44,79.38,79.38,0,0,0,7.39,4.1,11.09,11.09,0,0,0,4.46,1,39.5,39.5,0,0,0,7.28-.57A20.26,20.26,0,0,0,73,133c1.89-1.07,3.74-2.23,5.57-3.39a8.92,8.92,0,0,0,1.76-1.48c2.25-2.46,4.46-4.94,6.69-7.41l2.67-3Zm-2,5.58c1.82.37,2.24.16,2.48-1.09.09-.46.21-.94-.27-1.32-.92.49-1.32,1.45-2.21,2.41ZM49,71.19a8.79,8.79,0,0,1-1.15,0c-2.28-.35-4.55-.76-6.84-1a14.14,14.14,0,0,0-3.44,0c-2.16.27-4.3.58-6.47.76a7.07,7.07,0,0,0-4.4,1.81,5.42,5.42,0,0,0,.06,3.9c.08.2.37.32.56.48a6.53,6.53,0,0,0,2.31-2A6.35,6.35,0,0,1,34,72.93c2.69-.16,5.41-.31,8,.58,3.2,1.09,6.14,2.58,8,5.61.53.86,1.2,1.65,1.94,2.65,2.19-.39,4.07-.81,6-1s3.57-.22,5.36-.31a1.29,1.29,0,0,0,.76-.77,6.56,6.56,0,0,0,.09-.76,7.36,7.36,0,0,0,0-1.15,12.58,12.58,0,0,1,.5-5.31,31.93,31.93,0,0,0,.71-3.58A10,10,0,0,1,71.27,66c2.81-.26,5.62-.56,8.42-.76,2.55-.19,5.13,0,7.7,0,1.78,0,3.57.16,5.44.25a3,3,0,0,0,.4-1A4.83,4.83,0,0,0,93,63c-.46-1.46-1-2.91-1.38-4.21a2.81,2.81,0,0,0-2.07-1.21,24.14,24.14,0,0,0-2.68-.19c-1.41,0-2.82,0-4.23-.06a48.19,48.19,0,0,0-5.75.42c-2,.17-4.08.44-6.11.73a21.19,21.19,0,0,1-5,0c-2.42-.24-4.87-.1-7.3-.17-3.2-.09-6.41-.14-9.6-.38a32.12,32.12,0,0,0-4.6,0,57.43,57.43,0,0,1-6.15.19c-3.66-.1-7.09,1-10.56,1.84A2.14,2.14,0,0,0,26,61.84a10.83,10.83,0,0,0,.13,4.57,2.39,2.39,0,0,0,.4.63,2.34,2.34,0,0,0,1.85.15,55.61,55.61,0,0,1,11.88-.71c1,0,2.06,0,3.08.08,1.4.11,2.81.23,4.2.45,1.86.29,2.55,1.23,2.5,3.2a1.17,1.17,0,0,1-1,1Zm44-.58c-2.26-.47-4.53-.91-6.79-1.34a13.16,13.16,0,0,0-1.54-.15,75.12,75.12,0,0,0-14.22.6A4.89,4.89,0,0,0,66.47,73a8.91,8.91,0,0,0-.57,5.27,21.25,21.25,0,0,0,.64,2.2,3.92,3.92,0,0,0,2.93.73,1.76,1.76,0,0,0,.8-1.27,8.16,8.16,0,0,1,5-5.52c.58-.26,1.16-.53,1.75-.78A13.27,13.27,0,0,1,88.5,74a17,17,0,0,1,4.78,3.13c.19.2.53,0,.59-.22A20.42,20.42,0,0,0,94,71.14a5.18,5.18,0,0,0-1-.53Zm-60.55,48a1.6,1.6,0,0,0,.72,1.27c.47.39.93.79,1.6.63a.19.19,0,0,0,0,.07l.16.1a2.44,2.44,0,0,0,.1.24c0-.06,0-.15,0-.18l-.08-.06-.09-.17a.27.27,0,0,1-.09,0,5.34,5.34,0,0,0-1.38-2.18c-.14-.18-.42-.25-.63-.38a2.08,2.08,0,0,0-.31.66Zm-24.52.57c.06,2.69,0,5.39,0,8.08s.18,5.39,0,8.07c-.25,4.52.44,9,.72,13.43a8.53,8.53,0,0,0,.27,1.51c.41,1.62.85,3.23,1.27,4.84a11.05,11.05,0,0,0,1.48,3.1A9.17,9.17,0,0,0,16,161.81a72.68,72.68,0,0,0,15.8,4.76,1.58,1.58,0,0,0,1.71-.61.91.91,0,0,0,.09-.36c-.23-2-.48-4.06-.72-6.1-.1-.89-.25-1.78-.3-2.67A104.18,104.18,0,0,0,31.13,145a119.38,119.38,0,0,1-1.62-15.68c-.1-3.08-.3-6.14-.7-9.2s-.58-6.13-.89-9.19c-.36-3.57-.72-7.15-1.15-10.71-.31-2.55-.75-5.07-1.1-7.61-.27-2-.5-4.07-.74-6.11q-.49-4.2-1-8.4c-.09-.76-.23-1.52-.34-2.28q-.89-6.28-1.21-12.62c0-.26,0-.52,0-.77,0-3.53.09-3.53,3.49-5.13a17.91,17.91,0,0,1,5.58-1.42,132.11,132.11,0,0,1,20.38-.8c4.36.17,8.73,0,13.1,0,.64,0,1.29-.05,1.92,0a72,72,0,0,0,13.45-.52c.9-.09,1.8-.18,2.69-.21,1.67-.06,3.34,0,5-.14s3.14,1.05,4.67,1.09a5.78,5.78,0,0,1,2.47,3.95,91.94,91.94,0,0,1,1.39,9.49c.09,1.92.36,3.82.49,5.74.15,2.17.23,4.35.33,6.53,0,.13,0,.26,0,.38a36,36,0,0,1,.07,8.43,79.7,79.7,0,0,0-.67,8c-.16,2.82-.29,5.64-.33,8.46a26.14,26.14,0,0,1-.76,6.47,27.88,27.88,0,0,0-.57,3.41c-.61,4.19-1.15,8.38-1.85,12.55-.46,2.78-1,5.55-1.74,8.28-1.68,6.58-3.59,13.09-5.61,19.58-.65,2.07-1.19,4.19-1.73,6.3-.29,1.11-.48,2.24-.72,3.41a3.44,3.44,0,0,0,1.1.43,30.77,30.77,0,0,0,4.61-.28,67.53,67.53,0,0,0,13.07-3.17c1.43-.57,2.92-.95,4.2-1.35a2.92,2.92,0,0,0,.92-1.85c.48-1.86,1.08-3.69,1.5-5.57.5-2.24.91-4.51,1.28-6.79q.75-4.54,1.6-9.08a75.82,75.82,0,0,0,1.12-11.85c0-1.28.14-2.56.22-3.84a15.41,15.41,0,0,0,.08-1.92,99,99,0,0,1,.12-10.76c.19-5.52-.18-11-.11-16.54-.64-5.86-.71-11.76-1.7-17.6q-.93-5.49-2-11c-.67-3.5-1.17-7.08-3-10.65a19.31,19.31,0,0,0-1.42-1.31,64.74,64.74,0,0,0-7.1-4.6,18.74,18.74,0,0,0-6.21-2c-4.16-.8-8.33-1.52-12.55-1.92a62.61,62.61,0,0,1-6.88-.69c-2.57-.56-5.13.13-7.66-.38a1.67,1.67,0,0,0-.77,0c-2,.62-4.08.4-6.12.5A112.13,112.13,0,0,0,38,47c-2.75.62-5.5,1.21-8.25,1.86a59.78,59.78,0,0,0-9.41,3.34,27.29,27.29,0,0,0-6.76,4.4,17.08,17.08,0,0,0-4.13,4.81c-.09,2-.19,4.15-.3,6.32A14.78,14.78,0,0,1,9,70.07c-.74,3.67-.59,7.4-.75,11.11,0,.89-.18,1.78-.27,2.66-.06.64-.15,1.28-.15,1.91,0,5,0,10,.06,15,0,1.54.19,3.07.24,4.61a30.69,30.69,0,0,1,0,4.6,61.5,61.5,0,0,0-.27,9.2Zm95.83-86.69c-1.36-.38-2.7-.84-4.06-1.17-1.62-.39-3.29-.58-4.89-1a38.78,38.78,0,0,0-9.87-1.37c-1.93,0-3.85,0-5.78,0a56.19,56.19,0,0,1-7.67-.44c-1.52-.2-3.07-.17-4.6-.25-2-.1-4.11-.12-6.14-.36a26,26,0,0,0-3.84-.17c-3.2.14-6.4.19-9.6.38-3.58.2-7.18.14-10.75.69-2.78.43-5.58.81-8.37,1.21a7.13,7.13,0,0,0-1.14.18c-3.76,1.26-7.67,2.08-11.3,3.75-2,.91-4,1.73-6.1,2.63a8.26,8.26,0,0,1-1-.37,1.55,1.55,0,0,1-.7-2c1.47-3.26,2.54-6.73,4.81-9.59a11.94,11.94,0,0,0,1-1.61c1.87-3.29,4.77-5.68,7.27-8.42,3.72-2.93,7.32-6,11.24-8.71a16.78,16.78,0,0,1,3-1.65c3.21-1.33,6.63-2,10-2.92a3.17,3.17,0,0,1,.76-.1C50.31.77,54.65.37,59,0A7.69,7.69,0,0,1,60.9.16c1.65.25,3.28.62,4.94.81a28.7,28.7,0,0,1,6.7,1.66C76.26,4,80,5.41,83.56,7.14a20.94,20.94,0,0,1,3.92,2.41A79.27,79.27,0,0,1,98,19.11c1.61,1.85,3,3.86,4.51,5.75.88,1.09,1.69,2.25,2.5,3.4a4.78,4.78,0,0,1,.84,2.12,1.92,1.92,0,0,1-2.14,2.09ZM64.3,113.33c-1.66,0-3.32.39-5,0s-3.48-.87-5.18-1.42a8.62,8.62,0,0,1-3.66-2,1.43,1.43,0,0,1-.37-1.41c.16-.59.61-.76,1.33-.83.65.36,1.42.8,2.21,1.21a8.47,8.47,0,0,0,1.75.77c2.48.58,4.93,1.4,7.55,1.12a6.5,6.5,0,0,1,1.51.15,1.29,1.29,0,0,1-.18,2.5Z"/></g></g></svg>