<svg xmlns="http://www.w3.org/2000/svg" viewBox="0 0 134.42 155.47"><defs><style>.cls-1{fill:#26315E;}</style></defs><title>ruben</title><g id="Layer_2" data-name="Layer 2"><g id="Layer_1-2" data-name="Layer 1"><path class="cls-1" d="M1.06,68.45a17.67,17.67,0,0,1,1.49-2.69A8.69,8.69,0,0,0,4,60.26c-.2-2.57-.27-5.15-.55-7.71a34.88,34.88,0,0,1,.08-6.93c.28-3.33.72-6.65,1.11-10A14.36,14.36,0,0,1,5,33.37c.66-2.23,1.3-4.45,2.1-6.62a13.86,13.86,0,0,1,1.83-3.82c.77-1,1.44-2.12,2.25-3.11A42.43,42.43,0,0,1,15,15.48c2.15-2,4.44-3.86,6.72-5.72a64,64,0,0,1,6.07-4,66.68,66.68,0,0,1,6.87-3.32A22.4,22.4,0,0,1,39,1.06,27.55,27.55,0,0,1,46.17.28a23.44,23.44,0,0,0,3,0A25.66,25.66,0,0,1,54.52.07c3.68.29,7.37.4,11,.75A27.15,27.15,0,0,1,71.13,2c2.42.79,4.77,1.8,7.1,2.82a53,53,0,0,1,13.54,8.58A24.9,24.9,0,0,1,94.59,16c1.74,2,3.38,4.19,5,6.33a9.93,9.93,0,0,1,1.1,2,36.79,36.79,0,0,1,3.17,9.88,44.15,44.15,0,0,1,1.62,10.66,10.69,10.69,0,0,0,.37,1.4c.31.26.77.7,1.27,1.09a70.12,70.12,0,0,1,7.24,6.87,114.18,114.18,0,0,1,12.39,15.18,42,42,0,0,1,7.56,20.39,22.66,22.66,0,0,1-1.1,9.5,18.63,18.63,0,0,1-2.41,4.8,11.34,11.34,0,0,1-7.41,5c-3.76.67-7.47,1.64-11.34,1a1,1,0,0,0-.38,0c-2,.41-3.79-.2-5.64-.62a33.59,33.59,0,0,1-3.3-.93c-1.6-.56-3.29-.41-4.9-.77-.21,0-.48.1-.9.2a6,6,0,0,0-1.31,3.13,6.76,6.76,0,0,0,.71,1.19,30.4,30.4,0,0,1,3.58,5.46c.56,1,1.19,2,1.78,3a73.58,73.58,0,0,1,3.75,6.73c2.35,5.15,4.4,10.42,6.41,15.71a29.52,29.52,0,0,1,1,3.72,1.83,1.83,0,0,1-.11.75c0,.11-.13.28-.22.29a1.08,1.08,0,0,1-.69,0,4,4,0,0,1-1.49-2.18c-1.19-2.71-2.28-5.46-3.56-8.12-1.57-3.23-3.45-6.31-4.91-9.6a11,11,0,0,0-.77-1.33c-1-1.63-2-3.27-3.08-4.89q-1.77-2.75-3.6-5.46a5.14,5.14,0,0,0-.87-.76c-.36,2.64-.35,3,.12,6.91a2.32,2.32,0,0,1-.07.38c-.66,1.69-1.51,2.34-3.1,2.28-.76,0-1.51-.22-2.26-.31a7.11,7.11,0,0,0-.91,0,1.63,1.63,0,0,0-.89,1.38,20.27,20.27,0,0,1-.86,4.15,1.76,1.76,0,0,1-2.5.95c-.44-.26-.82-.6-1.25-.88-.63-.42-1.28-.81-1.85-1.16l-8.89,3.84a3.24,3.24,0,0,0-.61.55,19,19,0,0,0-.31,4.15,22.11,22.11,0,0,1-.23,2.3,1.53,1.53,0,0,1-2.33,1.09,9,9,0,0,1-1.24-.89c-1.62-1.44-3.22-2.9-5-4.5-1.77,0-3.63-.45-5.55-.42a20,20,0,0,1-6.42-.79,2.91,2.91,0,0,0-1,0,4.14,4.14,0,0,0-1.69,1.74c-.55.86-1,1.77-1.59,2.63a1.29,1.29,0,0,1-2.23,0,12.33,12.33,0,0,1-.89-1.69c-.68-1.52-1.31-3.07-2-4.59a9,9,0,0,0-.83-1.25,4.84,4.84,0,0,0-1.19.25c-1.36.72-2.68,1.5-4,2.23a6.44,6.44,0,0,1-1.07.37,1.19,1.19,0,0,1-1-.47,3.91,3.91,0,0,1-.48-1,55.64,55.64,0,0,0-2.53-8.08,1.41,1.41,0,0,0-2.1-1c-.71.3-1.39.63-2.09,1-.34.16-.68.33-1,.48a1.33,1.33,0,0,1-1.73-1c-.41-1.89-.82-3.77-1.18-5.67a7.3,7.3,0,0,1-.11-1.92,1.8,1.8,0,0,1,1.14-1.44,1.07,1.07,0,0,1,1.05.25,3.41,3.41,0,0,1,.55,1c.27,1.26.45,2.53.69,3.8.2,1.09,1,1.43,2,.78a21.84,21.84,0,0,0,1.78-1.43,1.5,1.5,0,0,0,.22-1.45,2.21,2.21,0,0,0-.18-.34c-2.19-3.16-4.35-6.34-6.38-9.61a2,2,0,0,0-1.5-1.17,34.41,34.41,0,0,0-2.43,5.17c-1.25,3-2,6.12-3,9.15-.93,2.67-1.67,5.41-2.5,8.14a12,12,0,0,0,3.08,4.36,3.48,3.48,0,0,0,1,.56c.84-.66,1.62-1.29,2.42-1.9a1.12,1.12,0,0,1,1.38.26,2.67,2.67,0,0,1,.36.67,6.47,6.47,0,0,1-2.24,3.06c-1.43,1.27-2.55,1.31-4.07,0-.69-.56-1.26-1.27-1.9-1.89a9.92,9.92,0,0,0-.83-.68,1.52,1.52,0,0,0-.85,1.24c-.36,1.63-.71,3.27-1,4.92a18.84,18.84,0,0,0-.14,2.2c.47.77.89,1.41,1.24,2.1s.51,1.74,1.5,2.07c.81-.16,1.24-.85,1.83-1.33s1.42-1.07,2.15-1.57a1.48,1.48,0,0,1,1.7.5,6.87,6.87,0,0,1,.56,1.42,13.5,13.5,0,0,0,1.66,3.88A8.13,8.13,0,0,0,21,150.55a17.72,17.72,0,0,1,2.1-1,22.37,22.37,0,0,1,2.58-.57c.27-.05.78.43.78.74s0,.58-.17.69c-1.41,1.09-2.8,2.22-4.3,3.16a2.41,2.41,0,0,1-3.4-.69,10.08,10.08,0,0,1-1-1.63c-.35-.69-.61-1.42-.93-2.12a1.57,1.57,0,0,0-1.63-.7,6.08,6.08,0,0,0-2.28,1.35,2,2,0,0,1-2.75-.31c-.51-.51-.63-1.43-1.51-1.57a3.31,3.31,0,0,0-.58.45c-.25.29-.42.65-.66.94-.41.5-1.08.75-1.33.48a1.77,1.77,0,0,1-.52-.95,13.71,13.71,0,0,1,0-3.07q.51-3.24,1.28-6.43c1.33-5.5,2.69-11,4.12-16.47a33.56,33.56,0,0,1,1.89-5.46c1.84-4,3.13-8.16,4.64-12.26a4.82,4.82,0,0,0,.37-2.52c-.82-1.16-1.41-2.75-2.58-4-3.1-3.23-5.77-6.86-9-10A22.63,22.63,0,0,1,.6,79.45,6,6,0,0,1,.18,78c-.29-3.22-.38-6.45.88-9.52ZM69.89,29.4a17.75,17.75,0,0,0-7.59-8.35,9.16,9.16,0,0,0-4.76-1.19c-1.89.06-3.79.16-5.77.25l-5.46,2.57a4.19,4.19,0,0,0-1,.57,20.81,20.81,0,0,0-3.73,3.83c-.16.24,0,.69,0,1a2.07,2.07,0,0,0,.42.23C48,29,54.05,30,60.14,30.24c2.78.13,5.55.6,8.35.56A13.43,13.43,0,0,0,70,30.59a4.41,4.41,0,0,0-.14-1.19Zm32.67,11.48c-.2-.74-.3-1.5-.43-2.13a2,2,0,0,0-1.41-.74c-4.52-.72-9.07-1.11-13.62-1.63A8.74,8.74,0,0,0,86,36.3c-4.33,0-8.59-.77-12.89-1.18-3.41-.32-6.83-.61-10.22-1.09-3.65-.52-7.34-.59-11-1.43a11.89,11.89,0,0,0-1.9-.14,29.38,29.38,0,0,1-5.67-.62,8.18,8.18,0,0,0-2.27-.2,31,31,0,0,1-5.68-.54,12.38,12.38,0,0,0-3-.18,65.2,65.2,0,0,1-6.85-.09c-1.9-.08-3.83.11-5.71-.11-3.57-.42-7.08.24-10.62.32a1.58,1.58,0,0,0-1.5,1,20.69,20.69,0,0,0-1.55,8.66,3.54,3.54,0,0,0,.13.46c.26.14.56.45.89.49a19.23,19.23,0,0,0,2.28.06c4.32,0,8.64-.09,13-.1,1.52,0,3.05.06,4.57.16a26.92,26.92,0,0,0,5.31.11,4.92,4.92,0,0,1,1.15,0l11.38,1c1.78.15,3.55.33,5.33.33a89.31,89.31,0,0,1,13.26,1.22c2.51.38,5,.61,7.55.9,1.51.18,3,.37,4.54.53s3.29.32,4.93.47c.13,0,.26,0,.38,0,4.53.66,9.11.71,13.67,1,1.76.11,3.52.52,5.3.48a4.84,4.84,0,0,0,1.3-.39,9.3,9.3,0,0,0,.52-6.56Zm.17,11.6a3.26,3.26,0,0,0-1-.48c-3.5-.59-7-1.21-10.52-1.69-2.39-.32-4.8-.49-7.2-.77-3.28-.4-6.59-.58-9.88-.88-.76-.07-1.51-.24-2.26-.35l-2.63-.37c-1-.15-2-.29-3-.45-.63-.1-1.25-.27-1.88-.31-5.08-.32-10.14-1-15.23-1-1.14,0-2.27-.2-3.41-.29l-2.28-.15c-3.93-.23-7.89-.12-11.81-.58a16.36,16.36,0,0,0-3.05,0,69.55,69.55,0,0,1-7.22,0c-.63,0-1.26,0-1.9.06-2.29.1-4.57.24-6.86.31a21.25,21.25,0,0,0-5.87.89,2,2,0,0,0-.61,1.51,2.16,2.16,0,0,0,.64,1.74,14,14,0,0,0,4.57,2.74A30.65,30.65,0,0,0,18.43,54a6.33,6.33,0,0,0,3.35-.55q3.52-1.44,7.16-2.66a11.1,11.1,0,0,1,8.19.34,24.55,24.55,0,0,0,5.32,2c1.88-.41,3.74-.85,5.6-1.2a15.72,15.72,0,0,1,2.66-.18,48.07,48.07,0,0,1,8.72.76,19.53,19.53,0,0,1,6.74,2.59c.65.39,1.3.8,1.91,1.19a13,13,0,0,0,6.77-.92c1.65-.69,3.36-1.19,5.05-1.74a5.18,5.18,0,0,1,2.65-.16,26.64,26.64,0,0,1,6.6,1.83c.57.28,1.19.47,1.76.74,3.51,1.65,7.15,1.59,10.84.87A1.71,1.71,0,0,0,103,55.58a5.44,5.44,0,0,0-.25-3.1ZM90,122a1.12,1.12,0,0,0,.56-.44,1.2,1.2,0,0,0-.73-1.66,2.67,2.67,0,0,0-1.16,1.78A1.16,1.16,0,0,0,90,122Zm-7.24,5.84a.64.64,0,0,0,.6,0,.91.91,0,0,0,.4-.95c0-.3-.22-.41-.58-.33a3.37,3.37,0,0,0-.66.69c-.07.13.09.49.24.62ZM67,137.25a.39.39,0,0,0,.58-.32,4.84,4.84,0,0,0-.15-1.47c-.18-.67-.78-.9-1.5-.62a2.27,2.27,0,0,0-.62.4c-.09.07-.12.22-.18.34.27.95,1.14,1.24,1.87,1.67ZM44.4,134.38c.2-.28.41-.45.42-.63,0-.39-.4-.73-.71-.61-.16.07-.39.41-.34.49a4.25,4.25,0,0,0,.63.75Zm-12.85-9.55c.7,1.76,1.43,3.5,2.16,5.25a1.17,1.17,0,0,0,1.3.47,5.85,5.85,0,0,0,2.26-1.28,1.06,1.06,0,0,0,.09-1.06,26.33,26.33,0,0,0-5.5-5.09c-.2.26-.44.42-.45.59a2.81,2.81,0,0,0,.14,1.12ZM2.69,76.92a18.77,18.77,0,0,0,1.42,4,50.57,50.57,0,0,0,2.86,5,14.62,14.62,0,0,0,2,2.33c1.9,1.9,3.84,3.75,5.76,5.64a38,38,0,0,1,4.83,6c2.93,4.36,5.61,8.89,8.42,13.33A37.32,37.32,0,0,0,32.34,119c2.44,2.61,4.68,5.42,7.64,7.51a34.84,34.84,0,0,0,9.77,5.12,26.82,26.82,0,0,0,12.79,1,49.56,49.56,0,0,0,6-1.21,38.35,38.35,0,0,0,7.36-3.14,19.45,19.45,0,0,0,5.94-4.75,5.86,5.86,0,0,1,1.71-1.5,8.28,8.28,0,0,0,2.46-2.4c1.35-1.86,2.65-3.76,4-5.65.08-.11.09-.25.17-.35a29.38,29.38,0,0,0,4.5-9.71c.9-2.94,2-5.84,3-8.74a26,26,0,0,1,9.83-12.94c.21-.15.39-.33.44-.36,2.63-2.76,2.58-6,2-9.22a5.15,5.15,0,0,0-4.12-4.09,8.51,8.51,0,0,0-1.52-.08A2.5,2.5,0,0,1,102,66.62c-.06-2.16,1.21-4.42,0-6.74l-5.94,1a20.42,20.42,0,0,1-2-.56c-2.74-1-5.48-2.05-8.2-3.11a13.36,13.36,0,0,0-6-.8,7.73,7.73,0,0,0-2.55.74,22.73,22.73,0,0,1-8.23,2,18.31,18.31,0,0,1-5.38-1.43c-2.13-.84-4.32-1.49-6.48-2.24A15.79,15.79,0,0,0,49,55c-2.49.48-5,.92-7.31,1.35a48.25,48.25,0,0,1-6-1.8,12.15,12.15,0,0,0-9.64.36c-.47.21-.92.44-1.38.65a13.7,13.7,0,0,1-8.56,1,33.25,33.25,0,0,1-9-3.07.7.7,0,0,0-.88.46,4.8,4.8,0,0,0-.09.75c0,1.29.08,2.57.13,3.86,0,1,.12,2.06.11,3.09a8,8,0,0,1-1.15,4.42c-.41.64-.75,1.34-1.17,2a10.9,10.9,0,0,0-1.33,8.89Zm21.92,65.55a15.34,15.34,0,0,1-.09-1.92c0-2.31,0-4.63,0-6.94,0-.9-.06-1.8,0-2.69a3.72,3.72,0,0,1,.77-2.14,1.09,1.09,0,0,1,1.36-.16,2,2,0,0,1,.82,1.24,8.71,8.71,0,0,1,.14,1.53c.05,2.58.07,5.15.14,7.72a3.38,3.38,0,0,0,.3,1c.3.13.55.33.75.29,1.38-.23,2.75-.5,4.11-.77s2.48-.53,3.73-.76a2.25,2.25,0,0,1,2.07.67c.06.11.17.22.17.34.13,1.66.24,3.32.37,5a6.83,6.83,0,0,0,.26,1.5c.05.15.4.21.71.37l3.25-2.09c.65-.09,1.39-.21,2.15-.28a1.49,1.49,0,0,1,1.33.61c.32.39.13,1.22-.36,1.74a4.51,4.51,0,0,1-.52.55c-2.34,1.76-4.68,3.53-7,5.25a4.13,4.13,0,0,1-1.4.52,1.58,1.58,0,0,1-1.69-1.21,7.86,7.86,0,0,1,0-1.53c.2-1.92.49-3.82.68-5.74.26-2.78-.28-3.46-2.82-2.2a12.52,12.52,0,0,1-1.38.67c-1.55.55-3.1,1.11-4.68,1.57a2.36,2.36,0,0,1-3-2.13Zm49.58-8.27a2.29,2.29,0,0,1,.51-1,.82.82,0,0,1,.71,0,3,3,0,0,1,1,.58c.46.44.87.95,1.28,1.43l4.76,5.53a1.5,1.5,0,0,0,1.38.61,3.75,3.75,0,0,0,.65-.85,10.16,10.16,0,0,0,.38-1.49c.33-1.37.64-2.75,1-4.11a1.76,1.76,0,0,1,2.49-1,12.25,12.25,0,0,1,1.29.82c.82.61,1.61,1.26,2.43,1.87a.38.38,0,0,0,.36,0c.14-.17.36-.41.33-.59-.36-2.16-.77-4.3-1.12-6.46a1.53,1.53,0,0,1,1.14-1.77,3,3,0,0,1,1.64.92c1.63,1.44,3.26,2.88,4.86,4.34a8.49,8.49,0,0,1,1,1.15,2.87,2.87,0,0,1,.29.7,1,1,0,0,1-.44,1c-.23.09-.55.2-.72.1-1-.57-1.93-1.21-2.91-1.78-.16-.1-.42,0-.64,0,0,.26-.17.53-.11.74a30.63,30.63,0,0,1,.88,6.1,1.34,1.34,0,0,1-.79,1.21,1.39,1.39,0,0,1-1.4-.36c-.37-.35-.67-.77-1-1.14a15.59,15.59,0,0,0-5.18-3.66,29,29,0,0,0-1.11,4.09,12.64,12.64,0,0,1-.85,2.54c-.86,2-2.09,1.78-3.35.95a29.81,29.81,0,0,1-8.58-9.69,1.18,1.18,0,0,1-.16-.74Zm7.45,15.27a.73.73,0,0,1,.7,0c.81.61,1.57,1.29,2.36,1.93a1.57,1.57,0,0,0,1.49.4,14.94,14.94,0,0,0,3.23-2.52c1-1,2-1.93,3.06-2.89a2,2,0,0,1,1.83-.09c.21.14.42.28.62.43,1,.78,2,1.57,3,2.32s2.08,1.47,3.18,2.24c.33-.3.73-.5.81-.78a15,15,0,0,0,.43-2.66,13.07,13.07,0,0,1,.79-3.76,3.52,3.52,0,0,1,.4-.63.83.83,0,0,1,1-.07,4.62,4.62,0,0,1,.55.59,9.48,9.48,0,0,1-.27,4.89,7.92,7.92,0,0,0-.27,1.9,8.76,8.76,0,0,1-1.6,3.88,1.32,1.32,0,0,1-1.69.41c-.73-.51-1.45-1-2.15-1.58a32.64,32.64,0,0,0-5.27-3.43c-.34,0-.48,0-.59,0a3.23,3.23,0,0,0-1,.53,25.79,25.79,0,0,1-6.08,4.62,2.07,2.07,0,0,1-2.45-.46c-.93-1.21-1.83-2.46-2.71-3.72a.9.9,0,0,1-.1-.73,2.22,2.22,0,0,1,.64-.87Zm-22-10.63a1.14,1.14,0,0,1,1.33.43c.42.77.85,1.56,1.21,2.38.67,1.52,1.27,3.07,2,4.58.13.29.54.44.8.64l4.8-2.93c.86,0,1.49.14,1.79.77,1,2.2,2.38,4.26,3.07,6.62a7.34,7.34,0,0,1,.23,1.5,1.11,1.11,0,0,1-1,1,1.4,1.4,0,0,1-1-.37,15.44,15.44,0,0,1-1.1-2,15.57,15.57,0,0,0-1.92-3.55,1.26,1.26,0,0,0-1.55.22,26.85,26.85,0,0,1-4,3.49,1.22,1.22,0,0,1-1.68-.35,14.45,14.45,0,0,1-.95-2.08c-.93-2.79-1.82-5.6-2.72-8.41a4.54,4.54,0,0,1-.08-.76,1.33,1.33,0,0,1,.79-1.2Zm-3.86,8.93a20.21,20.21,0,0,1,1.65,5.47,4.2,4.2,0,0,1-.2,1.48.76.76,0,0,1-.53.42.81.81,0,0,1-.67-.2,6.76,6.76,0,0,1-.89-1.65,13.73,13.73,0,0,0-1.33-3.52c-.25.11-.54.15-.69.32-.75.86-1.47,1.74-2.19,2.62-.4.49-.75,1-1.17,1.5a1.3,1.3,0,0,1-2-.18,3.35,3.35,0,0,1-.33-.82c1.18-2.65,3.3-4.65,5.11-6.7,2-.66,2.77.14,3.22,1.26ZM50.11,98.14A4.23,4.23,0,0,0,53,97.41c.19-.11.49,0,.91,0,.39.28.88.68,1.42,1,.18.11.47,0,.71.06.5-.54,1-1.08,1.55-1.64l2.34,1a7.78,7.78,0,0,0,.53-3.71A42.29,42.29,0,0,1,60.78,88a13.79,13.79,0,0,0,0-3.85A11.14,11.14,0,0,1,62,77.77c.45-.92.91-1.84,1.39-2.75,1.07-2,2.18-4.07,3.24-6.12a4,4,0,0,1,3.65-2.32,94.76,94.76,0,0,1,11.43.07c1.27.1,2.54.09,3.8.18a31.86,31.86,0,0,1,3.4.39,4.39,4.39,0,0,1,2.37,1.16,1.44,1.44,0,0,1,.06,1.76,2,2,0,0,1-2,.71,29.68,29.68,0,0,0-7.58-.59c-1.65,0-3.31-.06-5-.05-1.9,0-3.81.06-5.71.14a4.31,4.31,0,0,0-3.77,2.25c-.58,1-1.17,2-1.68,3s-1,2.38-1.56,3.52a8,8,0,0,0-.82,4.11c.06,1.54.08,3.08.14,4.63.12,3.22-.48,6.4-.54,9.62a5.8,5.8,0,0,1-1.24,3.31,5.54,5.54,0,0,1-2.85.33,17.44,17.44,0,0,1-3,.37,16.09,16.09,0,0,0-4.16.07,1.94,1.94,0,0,1-1.91-1,6.15,6.15,0,0,1-.45-1c-.22-.68.21-1.44.88-1.34Zm-32-18.61a11.46,11.46,0,0,1,6.39-2.23c1.39-.13,2.79-.13,4.79-.22a29.65,29.65,0,0,1,12.07,2.19,2.14,2.14,0,0,1,1.42,2.08,3.31,3.31,0,0,1-2,3.38,18.23,18.23,0,0,1-3.29,1c-2.24.39-4.55.2-6.79.78a4.52,4.52,0,0,1-1.51,0,45.86,45.86,0,0,1-7.88-1.34,10.12,10.12,0,0,1-3.93-2.26A1.72,1.72,0,0,1,17,81.07a3.58,3.58,0,0,1,1.11-1.54ZM33.87,84c1.57.58,3,.05,4.42-.38.71-.22,1.52-.26,1.84-1.16-.34-1.11-1.37-1.4-2.25-1.79A6.48,6.48,0,0,0,33.19,80a1.35,1.35,0,0,0-.16.29.81.81,0,0,0,0,.38c.27,1.09.54,2.18.84,3.34ZM20.79,82.84c2,.82,3.9,1.66,5.86,1.27.46-.31.47-.52.42-.82-.21-1.1-.39-2.2-.61-3.54-2.79-.22-5.07.1-7,1.72a1.76,1.76,0,0,0,1.3,1.37Zm51.66-3.75A11.19,11.19,0,0,1,77.7,78c2.67.09,5.34.06,8,.22a19.09,19.09,0,0,1,4.11.76,13.53,13.53,0,0,1,2.74,1.32,1.93,1.93,0,0,1,.72,2A3.7,3.7,0,0,1,90.9,85.1a23,23,0,0,1-2.56.69c-.87.19-1.78.21-2.62.46a11.48,11.48,0,0,1-4.91.24c-1-.15-2-.24-3-.38a27.35,27.35,0,0,1-5.19-1.21,3.81,3.81,0,0,1-1.82-1.35A2.09,2.09,0,0,1,70.71,81c.56-.7,1.19-1.34,1.74-2Zm14.28,4.39a4.63,4.63,0,0,0,4.59-1.18c-.26-.38-.45-.69-.67-1a.72.72,0,0,0-.32-.18,8.48,8.48,0,0,0-1.77-.62A23.64,23.64,0,0,0,85.33,80c0,.22-.11.35-.07.43.47,1,1,2,1.47,3.06Zm-10.9.61c.6.1.77.12.77-.6V81c0-.12.84-.24.73-.29-1.9-.7-3.17-.38-4.77,1a2.19,2.19,0,0,0-.57.78,6.32,6.32,0,0,0,3.84,1.66ZM41.84,73a2.6,2.6,0,0,1-1.43.42l-9.49-.1a37.89,37.89,0,0,0-7.22,0c-.5,0-1,0-1.52,0a3.88,3.88,0,0,1-.75-.11,1.39,1.39,0,0,1-.88-2.3,3.2,3.2,0,0,1,2.2-1.37c1.14-.13,2.27-.21,3.41-.24,4.71-.16,9.34.77,14,1.06a4.86,4.86,0,0,1,1.74.7A1.07,1.07,0,0,1,41.84,73Zm9.58,37.63c3-.91,5.95-1.38,9-.29.58.21,1.29.07,1.77.58a.93.93,0,0,1,.28.66,2.29,2.29,0,0,1-.5,1,4,4,0,0,1-2.57,1.09c-1.39.1-3,.13-4.37.19v-.06c-1.35,0-2.36,0-3.64,0a2,2,0,0,1-1-.26,2,2,0,0,1-.72-.81,1.21,1.21,0,0,1,.42-1.36,5.35,5.35,0,0,1,1.34-.74ZM19,39.37a3.43,3.43,0,0,1-2.06-1.62,1.72,1.72,0,0,1-.18-1.48A3.39,3.39,0,0,1,20,33.93a2.54,2.54,0,0,1,2.34,1.54,3,3,0,0,1-.56,3.24,2.55,2.55,0,0,1-2.81.66Zm52.8,3.69a3.38,3.38,0,0,1-2.85-.7,2.2,2.2,0,0,1-.93-2,2.67,2.67,0,1,1,5.32.27c-.08.28-.2.91-.41,1.5a1.44,1.44,0,0,1-1.13.91ZM55.11,40.77c-.85-.21-1.69-.5-2.54-.75a4.4,4.4,0,0,1-.43-1.12,3,3,0,0,1,1.64-3.2c1-.55,2,.06,2.82.64a3.85,3.85,0,0,1,.56.51,2.24,2.24,0,0,1,.4,2.5,2.21,2.21,0,0,1-2.45,1.42Zm-16.73-1a3.75,3.75,0,0,1-3.67-2.16,3.47,3.47,0,0,1-.15-.74,2.19,2.19,0,0,1,1.45-2,3.09,3.09,0,0,1,3.79,2.25A3.14,3.14,0,0,1,39.56,39a1.35,1.35,0,0,1-1.18.81Zm47.79,4.1a3.37,3.37,0,0,1-2-1.62A1.8,1.8,0,0,1,84,41.15a3.26,3.26,0,0,1,2.18-2.43c.11,0,.25,0,.2,0a2.3,2.3,0,0,1,1.87.67,2.52,2.52,0,0,1,.31,3.72,2.28,2.28,0,0,1-2.37.78Z"/></g></g></svg>