<svg xmlns="http://www.w3.org/2000/svg" viewBox="0 0 89.21 36.67"><defs><style>.cls-1{fill:#ef9c34;}.cls-2{fill:#e35014;}.cls-3{fill:#f08050;}.cls-4{fill:#de4e2e;}.cls-5{fill:#e7937b;}.cls-6{fill:#d73718;}.cls-7{fill:#db5e25;}</style></defs><title>2starfishes</title><g id="Layer_2" data-name="Layer 2"><g id="Layer_1-2" data-name="Layer 1"><path class="cls-1" d="M6.78,5c2.1-.73,8.9,4.11,11.72,5.06A48.82,48.82,0,0,1,25,12.81c1.49.71,2.23.37,2.65,0s.54-.71.81.13c.58,1.88,9.62.87,11.39,4.34s-12.63,4-13.25,7.48.69,11.14-1.77,11.86c-1.65.49-6.33-7.79-8.52-9.33S.71,26.84.92,23.09C1.2,18.27,12.69,20,11,15.3,9,10.14,4.71,5.75,6.78,5"/><path class="cls-2" d="M39.41,17.15h0c0-.39-.9-3.35-.9-3.35l-1.2-.17-3.36,1,.09.13c-2.79-.41-5.66-.53-6-1.37-.38-1,1-5.47.39-8.08v0c-.11-.65-1-3.77-1-3.77l-1.7,2.26.09.13c-2.23,1.69-5.3,7.81-7.58,7.19S10.74,7.57,8,7.06H8L6.47,3.86l-1.21.55s.86,3.28.94,3.53h0c.38,1.41,3.17,4.18,4.6,7.31,1,2.26-2.62,2.66-5.77,3.45L5,18l-5,.22s.76,3,1,3.59v0c.85,2.57,13.05,1.85,15.11,3s6.77,9.35,8.39,9c2.43-.57.54-7.43,1.16-10.2S40,19.71,39.41,17.15"/><path class="cls-3" d="M5.78,3.57c2.07-.59,8.77,3.29,11.54,4,1.38.38,3-1.7,4.64-3.78S25.1-.37,26.2.06c3,1.15.43,8.54.94,9.86.58,1.5,9.48.69,11.22,3.46s-13,4-13.65,6.78,1.27,9.62-1.15,10.2c-1.63.39-6.24-7.74-8.39-9S-.21,21,0,18c.27-3.84,11.6-2.44,9.88-6.22C8,7.65,3.74,4.15,5.78,3.57"/><path class="cls-4" d="M6.45,4V5.67a1.13,1.13,0,0,0,.4-1.34c0-.11-.26-.21-.4-.31"/><polyline class="cls-5" points="25.47 0.09 25.47 0.1 25.47 0.09 25.47 0.09"/><path class="cls-4" d="M25.47.09h0c0,.51,0,.51.75.64C26.39.46,26.06.3,26,.09h-.48"/><path class="cls-4" d="M2.61,16.35c0,.25,0,.49,0,.74h.15c.24,0,.41-.09.45-.32s-.09-.35-.36-.41l-.23,0"/><path class="cls-4" d="M1.92,17.65v.92c.09-.05.23-.07.26-.13a.54.54,0,0,0-.26-.79"/><path class="cls-5" d="M0,29.75v.36L.28,30,0,29.75"/><path class="cls-5" d="M22.35.09h0Z"/><path class="cls-4" d="M10.3,14a.39.39,0,0,0-.25.11c.1.27.31.58.07.91s-.23.43.05.55a.51.51,0,0,0,.22,0,1.56,1.56,0,0,0,.44-.07,4.56,4.56,0,0,0,.73-.37L10.5,14.1a.33.33,0,0,0-.2-.08"/><path class="cls-6" d="M33.71,18.27a1.3,1.3,0,0,0-.51.11c0,.07-.08.13-.07.19a1.15,1.15,0,0,0,.1.35.67.67,0,0,0,.57.46h.07a.71.71,0,0,0,.62-.49c.11-.22,0-.43-.28-.52a1.51,1.51,0,0,0-.5-.09"/><path class="cls-4" d="M21,27.05l-.24,0c-.19,0-.38.1-.33.29l1.19.78a4,4,0,0,0,.54-.3.24.24,0,0,0,0-.41A2,2,0,0,0,21,27.05"/><path class="cls-4" d="M25.28,2.58h-.21c-.06.31-.13.65-.2,1L26,3.86a7.45,7.45,0,0,0-.13-.93c-.06-.23-.24-.35-.57-.35"/><path class="cls-6" d="M16.53,23.72a1.28,1.28,0,0,0-.32.12c.06.15.06.27.13.32a7.58,7.58,0,0,0,.91.55.46.46,0,0,0,.23.06.51.51,0,0,0,.31-.11.31.31,0,0,0-.08-.49,10.56,10.56,0,0,0-1.15-.45h0"/><path class="cls-6" d="M5.17,20.21a1,1,0,0,0,.33.12l.09-.08-.42,0"/><path class="cls-4" d="M5.39,19.38a.5.5,0,0,0-.27.07.45.45,0,0,0-.16.39.48.48,0,0,0,.21.37l.42,0a1.45,1.45,0,0,0,.34-.36c.05-.1-.06-.29-.18-.39a.56.56,0,0,0-.36-.12"/><path class="cls-4" d="M19.84,19.88l-.26,0c-.16.32,0,.55.23.77a.44.44,0,0,0,.33.11.68.68,0,0,0,.42-.13.33.33,0,0,0,0-.56,1.24,1.24,0,0,0-.7-.22"/><path class="cls-6" d="M24.57,30.66H24.5c-.14,0-.33.08-.38.15a.3.3,0,0,0,.09.31,4.2,4.2,0,0,0,.62.4,2.82,2.82,0,0,0,.29-.36c.15-.31,0-.46-.39-.49l-.16,0"/><path class="cls-4" d="M13.77,12.07c-.17.64-.16.65.41.91.26-.74.23-.8-.41-.91"/><path class="cls-4" d="M18.28,12a1.08,1.08,0,0,0-.47.14.68.68,0,0,0,.52.61h.12a.85.85,0,0,0,.4-.1c.17-.1.14-.28,0-.4a.84.84,0,0,0-.58-.26"/><path class="cls-4" d="M18.19,15H18.1a1.38,1.38,0,0,0-.4.28,2.41,2.41,0,0,0,.22.38.4.4,0,0,0,.34.16l.17,0c.25-.06.38-.22.31-.41a.7.7,0,0,0-.23-.31.79.79,0,0,0-.32-.08"/><path class="cls-6" d="M11.85,21.57c-.12.29-.26.46-.2.54a2,2,0,0,0,1,.7c0-.51-.33-.79-.81-1.24"/><path class="cls-6" d="M1.57,20H1.46c-.11.05-.22.21-.19.29.07.24.23.41.63.41l.32,0a3.28,3.28,0,0,0-.36-.6A.46.46,0,0,0,1.57,20"/><path class="cls-4" d="M24.51,15.07a.52.52,0,0,0-.27.1l0,.16a1.14,1.14,0,0,0,.82.57c.11-.5,0-.75-.5-.83h0"/><path class="cls-4" d="M36.22,12.09c0,.64,0,.64.88.87a1.12,1.12,0,0,0-.88-.87m0,0h0"/><path class="cls-6" d="M26,21.05a.41.41,0,0,0-.37.27l.51.56c.32-.58.33-.68.05-.79a.46.46,0,0,0-.19,0"/><path class="cls-4" d="M5.77,17a.4.4,0,0,0-.25.13.25.25,0,0,0,.11.23,1,1,0,0,0,.43.11.85.85,0,0,0,.62-.3c-.3-.06-.59-.13-.9-.17h0"/><path class="cls-6" d="M27.58,5.15c0,.18,0,.37-.06.55.15,0,.19-.1.19-.22a.47.47,0,0,0-.13-.33"/><path class="cls-4" d="M27.18,5h0c-.23,0-.35.18-.32.49a.72.72,0,0,0,.12.23l.13,0a1.86,1.86,0,0,0,.41,0c0-.18.05-.37.06-.55a.53.53,0,0,0-.4-.16"/><path class="cls-4" d="M35.25,13.71h-.06a1.75,1.75,0,0,0-.43.22,1.94,1.94,0,0,0,.5.38l.11,0a.37.37,0,0,0,.33-.24c.07-.17-.18-.38-.45-.38"/><path class="cls-4" d="M23.26,25.85c-.05,0-.11.07-.18.12a1.06,1.06,0,0,0,.53.64.24.24,0,0,0,.12,0l.09,0A.24.24,0,0,0,24,26.5c.05-.38-.19-.6-.7-.65h0"/><path class="cls-4" d="M27.56,13.72c.25.46.32.6.55.6a2.33,2.33,0,0,0,.43-.07,2.74,2.74,0,0,0-.47-.49.54.54,0,0,0-.25,0h-.26"/><path class="cls-4" d="M14.09,6.85c-.11.09-.24.16-.24.21a1,1,0,0,0,.17.41h.28a.61.61,0,0,0,.13-.39c0-.09-.2-.15-.34-.24"/><path class="cls-4" d="M21.87,7.73h0c.2.28.32.47.46.65a.29.29,0,0,0,.22.12.27.27,0,0,0,.16-.06.24.24,0,0,0,.1-.24c-.1-.27-.3-.47-.91-.47"/><path class="cls-4" d="M26,8.34h-.1c-.25.13-.18.32-.06.48s.17.13.26.2a1.25,1.25,0,0,0,.29-.16c.13-.19.05-.36-.17-.48A.51.51,0,0,0,26,8.34"/><path class="cls-4" d="M28,12.35H28c-.07.07-.22.17-.27.29s.16.25.38.25h0c.22,0,.38-.12.36-.28s-.16-.26-.41-.26"/><path class="cls-6" d="M36.49,16a1.65,1.65,0,0,0-.48.13l.83.55c-.06-.49-.13-.68-.35-.68"/><path class="cls-4" d="M20.59,9c-.13.16-.25.24-.27.34s.19.34.43.34h0c.2,0,.41-.16.32-.29A2.87,2.87,0,0,0,20.59,9"/><path class="cls-4" d="M23.64,8.88c-.15.1-.3.16-.35.25s.1.37.3.41h.05c.18,0,.42-.18.36-.33s-.21-.21-.36-.34"/><path class="cls-5" d="M30.66,25.85a.72.72,0,0,0,.62.6c.15-.45.12-.47-.62-.6"/><path class="cls-4" d="M16,13.35a1.21,1.21,0,0,0-.13.33c0,.05.12.1.18.15a1.22,1.22,0,0,0,.25-.26s-.14-.1-.3-.22"/><path class="cls-4" d="M25.66,12.62h-.11l-.29.36.15.09c.26,0,.3-.15.32-.3l-.07-.16Z"/><path class="cls-4" d="M35.44,12a1.15,1.15,0,0,0-.55.14,2.88,2.88,0,0,0,.4.11h0c.3,0,.59-.12.88-.18h0l-.13,0a1.54,1.54,0,0,1-.3,0,1.67,1.67,0,0,0-.34,0"/><path class="cls-4" d="M9.69,7.68l-.09.13a4,4,0,0,0,.28.3l.16,0a2.28,2.28,0,0,0-.15-.36l-.2,0Z"/><path class="cls-6" d="M31.79,18.38c-.13.06-.23.07-.25.11a.3.3,0,0,0,.26.39h0c.07,0,.21-.12.19-.16a1.12,1.12,0,0,0-.21-.34"/><path class="cls-4" d="M33.22,15.13h-.09a2.47,2.47,0,0,0,.06.29l.09.05,0-.07a1.08,1.08,0,0,0-.11-.28"/><path class="cls-6" d="M34.69,16.94c0,.08-.08.11-.07.14a.7.7,0,0,0,.11.23h0l.17,0a2.56,2.56,0,0,0-.11-.24s0,0-.12-.11"/><path class="cls-4" d="M23.54,28l-.15,0,.11.19.16-.07L23.58,28h0"/><path class="cls-4" d="M15.87,17.89c-.1.05-.19.07-.2.1l.08.15h0a1.24,1.24,0,0,0,.16,0c0-.07,0-.14-.07-.22"/><path class="cls-4" d="M33.47,14.39l-.15.15.17.19.11-.13a1.2,1.2,0,0,0-.13-.21"/><path class="cls-4" d="M10.27,10.33l-.25.11a2.75,2.75,0,0,0,.22.26l.16-.08a1.45,1.45,0,0,0-.13-.29"/><path class="cls-5" d="M10.39,29.52l-.23,0,.06.16s.13,0,.2,0l0-.22"/><path class="cls-4" d="M10.52,17.52l-.12.1a1.25,1.25,0,0,0,.22.16l.15-.15a1.12,1.12,0,0,0-.25-.11"/><polygon class="cls-4" points="21.19 12.83 21.11 12.84 21.15 12.9 21.23 12.89 21.19 12.83 21.19 12.83"/><path class="cls-4" d="M15.38,8.67h-.09v.13l.19,0-.09-.12Z"/><polygon class="cls-4" points="19.61 17.94 19.54 17.99 19.64 18.11 19.71 18.06 19.61 17.94 19.61 17.94"/><path class="cls-7" d="M32,21.05l-.18.05,0,.07a1.13,1.13,0,0,0,.18,0l0-.15Z"/><polygon class="cls-6" points="28.21 19.67 28.13 19.8 28.2 19.85 28.36 19.77 28.21 19.67 28.21 19.67"/><path class="cls-6" d="M9.17,22.05,9,22.18l.23.15.11-.12a1.33,1.33,0,0,0-.17-.16"/><path class="cls-5" d="M1.09,23.85l0,.06L1.1,24l.06,0a.41.41,0,0,1-.07-.11"/><path class="cls-7" d="M1.14,23.79l0,.06a.41.41,0,0,0,.07.11l.1-.05-.12-.12Z"/><polygon class="cls-4" points="0.77 17.52 0.68 17.56 0.76 17.61 0.84 17.57 0.77 17.52 0.77 17.52"/><polygon class="cls-5" points="26.7 29.48 26.62 29.51 26.69 29.53 26.7 29.48 26.7 29.48"/><polygon class="cls-4" points="27.02 14.71 27 14.82 27.06 14.77 27.02 14.71 27.02 14.71"/><polygon class="cls-7" points="29.39 22.15 29.32 22.2 29.42 22.27 29.45 22.21 29.39 22.15 29.39 22.15"/><polygon class="cls-7" points="31.31 21.66 31.35 21.73 31.39 21.67 31.31 21.66 31.31 21.66"/><polygon class="cls-4" points="19.22 7.46 19.13 7.49 19.3 7.51 19.22 7.46 19.22 7.46"/><polygon class="cls-4" points="21.59 16.99 21.51 17.02 21.66 17.03 21.59 16.99 21.59 16.99"/><polygon class="cls-5" points="33.95 24.25 33.93 24.31 34.02 24.27 33.95 24.25 33.95 24.25"/><polygon class="cls-5" points="36.15 27.8 36.07 27.85 36.13 27.91 36.23 27.82 36.15 27.8 36.15 27.8"/><path class="cls-1" d="M56,5c2.1-.73,8.91,4.11,11.72,5.06a48.82,48.82,0,0,1,6.5,2.72c1.5.71,2.23.37,2.65,0s.55-.71.81.13c.59,1.88,9.62.87,11.39,4.34s-12.63,4-13.25,7.48S76.5,35.93,74,36.65c-1.65.49-6.33-7.79-8.52-9.33s-15.6-.48-15.39-4.23c.28-4.82,11.77-3.06,10-7.79C58.25,10.14,53.92,5.75,56,5"/><path class="cls-2" d="M88.62,17.15h0c0-.39-.9-3.35-.9-3.35l-1.2-.17-3.36,1,.1.13c-2.8-.41-5.67-.53-6-1.37-.38-1,1-5.47.39-8.08v0c-.11-.65-1-3.77-1-3.77L75,3.76l.1.13c-2.24,1.69-5.3,7.81-7.59,7.19S60,7.57,57.17,7.06h0l-1.5-3.19-1.2.55s.85,3.28.94,3.53h0c.38,1.41,3.17,4.18,4.6,7.31,1,2.26-2.62,2.66-5.77,3.45l-.07-.7-5,.22s.76,3,1,3.59v0c.85,2.57,13.05,1.85,15.11,3s6.77,9.35,8.39,9c2.43-.57.54-7.43,1.16-10.2s14.32-3.91,13.77-6.47"/><path class="cls-3" d="M55,3.57c2.07-.59,8.77,3.29,11.55,4,1.38.38,3-1.7,4.63-3.78S74.31-.37,75.41.06c3,1.15.43,8.54.94,9.86.58,1.5,9.48.69,11.23,3.46s-13,4-13.65,6.78,1.27,9.62-1.16,10.2c-1.63.39-6.23-7.74-8.39-9S49,21,49.22,18c.27-3.84,11.59-2.44,9.87-6.22C57.22,7.65,53,4.15,55,3.57"/><path class="cls-4" d="M55.67,4c0,.55,0,1.1,0,1.65a1.1,1.1,0,0,0,.4-1.34c0-.11-.26-.21-.39-.31"/><polyline class="cls-5" points="74.68 0.09 74.68 0.1 74.68 0.09 74.68 0.09"/><path class="cls-4" d="M74.68.09h0c0,.51,0,.51.76.64.17-.28-.17-.44-.28-.65h-.48"/><path class="cls-4" d="M51.82,16.35v.74H52c.25,0,.41-.09.45-.32s-.08-.35-.36-.41l-.23,0"/><path class="cls-4" d="M51.14,17.65v.92c.09-.05.22-.07.26-.13a.54.54,0,0,0-.26-.79"/><path class="cls-5" d="M49.21,29.75v.36L49.5,30l-.29-.25"/><path class="cls-5" d="M71.56.09h0Z"/><path class="cls-4" d="M59.51,14a.39.39,0,0,0-.25.11c.11.27.32.58.07.91s-.22.43.06.55a.44.44,0,0,0,.21,0,1.63,1.63,0,0,0,.45-.07,4.5,4.5,0,0,0,.72-.37c-.41-.42-.72-.76-1.06-1.09a.33.33,0,0,0-.2-.08"/><path class="cls-6" d="M82.92,18.27a1.25,1.25,0,0,0-.5.11c0,.07-.08.13-.08.19a1.54,1.54,0,0,0,.1.35c.15.3.35.46.58.46h.06a.74.74,0,0,0,.63-.49c.1-.22,0-.43-.29-.52a1.51,1.51,0,0,0-.5-.09"/><path class="cls-4" d="M70.25,27.05l-.24,0c-.18,0-.37.1-.33.29l1.2.78a3.85,3.85,0,0,0,.53-.3.24.24,0,0,0,0-.41,2,2,0,0,0-1.16-.38"/><path class="cls-4" d="M74.5,2.58h-.22c-.06.31-.13.65-.2,1l1.12.25c0-.35-.06-.65-.13-.93s-.25-.35-.57-.35"/><path class="cls-6" d="M65.74,23.72a1.44,1.44,0,0,0-.32.12c.06.15.06.27.13.32a7.58,7.58,0,0,0,.91.55.46.46,0,0,0,.23.06.56.56,0,0,0,.32-.11.31.31,0,0,0-.08-.49,10.73,10.73,0,0,0-1.16-.45h0"/><path class="cls-6" d="M54.39,20.21a1,1,0,0,0,.32.12l.09-.08-.41,0"/><path class="cls-4" d="M54.6,19.38a.5.5,0,0,0-.27.07.45.45,0,0,0-.16.39.46.46,0,0,0,.22.37l.41,0a1.28,1.28,0,0,0,.34-.36c0-.1-.06-.29-.17-.39a.61.61,0,0,0-.37-.12"/><path class="cls-4" d="M69.06,19.88a1.24,1.24,0,0,0-.27,0c-.16.32,0,.55.23.77a.46.46,0,0,0,.33.11.68.68,0,0,0,.42-.13.33.33,0,0,0,0-.56,1.29,1.29,0,0,0-.7-.22"/><path class="cls-6" d="M73.78,30.66h-.07c-.14,0-.33.08-.38.15a.28.28,0,0,0,.1.31,4,4,0,0,0,.61.4,2.82,2.82,0,0,0,.29-.36c.15-.31,0-.46-.39-.49l-.16,0"/><path class="cls-4" d="M63,12.07c-.17.64-.16.65.41.91.26-.74.24-.8-.41-.91"/><path class="cls-4" d="M67.5,12a1.08,1.08,0,0,0-.48.14.68.68,0,0,0,.53.61h.11a.85.85,0,0,0,.4-.1.23.23,0,0,0,0-.4A.89.89,0,0,0,67.5,12"/><path class="cls-4" d="M67.4,15h-.09a1.48,1.48,0,0,0-.39.28,2.47,2.47,0,0,0,.21.38.4.4,0,0,0,.34.16l.17,0c.25-.06.39-.22.31-.41a.62.62,0,0,0-.22-.31A.84.84,0,0,0,67.4,15"/><path class="cls-6" d="M61.06,21.57c-.11.29-.25.46-.19.54a2,2,0,0,0,1,.7c0-.51-.32-.79-.81-1.24"/><path class="cls-6" d="M50.78,20h-.11c-.11.05-.22.21-.19.29.07.24.23.41.63.41l.33,0a3.27,3.27,0,0,0-.37-.6.46.46,0,0,0-.29-.08"/><path class="cls-4" d="M73.72,15.07a.6.6,0,0,0-.27.1v.16a1.12,1.12,0,0,0,.81.57c.11-.5,0-.75-.5-.83h0"/><path class="cls-4" d="M85.43,12.09c0,.64,0,.64.89.87a1.13,1.13,0,0,0-.89-.87m0,0h0"/><path class="cls-6" d="M75.18,21.05a.39.39,0,0,0-.36.27c.13.14.27.31.51.56.32-.58.32-.68,0-.79a.51.51,0,0,0-.2,0"/><path class="cls-4" d="M55,17a.35.35,0,0,0-.24.13.22.22,0,0,0,.1.23,1,1,0,0,0,.43.11.85.85,0,0,0,.62-.3c-.29-.06-.59-.13-.89-.17h0"/><path class="cls-6" d="M76.8,5.15c0,.18,0,.37-.07.55.15,0,.19-.1.19-.22a.46.46,0,0,0-.12-.33"/><path class="cls-4" d="M76.39,5h0c-.22,0-.35.18-.31.49,0,.08.07.16.11.23l.13,0a1.86,1.86,0,0,0,.41,0c0-.18,0-.37.07-.55A.57.57,0,0,0,76.39,5"/><path class="cls-4" d="M84.46,13.71H84.4a1.75,1.75,0,0,0-.43.22,1.82,1.82,0,0,0,.51.38l.1,0a.37.37,0,0,0,.33-.24c.07-.17-.18-.38-.45-.38"/><path class="cls-4" d="M72.47,25.85s-.1.07-.17.12a1,1,0,0,0,.52.64.25.25,0,0,0,.13,0l.09,0a.22.22,0,0,0,.13-.12c0-.38-.19-.6-.7-.65h0"/><path class="cls-4" d="M76.77,13.72c.25.46.32.6.56.6a2.62,2.62,0,0,0,.43-.07,3.68,3.68,0,0,0-.47-.49.62.62,0,0,0-.26,0h-.26"/><path class="cls-4" d="M63.31,6.85c-.11.09-.25.16-.24.21a.84.84,0,0,0,.16.41h.29a.6.6,0,0,0,.12-.39c0-.09-.2-.15-.33-.24"/><path class="cls-4" d="M71.08,7.73h0c.2.28.32.47.46.65a.31.31,0,0,0,.22.12.29.29,0,0,0,.17-.06A.26.26,0,0,0,72,8.2c-.11-.27-.31-.47-.92-.47"/><path class="cls-4" d="M75.19,8.34h-.1c-.25.13-.18.32-.06.48s.17.13.27.2a1.39,1.39,0,0,0,.28-.16c.13-.19,0-.36-.16-.48a.56.56,0,0,0-.23-.05"/><path class="cls-4" d="M77.24,12.35h-.08a1.54,1.54,0,0,0-.27.29c-.06.12.16.25.39.25h0c.23,0,.38-.12.37-.28s-.17-.26-.41-.26"/><path class="cls-6" d="M85.71,16a1.62,1.62,0,0,0-.49.13l.84.55c-.07-.49-.13-.68-.35-.68"/><path class="cls-4" d="M69.8,9c-.13.16-.25.24-.27.34s.19.34.44.34h0c.2,0,.41-.16.32-.29A2.51,2.51,0,0,0,69.8,9"/><path class="cls-4" d="M72.85,8.88c-.15.1-.29.16-.34.25s.1.37.29.41h0c.19,0,.42-.18.37-.33S73,9,72.85,8.88"/><path class="cls-5" d="M79.88,25.85a.71.71,0,0,0,.61.6c.15-.45.12-.47-.61-.6"/><path class="cls-4" d="M65.21,13.35a1.21,1.21,0,0,0-.13.33c0,.05.12.1.19.15a2,2,0,0,0,.25-.26s-.15-.1-.31-.22"/><path class="cls-4" d="M74.87,12.62h-.11l-.29.36.15.09c.26,0,.3-.15.32-.3l-.07-.16Z"/><path class="cls-4" d="M84.66,12a1.15,1.15,0,0,0-.55.14,2.28,2.28,0,0,0,.4.11h0c.3,0,.59-.12.89-.18h0l-.13,0a1.65,1.65,0,0,1-.3,0,1.66,1.66,0,0,0-.33,0"/><path class="cls-4" d="M58.91,7.68l-.09.13a2.52,2.52,0,0,0,.27.3l.16,0a2.28,2.28,0,0,0-.15-.36l-.19,0Z"/><path class="cls-6" d="M81,18.38c-.13.06-.23.07-.25.11a.3.3,0,0,0,.27.39h0c.07,0,.21-.12.2-.16a1.41,1.41,0,0,0-.22-.34"/><path class="cls-4" d="M82.44,15.13h-.1a2.46,2.46,0,0,0,.07.29l.08.05.06-.07c0-.09-.07-.19-.11-.28"/><path class="cls-6" d="M83.9,16.94c0,.08-.07.11-.07.14a1,1,0,0,0,.11.23h0l.18,0L84,17.05s0,0-.13-.11"/><path class="cls-4" d="M72.75,28l-.15,0,.11.19.17-.07L72.79,28h0"/><path class="cls-4" d="M65.08,17.89c-.09.05-.19.07-.2.1l.08.15h0a1.36,1.36,0,0,0,.17,0c0-.07,0-.14-.08-.22"/><path class="cls-4" d="M82.68,14.39l-.15.15a1.54,1.54,0,0,1,.17.19l.12-.13a.85.85,0,0,0-.14-.21"/><path class="cls-4" d="M59.48,10.33l-.25.11a2.75,2.75,0,0,0,.22.26l.17-.08a2.53,2.53,0,0,0-.14-.29"/><path class="cls-5" d="M59.6,29.52l-.22,0,0,.16s.13,0,.2,0l0-.22"/><path class="cls-4" d="M59.73,17.52l-.12.1a1.77,1.77,0,0,0,.22.16l.16-.15a1.45,1.45,0,0,0-.26-.11"/><polygon class="cls-4" points="70.41 12.83 70.32 12.84 70.36 12.9 70.44 12.89 70.41 12.83 70.41 12.83"/><path class="cls-4" d="M64.59,8.67H64.5v.13l.19,0-.09-.12Z"/><polygon class="cls-4" points="68.82 17.94 68.75 17.99 68.85 18.11 68.92 18.06 68.82 17.94 68.82 17.94"/><path class="cls-7" d="M81.23,21.05,81,21.1l0,.07a1.08,1.08,0,0,0,.19,0l0-.15Z"/><polygon class="cls-6" points="77.43 19.67 77.34 19.8 77.42 19.85 77.57 19.77 77.43 19.67 77.43 19.67"/><path class="cls-6" d="M58.38,22.05l-.16.13.22.15.11-.12c0-.06-.11-.1-.17-.16"/><path class="cls-5" d="M50.3,23.85l0,.06.05.08.06,0-.07-.11"/><path class="cls-7" d="M50.35,23.79l-.05.06.07.11.11-.05-.13-.12Z"/><polygon class="cls-4" points="49.98 17.52 49.9 17.56 49.97 17.61 50.05 17.57 49.98 17.52 49.98 17.52"/><polygon class="cls-5" points="75.91 29.48 75.84 29.51 75.91 29.53 75.91 29.48 75.91 29.48"/><polygon class="cls-4" points="76.24 14.71 76.22 14.82 76.27 14.77 76.24 14.71 76.24 14.71"/><polygon class="cls-7" points="78.6 22.15 78.53 22.2 78.63 22.27 78.66 22.21 78.6 22.15 78.6 22.15"/><polygon class="cls-7" points="80.52 21.66 80.56 21.73 80.6 21.67 80.52 21.66 80.52 21.66"/><polygon class="cls-4" points="68.43 7.46 68.34 7.49 68.51 7.51 68.43 7.46 68.43 7.46"/><polygon class="cls-4" points="70.8 16.99 70.73 17.02 70.87 17.03 70.8 16.99 70.8 16.99"/><polygon class="cls-5" points="83.17 24.25 83.14 24.31 83.23 24.27 83.17 24.25 83.17 24.25"/><polygon class="cls-5" points="85.36 27.8 85.28 27.85 85.34 27.91 85.45 27.82 85.36 27.8 85.36 27.8"/></g></g></svg>