<svg xmlns="http://www.w3.org/2000/svg" viewBox="0 0 18.84 23.44"><defs><style>.cls-1{fill:#00aca5;}</style></defs><title>download</title><g id="Layer_2" data-name="Layer 2"><g id="Layer_1-2" data-name="Layer 1"><path class="cls-1" d="M18.84,19.44a4,4,0,0,1-4,4H4a4,4,0,0,1-4-4,1.65,1.65,0,1,1,3.29,0,.71.71,0,0,0,.71.71H14.84a.71.71,0,0,0,.71-.71,1.65,1.65,0,1,1,3.29,0ZM8.26,16.13a1.64,1.64,0,0,0,1.16.49,1.62,1.62,0,0,0,1.16-.49l4.87-4.86A1.64,1.64,0,1,0,13.12,9l-2,2V1.65a1.65,1.65,0,1,0-3.29,0V11L5.72,9A1.64,1.64,0,0,0,3.4,11.27l4.86,4.86Z"/></g></g></svg>