<svg xmlns="http://www.w3.org/2000/svg" viewBox="0 0 89.71 111.61"><defs><style>.cls-1{fill:#e35014;}</style></defs><title>downloads</title><g id="Layer_2" data-name="Layer 2"><g id="Layer_1-2" data-name="Layer 1"><path class="cls-1" d="M89.71,92.57a19.05,19.05,0,0,1-19,19H19a19.06,19.06,0,0,1-19-19,7.85,7.85,0,0,1,15.69,0A3.35,3.35,0,0,0,19,95.93H70.68A3.37,3.37,0,0,0,74,92.57a7.84,7.84,0,1,1,15.67,0ZM39.31,76.83a7.83,7.83,0,0,0,11.09,0L73.55,53.69A7.84,7.84,0,0,0,62.46,42.6L52.7,52.36V7.84A7.84,7.84,0,0,0,37,7.84V52.37L27.26,42.6a7.85,7.85,0,1,0-11.1,11.09L39.31,76.83Z"/></g></g></svg>