<svg xmlns="http://www.w3.org/2000/svg" viewBox="0 0 162.2 184.76"><defs><style>.cls-1{fill:#8dc5ce;}.cls-2{fill:#bee3ee;}.cls-3{fill:#ef9c34;}.cls-4{fill:#1e2c39;}.cls-5{fill:#d87e22;}.cls-6{fill:#2b414f;}.cls-7{fill:#345085;}.cls-8{fill:#4461ab;}.cls-9{fill:#233643;}.cls-10{fill:#2e5094;}.cls-11{fill:#564797;}.cls-12{fill:#ea9079;}.cls-13{fill:#433a8f;}.cls-14{fill:#3d338a;}.cls-15{fill:#2b2f82;}.cls-16{fill:#567fc0;}.cls-17{fill:#7693cb;}.cls-18{fill:#096e65;}.cls-19{fill:#0f8f85;}.cls-20{fill:#ce594c;}.cls-21{fill:#0d1216;}</style></defs><title>Asset 45</title><g id="Layer_2" data-name="Layer 2"><g id="Layer_1-2" data-name="Layer 1"><path class="cls-1" d="M64.82,52.9l4.08,1.22a2.14,2.14,0,0,0,2.66-1.43l2.73-9.15a2.13,2.13,0,0,0-1.43-2.65l-4.09-1.22a2.13,2.13,0,0,0-2.65,1.43l-2.74,9.14a2.15,2.15,0,0,0,1.44,2.66Z"/><path class="cls-2" d="M1.7,102S-.81,134.85.27,138.67c.65,2.28,17.6,9.71,51,4.12l-3.69-7.91s-19-5.16-31-6.12c-2.16-.17-3.78-1.35-2.75-3.26a54.68,54.68,0,0,0,5.43-18.33C20.14,98.89,1.7,102,1.7,102Z"/><path class="cls-3" d="M45.17,109.93c9.23,0,27.83,21.84,34.76,20.45,7.87-1.58,5.09-20.59,8.48-21.84,2-.74,1.66-7.12,1.66-7.12-.93-3.35-4.66-14.88-7.92-19.3s-22.68-5.59-22.68-5.59H30.87S11.44,77.7,8.19,82.12s-7,15.95-7.92,19.3a120.77,120.77,0,0,0,44.9,8.51Z"/><path class="cls-2" d="M45.17,75.68a22.85,22.85,0,0,1-12.38-4l-.85,4.81a22.94,22.94,0,0,0,13.23,4.58A23,23,0,0,0,58.4,76.53l-.86-4.81a22.84,22.84,0,0,1-12.37,4Z"/><path class="cls-1" d="M57.54,71.72l-.69-3.9H33.49l-.7,3.9a22.85,22.85,0,0,0,12.38,4,22.84,22.84,0,0,0,12.37-4Z"/><path class="cls-1" d="M24.76,52.9l-4.09,1.22A2.13,2.13,0,0,1,18,52.69l-2.74-9.15a2.14,2.14,0,0,1,1.44-2.65l4.09-1.22a2.14,2.14,0,0,1,2.65,1.43l2.73,9.14a2.14,2.14,0,0,1-1.43,2.66Z"/><path class="cls-4" d="M64.64,9.12H25.48s-7,20.37-5.66,32.34c0,0,1.65,17.87,6.78,22.68S38.64,73,45.06,73s13.32-4,18.45-8.83,7.3-23.86,7.3-23.86c1.35-12-6.17-31.16-6.17-31.16Z"/><path class="cls-4" d="M21.62,49.65c1.68.56,1.47-15.69,5-17.32s3.95,2.8,7.68,1.87A32.87,32.87,0,0,0,40.55,32L38,35.13S51.72,37.19,57.77,32s6-3.59,6.29-2.43,2.79,4.19,4.19,6.29-.14,11.49-.14,11.49-.47,1.55.31,1.71,6-22.44,4.63-29S64.37,3.63,56.61,3.71,55.37,1.23,56.3.45s-7.22-.78-12.57,2S22.63,5.84,18.44,17.05c-3.18,8.52.08,18.39.85,21.57s1.4,10.72,2.33,11Z"/><path class="cls-3" d="M13,104.77c-.76.77.75,42.42,1.22,42.42S75.12,136.8,75.12,136.8l7.55-46.14L13,104.77Z"/><path class="cls-1" d="M1.5,104.77s7,3.24,10.6,3.77l.81-2.91S4.31,103.13,1.7,102l-.2,2.76Z"/><path class="cls-5" d="M75.43,100.09H16.6a4.51,4.51,0,0,0-4.5,4.51v20H79.93v-20a4.5,4.5,0,0,0-4.5-4.51Z"/><path class="cls-6" d="M29.69,111.64h-10v-35a1.81,1.81,0,0,1,1.8-1.8h6.44a1.81,1.81,0,0,1,1.8,1.8v35Z"/><path class="cls-6" d="M70.37,111.64h-10v-35a1.81,1.81,0,0,1,1.8-1.8h6.44a1.8,1.8,0,0,1,1.79,1.8v35Z"/><path class="cls-6" d="M12.1,147.37a4.51,4.51,0,0,0,4.5,4.51H75.43a4.5,4.5,0,0,0,4.5-4.51v-20H12.1v20Z"/><path class="cls-4" d="M75.43,102.88H16.6a4.51,4.51,0,0,0-4.5,4.51v20H79.93v-20a4.5,4.5,0,0,0-4.5-4.51Z"/><path class="cls-3" d="M31.27,134.58H28.12A1.58,1.58,0,0,1,26.54,133v-8.52a1.57,1.57,0,0,1,1.58-1.57h3.15a1.57,1.57,0,0,1,1.58,1.57V133a1.58,1.58,0,0,1-1.58,1.57Z"/><path class="cls-3" d="M61.91,134.58H58.76A1.58,1.58,0,0,1,57.18,133v-8.52a1.57,1.57,0,0,1,1.58-1.57h3.15a1.57,1.57,0,0,1,1.57,1.57V133a1.57,1.57,0,0,1-1.57,1.57Z"/><path class="cls-7" d="M17.65,121.1A3.06,3.06,0,0,1,20.72,118a3.27,3.27,0,0,1,.45,0,3.34,3.34,0,1,0-1,6.52,3.38,3.38,0,0,0,2.46-1.09,3.12,3.12,0,0,1-1.91.67,3.06,3.06,0,0,1-3.07-3.07Z"/><path class="cls-8" d="M21.17,118.07a3.27,3.27,0,0,0-.45,0,3.07,3.07,0,1,0,0,6.14,3.12,3.12,0,0,0,1.91-.67,3.33,3.33,0,0,0-1.46-5.43Z"/><polygon class="cls-9" points="29.69 102.88 19.65 102.88 19.65 100.09 29.69 100.09 29.69 102.88 29.69 102.88"/><polygon class="cls-9" points="70.37 102.88 60.34 102.88 60.34 100.09 70.37 100.09 70.37 102.88 70.37 102.88"/><path class="cls-2" d="M72.35,104.52s-7.5,29.67-6.41,33.49c.64,2.27,22.58,12.88,56,7.29l-3.68-7.91s-19-5.16-31-6.12c-2.17-.17-3.78-1.34-2.76-3.26a54.46,54.46,0,0,0,5.44-18.33c.84-8.27-17.59-5.16-17.59-5.16Z"/><path class="cls-2" d="M156.17,112.21c1.64,6.67,6.84,28.31,5.93,31.54-.65,2.27-9.73,24.43-21.4,33.88l-7.44-2.28s3.79-10.07,7.22-22.48c1.16-4.21,4.91-12,3.88-13.9-2.22-4.17-4.92-15-6-21.66l17.82-5.1Z"/><polygon class="cls-1" points="144.43 115.64 156.05 111.72 157 115.64 144.52 118.9 144.43 115.64 144.43 115.64"/><path class="cls-2" d="M113.32,85.84a22.84,22.84,0,0,1-12.37-4l-.86,4.81a21.41,21.41,0,0,0,26.47,0l-.86-4.81a22.88,22.88,0,0,1-12.38,4Z"/><path class="cls-1" d="M125.7,81.88,125,78H101.64l-.69,3.9a21.32,21.32,0,0,0,24.75,0Z"/><path class="cls-1" d="M92.91,63.06l-4.08,1.22a2.15,2.15,0,0,1-2.66-1.44L83.44,53.7a2.13,2.13,0,0,1,1.43-2.65L89,49.83a2.14,2.14,0,0,1,2.66,1.43l2.73,9.14a2.15,2.15,0,0,1-1.44,2.66Z"/><path class="cls-1" d="M133,63.06l4.09,1.22a2.14,2.14,0,0,0,2.65-1.44l2.74-9.14A2.14,2.14,0,0,0,141,51.05l-4.08-1.22a2.13,2.13,0,0,0-2.66,1.43l-2.73,9.14A2.14,2.14,0,0,0,133,63.06Z"/><path class="cls-4" d="M132.79,19.27H93.63s-7,20.55-5.63,32.51c0,0,1.62,17.7,6.76,22.52s12,8.83,18.45,8.83,13.32-4,18.46-8.83S139,50.44,139,50.44c1.34-12-6.18-31.17-6.18-31.17Z"/><path class="cls-4" d="M89.78,59.81c1.68.56-.24-11,4.88-14.72,3.39-2.46,14.28-7.6,19.41-14.3,8.83,10.27,18,8.32,18.14,8.91.23,1.16,2.79,4.19,4.19,6.28s-.14,11.5-.14,11.5-.46,1.55.31,1.71,6-24.33,3.2-32.4C132.93,7,92.18,7.7,86.59,27.21c-2.5,8.74.08,18.39.86,21.57s1.4,10.72,2.33,11Z"/><path class="cls-1" d="M69.83,115s8.1,2.86,9.78,3.28v-3l-9.13-3L69.83,115Z"/><path class="cls-8" d="M138.49,100.85l.18.93c0,.15.06.3.08.45l6,32.73c0,.45,0,.91,0,1.36V135c-.07-7.36-.19-14.49-.34-19.23a95,95,0,0,0,13.41-4.42c-.93-3.36-4.66-14.88-7.92-19.3-2.39-3.25-13.49-4.74-19.23-5.3,4.1,2.79,6.78,7.81,7.81,14.12Z"/><path class="cls-8" d="M144.66,164.49h0c0,.09,0,.15,0,.15s0-.06,0-.15Z"/><polygon class="cls-8" points="144.69 164.04 144.69 164.04 144.69 164.14 144.69 164.04 144.69 164.04"/><path class="cls-8" d="M127.23,86.44s1.37.09,3.43.29c-2.06-.21-3.43-.29-3.43-.29Z"/><path class="cls-8" d="M144.83,145.6c0-.38,0-.77,0-1.15,0,.39,0,.78,0,1.17v0Z"/><path class="cls-8" d="M144.84,150.39v0Z"/><path class="cls-8" d="M144.8,140.13c0-.76,0-1.52,0-2.28v-.06c0,.78,0,1.57,0,2.35Z"/><path class="cls-8" d="M144.81,159v0Z"/><path class="cls-8" d="M144.79,160.49c0-.43,0-.88,0-1.36v-.06c0,.5,0,1,0,1.42Z"/><path class="cls-8" d="M144.83,155c0-.3,0-.61,0-.92,0,.32,0,.64,0,1v0Z"/><path class="cls-8" d="M80.34,140.81l6.08-33.1V87.94c-4.6.87-9.06,2.17-10.47,4.09C72.69,96.45,69,108,68,111.33a88.8,88.8,0,0,0,11.18,3.82V147l1.13-6.17Z"/><path class="cls-8" d="M144.76,162.14h0c0,.1,0,.18,0,.27,0-.09,0-.17,0-.26Z"/><path class="cls-8" d="M144.7,163.87c0-.2,0-.42,0-.69h0c0,.27,0,.5,0,.7Z"/><polygon class="cls-10" points="144.7 163.87 144.69 164.04 144.7 163.87 144.7 163.87"/><polygon class="cls-10" points="144.81 159.05 144.81 159.07 144.81 159.05 144.81 159.05"/><polygon class="cls-10" points="130.68 86.73 130.66 86.73 130.68 86.73 130.68 86.73 130.68 86.73"/><path class="cls-10" d="M144.82,142.86v1.59c0-1.42,0-2.85,0-4.31v.48c0,.75,0,1.5,0,2.24Z"/><path class="cls-10" d="M144.77,161.78c0,.12,0,.24,0,.35,0-.48,0-1,0-1.64v.39c0,.32,0,.61,0,.9Z"/><path class="cls-10" d="M144.73,163.17c0-.23,0-.5,0-.77,0,.26,0,.52,0,.73v0Z"/><path class="cls-10" d="M144.82,157v.38c0,.24,0,.46,0,.69,0-.93,0-1.93,0-3v.45c0,.51,0,1,0,1.48Z"/><path class="cls-10" d="M144.66,164.49c0-.08,0-.21,0-.35l0,.24v.11Z"/><path class="cls-10" d="M144.84,150.44v0Z"/><path class="cls-10" d="M144.84,148.06v1.41c0-1.25,0-2.53,0-3.85v2.44Z"/><path class="cls-10" d="M144.78,137.79c0-.49,0-1,0-1.47,0,.43,0,.86,0,1.3v.17Z"/><path class="cls-10" d="M144.84,153v-7.37c0-.39,0-.78,0-1.17v-1.59c0-.74,0-1.49,0-2.24v-.48c0-.78,0-1.57,0-2.35v-.17c0-.44,0-.87,0-1.3s0-.91,0-1.36l-6-32.73c0-.15-.06-.3-.08-.45l-.18-.93c-1-6.31-3.71-11.33-7.81-14.12h0c-2.06-.2-3.43-.29-3.43-.29H100.54v46.47H86.42v-25.2l-6.08,33.1h0L79.21,147v18.66l65.41-1s0-.06,0-.15v-.11l0-.24v-.27c0-.2,0-.43,0-.7v0c0-.21,0-.47,0-.73,0-.09,0-.17,0-.27s0-.23,0-.35c0-.29,0-.58,0-.9v-.39c0-.45,0-.92,0-1.42v-1c0-.23,0-.45,0-.69V157c0-.48,0-1,0-1.48V155c0-.31,0-.63,0-1V153Z"/><path class="cls-10" d="M86.42,107.71l1-5.48,0-.1.24-1.28c1.19-6.26,3.87-11.36,8-14.17,1.79-.17,2.95-.24,2.95-.24a114.21,114.21,0,0,0-12.21,1.5v19.77Z"/><path class="cls-10" d="M139.44,107.71l-1-5.48,0-.1-.24-1.28c-1.19-6.26-3.87-11.36-8-14.17-1.79-.17-3-.24-3-.24a114.21,114.21,0,0,1,12.21,1.5v19.77Z"/><path class="cls-10" d="M95.68,86.68c-4.13,2.81-6.81,7.91-8,14.17l-.24,1.28,0,.1-1,5.48v25.2h14.12V86.44H98.63s-1.16.07-2.95.24Z"/><path class="cls-11" d="M98.49,120.39h-10v-35a1.81,1.81,0,0,1,1.8-1.8H96.7a1.8,1.8,0,0,1,1.79,1.8v35Z"/><path class="cls-11" d="M137.83,120.39h-10v-35a1.8,1.8,0,0,1,1.8-1.8H136a1.8,1.8,0,0,1,1.8,1.8v35Z"/><path class="cls-6" d="M128.25,66S149.74,64.36,146,86.58c-2.62,15.64-17.38,22.13-18.31,26.63v-7s-.29,0-1.15,1.24-1.31-14.71,0-20.78c-7.45-1.36-7.21-9.21-5.84-14.39l1.49-1.76,6-4.55Z"/><path class="cls-12" d="M128.39,66.88l-6,6a.8.8,0,0,1-1.13,0l-1.12-1.13a.79.79,0,0,1,0-1.12l6-6a.79.79,0,0,1,1.12,0l1.13,1.12a.8.8,0,0,1,0,1.13Z"/><path class="cls-13" d="M84.78,166.91l4.37-23.81a62.69,62.69,0,0,1-5.69-2.65L78.6,166.91a15.32,15.32,0,0,0,5.85,15.29,14,14,0,0,0,8,2.56h6.17a14,14,0,0,1-8-2.56,15.31,15.31,0,0,1-5.84-15.29Z"/><polygon class="cls-14" points="89.88 105.45 89.86 105.54 83.46 140.45 83.46 140.45 83.75 138.85 89.88 105.45 89.88 105.45"/><path class="cls-15" d="M89.44,141.49a61.2,61.2,0,0,1-5.69-2.64l-.29,1.6a62.69,62.69,0,0,0,5.69,2.65l.29-1.61Z"/><path class="cls-16" d="M89.44,141.49l.19-1h0L96,105.54l0-.09.21-1.16c1.24-6.55,4.28-11.71,9.08-13.87h-.92c-8,0-12.86,6.27-14.55,15l-6.13,33.4a61.2,61.2,0,0,0,5.69,2.64Z"/><path class="cls-11" d="M147.57,166.91,142.64,140a62.12,62.12,0,0,1-53.49,3.07l-4.37,23.81a15.31,15.31,0,0,0,5.84,15.29,14,14,0,0,0,8,2.56h35a14,14,0,0,0,8.05-2.56,15.3,15.3,0,0,0,5.85-15.29Z"/><path class="cls-17" d="M142.64,140h0l-6.33-34.49c0-.14-.05-.27-.08-.4l6.11,33.29.3,1.6Z"/><path class="cls-14" d="M112.66,146.06a61.22,61.22,0,0,1-23.22-4.57l-.29,1.61A62.12,62.12,0,0,0,142.64,140l-.3-1.6a61.3,61.3,0,0,1-29.68,7.63Z"/><path class="cls-17" d="M121.74,90.42H105.35c-4.8,2.16-7.84,7.32-9.08,13.87l-.21,1.16,0,.09-6.41,34.91h0l-.19,1a61.43,61.43,0,0,0,52.9-3.06l-6.11-33.29c-1.56-8.74-6.6-14.72-14.49-14.72Z"/><path class="cls-13" d="M141.44,166.91,137,142.68c1.94-.8,3.85-1.67,5.69-2.65l5,26.88a15.32,15.32,0,0,1-5.85,15.29,14,14,0,0,1-8.05,2.56h-6.17a14,14,0,0,0,8-2.56,15.31,15.31,0,0,0,5.84-15.29Z"/><path class="cls-16" d="M136.66,141.16l-.07-.71h0l-6.41-34.91,0-.09-.21-1.16c-1.24-6.55-4.28-11.71-9.09-13.87h.92c8,0,12.87,6.27,14.56,15l6,33.07a60,60,0,0,1-5.69,2.64Z"/><path class="cls-4" d="M114.66,151.89h-3.15a1.58,1.58,0,0,1-1.58-1.58V141.8a1.58,1.58,0,0,1,1.58-1.58h3.15a1.58,1.58,0,0,1,1.58,1.58v8.51a1.58,1.58,0,0,1-1.58,1.58Z"/><path class="cls-12" d="M119.62,177.58H106.55a4.79,4.79,0,0,1-4.8-4.79V157.68h22.67v15.11a4.79,4.79,0,0,1-4.8,4.79Z"/><path class="cls-5" d="M90,157.54a3.17,3.17,0,0,1,3.17-3.17,3.57,3.57,0,0,1,.47,0,3.59,3.59,0,0,0-1-.17A3.45,3.45,0,1,0,95.1,160a3.09,3.09,0,0,1-2,.7A3.16,3.16,0,0,1,90,157.54Z"/><path class="cls-3" d="M93.6,154.41a3.57,3.57,0,0,0-.47,0,3.17,3.17,0,1,0,0,6.33,3.09,3.09,0,0,0,2-.7,3.42,3.42,0,0,0-1.5-5.59Z"/><path class="cls-18" d="M85.23,162.55a2.7,2.7,0,0,1,2.69-2.69,2.58,2.58,0,0,1,.4,0,2.85,2.85,0,0,0-.88-.15,2.93,2.93,0,1,0,0,5.86,2.89,2.89,0,0,0,2.15-1,2.64,2.64,0,0,1-1.67.6,2.7,2.7,0,0,1-2.69-2.7Z"/><path class="cls-19" d="M88.32,159.9a2.58,2.58,0,0,0-.4,0,2.7,2.7,0,0,0,0,5.39,2.64,2.64,0,0,0,1.67-.6,2.9,2.9,0,0,0,.78-2,2.93,2.93,0,0,0-2.05-2.78Z"/><path class="cls-20" d="M92.42,166.82a4.14,4.14,0,0,1,4.14-4.14,4.07,4.07,0,0,1,.61.06,4.35,4.35,0,0,0-1.35-.23,4.51,4.51,0,1,0,3.31,7.54,4.13,4.13,0,0,1-6.71-3.23Z"/><path class="cls-12" d="M97.17,162.74a4.07,4.07,0,0,0-.61-.06,4.14,4.14,0,1,0,2.57,7.37,4.47,4.47,0,0,0-2-7.31Z"/><path class="cls-21" d="M114,149.47h-1.85a.93.93,0,0,1-.92-.92v-5a.93.93,0,0,1,.92-.92H114a.92.92,0,0,1,.92.92v5a.92.92,0,0,1-.92.92Z"/><polygon class="cls-20" points="124.42 158.94 101.75 158.94 101.75 157.68 124.42 157.68 124.42 158.94 124.42 158.94"/></g></g></svg>