<svg xmlns="http://www.w3.org/2000/svg" viewBox="0 0 162.2 184.75"><defs><style>.cls-1{fill:#80c2c9;}.cls-2{fill:#aee0e9;}.cls-3{fill:#ef9b41;}.cls-4{fill:#132937;}.cls-5{fill:#d67f30;}.cls-6{fill:#26404e;}.cls-7{fill:#335789;}.cls-8{fill:#4168b1;}.cls-9{fill:#1a3442;}.cls-10{fill:#2b5a9b;}.cls-11{fill:#5452a3;}.cls-12{fill:#ea8f77;}.cls-13{fill:#40459b;}.cls-14{fill:#383e99;}.cls-15{fill:#293a8d;}.cls-16{fill:#517fc0;}.cls-17{fill:#6d90ca;}.cls-18{fill:#0d7067;}.cls-19{fill:#179187;}.cls-20{fill:#ca5e54;}.cls-21{fill:#000311;}</style></defs><title>education</title><g id="Layer_2" data-name="Layer 2"><g id="Calque_1" data-name="Calque 1"><rect class="cls-1" x="64.57" y="39.98" width="8.53" height="13.81" rx="2.13" ry="2.13" transform="translate(121.37 111.52) rotate(-163.36)"/><path class="cls-2" d="M1.7,102S-.81,134.84.27,138.67c.65,2.27,17.6,9.7,51,4.11l-3.69-7.91s-19-5.15-31-6.11c-2.16-.18-3.78-1.35-2.75-3.27a54.61,54.61,0,0,0,5.43-18.33C20.14,98.89,1.7,102,1.7,102Z"/><path class="cls-3" d="M45.17,109.92c9.23,0,27.83,21.85,34.76,20.45,7.87-1.58,5.09-20.59,8.48-21.84,2-.73,1.66-7.11,1.66-7.11-.93-3.36-4.66-14.88-7.92-19.3s-22.68-5.59-22.68-5.59H30.87S11.44,77.7,8.19,82.12s-7,15.94-7.92,19.3a120.87,120.87,0,0,0,44.89,8.5h0Z"/><path class="cls-2" d="M45.17,75.67a22.86,22.86,0,0,1-12.38-4l-.85,4.81a22.94,22.94,0,0,0,13.23,4.58A23,23,0,0,0,58.4,76.53l-.86-4.81A23,23,0,0,1,45.17,75.67Z"/><path class="cls-1" d="M57.54,71.72l-.69-3.9H33.49l-.7,3.9a22.86,22.86,0,0,0,12.38,4A23,23,0,0,0,57.54,71.72Z"/><rect class="cls-1" x="16.47" y="39.98" width="8.53" height="13.81" rx="2.13" ry="2.13" transform="translate(-12.56 7.9) rotate(-16.64)"/><path class="cls-4" d="M64.64,9.11H25.48s-7,20.38-5.66,32.34c0,0,1.65,17.87,6.78,22.68S38.64,73,45.06,73s13.32-4,18.45-8.83,7.3-23.86,7.3-23.86C72.16,28.31,64.64,9.11,64.64,9.11Z"/><path class="cls-4" d="M21.62,49.64c1.68.56,1.47-15.68,5-17.31s4,2.79,7.68,1.86A32.82,32.82,0,0,0,40.55,32L38,35.12S51.72,37.19,57.77,32s6-3.59,6.29-2.42,2.79,4.18,4.18,6.28-.13,11.5-.13,11.5-.47,1.55.31,1.7,6-22.43,4.63-29S64.37,3.62,56.61,3.7,55.37,1.22,56.3.44s-7.22-.77-12.57,2S22.63,5.83,18.44,17.05c-3.18,8.52.08,18.38.85,21.56S20.69,49.33,21.62,49.64Z"/><path class="cls-3" d="M13,104.76c-.76.77.75,42.42,1.22,42.42s60.94-10.39,60.94-10.39l7.55-46.14Z"/><path class="cls-1" d="M1.5,104.77s7,3.24,10.6,3.76l.81-2.9S4.31,103.12,1.7,102Z"/><path class="cls-5" d="M75.43,100.09H16.6a4.51,4.51,0,0,0-4.5,4.5v20H79.93v-20A4.5,4.5,0,0,0,75.43,100.09Z"/><path class="cls-6" d="M21.45,74.82h6.44a1.8,1.8,0,0,1,1.8,1.8v35a0,0,0,0,1,0,0h-10a0,0,0,0,1,0,0v-35A1.8,1.8,0,0,1,21.45,74.82Z"/><path class="cls-6" d="M62.14,74.82h6.44a1.8,1.8,0,0,1,1.8,1.8v35a0,0,0,0,1,0,0h-10a0,0,0,0,1,0,0v-35A1.8,1.8,0,0,1,62.14,74.82Z"/><path class="cls-6" d="M12.1,147.37a4.51,4.51,0,0,0,4.5,4.5H75.43a4.5,4.5,0,0,0,4.5-4.5v-20H12.1Z"/><path class="cls-4" d="M75.43,102.88H16.6a4.5,4.5,0,0,0-4.5,4.5v20H79.93v-20A4.49,4.49,0,0,0,75.43,102.88Z"/><rect class="cls-3" x="26.54" y="122.91" width="6.3" height="11.67" rx="1.58" ry="1.58"/><rect class="cls-3" x="57.18" y="122.91" width="6.3" height="11.67" rx="1.58" ry="1.58"/><path class="cls-7" d="M17.65,121.09A3.07,3.07,0,0,1,20.72,118a2.22,2.22,0,0,1,.45,0,3.33,3.33,0,1,0,1.46,5.42,3.06,3.06,0,0,1-5-2.4Z"/><path class="cls-8" d="M21.17,118.07a2.22,2.22,0,0,0-.45,0,3.08,3.08,0,1,0,1.91,5.47,3.32,3.32,0,0,0-1.46-5.42Z"/><rect class="cls-9" x="19.65" y="100.09" width="10.03" height="2.79"/><rect class="cls-9" x="60.34" y="100.09" width="10.03" height="2.79"/><path class="cls-2" d="M72.35,104.52s-7.5,29.66-6.41,33.48c.64,2.28,22.58,12.88,56,7.3l-3.68-7.92s-19-5.15-31-6.11c-2.17-.18-3.78-1.35-2.76-3.26a54.53,54.53,0,0,0,5.44-18.33C90.78,101.4,72.35,104.52,72.35,104.52Z"/><path class="cls-2" d="M156.17,112.21c1.64,6.66,6.84,28.31,5.93,31.53-.65,2.28-9.73,24.43-21.4,33.89l-7.44-2.28s3.79-10.08,7.22-22.48c1.16-4.22,4.91-12,3.88-13.91-2.23-4.17-4.92-15-6-21.66Z"/><polygon class="cls-1" points="144.43 115.63 156.05 111.71 157 115.63 144.52 118.89 144.43 115.63"/><path class="cls-2" d="M113.32,85.83a22.94,22.94,0,0,1-12.37-4l-.86,4.81a21.45,21.45,0,0,0,26.47,0l-.86-4.81A23,23,0,0,1,113.32,85.83Z"/><path class="cls-1" d="M125.7,81.88,125,78H101.64l-.69,3.9a21.36,21.36,0,0,0,24.75,0Z"/><rect class="cls-1" x="84.63" y="50.14" width="8.53" height="13.81" rx="2.13" ry="2.13" transform="translate(-12.61 27.84) rotate(-16.64)"/><rect class="cls-1" x="132.73" y="50.14" width="8.53" height="13.81" rx="2.13" ry="2.13" transform="translate(251.92 150.93) rotate(-163.36)"/><path class="cls-4" d="M132.79,19.27H93.63s-7,20.54-5.63,32.5c0,0,1.62,17.71,6.76,22.52s12,8.83,18.45,8.83,13.32-4,18.46-8.83S139,50.43,139,50.43C140.31,38.47,132.79,19.27,132.79,19.27Z"/><path class="cls-4" d="M89.78,59.8c1.68.56-.24-11,4.88-14.71,3.39-2.47,14.28-7.6,19.41-14.31,8.83,10.27,18,8.32,18.14,8.91.23,1.17,2.79,4.19,4.19,6.29s-.14,11.5-.14,11.5-.46,1.55.31,1.7,6-24.33,3.2-32.4C132.93,7,92.18,7.69,86.59,27.2c-2.5,8.75.08,18.39.86,21.57S88.85,59.49,89.78,59.8Z"/><path class="cls-1" d="M69.83,115s8.1,2.86,9.78,3.28v-3l-9.13-3Z"/><path class="cls-8" d="M138.49,100.84l.18.94c0,.15.06.29.08.45l6,32.73c0,.45,0,.9,0,1.35,0-.44,0-.89,0-1.33-.07-7.37-.19-14.5-.34-19.24a95,95,0,0,0,13.41-4.42c-.93-3.35-4.66-14.87-7.92-19.3-2.39-3.24-13.49-4.73-19.23-5.3C134.78,89.52,137.46,94.54,138.49,100.84Z"/><path class="cls-8" d="M144.66,164.48h0a.63.63,0,0,1,0,.16A.63.63,0,0,0,144.66,164.48Z"/><path class="cls-8" d="M144.69,164h0a.31.31,0,0,1,0,.1A.28.28,0,0,0,144.69,164Z"/><path class="cls-8" d="M127.23,86.44s1.37.08,3.43.28C128.6,86.52,127.23,86.44,127.23,86.44Z"/><path class="cls-8" d="M144.83,145.59c0-.38,0-.76,0-1.15,0,.39,0,.79,0,1.17Z"/><path class="cls-8" d="M144.84,150.39v0Z"/><path class="cls-8" d="M144.8,140.13c0-.76,0-1.53,0-2.29v-.06c0,.79,0,1.57,0,2.36Z"/><path class="cls-8" d="M144.81,159v0Z"/><path class="cls-8" d="M144.79,160.48c0-.43,0-.88,0-1.36v-.06c0,.51,0,1,0,1.43Z"/><path class="cls-8" d="M144.83,155v0Z"/><path class="cls-8" d="M80.34,140.8l6.08-33.1V87.94C81.82,88.8,77.36,90.11,76,92c-3.26,4.43-7,16-7.92,19.3a88.8,88.8,0,0,0,11.18,3.82V147l1.13-6.17Z"/><path class="cls-8" d="M144.76,162.13h0c0,.09,0,.17,0,.26C144.75,162.3,144.76,162.23,144.76,162.13Z"/><path class="cls-8" d="M144.7,163.87c0-.2,0-.43,0-.7h0c0,.28,0,.51,0,.71Z"/><path class="cls-10" d="M144.7,163.87a.81.81,0,0,1,0,.16A.81.81,0,0,0,144.7,163.87Z"/><path class="cls-10" d="M144.81,159v0Z"/><path class="cls-10" d="M130.68,86.72h0Z"/><path class="cls-10" d="M144.82,142.85v1.59c0-1.41,0-2.85,0-4.3v.48C144.81,141.37,144.81,142.11,144.82,142.85Z"/><path class="cls-10" d="M144.77,161.77c0,.12,0,.24,0,.36,0-.49,0-1,0-1.64,0,.13,0,.25,0,.38C144.78,161.19,144.77,161.49,144.77,161.77Z"/><path class="cls-10" d="M144.73,163.16c0-.22,0-.5,0-.77,0,.26,0,.52,0,.73Z"/><path class="cls-10" d="M144.82,156.94v.38c0,.24,0,.46,0,.69,0-.93,0-1.92,0-3v.45C144.83,156,144.83,156.46,144.82,156.94Z"/><path class="cls-10" d="M144.66,164.48a3,3,0,0,0,0-.35c0,.09,0,.18,0,.24A.45.45,0,0,0,144.66,164.48Z"/><path class="cls-10" d="M144.84,150.43v2.67c0,.33,0,.64,0,1C144.84,152.91,144.84,151.7,144.84,150.43Z"/><path class="cls-10" d="M144.84,148.05v1.41c0-1.25,0-2.53,0-3.85v.29C144.83,146.63,144.83,147.35,144.84,148.05Z"/><path class="cls-10" d="M144.78,137.78c0-.49,0-1,0-1.47,0,.43,0,.87,0,1.3Z"/><path class="cls-10" d="M144.84,153v-4.93c0-.7,0-1.42,0-2.15v-.29c0-.38,0-.78,0-1.17v-1.59c0-.74,0-1.48,0-2.23v-.48c0-.79,0-1.57,0-2.36v-.17c0-.43,0-.87,0-1.3s0-.9,0-1.35l-6-32.73c0-.16-.06-.3-.08-.45l-.18-.94c-1-6.3-3.71-11.32-7.81-14.12h0c-2.06-.2-3.43-.28-3.43-.28H100.54v46.47H86.42V107.7l-6.08,33.1h0L79.21,147v18.65l65.41-1a.63.63,0,0,0,0-.16.45.45,0,0,1,0-.11c0-.06,0-.15,0-.24a.31.31,0,0,0,0-.1.81.81,0,0,0,0-.16c0-.2,0-.43,0-.71v0c0-.21,0-.47,0-.73,0-.09,0-.17,0-.26s0-.24,0-.36c0-.28,0-.58,0-.9,0-.13,0-.25,0-.38,0-.45,0-.92,0-1.43V158c0-.23,0-.45,0-.69v-.38c0-.48,0-1,0-1.48v-1.4c0-.32,0-.63,0-1Z"/><path class="cls-10" d="M86.42,107.7l1-5.47a.43.43,0,0,0,0-.11l.24-1.28c1.19-6.26,3.87-11.35,8-14.17,1.79-.16,2.95-.23,2.95-.23a111.31,111.31,0,0,0-12.21,1.5V107.7Z"/><path class="cls-10" d="M139.44,107.7l-1-5.47a.43.43,0,0,1,0-.11l-.24-1.28c-1.19-6.26-3.87-11.35-8-14.17-1.79-.16-3-.23-3-.23a111.31,111.31,0,0,1,12.21,1.5V107.7Z"/><path class="cls-10" d="M95.68,86.67c-4.13,2.82-6.81,7.91-8,14.17l-.24,1.28a.43.43,0,0,1,0,.11l-1,5.47v25.21h14.12V86.44H98.63S97.47,86.51,95.68,86.67Z"/><path class="cls-11" d="M90.26,83.57H96.7a1.8,1.8,0,0,1,1.8,1.8v35a0,0,0,0,1,0,0h-10a0,0,0,0,1,0,0v-35A1.8,1.8,0,0,1,90.26,83.57Z"/><path class="cls-11" d="M129.6,83.57H136a1.8,1.8,0,0,1,1.8,1.8v35a0,0,0,0,1,0,0h-10a0,0,0,0,1,0,0v-35A1.8,1.8,0,0,1,129.6,83.57Z"/><path class="cls-6" d="M128.25,66S149.74,64.36,146,86.57c-2.62,15.65-17.38,22.13-18.31,26.63v-7s-.29,0-1.15,1.24-1.31-14.7,0-20.77h0c-7.45-1.36-7.21-9.21-5.84-14.4l1.49-1.76Z"/><rect class="cls-12" x="119.25" y="67.15" width="10.05" height="3.18" rx="0.8" ry="0.8" transform="translate(-12.21 108.01) rotate(-45)"/><path class="cls-13" d="M84.78,166.9l4.37-23.81a60,60,0,0,1-5.69-2.64L78.6,166.9a15.3,15.3,0,0,0,5.85,15.29,13.92,13.92,0,0,0,8,2.56h6.17a14,14,0,0,1-8-2.56A15.3,15.3,0,0,1,84.78,166.9Z"/><path class="cls-14" d="M89.88,105.44a.36.36,0,0,1,0,.1l-6.4,34.9h0l.29-1.61Z"/><path class="cls-15" d="M89.44,141.48a61.2,61.2,0,0,1-5.69-2.64l-.29,1.61a60,60,0,0,0,5.69,2.64Z"/><path class="cls-16" d="M89.44,141.48l.19-1h0L96,105.54a.36.36,0,0,1,0-.1l.21-1.16c1.24-6.55,4.28-11.7,9.08-13.86h-.92c-8,0-12.86,6.27-14.55,15l-6.13,33.4A61.2,61.2,0,0,0,89.44,141.48Z"/><path class="cls-11" d="M147.57,166.9,142.64,140a62,62,0,0,1-53.49,3.07L84.78,166.9a15.3,15.3,0,0,0,5.84,15.29,14,14,0,0,0,8,2.56h35a13.92,13.92,0,0,0,8.05-2.56A15.29,15.29,0,0,0,147.57,166.9Z"/><path class="cls-17" d="M142.64,140h0l-6.33-34.48c0-.14-.05-.27-.08-.41l6.11,33.29Z"/><path class="cls-14" d="M112.66,146.05a61.22,61.22,0,0,1-23.22-4.57l-.29,1.61A62,62,0,0,0,142.64,140l-.3-1.6A61.19,61.19,0,0,1,112.66,146.05Z"/><path class="cls-17" d="M121.74,90.42H105.35c-4.8,2.16-7.84,7.31-9.08,13.86l-.21,1.16a.36.36,0,0,0,0,.1l-6.41,34.9h0l-.19,1a61.43,61.43,0,0,0,52.9-3.06l-6.11-33.29C134.67,96.39,129.63,90.42,121.74,90.42Z"/><path class="cls-13" d="M141.44,166.9,137,142.67a58.8,58.8,0,0,0,5.69-2.65l5,26.88a15.3,15.3,0,0,1-5.85,15.29,13.94,13.94,0,0,1-8.05,2.56h-6.18a14,14,0,0,0,8.06-2.56A15.3,15.3,0,0,0,141.44,166.9Z"/><path class="cls-16" d="M136.66,141.16l-.07-.71h0l-6.41-34.9a.36.36,0,0,0,0-.1l-.21-1.16c-1.24-6.55-4.28-11.7-9.09-13.86h.92c8,0,12.87,6.27,14.56,15l6,33.07A62.69,62.69,0,0,1,136.66,141.16Z"/><rect class="cls-4" x="109.93" y="140.22" width="6.3" height="11.67" rx="1.58" ry="1.58"/><path class="cls-12" d="M101.75,157.68h22.66a0,0,0,0,1,0,0v15.1a4.79,4.79,0,0,1-4.79,4.79H106.55a4.79,4.79,0,0,1-4.79-4.79v-15.1A0,0,0,0,1,101.75,157.68Z"/><path class="cls-5" d="M90,157.53a3.17,3.17,0,0,1,3.17-3.17,2.5,2.5,0,0,1,.47,0,3.29,3.29,0,0,0-1-.18A3.45,3.45,0,1,0,95.1,160,3.16,3.16,0,0,1,90,157.53Z"/><path class="cls-3" d="M93.6,154.41a2.5,2.5,0,0,0-.47,0,3.17,3.17,0,1,0,2,5.64,3.42,3.42,0,0,0-1.5-5.59Z"/><path class="cls-18" d="M85.23,162.55a2.7,2.7,0,0,1,2.69-2.7,2.58,2.58,0,0,1,.4,0,3.18,3.18,0,0,0-.88-.15,2.93,2.93,0,0,0,0,5.86,2.89,2.89,0,0,0,2.15-1,2.64,2.64,0,0,1-1.67.6A2.7,2.7,0,0,1,85.23,162.55Z"/><path class="cls-19" d="M88.32,159.89a2.58,2.58,0,0,0-.4,0,2.7,2.7,0,0,0,0,5.39,2.64,2.64,0,0,0,1.67-.6,2.88,2.88,0,0,0,.78-2A2.94,2.94,0,0,0,88.32,159.89Z"/><path class="cls-20" d="M92.42,166.81a4.15,4.15,0,0,1,4.14-4.14,4.07,4.07,0,0,1,.61.07,4.35,4.35,0,0,0-1.35-.24A4.51,4.51,0,1,0,99.13,170a4.13,4.13,0,0,1-6.71-3.23Z"/><path class="cls-12" d="M97.17,162.74a4.07,4.07,0,0,0-.61-.07A4.14,4.14,0,1,0,99.13,170a4.46,4.46,0,0,0-2-7.3Z"/><rect class="cls-21" x="111.24" y="142.64" width="3.69" height="6.82" rx="0.92" ry="0.92"/><rect class="cls-20" x="101.75" y="157.68" width="22.66" height="1.26"/></g></g></svg>