<svg xmlns="http://www.w3.org/2000/svg" viewBox="0 0 156.7 172.62"><defs><style>.cls-1{fill:#093553;}.cls-2{fill:#80c2c9;}.cls-3{fill:#aee0e9;}.cls-4{fill:#132937;}.cls-5{fill:#64707b;}.cls-6{fill:#4168b1;}.cls-7{fill:#2b5a9b;}.cls-8{fill:#525f6a;}.cls-9{fill:#ffc222;}.cls-10{fill:#dea528;}</style></defs><title>Asset 8</title><g id="Layer_2" data-name="Layer 2"><g id="Calque_1" data-name="Calque 1"><path class="cls-1" d="M76.66,159.77c.15,4.73.25,6.57.25,6.63s0,.08,0,.11a.45.45,0,0,1,0,.16c-.23,0-15.61,4.15-31.5,4.39-16.68.26-33.91-3.4-33.91-3.4v-4.49Z"/><rect class="cls-2" x="64.57" y="48.08" width="8.53" height="13.81" rx="2.13" ry="2.13" transform="translate(119.05 127.38) rotate(-163.36)"/><path class="cls-3" d="M1.7,110.11S-.81,142.94.27,146.77c.65,2.27,17.6,9.7,51,4.11L47.58,143s-19-5.15-31-6.11c-2.16-.18-3.78-1.35-2.75-3.27a54.62,54.62,0,0,0,5.43-18.32C20.14,107,1.7,110.11,1.7,110.11Z"/><path class="cls-3" d="M45.17,83.78a22.85,22.85,0,0,1-12.38-4l-.85,4.81a22.94,22.94,0,0,0,13.23,4.58A23,23,0,0,0,58.4,84.63l-.86-4.81A23,23,0,0,1,45.17,83.78Z"/><path class="cls-2" d="M58.4,84.63l-1.55-8.71H33.49l-1.17,6.44A25.3,25.3,0,0,0,45.17,86C51,86,56.56,85.88,58.4,84.63Z"/><rect class="cls-2" x="16.47" y="48.08" width="8.53" height="13.81" rx="2.13" ry="2.13" transform="translate(-14.88 8.24) rotate(-16.64)"/><path class="cls-4" d="M64.64,17.21H25.48s-7,20.38-5.66,32.34c0,0,1.65,17.87,6.78,22.68s12,8.83,18.46,8.83,13.32-4,18.45-8.83,7.3-23.86,7.3-23.86C72.16,36.41,64.64,17.21,64.64,17.21Z"/><path class="cls-4" d="M21.62,57.74c1.68.56,1.47-15.68,5-17.31s4,2.79,7.68,1.86a32.82,32.82,0,0,0,6.29-2.23L38,43.22s13.73,2.07,19.78-3.16,6-3.59,6.29-2.42,2.79,4.19,4.18,6.28-.13,11.5-.13,11.5-.47,1.55.31,1.7,6-22.43,4.63-29S64.37,11.72,56.61,11.8s-1.24-2.48-.31-3.26-7.22-.77-12.57,2-21.1,3.37-25.29,14.59c-3.18,8.52.08,18.38.85,21.56S20.69,57.43,21.62,57.74Z"/><path class="cls-2" d="M1.5,112.73s7,3.24,10.6,3.76l.81-2.9S4.31,111.08,1.7,110Z"/><path class="cls-5" d="M76.66,113.82a95,95,0,0,0,13.41-4.42c-.94-3.36-4.66-14.88-7.92-19.3-2.39-3.25-13.5-4.74-19.23-5.3h0c-2.06-.2-3.43-.29-3.43-.29H30.64l-.51,0H30l-.84.07h-.09L28,84.74h-.09c-2.37.22-5.85.62-9.27,1.26h0c-4.59.87-9,2.17-10.46,4.09C4.93,94.52,1.2,106,.27,109.4a88.8,88.8,0,0,0,11.18,3.82v50.49s17.23,3.66,33.91,3.4c15.89-.24,31.27-4.4,31.5-4.4,0,0,0-.06,0-.15s0-.07,0-.11S76.81,118.55,76.66,113.82Z"/><path class="cls-3" d="M107.82,73.57a22.84,22.84,0,0,1-12.37-4l-.86,4.81A23,23,0,0,0,107.82,79a23.06,23.06,0,0,0,13.24-4.58l-.86-4.81A22.88,22.88,0,0,1,107.82,73.57Z"/><path class="cls-2" d="M120.2,69.61l-.7-3.9H96.14l-.69,3.9a21.32,21.32,0,0,0,24.75,0Z"/><path class="cls-6" d="M121.73,74.17s1.37.08,3.43.28C123.1,74.25,121.73,74.17,121.73,74.17Z"/><path class="cls-7" d="M125.18,74.46h0Z"/><path class="cls-7" d="M133.94,95.44l-1-5.48a.43.43,0,0,1,0-.11l-.24-1.28c-1.19-6.26-3.87-11.35-8-14.16-1.79-.17-3-.24-3-.24a111.31,111.31,0,0,1,12.21,1.5V95.44Z"/><path class="cls-1" d="M.27,109.4a96,96,0,0,0,11.18,3.82v-2.59s-3.8-.5-10.42-3.74Z"/><path class="cls-1" d="M39.51,84.51s11.63.1,17.19,0l.2,4.72-19.83,1V85.11Z"/><polygon class="cls-8" points="67.07 102.24 70.47 104.24 70.47 164.16 76.09 162.94 76.09 100.66 67.07 102.24"/><path class="cls-8" d="M75.42,95.21a7.09,7.09,0,0,1-5,7c-8.44,2.62-27.57,7-30.53,7.08-3.59,0-5.86-1.78-21.92-19.85-1.82-2.05.8-5.92,9.33-5,2.57.29,10.42,2.14,14.26,5.1,3.65,2.82,3.33,3.5,12.66-1.29A53.56,53.56,0,0,1,69,83.44C74.21,82.57,75.31,89.85,75.42,95.21Z"/><path class="cls-4" d="M84.28,47.53c1.68.56-.24-11,4.88-14.71,3.39-2.46,14.28-7.6,19.41-14.31,8.83,10.28,18,8.32,18.14,8.92.23,1.16,2.79,4.19,4.19,6.28s-.14,11.5-.14,11.5-.46,1.55.31,1.71,6-24.34,3.2-32.4c-6.84-19.76-47.59-19.09-53.18.42-2.5,8.74.08,18.38.86,21.56S83.35,47.22,84.28,47.53Z"/><path class="cls-3" d="M76.09,91.83a7.11,7.11,0,0,1-5,7c-8.43,2.61-27.56,7-30.52,7.07-3.59.06-5.86-1.78-21.93-19.85-1.82-2.05.81-5.91,9.34-5,2.56.29,10.42,2.14,14.26,5.1,3.65,2.82,3.33,3.5,12.66-1.29a53.45,53.45,0,0,1,14.72-4.82C74.87,79.18,76,86.46,76.09,91.83Z"/><path class="cls-2" d="M58.18,83.37s4.59,9.56,10.59,16.11l-3.92,1.07s-4.69-3.29-9.94-15.68C54.91,84.87,56.9,83.84,58.18,83.37Z"/><path class="cls-3" d="M150.67,99.94c1.64,6.66,6.84,28.31,5.93,31.54-.65,2.27-9.73,24.42-21.4,33.88l-7.44-2.28S131.55,153,135,140.6c1.16-4.21,4.91-12,3.88-13.91-2.23-4.16-4.92-15-6-21.65Z"/><polygon class="cls-2" points="138.93 103.37 150.55 99.44 151.5 103.37 139.02 106.63 138.93 103.37"/><rect class="cls-2" x="79.13" y="37.87" width="8.53" height="13.81" rx="2.13" ry="2.13" transform="translate(-9.33 25.75) rotate(-16.64)"/><rect class="cls-2" x="127.23" y="37.87" width="8.53" height="13.81" rx="2.13" ry="2.13" transform="translate(244.66 125.33) rotate(-163.36)"/><path class="cls-4" d="M127.29,7H88.13s-7,20.54-5.63,32.51c0,0,1.62,17.7,6.76,22.52s12,8.82,18.45,8.82,13.32-4,18.46-8.82,7.3-23.87,7.3-23.87C134.81,26.2,127.29,7,127.29,7Z"/><path class="cls-9" d="M138.92,103.48a95,95,0,0,0,13.41-4.42c-.93-3.36-4.66-14.88-7.92-19.3-2.39-3.25-13.49-4.74-19.23-5.3h0c-2.06-.2-3.43-.28-3.43-.28H92.9l-.51,0h-.12l-.84.07h-.09l-1.07.1h-.09c-2.37.22-5.85.62-9.26,1.26h0c-4.6.86-19.68,6.23-22.74,7.7,0,0,8.49,17.53,15.53,19.51v66.49A182.74,182.74,0,0,0,108,172.61c15.39-.23,30.92-4.24,31.14-4.24C139.13,168.37,139.07,108.21,138.92,103.48Z"/><path class="cls-10" d="M132.77,105.79l.7,3.74a66,66,0,0,1-25.65,5.59,70.16,70.16,0,0,1-26.25-5.68l.52-3.65Z"/><path class="cls-4" d="M133.47,38.16s-1.33,63.59-.7,67.63a65.57,65.57,0,0,1-25,5.07,72.39,72.39,0,0,1-25.73-5.07c.59-2.79.16-67.79.16-67.79Z"/></g></g></svg>