<svg xmlns="http://www.w3.org/2000/svg" viewBox="0 0 121.93 200.45"><defs><style>.cls-1{fill:#bee3ee;}.cls-2{fill:#8dc5ce;}.cls-3{fill:#4461ab;}.cls-4{fill:#3055a3;}.cls-5{fill:#a2d1db;}.cls-6{fill:#f08138;}.cls-7{fill:#1e2c39;}</style></defs><title>Asset 49</title><g id="Layer_2" data-name="Layer 2"><g id="Layer_1-2" data-name="Layer 1"><path class="cls-1" d="M116.64,34.51a1,1,0,0,1,.63-.27,39.54,39.54,0,0,0-2.68-6.18l-8-.72s-.08,3-.38,7.73h.08c6.83,2.67,10.23-.44,10.36-.57Z"/><path class="cls-1" d="M117.92,36.22a10.06,10.06,0,0,1-6.44,2.07,16.14,16.14,0,0,1-5.42-1c-.28,4.07-.7,9.06-1.34,14.41-.53,4.49.65,13.85-1.07,15.28-3.76,3.12-11.17,12-14.82,17.93L103.9,96.69c4.16-5.74,17.58-24.42,18-27.87.22-2,.21-19-3.94-32.6Z"/><path class="cls-2" d="M118.09,36.73q-.32-1-.66-2a1.09,1.09,0,0,0-.64.28c-.14.13-3.58,3.29-10.52.58l-.07,0q-.08,1.06-.15,2.22a16.43,16.43,0,0,0,5.5,1,10.2,10.2,0,0,0,6.54-2.1Z"/><path class="cls-2" d="M94.26,77.16S103.14,87.1,106.35,93l-2.19,3L92.33,79.75s1.13-1.66,1.93-2.59Z"/><path class="cls-3" d="M88,111.2s2.66,59,3.9,63.61c0,0-60.6,13.11-77.25-.71l5-65.91,64-2.49L88,111.2Z"/><path class="cls-3" d="M92.42,78.77c-.77.83-2.74,1.59-5.15,2.26a24.22,24.22,0,0,1-.34,3.78C84,100.94,69,107.68,68,112.32v-7.21s-.3,0-1.19,1.28-1.36-15.19,0-21.46l-3.41-2H36.24s-20.07,1.21-23.43,5.78S5.59,105.2,4.63,108.66A124.89,124.89,0,0,0,51,117.46h0c13.38,0,23.07-1.86,29.41-3.72a3.17,3.17,0,0,0,3.66.29c9.22-4.78,20.56-16.48,20.56-16.48-.36-4.07-12.23-18.78-12.23-18.78Z"/><path class="cls-4" d="M66.82,106.39c.89-1.28,1.19-1.28,1.19-1.28v7.21c1-4.64,16-11.38,18.92-27.51A24.22,24.22,0,0,0,87.27,81a120,120,0,0,1-14,2.66c-4.14-.54-7.45-.74-7.45-.74H63.41l3.41,2c-1.36,6.27-.9,22.75,0,21.46Z"/><path class="cls-1" d="M51,82.06A23.73,23.73,0,0,1,38.23,78l-.88,5A23.72,23.72,0,0,0,51,87.68,23.8,23.8,0,0,0,64.69,83l-.89-5A23.62,23.62,0,0,1,51,82.06Z"/><path class="cls-2" d="M63.8,78.18l-.71-4H39l-.72,4A23.63,23.63,0,0,0,51,82.28a23.61,23.61,0,0,0,12.78-4.1Z"/><path class="cls-1" d="M22.46,195l-11.4,3a3.26,3.26,0,0,1-4-2.32L3.67,182.73a3.28,3.28,0,0,1,2.32-4l11.39-3a3.28,3.28,0,0,1,4,2.32L24.77,191a3.26,3.26,0,0,1-2.31,4Z"/><path class="cls-1" d="M25.29,197.5l-2.26.6a1.18,1.18,0,0,1-1.44-.84l-2.47-9.34a1.18,1.18,0,0,1,.83-1.44l2.26-.6a1.17,1.17,0,0,1,1.43.84l2.48,9.34a1.19,1.19,0,0,1-.83,1.44Z"/><path class="cls-1" d="M20.76,198.69l-2.26.6a1.16,1.16,0,0,1-1.43-.83l-2.48-9.35a1.18,1.18,0,0,1,.83-1.43l2.27-.6a1.18,1.18,0,0,1,1.43.84l2.47,9.34a1.16,1.16,0,0,1-.83,1.43Z"/><path class="cls-1" d="M16.54,199.52l-2.26.6a1.18,1.18,0,0,1-1.43-.83l-2.48-9.35a1.17,1.17,0,0,1,.83-1.43l2.26-.6a1.17,1.17,0,0,1,1.43.83l2.48,9.35a1.17,1.17,0,0,1-.83,1.43Z"/><path class="cls-1" d="M11.82,199.81l-2.26.6a1.17,1.17,0,0,1-1.43-.83l-2.48-9.35a1.17,1.17,0,0,1,.83-1.43l2.26-.6a1.18,1.18,0,0,1,1.43.83l2.48,9.35a1.17,1.17,0,0,1-.83,1.43Z"/><path class="cls-1" d="M108.4,11l5.27,0a6.52,6.52,0,0,1,6.54,6.47l0,4.73a6.53,6.53,0,0,1-6.47,6.54l-5.28,0A6.53,6.53,0,0,1,102,22.23l0-4.74A6.53,6.53,0,0,1,108.4,11Z"/><path class="cls-5" d="M104,0h0a2.13,2.13,0,0,1,2.13,2.11l0,14.34a2.12,2.12,0,1,1-4.24,0l0-14.34A2.13,2.13,0,0,1,104,0Z"/><path class="cls-5" d="M107.61,7.69l2.12,0a1.06,1.06,0,0,1,1.07,1.06l.06,8.76a1.07,1.07,0,0,1-1.06,1.06l-2.12,0a1.08,1.08,0,0,1-1.07-1.06l0-8.76a1.06,1.06,0,0,1,1-1.06Z"/><path class="cls-5" d="M112.3,7.92h2.12A1.05,1.05,0,0,1,115.49,9l.05,8.76a1.05,1.05,0,0,1-1.05,1.07h-2.12a1.07,1.07,0,0,1-1.07-1.05l0-8.76a1.06,1.06,0,0,1,1-1.07Z"/><path class="cls-5" d="M117,8.73h2.12a1.08,1.08,0,0,1,1.07,1.06l0,8.76a1.06,1.06,0,0,1-1,1.06l-2.12,0A1.06,1.06,0,0,1,116,18.56l0-8.76a1.07,1.07,0,0,1,1-1.07Z"/><path class="cls-6" d="M92.42,78.77s12.27,15.46,12.23,18.78l-1.91,1.91S92.29,82.14,89.63,80.28a10.12,10.12,0,0,0,2.79-1.51Z"/><path class="cls-6" d="M111.48,37.09a16.41,16.41,0,0,1-6-1.22,1.07,1.07,0,0,1,.78-2c6.83,2.68,10.23-.43,10.36-.57a1.07,1.07,0,0,1,1.49,1.53,9.79,9.79,0,0,1-6.65,2.25Z"/><path class="cls-4" d="M43.65,139.25H31a3.33,3.33,0,0,1-3.33-3.32V117.46H47v18.47a3.32,3.32,0,0,1-3.32,3.32Z"/><polygon class="cls-6" points="46.99 119.97 27.7 119.97 27.7 117.46 46.99 117.46 46.99 119.97 46.99 119.97"/><path class="cls-6" d="M37.35,83A24,24,0,0,0,51,87.68c8.22,0,14.44-5.4,14.44-5.4H68.2s-3.65,7.92-17,7.92-17-7.09-17-7.09A25.17,25.17,0,0,1,37.35,83Z"/><path class="cls-7" d="M73.43,59.37S87.69,66.9,84.8,83s-18,22.86-18.92,27.51v-7.21s-.3,0-1.19,1.28-1.35-15.19,0-21.46l-1.6-9,.15-7.53,10.19-7.26Z"/><path class="cls-2" d="M29.93,58.73,25.71,60A2.22,2.22,0,0,1,23,58.52l-2.82-9.45a2.2,2.2,0,0,1,1.48-2.74l4.22-1.27a2.22,2.22,0,0,1,2.75,1.48L31.41,56a2.2,2.2,0,0,1-1.48,2.74Z"/><path class="cls-2" d="M71.32,58.73,75.54,60a2.21,2.21,0,0,0,2.74-1.48l2.83-9.45a2.21,2.21,0,0,0-1.48-2.74L75.4,45.06a2.22,2.22,0,0,0-2.74,1.48L69.84,56a2.2,2.2,0,0,0,1.48,2.74Z"/><path class="cls-1" d="M71.13,13.5H30.67s-6.19,20.61-4.8,33c0,0,.66,18.91,6,23.88s12.44,9.12,19.07,9.12S64.66,75.32,70,70.35s6-23.88,6-23.88c1.39-12.36-4.81-33-4.81-33Z"/><path class="cls-2" d="M26.81,56.92c2.68.33,1-10.74,6-14.37,3.31-2.4,13.92-7.41,18.93-14,8.61,10,17.58,8.12,17.69,8.7.23,1.14,2.73,4.09,4.09,6.13S72.05,56.11,75,56.69c.76.15,4.49-24.12,1.77-32-6.67-19.27-46.42-18.62-51.87.41-2.44,8.53.08,17.93.83,21s.1,10.67,1,10.78Z"/><path class="cls-4" d="M24.09,114.23s-3.25,17.47-2.48,28.84,1.79,32,1.18,35a40.8,40.8,0,0,1-4.7-1.8l-3.43-44.22,9.43-17.86Z"/><path class="cls-1" d="M5.81,108.05C4.21,115-.86,137.39.13,140.72c.7,2.34.51,30.72,9.15,42.93l7.48-.16a66.37,66.37,0,0,0,2.48-26.58c-.47-4.49-2.64-19.57-1.61-21.56,2.25-4.34,5.63-15.35,6.66-22.28l-18.48-5Z"/><path class="cls-6" d="M24.09,114.23s.44-1.63.6-2.66c0,0-14.28-2.75-19.2-5.88l-.86,3a106.16,106.16,0,0,0,19.46,5.57Z"/><path class="cls-2" d="M24.09,114.23l-.43,2.26s-14-2.32-18.6-5.21L5.62,109s11.1,4.15,18.47,5.28Z"/><path class="cls-7" d="M26.69,55.38c1.74.58-.24-11.36,5-15.2,3.5-2.55,14.74-7.86,20-14.79C60.91,36,70.41,34,70.53,34.6c.24,1.2,2.89,4.33,4.33,6.5S74.72,53,74.72,53s-.48,1.61.32,1.77,6.19-25.14,3.3-33.48C71.28.85,29.17,1.54,23.4,21.7c-2.59,9,.08,19,.88,22.28s1.45,11.08,2.41,11.4Z"/></g></g></svg>