<svg xmlns="http://www.w3.org/2000/svg" viewBox="0 0 118.01 194"><defs><style>.cls-1{fill:#aee0e9;}.cls-2{fill:#80c2c9;}.cls-3{fill:#4168b1;}.cls-4{fill:#295fac;}.cls-5{fill:#92ccd5;}.cls-6{fill:#f58542;}.cls-7{fill:#132937;}</style></defs><title>expression</title><g id="Layer_2" data-name="Layer 2"><g id="Calque_1" data-name="Calque 1"><path class="cls-1" d="M112.89,33.4a1.06,1.06,0,0,1,.61-.27,38.77,38.77,0,0,0-2.6-6l-7.75-.69s-.08,2.91-.36,7.48h.07C109.47,36.54,112.76,33.53,112.89,33.4Z"/><path class="cls-1" d="M114.13,35.05a9.69,9.69,0,0,1-6.24,2,15.5,15.5,0,0,1-5.24-1c-.28,3.94-.68,8.77-1.29,14-.52,4.35.62,13.4-1,14.79-3.63,3-10.8,11.56-14.34,17.35l14.58,11.44c4-5.55,17-23.64,17.39-27C118.15,64.68,118.15,48.18,114.13,35.05Z"/><path class="cls-2" d="M114.29,35.54c-.2-.65-.41-1.3-.63-1.94a1,1,0,0,0-.62.27c-.14.13-3.47,3.19-10.18.56h-.08c0,.68-.09,1.39-.14,2.14a15.79,15.79,0,0,0,5.32,1A9.82,9.82,0,0,0,114.29,35.54Z"/><path class="cls-2" d="M91.23,74.67S99.82,84.3,102.93,90l-2.12,2.9L89.36,77.18S90.46,75.57,91.23,74.67Z"/><path class="cls-3" d="M85.16,107.62s2.57,57.11,3.78,61.57c0,0-58.65,12.69-74.77-.69L19,104.7l61.91-2.4Z"/><path class="cls-3" d="M89.45,76.24c-.75.8-2.66,1.53-5,2.18a22.61,22.61,0,0,1-.33,3.66c-2.79,15.61-17.38,22.13-18.31,26.63v-7s-.29,0-1.15,1.24-1.31-14.71,0-20.77l-3.3-1.92H35.08s-19.43,1.17-22.69,5.59-7,15.94-7.91,19.3a120.75,120.75,0,0,0,44.89,8.51h0c12.95,0,22.33-1.8,28.46-3.6a3.08,3.08,0,0,0,3.55.28c8.92-4.63,19.89-15.94,19.89-15.94C100.94,90.47,89.45,76.24,89.45,76.24Z"/><path class="cls-4" d="M64.67,103c.86-1.24,1.15-1.24,1.15-1.24v7c.93-4.5,15.52-11,18.31-26.63a22.61,22.61,0,0,0,.33-3.66A116,116,0,0,1,70.88,81c-4-.52-7.2-.72-7.2-.72H61.37l3.3,1.92C63.36,88.26,63.8,104.21,64.67,103Z"/><path class="cls-1" d="M49.38,79.42a23,23,0,0,1-12.38-4l-.86,4.81a23,23,0,0,0,13.24,4.57,23.08,23.08,0,0,0,13.23-4.57l-.86-4.82A22.87,22.87,0,0,1,49.38,79.42Z"/><path class="cls-2" d="M61.75,75.67l-.69-3.9H37.7l-.7,3.9a22.85,22.85,0,0,0,12.38,4A22.87,22.87,0,0,0,61.75,75.67Z"/><rect class="cls-1" x="4.91" y="171.23" width="17.7" height="19.23" rx="3.15" ry="3.15" transform="translate(-45.71 9.51) rotate(-14.79)"/><rect class="cls-1" x="19.62" y="180" width="4.53" height="11.63" rx="1.13" ry="1.13" transform="translate(-46.89 11.82) rotate(-14.85)"/><rect class="cls-1" x="15.25" y="181.16" width="4.53" height="11.63" rx="1.13" ry="1.13" transform="translate(-47.33 10.73) rotate(-14.85)"/><rect class="cls-1" x="11.16" y="181.96" width="4.53" height="11.63" rx="1.13" ry="1.13" transform="translate(-47.67 9.71) rotate(-14.85)"/><rect class="cls-1" x="6.59" y="182.24" width="4.53" height="11.63" rx="1.13" ry="1.13" transform="translate(-47.9 8.55) rotate(-14.85)"/><path class="cls-1" d="M104.91,10.6l5.11,0a6.32,6.32,0,0,1,6.33,6.27l0,4.58a6.32,6.32,0,0,1-6.26,6.33l-5.11,0a6.31,6.31,0,0,1-6.33-6.26l0-4.58A6.33,6.33,0,0,1,104.91,10.6Z"/><path class="cls-5" d="M100.64,0h0a2.06,2.06,0,0,1,2.07,2l0,13.88a2.07,2.07,0,0,1-2,2.07h0a2.07,2.07,0,0,1-2.07-2l0-13.89A2.07,2.07,0,0,1,100.64,0Z"/><rect class="cls-5" x="103.16" y="7.43" width="4.1" height="10.53" rx="1.03" ry="1.03" transform="translate(210.5 24.75) rotate(179.65)"/><rect class="cls-5" x="107.7" y="7.66" width="4.1" height="10.53" rx="1.03" ry="1.03" transform="translate(219.57 25.18) rotate(179.65)"/><rect class="cls-5" x="112.23" y="8.45" width="4.1" height="10.53" rx="1.03" ry="1.03" transform="translate(228.65 26.72) rotate(179.65)"/><path class="cls-6" d="M89.45,76.24s11.88,15,11.83,18.18l-1.84,1.84S89.32,79.5,86.75,77.69A10,10,0,0,0,89.45,76.24Z"/><path class="cls-6" d="M107.89,35.9a15.91,15.91,0,0,1-5.78-1.19,1,1,0,1,1,.75-1.92c6.61,2.59,9.9-.42,10-.55a1,1,0,0,1,1.46,0,1,1,0,0,1,0,1.44A9.35,9.35,0,0,1,107.89,35.9Z"/><path class="cls-4" d="M26.81,113.68H45.46a0,0,0,0,1,0,0v17.88a3.22,3.22,0,0,1-3.22,3.22H30a3.22,3.22,0,0,1-3.22-3.22V113.68A0,0,0,0,1,26.81,113.68Z"/><rect class="cls-6" x="26.81" y="113.68" width="18.67" height="2.43"/><path class="cls-6" d="M36.14,80.28a23.25,23.25,0,0,0,13.24,4.57c7.95,0,14-5.22,14-5.22H66S62.48,87.3,49.52,87.3,33,80.44,33,80.44A23.62,23.62,0,0,1,36.14,80.28Z"/><path class="cls-7" d="M71.07,57.45s13.79,7.3,11,22.91S64.69,102.5,63.76,107v-7s-.29,0-1.15,1.25-1.31-14.71,0-20.78l-1.55-8.71.14-7.29Z"/><rect class="cls-2" x="20.68" y="43.93" width="8.53" height="13.81" rx="2.13" ry="2.13" transform="translate(-13.51 9.27) rotate(-16.64)"/><rect class="cls-2" x="68.78" y="43.93" width="8.53" height="13.81" rx="2.13" ry="2.13" transform="translate(128.47 120.46) rotate(-163.36)"/><path class="cls-1" d="M68.84,13.06H29.69S23.69,33,25,45c0,0,.64,18.29,5.78,23.11s12,8.82,18.45,8.82,13.32-4,18.46-8.82S73.5,45,73.5,45C74.84,33,68.84,13.06,68.84,13.06Z"/><path class="cls-2" d="M26,55.09c2.59.32,1-10.39,5.79-13.91,3.2-2.33,13.48-7.18,18.32-13.51,8.34,9.7,17,7.86,17.13,8.42.22,1.1,2.64,3.95,4,5.93S69.73,54.3,72.62,54.86c.73.15,4.34-23.34,1.71-31-6.46-18.65-44.93-18-50.2.4-2.37,8.25.07,17.36.8,20.36S25,55,26,55.09Z"/><path class="cls-4" d="M23.32,110.56s-3.15,16.9-2.4,27.91,1.73,30.92,1.14,33.91a38.28,38.28,0,0,1-4.55-1.75l-3.32-42.79Z"/><path class="cls-1" d="M5.62,104.57C4.07,111.26-.84,133,.12,136.19c.68,2.26.5,29.74,8.86,41.55l7.24-.15a64.23,64.23,0,0,0,2.4-25.73c-.46-4.35-2.55-18.94-1.56-20.87,2.18-4.19,5.45-14.85,6.45-21.56Z"/><path class="cls-6" d="M23.32,110.56s.42-1.58.58-2.58c0,0-13.83-2.66-18.59-5.69l-.83,2.88A103.33,103.33,0,0,0,23.32,110.56Z"/><path class="cls-2" d="M23.32,110.56l-.42,2.18s-13.6-2.25-18-5l.55-2.25S16.18,109.46,23.32,110.56Z"/><path class="cls-7" d="M25.83,53.59c1.68.56-.24-11,4.88-14.71C34.1,36.42,45,31.28,50.12,24.57c8.83,10.28,18,8.32,18.14,8.92.24,1.16,2.8,4.19,4.19,6.28s-.13,11.5-.13,11.5-.47,1.55.31,1.71,6-24.34,3.19-32.4C69,.82,28.23,1.49,22.65,21c-2.51,8.74.07,18.38.85,21.56S24.9,53.28,25.83,53.59Z"/></g></g></svg>