<svg xmlns="http://www.w3.org/2000/svg" viewBox="0 0 147.73 204.61"><defs><style>.cls-1{fill:#1e2c39;}.cls-2{fill:#335fa3;}.cls-3{fill:#bee3ee;}.cls-4{fill:#8dc5ce;}.cls-5{fill:#1f519b;}.cls-6{fill:#ef9c34;}.cls-7{fill:#f18412;}.cls-8{fill:#6cb3ba;}.cls-9{fill:#31779a;}.cls-10{fill:#68afe1;}.cls-11{fill:#4399d1;}</style></defs><title>Asset 48</title><g id="Layer_2" data-name="Layer 2"><g id="Layer_1-2" data-name="Layer 1"><path class="cls-1" d="M24.58,46.15s-.5,37.09-2.91,39.59h54S74,48,74.17,42.74L24.58,46.15Z"/><path class="cls-2" d="M75.44,200.3l-1.3-4.9v0l-1-3.77a4.52,4.52,0,0,1,1.57-4.68c-4.21-9.37-4.17-25.08-4.6-26.52-.57-1.91,1.76-13,3.2-19.36l-8.66.33,2.72-2.88s2.65,0,6.58-.29h0a157.46,157.46,0,0,1-35.42-1.87l2.5-6.17s23.66-4.87,35.67-5.83c.28,0,.57,0,.85,0a18.5,18.5,0,0,1,1.24-2,3.81,3.81,0,0,1,.93-.83,87.39,87.39,0,0,1-5.26-16.38h0c-.22-1-.39-2-.52-2.94v0h0a120.71,120.71,0,0,1-24.3,2.52h0A122.14,122.14,0,0,1,22,101.34c-2.15,10.42-8.26,76.25-8.26,76.25-3.16,4.29-6.78,15.49-7.69,18.75a117.34,117.34,0,0,0,43.63,8.27h0a121.82,121.82,0,0,0,27.12-3.13,1.62,1.62,0,0,1-1.33-1.18Z"/><path class="cls-2" d="M78.7,200.1l-.12-.48a1.63,1.63,0,0,1-.73,1.62c.48-.11.92-.23,1.39-.35a1.63,1.63,0,0,1-.54-.79Z"/><polygon class="cls-2" points="81.76 200.23 82.01 200.16 81.84 199.98 81.76 200.23 81.76 200.23"/><path class="cls-2" d="M84.75,198.7a1.64,1.64,0,0,1,0,.66l.26-.08a1.67,1.67,0,0,1-.29-.58Z"/><path class="cls-3" d="M90.06,100.94a68,68,0,0,1-9.72,2.94c.22,3.76.58,9.72,1,16.71,3.68-1.51,9.91-2.24,13.14-2.54h0l.56,0,1.53-.12h.19c-.61-2.76-1.27-5.63-1.92-8.34-.54-.45-1.1-.88-1.6-1.36-1.49-1.39-2.49-4.22-3.16-7.24Z"/><path class="cls-3" d="M80.16,100.65c1.94-.5,4.18-1.13,6.49-1.87l0,0c-1.83.59-4,1.23-6.46,1.87v0Z"/><path class="cls-3" d="M72.61,137.36a82.11,82.11,0,0,1,5-13.06c-.28,0-.57,0-.85,0-12,1-35.67,5.83-35.67,5.83l-2.5,6.17A157.46,157.46,0,0,0,74,138.21l.06-.28c-.91-.35-1.41-.57-1.41-.57Z"/><path class="cls-3" d="M74.47,105.05,74,102.11c.13.92.3,1.9.52,2.94Z"/><path class="cls-3" d="M80.16,100.63q-2.86.75-6.22,1.44h0s2.61-.5,6.22-1.43v0Z"/><path class="cls-3" d="M80.34,103.88c-1.76.41-3.7.81-5.87,1.17a87.39,87.39,0,0,0,5.26,16.38,8.94,8.94,0,0,1,1.61-.84c-.42-7-.78-13-1-16.71Z"/><path class="cls-2" d="M49.63,104.59h0a120.71,120.71,0,0,0,24.3-2.52c0-.37-.1-.74-.13-1.09a4.23,4.23,0,0,1,.27-2c-14.5-1.54-50.39-4.69-52,1.69,0,.17-.09.42-.14.66a122.14,122.14,0,0,0,27.67,3.25Z"/><path class="cls-2" d="M80.16,100.63c2.47-.64,4.63-1.28,6.46-1.87a3.45,3.45,0,0,1-.6-1.14l-.71-2.35c-4.49-.13-10,.44-11.23,3.72,3.69.4,6,.69,6,.69s0,.34.06.95Z"/><path class="cls-2" d="M80.1,99.68s-2.33-.29-6-.69a4.23,4.23,0,0,0-.27,2c0,.35.08.72.13,1.09q3.36-.69,6.22-1.44c0-.61-.06-.95-.06-.95Z"/><polygon class="cls-4" points="73.94 102.08 73.95 102.11 73.94 102.08 73.94 102.08 73.94 102.08"/><path class="cls-4" d="M80.34,103.88a68,68,0,0,0,9.72-2.94c-.08-.34-.15-.67-.22-1a3.36,3.36,0,0,1-3.19-1.15c-2.31.74-4.55,1.37-6.49,1.87,0,.72.1,1.83.18,3.23Z"/><path class="cls-4" d="M80.16,100.65c-3.61.93-6.21,1.43-6.22,1.43v0l.52,2.94h0c2.17-.36,4.11-.76,5.87-1.17-.08-1.4-.14-2.51-.18-3.23Z"/><path class="cls-5" d="M73.53,140.06l.43-1.85c-3.93.26-6.58.29-6.58.29l-2.72,2.88,8.66-.33c.07-.34.15-.68.22-1Z"/><path class="cls-5" d="M82.39,137.41l-.54.07.53-.06.22,3.27-9.28.36c-1.44,6.4-3.77,17.45-3.2,19.36.43,1.44.39,17.15,4.6,26.52a4.52,4.52,0,0,0-1.57,4.68l1,3.77v0l1.3,4.9a1.62,1.62,0,0,0,1.33,1.18l1.08-.24a1.63,1.63,0,0,0,.73-1.62l.12.48a1.63,1.63,0,0,0,.54.79c.87-.22.82-2,1.62-2.19l1,1.28.17.18c1-.27,1.9-.54,2.77-.8a1.64,1.64,0,0,0,0-.66,1.67,1.67,0,0,0,.29.58c1-.32,2-.63,2.86-.92a1.63,1.63,0,0,0,0-.49l-1-3.89c1.76.39,3.81-.95,6.07-.56-1.43-4.12-5.43-11.4-7.32-15.83-.59-1.39-2-21-3.2-40.18Z"/><polygon class="cls-1" points="73.96 138.21 73.96 138.21 74.07 138.2 73.96 138.21 73.96 138.21"/><path class="cls-5" d="M80.46,122.92c-.23-.44-.48-1-.73-1.49a3.81,3.81,0,0,0-.93.83,18.5,18.5,0,0,0-1.24,2c1.93,0,3.8.29,2.9-1.38Z"/><path class="cls-4" d="M95,118l-.56,0h0c-3.23.3-9.46,1-13.14,2.54.32,5.23.68,11,1,16.82,10.09-1.29,16.33-3.4,16.64-4.49.44-1.55-.73-8-2.29-15h-.19L95,118Z"/><path class="cls-4" d="M93.22,108.18c.5.48,1.06.91,1.6,1.36-.89-3.73-1.75-7.17-2.38-9.67a23.71,23.71,0,0,1-2.38,1.07c.67,3,1.67,5.85,3.16,7.24Z"/><path class="cls-1" d="M91.69,97h0l-.26.1.26-.1Z"/><path class="cls-1" d="M91.37,97.09c-1.12.43-2.74,1-4.75,1.67l0,0c1.57-.51,3.17-1.08,4.72-1.69Z"/><path class="cls-1" d="M91.7,97l.74,2.89L91.7,97Z"/><path class="cls-4" d="M79.73,121.43c.25.54.5,1,.73,1.49.9,1.67-1,1.37-2.9,1.38a82.11,82.11,0,0,0-5,13.06s.5.22,1.41.57l-.06.28h.11c2.26-.15,4.94-.38,7.78-.72l.54-.07c-.37-5.82-.73-11.59-1-16.82a8.94,8.94,0,0,0-1.61.84Z"/><path class="cls-5" d="M87.74,89.39a3.82,3.82,0,0,0-.66.12,3.35,3.35,0,0,0-2.24,4.16l.47,1.6a49.56,49.56,0,0,1,6.09.55s.11.42.29,1.14c1-.39,1.58-.64,1.58-.64-.89-3.2-4.39-14-7.51-18.49A40.48,40.48,0,0,0,87.5,88.21c.08.34.16.74.24,1.18Z"/><path class="cls-5" d="M85.31,95.27,86,97.62a3.45,3.45,0,0,0,.6,1.14c2-.65,3.63-1.24,4.75-1.67l.06,0,.26-.1c-.18-.72-.29-1.14-.29-1.14a49.56,49.56,0,0,0-6.09-.55Z"/><polygon class="cls-1" points="91.69 96.96 91.69 96.96 91.7 96.97 91.69 96.96 91.69 96.96"/><polygon class="cls-1" points="92.44 99.87 92.44 99.86 92.44 99.87 92.44 99.87"/><path class="cls-4" d="M91.37,97.09c-1.55.61-3.15,1.18-4.72,1.69a3.36,3.36,0,0,0,3.19,1.15c.07.34.14.67.22,1a23.71,23.71,0,0,0,2.38-1.07h0L91.7,97h0l-.26.1-.06,0Z"/><polygon class="cls-1" points="91.37 97.09 91.43 97.06 91.37 97.09 91.37 97.09"/><path class="cls-5" d="M74,138.21l-.43,1.85h0c-.07.31-.15.65-.22,1l9.28-.36-.22-3.27-.53.06c-2.4.29-5,.54-7.78.72Z"/><path class="cls-1" d="M81.85,137.48c-2.84.34-5.52.57-7.78.72,2.79-.18,5.38-.43,7.78-.72Z"/><path class="cls-2" d="M74.08,99c1.25-3.28,6.74-3.85,11.23-3.72l-.47-1.6a3.35,3.35,0,0,1,2.24-4.16,3.82,3.82,0,0,1,.66-.12c-.08-.44-.16-.84-.24-1.18a40.48,40.48,0,0,1-1.74-10.38l-.18-.27c-3.17-4.29-22-5.43-22-5.43H35.73s-18.88,1.14-22,5.43S6.9,93.06,6,96.32a98.4,98.4,0,0,0,16,5c.05-.24.1-.49.14-.66,1.59-6.38,37.48-3.23,52-1.69Z"/><path class="cls-4" d="M7.44,97s4.55,1.56,7.82,2.61c0,0-.53,2.17-.64,2.76,0,0-6.33-1.47-7.87-2.68L7.44,97Z"/><path class="cls-6" d="M82.17,138.5v53.79s34.29,10.45,55.74,0V137.83l-55.74.67Z"/><path class="cls-3" d="M76.05,137.83c-1.11,4.78-4.61,20.28-3.93,22.58.49,1.61.36,21.23,6.33,29.66l5.17-.11a46,46,0,0,0,1.71-18.36c-.33-3.11-1.83-13.53-1.11-14.9a65.79,65.79,0,0,0,4.6-15.4l-12.77-3.47Z"/><path class="cls-3" d="M87.55,197.89,79.68,200a2.27,2.27,0,0,1-2.75-1.6l-2.36-8.93a2.26,2.26,0,0,1,1.6-2.75l7.88-2.08a2.24,2.24,0,0,1,2.74,1.6l2.36,8.93a2.25,2.25,0,0,1-1.6,2.75Z"/><path class="cls-3" d="M89.51,199.64l-1.56.42a.82.82,0,0,1-1-.58L85.24,193a.82.82,0,0,1,.58-1l1.56-.41a.8.8,0,0,1,1,.57l1.71,6.46a.8.8,0,0,1-.57,1Z"/><path class="cls-3" d="M86.38,200.47l-1.56.41a.8.8,0,0,1-1-.57l-1.71-6.46a.8.8,0,0,1,.57-1l1.56-.41a.8.8,0,0,1,1,.57L87,199.48a.82.82,0,0,1-.58,1Z"/><path class="cls-3" d="M83.46,201l-1.56.41a.81.81,0,0,1-1-.57l-1.71-6.46a.8.8,0,0,1,.57-1l1.57-.41a.81.81,0,0,1,1,.57L84,200.05a.82.82,0,0,1-.58,1Z"/><path class="cls-3" d="M80.2,201.24l-1.56.42a.82.82,0,0,1-1-.58l-1.71-6.46a.81.81,0,0,1,.57-1l1.56-.41a.8.8,0,0,1,1,.57l1.72,6.46a.82.82,0,0,1-.58,1Z"/><path class="cls-4" d="M88.82,141.3l-.43,2.37s-9.72-1.61-12.86-3.61l.62-2.7s7.57,3.16,12.67,3.94Z"/><path class="cls-3" d="M143.73,137.83c1.1,4.78,4.61,20.28,3.92,22.58-.48,1.61-.35,21.23-6.32,29.66l-5.17-.11a45.89,45.89,0,0,1-1.72-18.36c.33-3.11,1.83-13.53,1.12-14.9a65.31,65.31,0,0,1-4.6-15.4l12.77-3.47Z"/><path class="cls-3" d="M132.22,197.89,140.1,200a2.26,2.26,0,0,0,2.74-1.6l2.36-8.93a2.25,2.25,0,0,0-1.6-2.75l-7.87-2.08a2.25,2.25,0,0,0-2.75,1.6l-2.36,8.93a2.27,2.27,0,0,0,1.6,2.75Z"/><path class="cls-3" d="M130.27,199.64l1.56.42a.82.82,0,0,0,1-.58l1.71-6.46a.81.81,0,0,0-.57-1l-1.57-.41a.81.81,0,0,0-1,.57l-1.71,6.46a.82.82,0,0,0,.58,1Z"/><path class="cls-3" d="M133.39,200.47l1.57.41a.79.79,0,0,0,1-.57l1.72-6.46a.82.82,0,0,0-.58-1l-1.56-.41a.81.81,0,0,0-1,.57l-1.71,6.46a.8.8,0,0,0,.57,1Z"/><path class="cls-3" d="M136.31,201l1.56.41a.8.8,0,0,0,1-.57l1.72-6.46a.82.82,0,0,0-.58-1l-1.56-.41a.8.8,0,0,0-1,.57l-1.71,6.46a.8.8,0,0,0,.57,1Z"/><path class="cls-3" d="M139.57,201.24l1.57.42a.81.81,0,0,0,1-.58l1.72-6.46a.82.82,0,0,0-.58-1l-1.56-.41a.8.8,0,0,0-1,.57L139,200.25a.8.8,0,0,0,.57,1Z"/><path class="cls-4" d="M131,141.3l.43,2.37s9.71-1.61,12.86-3.61l-.63-2.7s-7.57,3.16-12.66,3.94Z"/><path class="cls-6" d="M109.75,144a94.74,94.74,0,0,0,35.13-6.66c-.73-2.63-3.64-11.64-6.19-15.1s-17.75-4.38-17.75-4.38H98.55s-15.2.92-17.75,4.38-5.46,12.47-6.19,15.1A94.74,94.74,0,0,0,109.74,144h0Z"/><path class="cls-7" d="M96.46,118a19.16,19.16,0,0,0,26.53,0l-13.25-.83L96.46,118Z"/><path class="cls-3" d="M109.74,117.22a17.93,17.93,0,0,1-9.68-3.1l-.67,3.76a16.73,16.73,0,0,0,20.71,0l-.67-3.76a18,18,0,0,1-9.69,3.1Z"/><path class="cls-4" d="M119.43,114.12l-.55-3.05H100.6l-.54,3.05a16.68,16.68,0,0,0,19.37,0Z"/><path class="cls-8" d="M93.77,99.39l-3.2,1a1.66,1.66,0,0,1-2.07-1.12l-2.14-7.15A1.68,1.68,0,0,1,87.48,90l3.2-1a1.68,1.68,0,0,1,2.08,1.12l2.13,7.16a1.67,1.67,0,0,1-1.12,2.08Z"/><path class="cls-8" d="M125.12,99.39l3.2,1a1.67,1.67,0,0,0,2.08-1.12l2.13-7.15A1.67,1.67,0,0,0,131.41,90l-3.2-1a1.67,1.67,0,0,0-2.07,1.12L124,97.31a1.67,1.67,0,0,0,1.12,2.08Z"/><path class="cls-3" d="M125,65.13H94.34s-4.7,15.61-3.64,25c0,0,.5,14.32,4.52,18.08s9.41,6.91,14.44,6.91,10.42-3.14,14.44-6.91,4.52-18.08,4.52-18.08c1-9.36-3.64-25-3.64-25Z"/><path class="cls-3" d="M7.44,97S-1,129.1.1,132.92c.65,2.27,27.1,9,60.49,3.42l-2.5-6.17s-23.65-4.87-35.66-5.83c-2.17-.18-4.78.5-3.76-1.42,2.45-4.58,4-14.87,4.7-21.26L7.44,97Z"/><path class="cls-4" d="M15.36,99.3S6.79,125.75,32.5,138.5c0,0-5.48-.18-6.28-.23,0,0-22.33-10.86-13.83-39.85l3,.88Z"/><path class="cls-5" d="M32.5,138.5s18.45,9.62,34.55,0l3.31-.09s-14,16-44.14-.12l6.28.23Z"/><path class="cls-5" d="M17.6,137.52l-.32,3.17,17.94.69L32.5,138.5s-6.28-.23-14.9-1Z"/><path class="cls-3" d="M49.63,71.5a22.26,22.26,0,0,1-12-3.85l-.83,4.67a22.33,22.33,0,0,0,12.86,4.45,22.37,22.37,0,0,0,12.86-4.45l-.83-4.67a22.29,22.29,0,0,1-12,3.85Z"/><path class="cls-4" d="M61.66,67.65,61,63.86H38.28l-.68,3.79a22.26,22.26,0,0,0,12,3.85,22.29,22.29,0,0,0,12-3.85Z"/><path class="cls-4" d="M29.8,49.35l-4,1.19a2.08,2.08,0,0,1-2.58-1.39l-2.65-8.89A2.08,2.08,0,0,1,22,37.68l4-1.19a2.08,2.08,0,0,1,2.58,1.4l2.66,8.88a2.08,2.08,0,0,1-1.39,2.58Z"/><path class="cls-4" d="M68.73,49.35l4,1.19a2.08,2.08,0,0,0,2.58-1.39l2.65-8.89a2.08,2.08,0,0,0-1.39-2.58l-4-1.19A2.08,2.08,0,0,0,70,37.89l-2.66,8.88a2.08,2.08,0,0,0,1.4,2.58Z"/><path class="cls-3" d="M68.55,6.8h-38s-5.83,19.39-4.53,31c0,0,.63,17.78,5.62,22.46s11.69,8.58,17.93,8.58S62.47,65,67.46,60.28s5.61-22.46,5.61-22.46c1.31-11.63-4.52-31-4.52-31Z"/><path class="cls-4" d="M28.12,47.91C29,43.4,28,30.63,32.64,27.17c3.08-2.29,34.73-1.71,36,.24s1.62,22.47,3,22.7c3.41.57,4.9-24.57,2.36-32.07C67.78-.32,30.47-.75,25.39,17.38c-2.27,8.12.79,28.43,1.49,31.39s1.07,0,1.24-.86Z"/><polygon class="cls-9" points="44.84 87.17 49.82 98.23 54.15 102.95 53.82 114.49 34.88 120.58 19.22 115.68 20.36 95.52 28.96 84.09 44.84 87.17 44.84 87.17"/><path class="cls-3" d="M43.74,111.62a9.26,9.26,0,0,0,3-4.32l2.32,2a21.15,21.15,0,0,1-4,4,9.24,9.24,0,0,1-5.34,1.81l-.92-1.75a9.09,9.09,0,0,0,4.92-1.79Z"/><path class="cls-4" d="M38.82,113.41,38.08,112l3.72-2.89,3.72-2.88,1.19,1.07a9.26,9.26,0,0,1-3,4.32,9.09,9.09,0,0,1-4.92,1.79Z"/><path class="cls-4" d="M45.45,101.16l1.6-.62a.86.86,0,0,0,.5-1.11l-1.39-3.59A.86.86,0,0,0,45,95.35l-1.6.62A.86.86,0,0,0,43,97.08l1.39,3.59a.86.86,0,0,0,1.11.49Z"/><path class="cls-4" d="M32.68,111.06l-1,1.4a.85.85,0,0,1-1.2.2l-3.13-2.24a.87.87,0,0,1-.2-1.2l1-1.4a.87.87,0,0,1,1.2-.2l3.13,2.24a.86.86,0,0,1,.2,1.2Z"/><path class="cls-3" d="M21.92,97.07l6.24-4.84,6.53-3.85s6.15,3.37,8.44,7.21c0,0,4,5.52,3.42,8.2s-1.83,5.56-3.88,7.14-5.16,2.12-7.89,2-7.09-5.34-7.09-5.34c-3.15-3.18-5.77-10.5-5.77-10.5Z"/><path class="cls-4" d="M22.75,99.17s2.35-4.58,16.19-8l1.21,1s-13.28,3.44-16.74,8.45l-.66-1.49Z"/><path class="cls-10" d="M46.37,112.63c-1,0-1.94.1-2.91.15-.76.39-1.6.78-2.51,1.14-4.53,1.82-8.37,2.39-11.4,1.47-3.4-1-5.39-4-7.45-12.9C20.11,94,46,89.68,46,89.68,43.46,79.11,14.73,78,13.91,109.28A30.49,30.49,0,0,0,16.28,122c10.42,24.82,52.11,28,58.35,6.41a24.79,24.79,0,0,0,1-7,52.85,52.85,0,0,0-29.3-8.83Z"/><path class="cls-11" d="M43.46,112.78c11.59-6,6.36-14.55,6.36-14.55s25.83,4.35,25.85,23.23a52.85,52.85,0,0,0-29.3-8.83c-1,0-1.94.1-2.91.15Z"/><path class="cls-8" d="M91.44,99c2.06.34,2.4-12.91,5.17-13.58,1.27-.31,1.37,1.16,2.51,1.15a7.42,7.42,0,0,0,4.64-1.71l-1.89,2.42s12.57,1.79,17-2.22,4.47-2.75,4.65-1.86,2.06,3.21,3.09,4.82-1.34,9.9,1.12,10.37c.58.11,3.42-17.45,2.44-22.51s-6.42-12.55-12.16-12.49-.92-1.91-.23-2.5-5.34-.6-9.3,1.55S92.93,65,89.83,73.61c-2.35,6.54.06,14.1.63,16.54s.27,8.72,1,8.84Z"/><path class="cls-1" d="M91.32,96.84c1.31.44,1.15-12.27,3.88-13.54s3.1,2.18,6,1.45A26,26,0,0,0,106.13,83l-2,2.47S114.87,87.1,119.61,83s4.73-2.81,4.91-1.9,2.19,3.28,3.28,4.92-.1,9-.1,9-.37,1.22.24,1.34,4.66-17.56,3.63-22.72-6.8-12.81-12.87-12.75-1-1.94-.25-2.55-5.64-.6-9.83,1.58S92.11,62.56,88.83,71.34c-2.49,6.66.06,14.38.67,16.87s1.09,8.39,1.82,8.63Z"/><path class="cls-1" d="M26.75,46.19c1.63.55-.32-17.82,4.66-21.44C34.7,22.36,68.55,23,69.91,25s1.56,20.44,2.32,20.59S78.05,22,75.33,14.11c-6.64-19.2-46.25-18.56-51.68.4-2.43,8.5.08,17.87.83,21s1.36,10.42,2.27,10.72Z"/><polygon class="cls-4" points="15.3 99.28 7.43 96.91 6.75 99.57 14.46 101.85 15.3 99.28 15.3 99.28"/></g></g></svg>