<svg xmlns="http://www.w3.org/2000/svg" viewBox="0 0 147.73 204.61"><defs><style>.cls-1{fill:#132937;}.cls-2{fill:#3366a6;}.cls-3{fill:none;}.cls-4{fill:#aee0e9;}.cls-5{fill:#80c2c9;}.cls-6{fill:#165ba4;}.cls-7{fill:#ef9b41;}.cls-8{fill:#f68827;}.cls-9{fill:#65b3b8;}.cls-10{fill:#357898;}.cls-11{fill:#5babdf;}.cls-12{fill:#3d99cf;}</style></defs><title>famille</title><g id="Layer_2" data-name="Layer 2"><g id="Calque_1" data-name="Calque 1"><path class="cls-1" d="M24.58,46.15s-.5,37.09-2.92,39.59h54S74,48,74.16,42.74Z"/><path class="cls-2" d="M75.43,200.3l-1.29-4.89a0,0,0,0,1,0,0l-1-3.78a4.51,4.51,0,0,1,1.57-4.67c-4.21-9.38-4.16-25.09-4.59-26.53-.58-1.91,1.75-12.95,3.19-19.36l-8.65.33,2.71-2.88s2.65,0,6.58-.29h0a157.46,157.46,0,0,1-35.42-1.87l2.5-6.17s23.66-4.87,35.67-5.83c.28,0,.57,0,.86,0a15.36,15.36,0,0,1,1.24-2,3.58,3.58,0,0,1,.92-.83,87.15,87.15,0,0,1-5.26-16.38h0c-.22-1-.39-2-.52-2.93v0h0a121.69,121.69,0,0,1-24.31,2.51h0A122.21,122.21,0,0,1,22,101.34c-2.14,10.42-8.25,76.25-8.25,76.25-3.17,4.3-6.79,15.49-7.69,18.75a117.34,117.34,0,0,0,43.63,8.27h0a121.72,121.72,0,0,0,27.12-3.12A1.66,1.66,0,0,1,75.43,200.3Z"/><path class="cls-3" d="M96.92,117.89l.47,0,.66-3.74.36-2a29.57,29.57,0,0,1-3.6-2.59c.65,2.72,1.32,5.58,1.92,8.35Z"/><path class="cls-2" d="M78.7,200.1l-.13-.47a1.58,1.58,0,0,1-.73,1.61c.49-.11.93-.23,1.39-.35A1.51,1.51,0,0,1,78.7,200.1Z"/><path class="cls-2" d="M81.75,200.23l.25-.07a1.37,1.37,0,0,1-.16-.18A1.84,1.84,0,0,1,81.75,200.23Z"/><path class="cls-2" d="M84.74,198.7a1.48,1.48,0,0,1,0,.66l.26-.08A1.58,1.58,0,0,1,84.74,198.7Z"/><path class="cls-4" d="M90.05,100.94a66.17,66.17,0,0,1-9.71,3c.22,3.75.57,9.71,1,16.7,3.67-1.5,9.9-2.24,13.13-2.54h0l.56,0c.95-.08,1.54-.11,1.54-.11h.18c-.6-2.77-1.27-5.63-1.92-8.35-.54-.44-1.1-.88-1.6-1.35C91.72,106.79,90.73,104,90.05,100.94Z"/><path class="cls-4" d="M80.15,100.66c1.95-.51,4.19-1.13,6.49-1.88l0,0c-1.83.59-4,1.23-6.47,1.88Z"/><path class="cls-4" d="M72.6,137.36a82.27,82.27,0,0,1,5-13.05c-.29,0-.58,0-.86,0-12,1-35.67,5.83-35.67,5.83l-2.5,6.17A157.46,157.46,0,0,0,74,138.21l.06-.27C73.1,137.58,72.6,137.36,72.6,137.36Z"/><path class="cls-4" d="M74.46,105.05l-.52-2.93C74.07,103,74.24,104,74.46,105.05Z"/><path class="cls-4" d="M80.15,100.64c-1.91.49-4,1-6.21,1.44h0s2.6-.5,6.21-1.42Z"/><path class="cls-4" d="M80.34,103.89c-1.76.4-3.71.8-5.88,1.16a87.15,87.15,0,0,0,5.26,16.38,9.37,9.37,0,0,1,1.62-.84C80.91,113.6,80.56,107.64,80.34,103.89Z"/><path class="cls-2" d="M49.62,104.59h0a121.69,121.69,0,0,0,24.31-2.51c-.06-.38-.1-.75-.14-1.1a4.07,4.07,0,0,1,.28-2c-14.5-1.55-50.39-4.7-52,1.68l-.14.66a122.21,122.21,0,0,0,27.67,3.25Z"/><path class="cls-2" d="M80.15,100.64c2.47-.65,4.64-1.29,6.47-1.88A3.3,3.3,0,0,1,86,97.62l-.7-2.35c-4.49-.13-10,.45-11.23,3.73,3.68.39,6,.68,6,.68S80.11,100,80.15,100.64Z"/><path class="cls-2" d="M80.09,99.68s-2.33-.29-6-.68a4.07,4.07,0,0,0-.28,2c0,.35.08.72.14,1.1,2.23-.46,4.3-1,6.21-1.44C80.11,100,80.09,99.68,80.09,99.68Z"/><path class="cls-5" d="M73.93,102.08v0Z"/><polygon class="cls-5" points="74.46 105.06 74.46 105.06 74.46 105.05 74.46 105.06"/><path class="cls-5" d="M80.34,103.89a66.17,66.17,0,0,0,9.71-3c-.07-.33-.15-.67-.22-1a3.34,3.34,0,0,1-3.19-1.15c-2.3.75-4.54,1.37-6.49,1.88C80.19,101.37,80.25,102.48,80.34,103.89Z"/><path class="cls-5" d="M80.15,100.66c-3.61.92-6.2,1.42-6.21,1.42v0l.52,2.93h0c2.17-.36,4.12-.76,5.88-1.16C80.25,102.48,80.19,101.37,80.15,100.66Z"/><path class="cls-6" d="M73.52,140.06l.43-1.85c-3.93.26-6.58.29-6.58.29l-2.71,2.88,8.65-.33c.07-.34.15-.67.22-1Z"/><path class="cls-6" d="M82.38,137.41l-.54.07.53-.06.22,3.27-9.28.36c-1.44,6.41-3.77,17.45-3.19,19.36.43,1.44.38,17.15,4.59,26.53a4.51,4.51,0,0,0-1.57,4.67l1,3.78a0,0,0,0,0,0,0l1.29,4.89a1.66,1.66,0,0,0,1.33,1.19c.36-.09.74-.16,1.08-.25a1.58,1.58,0,0,0,.73-1.61l.13.47a1.51,1.51,0,0,0,.53.79c.88-.22.82-2,1.63-2.19,0-.08,1,1.37,1,1.28a1.37,1.37,0,0,0,.16.18c1-.27,1.91-.53,2.77-.8a1.48,1.48,0,0,0,0-.66,1.58,1.58,0,0,0,.29.58c1-.32,2-.62,2.87-.91a1.68,1.68,0,0,0,0-.5l-1-3.89c1.75.39,3.8-.95,6.06-.56-1.43-4.12-5.43-11.4-7.32-15.83C85,176.21,83.61,156.61,82.38,137.41Z"/><path class="cls-1" d="M74,138.21Z"/><path class="cls-6" d="M80.46,122.93c-.24-.44-.49-1-.74-1.5a3.58,3.58,0,0,0-.92.83,15.36,15.36,0,0,0-1.24,2C79.48,124.3,81.35,124.59,80.46,122.93Z"/><path class="cls-5" d="M95,118l-.56,0h0c-3.23.3-9.46,1-13.13,2.54.31,5.23.67,11,1,16.82,10.09-1.29,16.33-3.4,16.64-4.49.44-1.55-.73-8-2.29-15h-.18S96,117.92,95,118Z"/><path class="cls-5" d="M93.21,108.19c.5.47,1.06.91,1.6,1.35-.89-3.72-1.75-7.16-2.38-9.67a23.71,23.71,0,0,1-2.38,1.07C90.73,104,91.72,106.79,93.21,108.19Z"/><path class="cls-1" d="M91.69,97h0l-.26.11Z"/><path class="cls-1" d="M91.37,97.09c-1.12.43-2.75,1-4.75,1.67l0,0C88.22,98.27,89.81,97.71,91.37,97.09Z"/><path class="cls-1" d="M91.69,97l.74,2.88C92.12,98.65,91.87,97.67,91.69,97Z"/><path class="cls-5" d="M79.72,121.43c.25.54.5,1.06.74,1.5.89,1.66-1,1.37-2.9,1.38a82.27,82.27,0,0,0-5,13.05s.5.22,1.41.58l-.06.27h.11c2.26-.15,4.94-.38,7.78-.72l.54-.07c-.37-5.82-.73-11.59-1-16.82A9.37,9.37,0,0,0,79.72,121.43Z"/><path class="cls-6" d="M87.73,89.39a3.82,3.82,0,0,0-.66.12,3.35,3.35,0,0,0-2.24,4.16l.48,1.6a49.53,49.53,0,0,1,6.08.55l.3,1.14c1-.39,1.57-.64,1.57-.64-.89-3.2-4.39-14-7.51-18.48a40.65,40.65,0,0,0,1.74,10.38C87.57,88.55,87.65,89,87.73,89.39Z"/><path class="cls-6" d="M85.31,95.27l.7,2.35a3.3,3.3,0,0,0,.61,1.14c2-.65,3.63-1.24,4.75-1.67l.06,0,.26-.11-.3-1.14A49.53,49.53,0,0,0,85.31,95.27Z"/><polygon class="cls-1" points="91.69 96.97 91.69 96.97 91.69 96.98 91.69 96.97"/><polygon class="cls-1" points="92.43 99.87 92.43 99.86 92.43 99.87 92.43 99.87"/><path class="cls-5" d="M91.37,97.09c-1.56.62-3.15,1.18-4.73,1.69a3.34,3.34,0,0,0,3.19,1.15c.07.34.15.68.22,1a23.71,23.71,0,0,0,2.38-1.07h0L91.69,97h0l-.26.1Z"/><path class="cls-1" d="M91.37,97.09l.06,0Z"/><path class="cls-6" d="M74,138.21l-.43,1.85h0c-.07.31-.15.64-.22,1l9.28-.36-.22-3.27-.53.06q-3.6.45-7.78.72Z"/><path class="cls-1" d="M81.84,137.48c-2.84.34-5.52.57-7.78.72Q78.24,137.93,81.84,137.48Z"/><path class="cls-2" d="M74.08,99c1.25-3.28,6.74-3.86,11.23-3.73l-.48-1.6a3.35,3.35,0,0,1,2.24-4.16,3.82,3.82,0,0,1,.66-.12c-.08-.44-.16-.84-.24-1.17a40.65,40.65,0,0,1-1.74-10.38l-.18-.27c-3.17-4.3-22-5.44-22-5.44H35.73s-18.88,1.14-22,5.44S6.89,93.06,6,96.32a98.4,98.4,0,0,0,16,5l.14-.66C23.69,94.3,59.58,97.45,74.08,99Z"/><path class="cls-5" d="M7.43,97s4.55,1.55,7.82,2.6c0,0-.53,2.17-.63,2.77,0,0-6.34-1.48-7.87-2.69Z"/><path class="cls-7" d="M82.17,138.5v53.79s34.28,10.45,55.73,0V137.84Z"/><path class="cls-4" d="M76,137.84c-1.11,4.77-4.61,20.27-3.92,22.57.48,1.62.35,21.23,6.32,29.67l5.17-.11a45.82,45.82,0,0,0,1.71-18.37c-.32-3.11-1.82-13.52-1.11-14.9a65.31,65.31,0,0,0,4.6-15.4Z"/><rect class="cls-4" x="75.53" y="185.43" width="12.64" height="13.73" rx="2.25" ry="2.25" transform="translate(-46.37 27.27) rotate(-14.79)"/><rect class="cls-4" x="86.04" y="191.69" width="3.23" height="8.3" rx="0.81" ry="0.81" transform="translate(-47.26 29) rotate(-14.85)"/><rect class="cls-4" x="82.91" y="192.52" width="3.23" height="8.3" rx="0.81" ry="0.81" transform="matrix(0.97, -0.26, 0.26, 0.97, -47.58, 28.23)"/><rect class="cls-4" x="79.99" y="193.09" width="3.23" height="8.3" rx="0.81" ry="0.81" transform="translate(-47.82 27.5) rotate(-14.85)"/><rect class="cls-4" x="76.73" y="193.29" width="3.23" height="8.3" rx="0.81" ry="0.81" transform="translate(-47.98 26.67) rotate(-14.85)"/><path class="cls-5" d="M88.81,141.3l-.43,2.37s-9.71-1.61-12.86-3.61l.62-2.69S83.72,140.52,88.81,141.3Z"/><path class="cls-4" d="M143.72,137.84c1.11,4.77,4.61,20.27,3.92,22.57-.48,1.62-.35,21.23-6.32,29.67l-5.17-.11a45.82,45.82,0,0,1-1.71-18.37c.32-3.11,1.82-13.52,1.11-14.9a65.31,65.31,0,0,1-4.6-15.4Z"/><rect class="cls-4" x="131.59" y="185.43" width="12.64" height="13.73" rx="2.25" ry="2.25" transform="translate(222.15 413.42) rotate(-165.21)"/><rect class="cls-4" x="130.49" y="191.69" width="3.23" height="8.3" rx="0.81" ry="0.81" transform="translate(209.61 418.99) rotate(-165.15)"/><rect class="cls-4" x="133.61" y="192.52" width="3.23" height="8.3" rx="0.81" ry="0.81" transform="translate(215.54 421.42) rotate(-165.15)"/><rect class="cls-4" x="136.53" y="193.09" width="3.23" height="8.3" rx="0.81" ry="0.81" transform="translate(221.14 423.29) rotate(-165.15)"/><rect class="cls-4" x="139.79" y="193.29" width="3.23" height="8.3" rx="0.81" ry="0.81" transform="translate(227.5 424.53) rotate(-165.15)"/><path class="cls-5" d="M131,141.3l.43,2.37s9.71-1.61,12.86-3.61l-.63-2.69S136,140.52,131,141.3Z"/><path class="cls-7" d="M109.74,144a94.44,94.44,0,0,0,35.13-6.66c-.73-2.62-3.64-11.64-6.19-15.1s-17.75-4.37-17.75-4.37H98.55s-15.2.91-17.75,4.37-5.47,12.48-6.2,15.1A94.5,94.5,0,0,0,109.73,144h0Z"/><path class="cls-8" d="M96.45,118a19.16,19.16,0,0,0,26.53,0l-13.24-.83Z"/><path class="cls-4" d="M109.74,117.22a17.88,17.88,0,0,1-9.69-3.1l-.67,3.77a16.77,16.77,0,0,0,20.71,0l-.67-3.77A17.88,17.88,0,0,1,109.74,117.22Z"/><path class="cls-5" d="M119.42,114.12l-.54-3.05H100.6l-.55,3.05a16.68,16.68,0,0,0,19.37,0Z"/><rect class="cls-9" x="87.28" y="89.29" width="6.68" height="10.81" rx="1.67" ry="1.67" transform="translate(-23.32 29.91) rotate(-16.64)"/><rect class="cls-9" x="124.92" y="89.29" width="6.68" height="10.81" rx="1.67" ry="1.67" transform="translate(224.03 222.14) rotate(-163.36)"/><path class="cls-4" d="M125,65.13H94.33s-4.69,15.61-3.64,25c0,0,.5,14.32,4.52,18.09s9.42,6.9,14.44,6.9,10.42-3.14,14.44-6.9,4.52-18.09,4.52-18.09C129.66,80.74,125,65.13,125,65.13Z"/><path class="cls-4" d="M7.43,97S-1,129.1.1,132.92c.64,2.28,27.09,9,60.49,3.42l-2.5-6.17s-23.66-4.87-35.67-5.83c-2.17-.17-4.78.5-3.76-1.41,2.46-4.59,4.05-14.88,4.7-21.27Z"/><path class="cls-5" d="M15.35,99.3S6.78,125.75,32.5,138.5c0,0-5.48-.18-6.29-.23,0,0-22.33-10.86-13.83-39.85Z"/><path class="cls-6" d="M32.5,138.5s18.44,9.63,34.54,0l3.31-.09s-14,16-44.14-.12Z"/><path class="cls-6" d="M17.6,137.52l-.33,3.17,17.94.69L32.5,138.5S26.21,138.27,17.6,137.52Z"/><path class="cls-4" d="M49.62,71.5a22.22,22.22,0,0,1-12-3.85l-.84,4.68a22.33,22.33,0,0,0,12.86,4.45,22.37,22.37,0,0,0,12.86-4.45l-.83-4.68A22.26,22.26,0,0,1,49.62,71.5Z"/><path class="cls-5" d="M61.65,67.65,61,63.86H38.27l-.67,3.79a22.22,22.22,0,0,0,12,3.85A22.26,22.26,0,0,0,61.65,67.65Z"/><rect class="cls-5" x="21.73" y="36.81" width="8.29" height="13.42" rx="2.07" ry="2.07" transform="translate(-11.38 9.23) rotate(-16.64)"/><rect class="cls-5" x="68.48" y="36.81" width="8.29" height="13.42" rx="2.07" ry="2.07" transform="translate(129.75 106.01) rotate(-163.36)"/><path class="cls-4" d="M68.54,6.8H30.49s-5.83,19.4-4.53,31c0,0,.63,17.78,5.62,22.46s11.7,8.58,17.94,8.58S62.46,65,67.45,60.28s5.62-22.46,5.62-22.46C74.37,26.2,68.54,6.8,68.54,6.8Z"/><path class="cls-5" d="M28.12,47.92C29,43.41,28,30.63,32.63,27.17c3.08-2.29,34.73-1.71,36,.24s1.62,22.47,3,22.7c3.42.57,4.9-24.57,2.36-32.07C67.78-.31,30.46-.75,25.39,17.38c-2.28,8.13.78,28.44,1.48,31.39S28,48.78,28.12,47.92Z"/><polygon class="cls-10" points="44.83 87.17 49.81 98.23 54.14 102.95 53.81 114.49 34.87 120.58 19.21 115.68 20.35 95.52 28.96 84.1 44.83 87.17"/><path class="cls-4" d="M43.73,111.62a9.26,9.26,0,0,0,3-4.32l2.32,2a21.4,21.4,0,0,1-3.94,4,9.27,9.27,0,0,1-5.35,1.81l-.92-1.74A9.21,9.21,0,0,0,43.73,111.62Z"/><path class="cls-5" d="M38.81,113.42,38.07,112l3.72-2.88,3.72-2.89,1.19,1.07a8.62,8.62,0,0,1-7.89,6.12Z"/><rect class="cls-5" x="43.52" y="95.47" width="3.44" height="5.57" rx="0.86" ry="0.86" transform="translate(122.9 173.55) rotate(158.84)"/><rect class="cls-5" x="28.19" y="107.36" width="3.44" height="5.57" rx="0.86" ry="0.86" transform="translate(-77.09 70.42) rotate(-54.44)"/><path class="cls-4" d="M21.91,97.07l6.24-4.84,6.53-3.84s6.16,3.36,8.45,7.2c0,0,3.95,5.52,3.41,8.2s-1.83,5.56-3.88,7.15-5.15,2.11-7.88,2-7.1-5.34-7.1-5.34C24.54,104.4,21.91,97.07,21.91,97.07Z"/><path class="cls-5" d="M22.75,99.17s2.34-4.58,16.18-8l1.21,1s-13.28,3.44-16.74,8.45Z"/><path class="cls-11" d="M46.36,112.63c-1,0-1.94.1-2.9.15-.77.39-1.6.78-2.52,1.15-4.53,1.81-8.37,2.38-11.4,1.47-3.39-1-5.38-4.05-7.45-12.91C20.11,94,46,89.69,46,89.69,43.46,79.12,14.72,78,13.9,109.28A30.62,30.62,0,0,0,16.27,122c10.42,24.82,52.12,28,58.36,6.41a25.05,25.05,0,0,0,1-6.94A52.85,52.85,0,0,0,46.36,112.63Z"/><path class="cls-12" d="M43.46,112.78c11.58-6,6.35-14.55,6.35-14.55s25.83,4.35,25.85,23.24a52.85,52.85,0,0,0-29.3-8.84C45.38,112.63,44.42,112.73,43.46,112.78Z"/><path class="cls-9" d="M91.43,99c2.06.34,2.4-12.91,5.17-13.58,1.27-.31,1.37,1.17,2.51,1.15a7.45,7.45,0,0,0,4.65-1.7l-1.9,2.42s12.58,1.78,17-2.22,4.48-2.76,4.65-1.87,2.06,3.22,3.1,4.82-1.35,9.91,1.12,10.37c.57.11,3.41-17.45,2.43-22.5s-6.42-12.56-12.16-12.5-.92-1.9-.23-2.5-5.33-.59-9.29,1.55S92.92,65,89.82,73.61c-2.35,6.54.06,14.1.64,16.54S90.72,98.87,91.43,99Z"/><path class="cls-1" d="M91.31,96.85c1.32.44,1.15-12.28,3.88-13.55s3.1,2.18,6,1.46A25.55,25.55,0,0,0,106.12,83l-2,2.47S114.86,87.1,119.6,83s4.73-2.81,4.92-1.9,2.18,3.28,3.27,4.92-.1,9-.1,9-.37,1.21.24,1.33,4.66-17.55,3.63-22.71-6.8-12.81-12.87-12.75-1-1.94-.24-2.55-5.65-.61-9.84,1.58S92.1,62.56,88.82,71.34c-2.49,6.67.06,14.39.67,16.88S90.58,96.6,91.31,96.85Z"/><path class="cls-1" d="M26.74,46.2c1.63.54-.32-17.83,4.66-21.44,3.29-2.4,37.14-1.79,38.5.25s1.57,20.44,2.32,20.59S78,22,75.33,14.11c-6.65-19.2-46.26-18.55-51.68.41-2.44,8.5.07,17.87.82,21S25.83,45.9,26.74,46.2Z"/><polygon class="cls-5" points="15.29 99.28 7.42 96.91 6.75 99.58 14.45 101.86 15.29 99.28"/></g></g></svg>