<svg xmlns="http://www.w3.org/2000/svg" viewBox="0 0 123.78 163.42"><defs><style>.cls-1{fill:#20335d;}</style></defs><title>gaelle</title><g id="Layer_2" data-name="Layer 2"><g id="Layer_1-2" data-name="Layer 1"><path class="cls-1" d="M123.7,73.2c0-1.81-.43-3.61-.48-5.42-.08-3.28-1-6.46-1.17-9.72-1.31-6.52-2.48-13.08-4.64-19.4-.55-1.6-1.17-3.19-1.56-4.83a33.33,33.33,0,0,0-4.18-9.23c-1.91-3.22-4-6.35-6-9.5-.72-1.11-1.51-2.19-2.31-3.25-1.9-2.54-4.37-4.52-6.64-6.69a7.87,7.87,0,0,0-2.15-1.32A59.36,59.36,0,0,0,86.68,1a33.28,33.28,0,0,0-9-1A3.45,3.45,0,0,0,77,.07c-2.25.47-4.51.88-6.74,1.42a15.69,15.69,0,0,1-8.93-.1A14.84,14.84,0,0,0,56.64.71a67.86,67.86,0,0,0-9.76.91,15.46,15.46,0,0,0-5.11,1.81c-.65.34-1.26.73-1.9,1.08a24,24,0,0,1-2.25,1.17,11.75,11.75,0,0,1-1.81.4c-1.54,2-3,4.08-4.65,6-2.6,3-5.32,6-8.18,8.75a9.2,9.2,0,0,1-2.32,1.72c-3,1.49-5.87,3.42-9.16,4.4a8.73,8.73,0,0,0-1.66.73C7.52,29,5.21,30.32,2.9,31.63a9.27,9.27,0,0,0-2.14,2,2.77,2.77,0,0,0-.53,3,18.74,18.74,0,0,0,2.86,5c2.4,3,4.7,6.14,7.11,9.29a11.4,11.4,0,0,1-.35,3.55A87.44,87.44,0,0,0,7.66,65.15c-.38,3-1.15,5.94-1.18,9a11.21,11.21,0,0,1-.32,1.79,57.73,57.73,0,0,0-1,10.83c.07,2.78,0,5.57,0,8.36,0,4.36-.15,8.71-.06,13.07s0,8.47,0,12.7,0,8.72.13,13.08c0,1.81.25,3.62.38,5.43.1,1.45.29,2.9.28,4.35,0,3,.77,6,1,9a18.13,18.13,0,0,0,.74,3.54,4.11,4.11,0,0,0,.71,1.25,1,1,0,0,0,1.56-.09,5.31,5.31,0,0,0,1-2.33c.6-4.22,2.27-8.15,3.36-12.24.5-1.86,1.31-3.64,2-5.46.21-.56.49-1.1.76-1.65a.91.91,0,0,1,.92-.37,1.65,1.65,0,0,1,.31.2,1.35,1.35,0,0,0,2.2-.92,25.47,25.47,0,0,0,.67-6.85,5.58,5.58,0,0,1,.75-3.12c.81-1.49,1.56-3,2.34-4.51a3.11,3.11,0,0,1,1.12-1.43l1.5.9c1.37-.53,1-2.16,1.94-2.94.9.55.9.54,1.23,1.09s.61,1.05.94,1.56.68,1,1.06,1.51c-.17.64-.35,1.21-.47,1.79a9.34,9.34,0,0,0-.14,3.61,2,2,0,0,0,.69,1.23.91.91,0,0,0,1.28-.11,9.5,9.5,0,0,0,.58-1.31c.3-.91.06-1.95.7-2.77.13,0,.28,0,.37,0,1.43.9,2.62,2.11,4,3.14a1.07,1.07,0,0,1,.16,1.33c-1.25,1.6-1.45,3.55-1.8,5.45a2.55,2.55,0,0,0,.55,2.05,1,1,0,0,0,1.3.11,6,6,0,0,0,1-1.45,10.35,10.35,0,0,0,.57-2.46c.47-3.71.71-3.24,3.82-2.08a1.27,1.27,0,0,1,.92,1c-1.15,3.56-1.24,4.62-.49,7.43.07.27.49.52.8.62a.85.85,0,0,0,.91-.45,2,2,0,0,0,.45-1,34.69,34.69,0,0,1,1-5.34c.06-.29.36-.54.57-.84.89.22,1.7.46,2.52.64s1.9.39,2.85.56,1.71,0,2.52.67c-.08.4-.14.87-.26,1.33a10.65,10.65,0,0,0-.33,3.6,1.37,1.37,0,0,0,1.09,1.34,3.54,3.54,0,0,0,.88-.5,6.57,6.57,0,0,0,1.52-2.85c.29-.91.1-1.95.73-2.73.24-.13.46-.36.66-.34a30.9,30.9,0,0,0,6.52-.16c.19,0,.42.17.72.31-.15.67-.34,1.35-.43,2a6.3,6.3,0,0,0,0,1.44,1.41,1.41,0,0,0,2,1A2.27,2.27,0,0,0,70.91,136c.5-1.49,1-3,1.44-4.52a23.19,23.19,0,0,1,4-1.72.38.38,0,0,1,.5.18c-.14,1.44-.3,2.75-.37,4.06a1.15,1.15,0,0,0,.73,1.15,1.49,1.49,0,0,0,1.64-.4,4.94,4.94,0,0,0,1.22-2.2c.44-1.88.88-3.75,1.3-5.5l6.68-5.22a.68.68,0,0,1,.34-.11,1.73,1.73,0,0,1,.39.15,9.6,9.6,0,0,0,.15,1.35,9.46,9.46,0,0,0,.55,1.71,1.08,1.08,0,0,0,1.8.23,3.31,3.31,0,0,0,.86-1.15c.48-1.73,1.24-3.43,1-5.17l-1-1.68a18.43,18.43,0,0,1,2.24-3.75,2.3,2.3,0,0,1,.57-.43c.43.86-.16,1.64-.21,2.46a6.28,6.28,0,0,0,.12,2.16c.14.44.69.69,1.45.61a9.32,9.32,0,0,0,2.09-3.75c.37-1.27.9-2.51,1.38-3.75,0-.14.28-.22.49-.38.81,1.93,1.8,3.74,2,5.84-.74,3.41-.74,3.41-.07,5l2,.59a20.44,20.44,0,0,1,1.49,4.43c.34,1.65,1.11,3.21,1.15,4.81-.4,1.52-.78,2.91-1.16,4.35l.9,1.16,1.58-.19c1,1.4,1.08,3.1,1.2,4.69-.5,1.36-1,2.61-1.42,3.86a4.56,4.56,0,0,0-.2,2.14,1.36,1.36,0,0,0,2,1c.49-.22.78-.94,1.54-.59a24.08,24.08,0,0,1,1,3.85,15,15,0,0,0,.89,2.75c.11.28.53.43.78.63a1.46,1.46,0,0,0,1-1.09q.86-5.73,1.67-11.47a15,15,0,0,1,.29-2.15c1-3.27,1-6.7,1.67-10a86,86,0,0,1,2-13.26,79.15,79.15,0,0,0,2-14.37c0-.6.13-1.2.2-1.8.12-1.08.27-2.16.37-3.24.14-1.33.26-2.65.37-4,.09-1,.21-1.93.24-2.89q.09-2.91.09-5.82c0-3.75,0-7.51-.08-11.26ZM46.11,23.61c0-.49,0-1,.07-1.45A1.3,1.3,0,0,1,47,21.05c1.72-.59,3.45-1.12,5.19-1.65.57-.18,1.19-.24,1.75-.45a34,34,0,0,1,8.52-1.71,10,10,0,0,0,1.09-.1,53.72,53.72,0,0,1,10.14-.54,29.79,29.79,0,0,1,5.06.42c2.49.47,5,.71,7.56,1,1,.1,1.92.38,2.86.45,2.87.22,5.24,1.8,7.87,2.68a8.9,8.9,0,0,1,1.24.75c1.68.95,3.38,1.87,5.06,2.83a24.7,24.7,0,0,1,5.89,4.79,2.08,2.08,0,0,1,.66,1.57H110l.06.24-.3-.17v-.06a1.68,1.68,0,0,1-1.25-.19c-1.69-1.17-3.64-1.83-5.27-3.11a6.9,6.9,0,0,0-1.6-.82c-2.67-1.13-5.45-2-8.21-2.83a23.72,23.72,0,0,0-3.53-.8c-3.23-.52-6.45-1-9.7-1.45a48.51,48.51,0,0,0-5.79-.33c-2.79,0-5.58,0-8.36.18-2,.11-4.1.4-6.13.68a11.37,11.37,0,0,0-2.45.66,70.76,70.76,0,0,0-13.35,6.51,60.46,60.46,0,0,0-9.94,7.87,29.62,29.62,0,0,0-2.83,3.31c-1.23,1.65-2.38,3.36-3.59,5a43.4,43.4,0,0,0-3.3,5.63,98,98,0,0,0-5.34,13.1,28.64,28.64,0,0,0-1.76,5.9c0,.19-.3.35-.5.56a3.14,3.14,0,0,1-2.58-.81c-1.36-3.23-.81-6.45-.12-9.66a59.24,59.24,0,0,1,3.7-11.37c.88-2,1.63-4,2.62-6,.82-1.62,2.13-3,2.74-4.69a1.7,1.7,0,0,1,.41-.59,24.63,24.63,0,0,1,10.27-6.62L38,30a19.07,19.07,0,0,0,5.55-2.66A9,9,0,0,0,45,26.2a3.72,3.72,0,0,0,1.15-2.59ZM26.86,20.77A22.86,22.86,0,0,1,29.3,18.1,79.05,79.05,0,0,0,35.46,12a2,2,0,0,1,2.88-.35c1.17,2.1,2.41,4.17,3.49,6.32.75,1.5,1.29,3.11,1.93,4.69a5.2,5.2,0,0,1-2.93,3.46c-1.94,1-4.11,1.38-6.15,2.09a24.4,24.4,0,0,1-3.18.72,3.06,3.06,0,0,1-2.31-.32,34.36,34.36,0,0,1-2.72-4.42,3.1,3.1,0,0,1,.39-3.4Zm-5.64,4.69a3.16,3.16,0,0,1,2.51.17,9.37,9.37,0,0,1,2,2.42,3.2,3.2,0,0,1,.52,2.77A5.68,5.68,0,0,1,24,32.94a2.19,2.19,0,0,1-.68-.16,9.86,9.86,0,0,1-3.45-5.59,2.3,2.3,0,0,1,1.4-1.73ZM7.73,43.4C6.56,42,5.43,40.59,4.32,39.16a15.91,15.91,0,0,1-1.17-1.84c-.92-1.59-1-2.1.56-3.41a4.94,4.94,0,0,1,.88-.64c2.54-1.39,4.92-3.08,7.72-4,1.37-.43,2.6-1.25,4.1-1.59.89,1.35,1.71,2.69,2.62,3.94s1.82,2.25,2.74,3.39a3.73,3.73,0,0,1-.35,1,23.68,23.68,0,0,0-3.57,6.69,41.58,41.58,0,0,1-3,6.61,5,5,0,0,1-1.32,1.77c-.27-.25-.61-.43-.76-.71a36.69,36.69,0,0,0-5.08-7ZM109,81.35a18.36,18.36,0,0,1-4.33,5.77,9.8,9.8,0,0,0-3.26,5.1c-.41,1.52-.86,3-1.36,4.52a52,52,0,0,1-6.17,12.7c-2,2.91-3.87,5.85-6,8.64a30,30,0,0,1-8.2,7.08c-.71.45-1.49.82-2.19,1.28a27.2,27.2,0,0,1-8.07,3.21,8.62,8.62,0,0,1-2.15.27c-3.27,0-6.56.24-9.81,0a34.5,34.5,0,0,1-11.25-2.62,31.41,31.41,0,0,1-3.94-1.83,40.53,40.53,0,0,1-4.39-3.22,84.43,84.43,0,0,1-6.5-6.33,9.26,9.26,0,0,1-2.25-3.68,18.34,18.34,0,0,0-2.22-4.56,23,23,0,0,1-1-2.31A35.39,35.39,0,0,1,23,98c-.93-3.6-2.95-6.6-5.15-9.51-.36-.48-.76-.94-1.16-1.39A31.08,31.08,0,0,1,12,79.33a5,5,0,0,1,0-4.23,2.82,2.82,0,0,1,1.48-1.52,2.38,2.38,0,0,1,2.43.14,10.43,10.43,0,0,1,2.82,2.8,7.31,7.31,0,0,0,1.19,1.36A2.07,2.07,0,0,0,23,77.2a2.41,2.41,0,0,0,.15-.33c1-4,3.4-7.19,5.88-10.33a38.12,38.12,0,0,1,4.81-5,6.17,6.17,0,0,0,1.95-2.11.9.9,0,0,1,.5-.48c2.06-.69,3.24-2.5,4.77-3.82,2.75-2.37,5.31-5,7.95-7.45.53-.5,1-1,1.57-1.51,4.78-4.29,8-9.69,10.76-15.37a20.3,20.3,0,0,0,1.48-4.08,5.63,5.63,0,0,1,1.09-2.65.67.67,0,0,1,.62,0,.94.94,0,0,1,.39.57c1,4.25,3,8.18,4.37,12.3a31.24,31.24,0,0,0,1.78,3.57,90.77,90.77,0,0,0,4.8,8.13A13,13,0,0,0,77,50.12,80.37,80.37,0,0,0,87.74,60.38c.47.37,1,.67,1.5,1q5.49,3.85,11.17,7.44a8.78,8.78,0,0,1,3.31,3.26c.14.27.59.36.88.52L108,71.48l.86.1a2.18,2.18,0,0,1,1.86,1.53c.19.57.36,1.14.51,1.6A18.21,18.21,0,0,1,109,81.35ZM53.48,141.18a5,5,0,0,0,.31-1,6.72,6.72,0,0,0,0-1.79,3,3,0,0,0-.67-1.23,1.11,1.11,0,0,0-1.6,0,8.68,8.68,0,0,0-2,6,2,2,0,0,0,1.3,1.61,1.47,1.47,0,0,0,1.85-.4,7.44,7.44,0,0,1,.72-3.23Zm44.43,4.23a1.31,1.31,0,0,0-2-.73,3.07,3.07,0,0,0-1,1c-.49,1.1-.9,2.23-1.3,3.37a7.85,7.85,0,0,0-.27,1.24,7.63,7.63,0,0,0,.07.89,1.39,1.39,0,0,0,.87,1.07,1.22,1.22,0,0,0,1.33-.32,4.73,4.73,0,0,0,1.11-1.39A31.41,31.41,0,0,0,98,146.83a3.17,3.17,0,0,0-.12-1.42Zm4.5-9.85a10.29,10.29,0,0,0,1.85-5.7c0-.24,0-.48,0-.72,0-.64-.52-1.28-1-1.31a1.34,1.34,0,0,0-1.21.61,14.83,14.83,0,0,0-2,4.58,8,8,0,0,0-.13,1.77,1.54,1.54,0,0,0,1,1.38,1.45,1.45,0,0,0,1.55-.61Zm-1.66,17.3c-1.13.46-1.2.53-1.47.87a9.26,9.26,0,0,0-1.58,4.7,2.82,2.82,0,0,0,.36,1.35,1.37,1.37,0,0,0,2.13.36,2.42,2.42,0,0,0,.51-.5,7.71,7.71,0,0,0,1.16-5.49,1.61,1.61,0,0,0-1.11-1.29ZM94,141.12a20.61,20.61,0,0,0,1.61-2.81,5.45,5.45,0,0,0,.27-3.2,1.32,1.32,0,0,0-1.44-.8,2.19,2.19,0,0,0-.91.54,8.89,8.89,0,0,0-1.14,1.83c-.47,1.1-.82,2.25-1.24,3.45.17.44.21.56.25.67a1.43,1.43,0,0,0,1,.94,1.5,1.5,0,0,0,1.59-.62Zm-7.63-3.2c.19-.13.45-.23.56-.42a29.44,29.44,0,0,0,1.66-3.14,4.89,4.89,0,0,0,.22-2.81,1.56,1.56,0,0,0-1.06-1.3,1.62,1.62,0,0,0-1.46.87,12.05,12.05,0,0,0-1.69,5.39,2.79,2.79,0,0,0,.08.7,1.15,1.15,0,0,0,1.69.71ZM88.54,146a1.36,1.36,0,0,0-.9-1c-1.29.55-1.44.67-1.73,1.15a10.87,10.87,0,0,0-1.42,3.68,11.73,11.73,0,0,0,0,1.78,1.14,1.14,0,0,0,1,.92,1.26,1.26,0,0,0,1.27-.46,11.44,11.44,0,0,0,1.95-5,3.2,3.2,0,0,0-.09-1.06Zm-16.43-4.92a5.49,5.49,0,0,0-.86.64c-1.46,1.48-1.71,3.42-2.08,5.32a5.41,5.41,0,0,0,.18,1.08c.12.33.33.7.74.7a2.52,2.52,0,0,0,1-.23,1.25,1.25,0,0,0,.51-.51,14.11,14.11,0,0,0,1.85-5.46,3.91,3.91,0,0,0-.14-1.06.94.94,0,0,0-1.2-.48ZM26.57,125.17a1.81,1.81,0,0,0-.55.43,10.26,10.26,0,0,0-1.5,6.13,1.57,1.57,0,0,0,.63,1.24,1.88,1.88,0,0,0,1.5.36c.19-.29.6-.64.69-1.06.35-1.63.65-3.27.85-4.92a2.73,2.73,0,0,0-.65-2,.86.86,0,0,0-1-.19ZM62,152a3.51,3.51,0,0,0-.61.39,5.46,5.46,0,0,0-1.78,4.45s0,.22,0,.46a1.62,1.62,0,0,0,1,1.39,2,2,0,0,0,1.65-.49,3.08,3.08,0,0,0,.24-.27,8.77,8.77,0,0,0,1.34-3.34,3.32,3.32,0,0,0-.31-2.11A1.24,1.24,0,0,0,62,152ZM34.05,133.53a2.29,2.29,0,0,0-.68-.77.81.81,0,0,0-1,.13,2.65,2.65,0,0,0-.72.78,8.47,8.47,0,0,0-.92,4.52,6.57,6.57,0,0,0,.58,1.68,1.24,1.24,0,0,0,1.2.6,1.83,1.83,0,0,0,.83-.63,5.32,5.32,0,0,0,.63-1.66,26,26,0,0,0,.19-2.63c0-.36,0-.84,0-1.32a1.59,1.59,0,0,0-.11-.7Zm-9.33,14.08a3,3,0,0,0,.47-1c.16-1.19.25-2.39.35-3.31s0-1.49,0-2.09a1.47,1.47,0,0,0,0-.36,2.41,2.41,0,0,0-.71-1.22,1.16,1.16,0,0,0-1.8.4,13.88,13.88,0,0,0-.35,6.08,4.06,4.06,0,0,0,.33,1,2.18,2.18,0,0,0,.48.53.93.93,0,0,0,1.28-.09Zm81.4-7.33a1.08,1.08,0,0,0-1.68-.65,3.17,3.17,0,0,0-.82.67,11.33,11.33,0,0,0-1.83,4.62,2.18,2.18,0,0,0,.22,1,1.41,1.41,0,0,0,2.09.59,2.37,2.37,0,0,0,.5-.5,10.53,10.53,0,0,0,1.65-4.85c-.06-.44-.09-.67-.13-.91Zm-9-11.24c.24-.19.62-.36.77-.64a16.52,16.52,0,0,0,1.64-5.08,2.09,2.09,0,0,0-.3-1.37,1,1,0,0,0-1.54-.26,8,8,0,0,0-2.23,4,5.07,5.07,0,0,0,.08,2.12A1.46,1.46,0,0,0,97.13,129Zm10.22,22.76a9.06,9.06,0,0,0-2.32,4.34,2.85,2.85,0,0,0,.84,2.61,1.13,1.13,0,0,0,1.31.06,2.94,2.94,0,0,0,.49-.51,10.68,10.68,0,0,0,1.46-5.09c-.09-.34-.17-.69-.28-1a1,1,0,0,0-1.5-.38ZM63.56,140.32a1.5,1.5,0,0,0-1.19.72A10.66,10.66,0,0,0,61,146.42c.12.27.29.71.5,1.14a.73.73,0,0,0,.94.24,2.89,2.89,0,0,0,.82-.68,9.1,9.1,0,0,0,1.65-5.44,4.74,4.74,0,0,0-.17-.7,1.22,1.22,0,0,0-1.17-.66Zm17.87,2.52c-.05-.3-.09-.54-.14-.78a2.15,2.15,0,0,0-.13-.32.81.81,0,0,0-1.19-.36,9.26,9.26,0,0,0-2.81,6.41c0,.11.07.22.1.34a1.18,1.18,0,0,0,1.12.72,1.45,1.45,0,0,0,1.2-.7,16.69,16.69,0,0,0,1.78-4.3,5.2,5.2,0,0,0,.07-1Zm-50.91,2.6a1.46,1.46,0,0,0-.67.19,3.58,3.58,0,0,0-1.27,2.14,11.83,11.83,0,0,0,0,5.36c.07.27.5.45.72.63A2.63,2.63,0,0,0,31,151.5a15,15,0,0,0,.22-5.38c0-.28-.49-.73-.74-.68Zm45.69,8.29a3,3,0,0,0-.82.68,5.79,5.79,0,0,0-1.19,3.7c0,.72.12,1.43.18,2.13.71.7,1.2.65,1.55.28A7.19,7.19,0,0,0,78,154.64a1.15,1.15,0,0,0-1.83-.91ZM39.52,141.51a1.82,1.82,0,0,0-.83-.58.84.84,0,0,0-.93.4,7.74,7.74,0,0,0-1.38,5.16,4.93,4.93,0,0,0,.17,1,.93.93,0,0,0,.77.67,1.14,1.14,0,0,0,1-.25,1.51,1.51,0,0,0,.26-.24,7.91,7.91,0,0,0,1.27-5.16,2.32,2.32,0,0,0-.33-1Zm30.06,12.92a1.36,1.36,0,0,0-1.54.62,9.35,9.35,0,0,0-1.89,5.33,1.52,1.52,0,0,0,.64,1.23,1.11,1.11,0,0,0,1.32-.22A5.52,5.52,0,0,0,69.2,160a9.36,9.36,0,0,0,.7-4.93,2.21,2.21,0,0,0-.32-.63Zm-25.93-9.82c-1.39,2.16-1.45,4.54-1.22,7a1.28,1.28,0,0,0,.92,1c.22-.08.45-.13.66-.23a.49.49,0,0,0,.24-.27,19.88,19.88,0,0,0,1-7.1,3.18,3.18,0,0,0-.37-.94,1.08,1.08,0,0,0-1.25.55Zm46.09,9.72a3.8,3.8,0,0,0-.73.77,13,13,0,0,0-1.5,4.14,12.61,12.61,0,0,0,.58,1.25c.11.2.35.32.53.47a2,2,0,0,0,1.94-1.37,25.43,25.43,0,0,0,1-3.84,2.34,2.34,0,0,0-.5-1.31,1,1,0,0,0-1.3-.11ZM56.63,145a1.32,1.32,0,0,0-1,.27,1.7,1.7,0,0,0-.59.87,12,12,0,0,0-.32,5.69.76.76,0,0,0,.74.67,1.74,1.74,0,0,0,1-.3,2.19,2.19,0,0,0,.6-.85,9.22,9.22,0,0,0,.57-3.86,11.81,11.81,0,0,0-.28-1.8,1.22,1.22,0,0,0-.73-.69Zm25.73,10.86a5.15,5.15,0,0,0-1.13,1.36,11.61,11.61,0,0,0-1,4.14,1.3,1.3,0,0,0,1.05,1.36c.26-.12.68-.2.87-.44a7,7,0,0,0,1.4-6.07.78.78,0,0,0-1.17-.35ZM14.89,150a.94.94,0,0,0-.93-.34c-.21.09-.5.21-.56.38a14.67,14.67,0,0,0-1,4.15,3.37,3.37,0,0,0,.76,2.32,1.4,1.4,0,0,0,1,.37.76.76,0,0,0,.79-.59c.2-1,.35-2.1.48-3,0-.93,0-1.65-.14-2.36a3.5,3.5,0,0,0-.4-1Zm2.94-8.77c-.24.19-.63.36-.77.65a9.47,9.47,0,0,0-.85,5,2.46,2.46,0,0,0,1.12,1.79,1,1,0,0,0,1-.15,1.91,1.91,0,0,0,.41-.59,13.44,13.44,0,0,0,.18-5.75,1.22,1.22,0,0,0-1.09-.9Zm19.91,11.29a.84.84,0,0,0-1.18-.4,3.63,3.63,0,0,0-1,1,12.51,12.51,0,0,0-1,4.13c-.07.38.3.88.54,1.27a.9.9,0,0,0,1.27.06,2.42,2.42,0,0,0,.66-.82c.35-1.14.65-2.3.92-3.46a5.12,5.12,0,0,0,0-1.11c0-.19-.1-.42-.16-.65Zm12.83-1.08a2.49,2.49,0,0,0-.81-.67,1.34,1.34,0,0,0-1.26.53,2.66,2.66,0,0,0-.28.65c-.13.83-.22,1.67-.33,2.5H48c0,.61,0,1.21,0,1.81a3.8,3.8,0,0,0,.18.7c.07.27.56.66.81.6a1.82,1.82,0,0,0,.65-.29,1.3,1.3,0,0,0,.44-.55,10.84,10.84,0,0,0,.69-4.61,1.28,1.28,0,0,0-.22-.68Zm4.11,5.45a1.4,1.4,0,0,0-1.13.74c-.36,1.12-.75,2.24-1,3.39a2.43,2.43,0,0,0,.53,2,1.13,1.13,0,0,0,1.8-.11,4.78,4.78,0,0,0,.41-1c.22-1.05.38-2.1.56-3.17,0-.22,0-.45,0-.69a1.4,1.4,0,0,0-1.12-1.19Zm-33.25-6.15c-.25.2-.62.36-.79.64a6.37,6.37,0,0,0-.66,4.83c.07.28.48.5.77.69a.82.82,0,0,0,.92-.32,11.2,11.2,0,0,0,.73-4.89,1.08,1.08,0,0,0-1-.95Zm-3.72,5.65c-.26-.25-.95.07-1.21.48a5.49,5.49,0,0,0-.95,3.42,1,1,0,0,0,.61.82.93.93,0,0,0,1-.22A4.33,4.33,0,0,0,18.35,158a2.32,2.32,0,0,0-.07-.71,2.64,2.64,0,0,0-.57-.86Zm7.26-.81a1.33,1.33,0,0,0-.85,1,4.6,4.6,0,0,0,.21,2.77c.11.29.46.49.68.71.28-.09.57-.08.71-.22a3.73,3.73,0,0,0,1.09-3.21A1.36,1.36,0,0,0,25,155.58Zm17.3,1.29c-.42,0-.65.25-.9.5a.78.78,0,0,0-.21.3,2.75,2.75,0,0,0-.21.69c-.05,1-.08,1.92-.1,2.89a.83.83,0,0,0,1,.71,3.6,3.6,0,0,0,.86-.49,15.14,15.14,0,0,0,.5-3.69,1.16,1.16,0,0,0-1-.91ZM67.12,94l-1.36-.85-2.48,1.19L61.38,93c-1,.48-1.61.82-2.27,1.09-.13,0-.47-.16-.55-.33a2.43,2.43,0,0,1-.24-1,40.38,40.38,0,0,1,.92-8.64A12,12,0,0,0,59,78.67c-.21-.82-.56-1.61-.7-2.43a9.38,9.38,0,0,0-1.93-3.86,5.21,5.21,0,0,0-3.3-2c-3.57-.69-7.2-.85-10.78-1.44a8.75,8.75,0,0,0-1.45-.07c-1.93,0-3.87.08-5.81,0a14.69,14.69,0,0,0-5,.86,6.41,6.41,0,0,0-3.53,2.42,1.58,1.58,0,0,0-.09,1.71,1.47,1.47,0,0,0,1.5.79c1.41-.38,2.87-.42,4.28-.69,3.68-.72,7.41-1,11.13-1.33a14,14,0,0,0,2.5-.39,7,7,0,0,1,2.88-.14c1.67.23,3.35.49,5.14.75a5.46,5.46,0,0,1,2.81,3.88c.18.7.23,1.44.47,2.12A7.8,7.8,0,0,1,57.57,82,16.06,16.06,0,0,1,57,86.71a8.85,8.85,0,0,0-.27,2.15c-.11,1.32-.18,2.65-.27,4A6.84,6.84,0,0,0,57,95.66a1.44,1.44,0,0,0,1.47.83c.47-.09.92-.27,1.39-.39.23,0,.47,0,.71-.08.68.21,1.22.81,2.26.67l1.77-.64a3.8,3.8,0,0,1,.72.17c1.44.71,2.56.1,3.59-.87.38-.35.34-.87-.11-1.53l-1.7.2Zm11-13.62v0h0v0Zm15.47-5.09-3.57-.52c-2.77-.42-5.53,0-8.3-.06a6.75,6.75,0,0,0-3.46.87,38.22,38.22,0,0,1-4.23,2c-.33.14-.63.36-1,.53a3.91,3.91,0,0,0-1.74,2.23,1.53,1.53,0,0,0,.31,1.68c.7.65,1.49,1.22,2,1.64,3.11,1.17,5.79,1.16,8.41,1.51a5.78,5.78,0,0,0,1.44,0c1.32-.13,2.63-.3,4-.46a15.52,15.52,0,0,0,8.38-3.91,3.13,3.13,0,0,0,.25-.26,2.81,2.81,0,0,0,0-3.91,4.34,4.34,0,0,0-2.47-1.38ZM78.15,82.16c0,.32-.39.6-.77.59l-.36,0a5.24,5.24,0,0,1-3-1.06,1,1,0,0,1-.29-1.28,3.49,3.49,0,0,1,.7-.82,7.52,7.52,0,0,1,3-1.3.86.86,0,0,1,1.07,1c-.06.35-.19.69-.28,1v0c0,.82,0,1.3,0,1.78Zm16.51-2.59a9.63,9.63,0,0,1-5.17,3.08,1.28,1.28,0,0,1-.7,0,3,3,0,0,1-.66-.48,14.11,14.11,0,0,0,.56-2.37,13.77,13.77,0,0,0-.26-2.44,6.32,6.32,0,0,1,3.62-.15,9.89,9.89,0,0,1,2.37.8c.48.19.59,1.15.24,1.59Zm-45-1.66a8.5,8.5,0,0,0-3.07-1,22.53,22.53,0,0,1-2.85-.44,10.11,10.11,0,0,0-4.31-.1,30.62,30.62,0,0,1-4.67.52c-3.29.1-6,1.73-8.56,3.51a2.06,2.06,0,0,0-.77,2.26,2.84,2.84,0,0,0,1.42,2,25.07,25.07,0,0,0,2.28,1.08,4.22,4.22,0,0,0,2.82.29,7.33,7.33,0,0,1,3-.17,16.07,16.07,0,0,0,4.2-.47,16.07,16.07,0,0,1,2.11-.49A9.58,9.58,0,0,0,45,83.6a50.15,50.15,0,0,0,4.28-2.68,3.73,3.73,0,0,0,.91-1.09,1.52,1.52,0,0,0-.49-1.92ZM31.91,84.13a4.24,4.24,0,0,1-3.95-1c-.14-.14-.15-.42-.23-.67a3.56,3.56,0,0,1,2.83-1.86,1.12,1.12,0,0,1,1.14.65c.25.78.48,1.58.7,2.31-.21.25-.32.53-.49.57Zm14.88-3.44a10.55,10.55,0,0,1-3.06,1.86,3.68,3.68,0,0,1-1.06.19A1.1,1.1,0,0,1,41.59,82a8,8,0,0,1,0-2.84c0-.11.15-.19.23-.28,3.49.08,3.83.13,5.15.86.08,0,.09.22.13.33a2.8,2.8,0,0,1-.36.61Zm18.67,26a7,7,0,0,0-1.3.6c-.41.25-.78.57-1.45,1.06-.54-.47-.88-.79-1.25-1.08a2.34,2.34,0,0,0-3.51.27,11.86,11.86,0,0,0-2.54,4.27A5.7,5.7,0,0,0,57.84,115a2.19,2.19,0,0,0,.63.35,16.65,16.65,0,0,0,6.41.83,6,6,0,0,0,3-1.23,3,3,0,0,0,1.28-2.83,12.74,12.74,0,0,0-1-4.21,2.12,2.12,0,0,0-2.7-1.18ZM96.88,68.17a13.77,13.77,0,0,0-5.2-1.46,36.26,36.26,0,0,0-8.33.06,10.82,10.82,0,0,0-2.46.55c-1.8.69-3.57,1.47-5.33,2.25a2.49,2.49,0,0,0-.77.75,1.06,1.06,0,0,0,.47,1.49,3,3,0,0,0,2.13,0,15.29,15.29,0,0,1,7.12-.87,5.9,5.9,0,0,0,.73,0,22.78,22.78,0,0,1,5.77.34,11,11,0,0,0,5-.2,2.74,2.74,0,0,0,1.2-.75,1.34,1.34,0,0,0-.34-2.13Z"/></g></g></svg>