<svg xmlns="http://www.w3.org/2000/svg" viewBox="0 0 146.15 232.21"><defs><style>.cls-1{fill:#aee0e9;}.cls-2{fill:#179187;}.cls-3{fill:#0a6f66;}.cls-4{fill:#80c2c9;}.cls-5{fill:#ca5e54;}.cls-6{fill:#ea8f77;}.cls-7{fill:#35bcad;}.cls-8{fill:#517fc0;}.cls-9{fill:#6d90ca;}.cls-10{fill:#d67f30;}.cls-11{fill:#ef9b41;}.cls-12{fill:none;stroke:#d67f30;stroke-linecap:round;stroke-miterlimit:10;stroke-width:2px;}.cls-13{fill:#132937;}</style></defs><title>justice</title><g id="Layer_2" data-name="Layer 2"><g id="Calque_1" data-name="Calque 1"><path class="cls-1" d="M88.84,95c1.55,6.69,6.46,28.4,5.49,31.62-.67,2.26-.49,29.73-8.86,41.55L78.24,168a64.26,64.26,0,0,1-2.41-25.72c.46-4.35,2.56-18.94,1.56-20.87C75.22,117.25,72,106.59,71,99.88Z"/><path class="cls-2" d="M79.56,100v69.8s-19-3.17-33-3.17S18,170.41,18,170.41L16.21,100Z"/><polygon class="cls-3" points="28.24 158.48 73.15 158.48 73.15 162.28 32.09 162.28 28.24 158.48"/><path class="cls-4" d="M75.66,158.48H89.88s-1.09,3.37-1.31,3.8-9.06,0-9.06,0Z"/><path class="cls-1" d="M6,101.71l17.82,5.1c-1.09,6.7-3.78,17.49-6,21.66-1,1.91,2.72,9.69,3.89,13.9,1.46,5.31,3,10.19,4.27,14a6.22,6.22,0,0,0-4.24.85L17.43,160a5.93,5.93,0,0,0-1.58,1.45C7,150.76.64,135.14.11,133.25-.81,130,4.39,108.38,6,101.71Z"/><path class="cls-4" d="M17.43,160l4.33-2.71a6.22,6.22,0,0,1,4.24-.85c1.7,5.14,2.94,8.44,2.94,8.44l-7.44,2.28a40.74,40.74,0,0,1-5.65-5.71A5.93,5.93,0,0,1,17.43,160Z"/><path class="cls-5" d="M36.61,194.87l3.24,3.23-3.26,3.25a1.06,1.06,0,0,1-1.82-.76l0-5A1.07,1.07,0,0,1,36.61,194.87Z"/><path class="cls-5" d="M47.82,201.3l-3.24-3.24,3.26-3.25a1.07,1.07,0,0,1,1.82.76l0,5A1.07,1.07,0,0,1,47.82,201.3Z"/><path class="cls-5" d="M45,198.11a3.84,3.84,0,0,0-3.35-3.81,3.17,3.17,0,0,1,.53-.05,3.86,3.86,0,0,1,0,7.72,3.17,3.17,0,0,1-.53-.05A3.84,3.84,0,0,0,45,198.11Z"/><ellipse class="cls-6" cx="41.69" cy="198.11" rx="3.34" ry="3.81"/><path class="cls-5" d="M129.2,191.6l-4.11,2-2-4.13a1.07,1.07,0,0,1,1.31-1.48l4.7,1.64A1.07,1.07,0,0,1,129.2,191.6Z"/><path class="cls-5" d="M119.47,200.1l4.11-2,2,4.13a1.06,1.06,0,0,1-1.31,1.47l-4.7-1.63A1.07,1.07,0,0,1,119.47,200.1Z"/><path class="cls-5" d="M123.39,198.51a3.84,3.84,0,0,0,4.69-1.92,3.14,3.14,0,0,1-.12.51,3.87,3.87,0,1,1-7.31-2.52,3.38,3.38,0,0,1,.22-.47A3.86,3.86,0,0,0,123.39,198.51Z"/><ellipse class="cls-6" cx="124.48" cy="195.35" rx="3.34" ry="3.81" transform="matrix(0.33, -0.95, 0.95, 0.33, -100.74, 249.48)"/><path class="cls-5" d="M16.57,196l4.52.69-.69,4.55a1.07,1.07,0,0,1-1.92.47l-2.93-4A1.07,1.07,0,0,1,16.57,196Z"/><path class="cls-5" d="M29.41,194.49l-4.52-.68.69-4.55a1.07,1.07,0,0,1,1.92-.47l2.93,4A1.06,1.06,0,0,1,29.41,194.49Z"/><path class="cls-5" d="M25.28,193.57a3.86,3.86,0,0,0-5-1.09,3.33,3.33,0,0,1,.39-.35,3.87,3.87,0,0,1,4.58,6.23l-.45.27A3.87,3.87,0,0,0,25.28,193.57Z"/><ellipse class="cls-6" cx="22.59" cy="195.55" rx="3.34" ry="3.81" transform="translate(-111.51 51.44) rotate(-36.35)"/><path class="cls-2" d="M25,198.07l4.46,1-1,4.48a1.06,1.06,0,0,1-1.94.34l-2.65-4.21A1.06,1.06,0,0,1,25,198.07Z"/><path class="cls-2" d="M37.87,197.49l-4.47-1,1-4.49a1.07,1.07,0,0,1,2-.33L39,195.88A1.06,1.06,0,0,1,37.87,197.49Z"/><path class="cls-2" d="M33.81,196.29a3.87,3.87,0,0,0-4.87-1.43,4.63,4.63,0,0,1,.42-.32,3.86,3.86,0,1,1,4.14,6.52,3,3,0,0,1-.47.24A3.84,3.84,0,0,0,33.81,196.29Z"/><ellipse class="cls-7" cx="30.99" cy="198.08" rx="3.34" ry="3.81" transform="translate(-101.41 47.52) rotate(-32.43)"/><path class="cls-2" d="M110.58,193.76l2.62,3.75-3.76,2.64a1.07,1.07,0,0,1-1.67-1.07l.88-4.89A1.07,1.07,0,0,1,110.58,193.76Z"/><path class="cls-2" d="M120.5,202l-2.63-3.74,3.77-2.64a1.06,1.06,0,0,1,1.66,1.06l-.88,4.9A1.06,1.06,0,0,1,120.5,202Z"/><path class="cls-2" d="M118.31,198.42a3.85,3.85,0,0,0-2.63-4.34,4.38,4.38,0,0,1,.52,0,3.87,3.87,0,1,1-1.34,7.62,2.88,2.88,0,0,1-.5-.15A3.83,3.83,0,0,0,118.31,198.42Z"/><ellipse class="cls-7" cx="115.02" cy="197.84" rx="3.81" ry="3.34" transform="translate(-99.78 276.79) rotate(-80.01)"/><path class="cls-8" d="M126.07,194.77l3,3.41-3.43,3.07a1.06,1.06,0,0,1-1.77-.86l.3-5A1.06,1.06,0,0,1,126.07,194.77Z"/><path class="cls-8" d="M136.89,201.82l-3-3.41,3.42-3.06a1.07,1.07,0,0,1,1.78.86l-.3,5A1.06,1.06,0,0,1,136.89,201.82Z"/><path class="cls-8" d="M134.3,198.48a3.85,3.85,0,0,0-3.13-4,3,3,0,0,1,.52,0,3.86,3.86,0,1,1-.43,7.71,4.67,4.67,0,0,1-.52-.08A3.85,3.85,0,0,0,134.3,198.48Z"/><ellipse class="cls-9" cx="130.96" cy="198.29" rx="3.81" ry="3.34" transform="translate(-74.36 317.94) rotate(-86.79)"/><path class="cls-8" d="M30.59,197.16l-4.55.39-.4-4.58a1.07,1.07,0,0,1,1.76-.91l3.79,3.22A1.07,1.07,0,0,1,30.59,197.16Z"/><path class="cls-8" d="M18.46,201.59,23,201.2l.4,4.58a1.07,1.07,0,0,1-1.76.91l-3.79-3.22A1.07,1.07,0,0,1,18.46,201.59Z"/><path class="cls-8" d="M22.68,201.52a3.85,3.85,0,0,0,5.07-.11,4.17,4.17,0,0,1-.29.44,3.86,3.86,0,0,1-5.91-5,3.23,3.23,0,0,1,.37-.37A3.87,3.87,0,0,0,22.68,201.52Z"/><ellipse class="cls-9" cx="24.84" cy="198.96" rx="3.34" ry="3.81" transform="translate(-143.36 89.83) rotate(-49.91)"/><path class="cls-10" d="M31.6,190.08l3.23,3.23-3.25,3.25a1.06,1.06,0,0,1-1.82-.76l0-5A1.07,1.07,0,0,1,31.6,190.08Z"/><path class="cls-10" d="M42.8,196.51l-3.23-3.23L42.82,190a1.07,1.07,0,0,1,1.82.76l0,5A1.07,1.07,0,0,1,42.8,196.51Z"/><path class="cls-10" d="M40,193.32a3.85,3.85,0,0,0-3.34-3.81,4.36,4.36,0,0,1,.52,0,3.87,3.87,0,0,1,0,7.73,3,3,0,0,1-.52-.06A3.84,3.84,0,0,0,40,193.32Z"/><ellipse class="cls-11" cx="36.68" cy="193.32" rx="3.34" ry="3.81"/><path class="cls-10" d="M139.48,201v-1.67h5.67V201A12.91,12.91,0,0,1,132.24,214h-5.67A12.91,12.91,0,0,0,139.48,201Z"/><path class="cls-11" d="M96.48,201v-1.67h43V201A12.91,12.91,0,0,1,126.57,214H109.4A12.92,12.92,0,0,1,96.48,201Z"/><path class="cls-10" d="M51.26,201v-1.67h5.66V201A12.91,12.91,0,0,1,44,214H38.34A12.91,12.91,0,0,0,51.26,201Z"/><path class="cls-11" d="M8.26,201v-1.67h43V201A12.91,12.91,0,0,1,38.34,214H21.17A12.91,12.91,0,0,1,8.26,201Z"/><path class="cls-10" d="M88.33,231.17v1h3.53v-1c0-4.44-3.6-4-8-4H80.29C84.73,227.13,88.33,226.73,88.33,231.17Z"/><path class="cls-11" d="M61.55,231.17v1H88.33v-1c0-4.44-3.6-4-8-4H69.59C65.15,227.13,61.55,226.73,61.55,231.17Z"/><polyline class="cls-12" points="145.15 199.37 120.82 169.37 96.48 199.37"/><polyline class="cls-12" points="56.92 199.37 32.59 169.37 8.26 199.37"/><path class="cls-10" d="M34.54,173l-2.78,3.63-3.65-2.8a1.06,1.06,0,0,1,.51-1.9l4.94-.64A1.07,1.07,0,0,1,34.54,173Z"/><path class="cls-10" d="M29.63,185l2.78-3.63,3.65,2.8a1.07,1.07,0,0,1-.52,1.91l-4.93.63A1.07,1.07,0,0,1,29.63,185Z"/><path class="cls-10" d="M32.42,181.78A3.86,3.86,0,0,0,35.77,178c0,.16.09.33.12.51a3.87,3.87,0,0,1-7.67,1,4.69,4.69,0,0,1,0-.53A3.84,3.84,0,0,0,32.42,181.78Z"/><ellipse class="cls-11" cx="31.99" cy="178.46" rx="3.81" ry="3.34" transform="translate(-23.03 5.7) rotate(-7.5)"/><path class="cls-2" d="M48.08,109.92a120.87,120.87,0,0,1-44.89-8.5c.93-3.36,4.66-14.88,7.91-19.3s22.69-5.59,22.69-5.59h28.6s19.42,1.17,22.68,5.59,7,15.94,7.91,19.3a120.8,120.8,0,0,1-44.89,8.5h0Z"/><path class="cls-1" d="M48.09,75.67a22.82,22.82,0,0,0,12.37-4l.86,4.81a23,23,0,0,1-13.23,4.58,23,23,0,0,1-13.23-4.58l.85-4.81A23,23,0,0,0,48.09,75.67Z"/><path class="cls-4" d="M35.71,71.72l.7-3.9H59.77l.69,3.9a22.82,22.82,0,0,1-12.37,4A23,23,0,0,1,35.71,71.72Z"/><rect class="cls-4" x="68.25" y="39.98" width="8.53" height="13.81" rx="2.13" ry="2.13" transform="translate(128.58 112.57) rotate(-163.36)"/><rect class="cls-4" x="20.15" y="39.98" width="8.53" height="13.81" rx="2.13" ry="2.13" transform="translate(-12.4 8.95) rotate(-16.64)"/><path class="cls-1" d="M28.62,9.11H67.78s6,20,4.65,31.91c0,0-.64,18.3-5.78,23.11S54.62,73,48.2,73s-13.32-4-18.46-8.83S24,41,24,41C22.62,29.06,28.62,9.11,28.62,9.11Z"/><path class="cls-4" d="M23.74,107.48a122.7,122.7,0,0,1-17.89-5L5.23,105s3.89,2.53,18,5.18Z"/><path class="cls-4" d="M90.5,102.41a104.38,104.38,0,0,1-10.94,3.44v3.07s7.55-1.47,11.56-3.64Z"/><path class="cls-3" d="M64,147.25c0-4.28,3.78-7.76,8.43-7.76s8.43,3.48,8.43,7.76a7.92,7.92,0,0,1-6.59,7.56v9l-3.81-1.32v-7.7A7.91,7.91,0,0,1,64,147.25Z"/><path class="cls-10" d="M82,145.39c0-4-2.69-7.6-7-7.6a7.22,7.22,0,0,0-1.14.11,8.87,8.87,0,0,1,2.53-.41,7.92,7.92,0,1,1,0,15.8,8.59,8.59,0,0,1-6.18-2.59,8,8,0,0,0,4.79,1.61A6.58,6.58,0,0,0,82,145.39Z"/><rect class="cls-11" x="73.15" y="117.71" width="7.11" height="96.23" transform="translate(-89.12 242.52) rotate(-90)"/><rect class="cls-10" x="75.48" y="120.04" width="2.44" height="96.23" transform="translate(-91.45 244.86) rotate(-90)"/><rect class="cls-11" x="73.15" y="150.89" width="7.11" height="76.23" transform="translate(153.41 378.01) rotate(-180)"/><rect class="cls-10" x="77.82" y="166.93" width="2.44" height="60.19" transform="translate(158.07 394.05) rotate(-180)"/><rect class="cls-1" x="21.33" y="172.01" width="4.53" height="11.63" rx="1.13" ry="1.13" transform="translate(137.63 316.28) rotate(148.08)"/><rect class="cls-1" x="25.18" y="169.61" width="4.53" height="11.63" rx="1.13" ry="1.13" transform="translate(143.48 309.82) rotate(148.08)"/><rect class="cls-1" x="28.56" y="167.18" width="4.53" height="11.63" rx="1.13" ry="1.13" transform="translate(148.44 303.54) rotate(148.08)"/><rect class="cls-1" x="31.89" y="164.05" width="4.53" height="11.63" rx="1.13" ry="1.13" transform="translate(152.95 295.98) rotate(148.08)"/><rect class="cls-1" x="16.69" y="158.88" width="17.7" height="19.23" rx="3.15" ry="3.15" transform="translate(136.44 297.9) rotate(148.02)"/><polygon class="cls-10" points="77.9 162.28 80.34 162.28 80.34 150.48 77.9 150.29 77.9 162.28"/><path class="cls-11" d="M73.94,137.9a7.22,7.22,0,0,1,1.14-.11c4.27,0,7,3.59,7,7.6a6.58,6.58,0,0,1-7,6.92,8,8,0,0,1-4.79-1.61,7.56,7.56,0,0,1-2.23-5.31A7.94,7.94,0,0,1,73.94,137.9Z"/><path class="cls-4" d="M71.33,51.91c-2.62.42-3-16.17-6.58-17-1.61-.39-1.74,1.46-3.19,1.44a9.53,9.53,0,0,1-5.91-2.14l2.41,3s-16,2.23-21.69-2.79S30.68,31,30.46,32.12s-2.63,4-3.94,6,1.71,12.4-1.43,13c-.73.14-4.34-21.85-3.1-28.19S30.17,7.23,37.47,7.3s1.16-2.38.29-3.13,6.79-.74,11.82,1.94,19.85,3.24,23.79,14c3,8.19-.07,17.66-.8,20.72S72.24,51.76,71.33,51.91Z"/><path class="cls-13" d="M71.64,49.64c-1.69.56-1.48-15.68-5-17.31s-4,2.79-7.68,1.86A32.87,32.87,0,0,1,52.71,32l2.56,3.16S41.54,37.19,35.49,32s-6.06-3.59-6.29-2.42S26.41,33.72,25,35.82s.14,11.5.14,11.5.46,1.55-.31,1.7-6-22.43-4.64-29S28.89,3.62,36.65,3.7,37.89,1.22,37,.44s7.21-.77,12.57,2,21.1,3.37,25.29,14.59C78,25.57,74.74,35.43,74,38.61S72.57,49.33,71.64,49.64Z"/></g></g></svg>