<svg xmlns="http://www.w3.org/2000/svg" viewBox="0 0 136.67 174.72"><defs><style>.cls-1{fill:#00aca5;}.cls-2{fill:#7693cb;}.cls-3{fill:#537ebd;}.cls-4{fill:#4461ab;}.cls-5{fill:#22325c;}.cls-6{fill:#564797;}.cls-7{fill:#423b83;}.cls-8{fill:#fff;}</style></defs><title>Asset 46</title><g id="Layer_2" data-name="Layer 2"><g id="Layer_1-2" data-name="Layer 1"><path class="cls-1" d="M122,163.58a3.26,3.26,0,0,1-2.17,3.08c-.49.17-12.15,4.14-44.59,2-29.81-2-56.16,5.89-56.42,6A3.27,3.27,0,0,1,17,168.32a180.33,180.33,0,0,1,58.77-6.25c30.73,2.08,41.87-1.56,42-1.59a3.28,3.28,0,0,1,4.16,2,3.4,3.4,0,0,1,.18,1.08Z"/><path class="cls-2" d="M83,158.7H56.1a43.94,43.94,0,0,1-43.81-43.81V68.38A23.81,23.81,0,0,1,36,44.64h64.61a23.81,23.81,0,0,1,23.74,23.74v49A41.36,41.36,0,0,1,83,158.7Z"/><path class="cls-3" d="M124.35,115.51c-1.45.12-2.9.2-4.38.2A51.64,51.64,0,0,1,68.33,64.07a51.64,51.64,0,0,1-51.64,51.64c-1.48,0-2.93-.08-4.38-.2,0,1.37.11,2.72.26,4a44.89,44.89,0,0,0,6.91,1.15c1.26.11,2.53.18,3.82.18a45,45,0,0,0,45-45,45,45,0,0,0,45,45c1.29,0,2.56-.07,3.81-.18a45.14,45.14,0,0,0,6.93-1.15c.14-1.32.22-2.67.25-4Z"/><path class="cls-4" d="M26.67,27.35s-.79-12.93,3.27-23.92S38.41,11.1,43.22,15,26.67,27.35,26.67,27.35Z"/><path class="cls-4" d="M109.63,27.35s.79-12.93-3.27-23.92S97.89,11.1,93.08,15s16.55,12.39,16.55,12.39Z"/><path class="cls-4" d="M115.46,31.85a47.9,47.9,0,0,0-8.91-9.41,48.5,48.5,0,0,0-6.48-4.39A47,47,0,0,0,76.9,12H59.76a47.07,47.07,0,0,0-23.17,6.09A48,48,0,0,0,21.17,31.89,93.48,93.48,0,0,0,3.24,115.53a51.34,51.34,0,0,0,9.07,1.57c1.45.13,2.91.21,4.38.21A51.65,51.65,0,0,0,68.34,65.67,51.64,51.64,0,0,0,120,117.31c1.47,0,2.93-.08,4.37-.21a51.29,51.29,0,0,0,9.08-1.57,93.69,93.69,0,0,0,3.24-24.43,93,93,0,0,0-21.21-59.25Z"/><path class="cls-5" d="M76.33,108l-7.58,7.59a.6.6,0,0,1-.84,0L60.33,108a1.42,1.42,0,0,0-2,2l7.59,7.58a3.4,3.4,0,0,0,4.84,0L78.34,110a1.42,1.42,0,0,0-2-2Zm9,13.18-7.59,7.59a.58.58,0,0,1-.41.17.61.61,0,0,1-.42-.17l-6.17-6.17a3.4,3.4,0,0,0-2.42-1,3.44,3.44,0,0,0-2.42,1l-6.17,6.17a.58.58,0,0,1-.41.17.61.61,0,0,1-.42-.17l-7.59-7.59a1.42,1.42,0,0,0-2,2l7.58,7.58a3.44,3.44,0,0,0,4.85,0l6.16-6.17a.6.6,0,0,1,.84,0l6.16,6.17a3.44,3.44,0,0,0,4.85,0l7.58-7.58a1.42,1.42,0,0,0-2-2Zm9,12.6-7.59,7.59a.61.61,0,0,1-.42.17.63.63,0,0,1-.42-.17l-6.16-6.17a3.44,3.44,0,0,0-4.85,0l-6.16,6.17a.6.6,0,0,1-.84,0l-6.16-6.17a3.44,3.44,0,0,0-4.85,0l-6.16,6.17a.6.6,0,0,1-.84,0l-7.58-7.59a1.42,1.42,0,1,0-2,2l7.59,7.59a3.43,3.43,0,0,0,4.84,0l6.17-6.17a.61.61,0,0,1,.42-.17.58.58,0,0,1,.41.17l6.17,6.17a3.43,3.43,0,0,0,4.84,0l6.17-6.17a.61.61,0,0,1,.42-.17.58.58,0,0,1,.41.17l6.17,6.17a3.43,3.43,0,0,0,4.84,0l7.59-7.59a1.41,1.41,0,0,0-2-2Z"/><path class="cls-6" d="M45.56,167.51h0a3.17,3.17,0,0,1-3.16-3.16V153.52a3.17,3.17,0,0,1,6.33,0v10.83a3.18,3.18,0,0,1-3.17,3.16Z"/><path class="cls-7" d="M51.9,167.51h0a3.17,3.17,0,0,1-3.17-3.16V153.52a3.17,3.17,0,0,1,6.33,0v10.83a3.17,3.17,0,0,1-3.16,3.16Z"/><path class="cls-6" d="M58.23,167.51h0a3.18,3.18,0,0,1-3.17-3.16V153.52a3.17,3.17,0,0,1,6.33,0v10.83a3.17,3.17,0,0,1-3.16,3.16Z"/><path class="cls-6" d="M77.81,167.51h0a3.17,3.17,0,0,1-3.16-3.16V153.52a3.17,3.17,0,0,1,6.33,0v10.83a3.18,3.18,0,0,1-3.17,3.16Z"/><path class="cls-7" d="M84.15,167.51h0A3.17,3.17,0,0,1,81,164.35V153.52a3.17,3.17,0,0,1,6.33,0v10.83a3.17,3.17,0,0,1-3.16,3.16Z"/><path class="cls-6" d="M90.48,167.51h0a3.18,3.18,0,0,1-3.17-3.16V153.52a3.17,3.17,0,0,1,6.33,0v10.83a3.17,3.17,0,0,1-3.16,3.16Z"/><path class="cls-2" d="M10.66,70a28.9,28.9,0,1,1,28.89,28.9A28.88,28.88,0,0,1,10.66,70Z"/><path class="cls-2" d="M68.33,70a28.9,28.9,0,1,1,28.89,28.9A28.88,28.88,0,0,1,68.33,70Z"/><path class="cls-8" d="M15.84,70a26.31,26.31,0,1,1,26.3,26.31A26.31,26.31,0,0,1,15.84,70Z"/><path class="cls-8" d="M68.33,70a26.3,26.3,0,1,1,26.3,26.31A26.31,26.31,0,0,1,68.33,70Z"/><path class="cls-6" d="M66.58,85.85,60.52,74.74a2,2,0,0,1,1.75-2.95H74.4a2,2,0,0,1,1.75,2.95L70.09,85.85a2,2,0,0,1-3.51,0Z"/><path class="cls-5" d="M50.93,70a8.79,8.79,0,1,1-8.79-8.78A8.79,8.79,0,0,1,50.93,70Z"/><path class="cls-8" d="M51.93,63.14a4.33,4.33,0,1,0-4.33,4.33,4.33,4.33,0,0,0,4.33-4.33Z"/><path class="cls-8" d="M40.38,77a2.13,2.13,0,1,0-2.13,2.12A2.13,2.13,0,0,0,40.38,77Z"/><path class="cls-5" d="M103.42,70a8.79,8.79,0,1,1-8.79-8.78A8.79,8.79,0,0,1,103.42,70Z"/><path class="cls-8" d="M104.41,63.14a4.33,4.33,0,1,0-4.32,4.33,4.32,4.32,0,0,0,4.32-4.33Z"/><path class="cls-8" d="M92.87,77a2.13,2.13,0,1,0-2.13,2.12A2.13,2.13,0,0,0,92.87,77Z"/></g></g></svg>