<svg xmlns="http://www.w3.org/2000/svg" viewBox="0 0 174.3 212.47"><defs><style>.cls-1{fill:#eaa175;}.cls-2{fill:#d78b5d;}.cls-3{fill:#62848d;}.cls-4{fill:#179187;}.cls-5{fill:#aee0e9;}.cls-6{fill:#80c2c9;}.cls-7{fill:#ca5e54;}.cls-8{fill:#d98553;}.cls-9{fill:#132937;}.cls-10{fill:#117067;}.cls-11{fill:#40459b;}.cls-12{fill:#5452a3;}.cls-13{fill:#ea8f77;}.cls-14{fill:#517fc0;}.cls-15{fill:#6d90ca;}.cls-16{fill:#b4524f;}</style></defs><title>protection</title><g id="Layer_2" data-name="Layer 2"><g id="Calque_1" data-name="Calque 1"><path class="cls-1" d="M153.52,113.28a95.14,95.14,0,0,0,13.4-4.42C166,105.51,162.27,94,159,89.56S136.33,84,136.33,84h-28.6S88.3,85.14,85,89.56a22.63,22.63,0,0,0-1.68,2.81c3.26,2.33,22.52,15,52.78,13,0,0,3.38,36.18-12.81,68.6,4.29.09,25.63.63,25.55-.51-.23-3.26-.11-43-1.64-57.17l6.3-2.39C153.53,113.71,153.53,113.49,153.52,113.28Z"/><path class="cls-2" d="M136.14,105.4c-30.26,2-49.52-10.7-52.78-13-.16.32-.33.64-.49,1V111a126.28,126.28,0,0,0,33.51,6.21l3.31,56.71,3.22.06h.42C139.52,141.58,136.14,105.4,136.14,105.4Z"/><path class="cls-1" d="M82.45,94.24a115.66,115.66,0,0,0-5.32,14.62s2.06.92,5.74,2.15V93.35C82.73,93.64,82.59,93.93,82.45,94.24Z"/><path class="cls-3" d="M82.87,92v1.35c.16-.34.33-.66.49-1Z"/><path class="cls-4" d="M17.78,101.83c-.76.61-3.71,33.51-3.24,33.51s50.1,2.17,50.1,2.17L56.08,90.65Z"/><path class="cls-5" d="M6.52,102S-1,131.67.11,135.49c.64,2.27,22.58,12.88,56,7.29l-3.68-7.91s-19-5.15-31-6.11c-2.17-.18-3.78-1.35-2.76-3.27a54.39,54.39,0,0,0,5.44-18.33C25,98.89,6.52,102,6.52,102Z"/><path class="cls-4" d="M50,109.92a120.8,120.8,0,0,0,44.89-8.5C94,98.06,90.23,86.54,87,82.12s-22.68-5.59-22.68-5.59H35.69S16.26,77.7,13,82.12s-7,15.94-7.91,19.3A120.87,120.87,0,0,0,50,109.92h0Z"/><path class="cls-5" d="M50,75.67a22.86,22.86,0,0,1-12.38-4l-.85,4.81A22.94,22.94,0,0,0,50,81.11a23,23,0,0,0,13.23-4.58l-.86-4.81A23,23,0,0,1,50,75.67Z"/><path class="cls-6" d="M62.36,71.72l-.69-3.9H38.31l-.7,3.9a22.86,22.86,0,0,0,12.38,4A23,23,0,0,0,62.36,71.72Z"/><rect class="cls-6" x="21.29" y="39.98" width="8.53" height="13.81" rx="2.13" ry="2.13" transform="matrix(0.96, -0.29, 0.29, 0.96, -12.35, 9.28)"/><rect class="cls-6" x="69.39" y="39.98" width="8.53" height="13.81" rx="2.13" ry="2.13" transform="translate(130.8 112.9) rotate(-163.36)"/><path class="cls-5" d="M69.45,9.11H30.3s-6,20-4.66,31.91c0,0,.64,18.3,5.78,23.11S43.46,73,49.88,73s13.31-4,18.45-8.83S74.11,41,74.11,41C75.45,29.06,69.45,9.11,69.45,9.11Z"/><path class="cls-6" d="M26.7,52.13c2.62.43,3.05-16.17,6.58-17,1.61-.38,1.74,1.46,3.19,1.45a9.6,9.6,0,0,0,5.91-2.14l-2.41,3s16,2.23,21.69-2.78,5.69-3.45,5.91-2.34,2.63,4,3.94,6-1.71,12.41,1.42,13c.74.13,4.35-21.86,3.1-28.19S67.86,7.45,60.56,7.53s-1.17-2.39-.29-3.13-6.79-.75-11.82,1.94-19.85,3.23-23.8,14c-3,8.18.08,17.66.81,20.71S25.79,52,26.7,52.13Z"/><path class="cls-1" d="M144.37,117.48s19.47-7.07,22.56-8.62l-10.54-5.12-10.81,1.88L141.47,113Z"/><path class="cls-1" d="M147.71,162.18a14,14,0,0,0,.15-2.59c0,1.4-.15,2.59-.15,2.59Z"/><path class="cls-7" d="M147.86,159.56h0v0Z"/><path class="cls-6" d="M6.52,102a124.57,124.57,0,0,0,17.59,5.16s-.34,2.7-.55,3.76c0,0-13.61-2.61-18-4.94Z"/><path class="cls-8" d="M137.44,107.44c.86-1.24,1.16-1.24,1.16-1.24v7c.9-4.37,14.72-10.65,18.05-25.36a29.31,29.31,0,0,0-13-2.35c-4-.52-7.21-.71-7.21-.71l-.65.19,1.64,1.72C136.13,92.74,136.58,108.69,137.44,107.44Z"/><path class="cls-9" d="M143.72,61.15s13.8,7.29,11,22.91-17.37,22.13-18.31,26.63v-7s-.29,0-1.15,1.24-1.31-14.71,0-20.77l-6.14-3.57-2.79-12.43Z"/><path class="cls-5" d="M122,83.32a22.85,22.85,0,0,1-12.38-4l-.85,4.82a21.44,21.44,0,0,0,26.46,0l-.86-4.82A22.87,22.87,0,0,1,122,83.32Z"/><path class="cls-6" d="M134.4,79.36l-.69-3.9H110.35l-.7,3.9a21.32,21.32,0,0,0,24.75,0Z"/><rect class="cls-6" x="93.33" y="47.63" width="8.53" height="13.81" rx="2.13" ry="2.13" transform="translate(-11.53 30.23) rotate(-16.64)"/><rect class="cls-6" x="141.43" y="47.63" width="8.53" height="13.81" rx="2.13" ry="2.13" transform="translate(269.68 148.5) rotate(-163.36)"/><path class="cls-5" d="M141.49,16.76H102.34s-6,20-4.66,31.91c0,0,.65,18.3,5.78,23.11s12,8.83,18.46,8.83,13.32-4,18.45-8.83,5.78-23.11,5.78-23.11C147.49,36.71,141.49,16.76,141.49,16.76Z"/><path class="cls-6" d="M98.74,58.63c2.6.32,1-10.39,5.8-13.9,3.2-2.33,13.47-7.18,18.32-13.51,8.34,9.7,17,7.85,17.13,8.41.22,1.1,2.63,4,3.95,5.94s-1.41,12.28,1.47,12.84c.73.14,4.35-23.35,1.71-31-6.45-18.65-44.92-18-50.2.39-2.36,8.26.08,17.36.81,20.36S97.82,58.52,98.74,58.63Z"/><path class="cls-9" d="M98.48,57.29c1.68.56-.23-11,4.89-14.71,3.39-2.47,14.27-7.61,19.4-14.31,8.83,10.27,18,8.32,18.14,8.91.24,1.17,2.8,4.19,4.19,6.29S145,55,145,55s-.47,1.55.31,1.71,6-24.33,3.19-32.4c-6.83-19.75-47.59-19.09-53.17.42-2.51,8.75.08,18.39.85,21.57S97.55,57,98.48,57.29Z"/><path class="cls-7" d="M108.83,84s5.85,4.74,13.2,4.74,13.23-4.57,13.23-4.57-.46,3-.54,4.08A23,23,0,0,1,122,91.7a22.43,22.43,0,0,1-17.22-7.49A23.94,23.94,0,0,1,108.83,84Z"/><rect class="cls-7" x="137.15" y="34.22" width="10.32" height="2.68" rx="0.67" ry="0.67" transform="translate(16.54 111.04) rotate(-45)"/><path class="cls-9" d="M26.44,49.64c1.68.56,1.47-15.68,5-17.31s4,2.79,7.68,1.86A32.82,32.82,0,0,0,45.37,32l-2.56,3.16S56.54,37.19,62.59,32s6-3.59,6.28-2.42,2.8,4.18,4.19,6.28-.13,11.5-.13,11.5-.47,1.55.31,1.7,6-22.43,4.63-29S69.18,3.62,61.43,3.7,60.18,1.22,61.12.44s-7.22-.77-12.57,2S27.45,5.83,23.26,17.05c-3.19,8.52.07,18.38.85,21.56S25.51,49.33,26.44,49.64Z"/><path class="cls-10" d="M36.76,76.53A23.32,23.32,0,0,0,50,81.11a23.36,23.36,0,0,0,13.23-4.58l3.07.13s-4.18,6.9-16.3,6.9-16.33-6.9-16.33-6.9Z"/><path class="cls-5" d="M150.67,150.17v0a5,5,0,0,0-5.31-3.87,4.81,4.81,0,0,0-3.64,2.42,5,5,0,0,0-.14,4.27,16.18,16.18,0,0,0,4,5.67c4.07,3.87,3.24,5.79,2.55,7.81s-1.6,3.13-.15,4.18a1.87,1.87,0,0,0,1,.24c1.92.06,6.65-7.88,6.69-10.12,0-1.18-1.11-3-2.19-4.54A17.74,17.74,0,0,1,150.67,150.17Z"/><path class="cls-5" d="M165,108c4.57,10.12,9.8,22.57,9.21,24.54-1.27,4.24-4.77,13.45-27.65,18.85l-2.22-4.25a71.44,71.44,0,0,1,16.18-14c1.5-.91,1.22-2,.13-3.32-1.94-2.41-6.12-9.61-9.33-16.36Z"/><path class="cls-7" d="M147.27,116.44s14.32-5.27,19.72-7.53l-.67-2.25s-14.08,5.62-19.22,7.36Z"/><path class="cls-11" d="M80,212.47c60.76-28.58,53.27-108.77,53.27-108.77C99.93,105.92,80,90.3,80,90.3Z"/><path class="cls-12" d="M80,212.47C19.18,183.89,26.67,103.7,26.67,103.7,60,105.92,80,90.3,80,90.3Z"/><path class="cls-7" d="M80,204.34c52.68-24.78,46.18-94.3,46.18-94.3C97.27,112,80,98.42,80,98.42Z"/><path class="cls-13" d="M80,204.34C27.27,179.56,33.76,110,33.76,110,62.63,112,80,98.42,80,98.42Z"/><path class="cls-14" d="M80,201.57c49.92-23.48,43.77-89.37,43.77-89.37C96.36,114,80,101.2,80,101.2Z"/><path class="cls-15" d="M80,201.57C30,178.09,36.18,112.2,36.18,112.2,63.53,114,80,101.2,80,101.2Z"/><path class="cls-7" d="M121.11,170.86c.18-.37,10.76,1.11,27.85,0l-.08,2.63s.08,1.3-29.19.44Z"/><path class="cls-16" d="M123.33,174c.12-.19.94-1.89,1.5-3.14h-3.72l-1.42,3.07Z"/></g></g></svg>