<svg xmlns="http://www.w3.org/2000/svg" viewBox="0 0 168.25 205.1"><defs><style>.cls-1{fill:#eda676;}.cls-2{fill:#dc8d59;}.cls-3{fill:#668891;}.cls-4{fill:#0f8f85;}.cls-5{fill:#bee3ee;}.cls-6{fill:#8dc5ce;}.cls-7{fill:#ce594c;}.cls-8{fill:#dc874c;}.cls-9{fill:#1e2c39;}.cls-10{fill:#096e65;}.cls-11{fill:#433a8f;}.cls-12{fill:#564797;}.cls-13{fill:#ea9079;}.cls-14{fill:#567fc0;}.cls-15{fill:#7693cb;}.cls-16{fill:#b94d49;}</style></defs><title>Asset 44</title><g id="Layer_2" data-name="Layer 2"><g id="Layer_1-2" data-name="Layer 1"><path class="cls-1" d="M148.19,109.35a92.48,92.48,0,0,0,12.95-4.26c-.9-3.24-4.5-14.36-7.64-18.63s-21.9-5.4-21.9-5.4H104s-18.75,1.13-21.9,5.4a22.33,22.33,0,0,0-1.62,2.7c3.14,2.25,21.73,14.53,50.95,12.59,0,0,3.26,34.92-12.37,66.21,4.15.1,24.74.62,24.66-.49-.22-3.14-.1-41.5-1.58-55.19l6.08-2.3c0-.21,0-.43,0-.63Z"/><path class="cls-2" d="M131.42,101.75c-29.22,1.94-47.81-10.34-50.95-12.59l-.48,1v17a122.31,122.31,0,0,0,32.35,6l3.2,54.74,3.1.06h.41c15.63-31.29,12.37-66.21,12.37-66.21Z"/><path class="cls-1" d="M79.59,91a109.66,109.66,0,0,0-5.13,14.12s2,.88,5.53,2.07v-17c-.13.29-.27.56-.4.86Z"/><path class="cls-3" d="M80,88.81v1.3l.48-1L80,88.81Z"/><path class="cls-4" d="M17.16,98.3c-.73.59-3.58,32.34-3.13,32.34s48.37,2.1,48.37,2.1L54.14,87.51l-37,10.79Z"/><path class="cls-5" d="M6.29,98.47S-.94,127.1.1,130.79c.63,2.2,21.8,12.43,54,7l-3.56-7.64s-18.3-5-29.89-5.9C18.6,124.12,17,123,18,121.14a52.92,52.92,0,0,0,5.24-17.69c.82-8-17-5-17-5Z"/><path class="cls-4" d="M48.26,106.11A116.55,116.55,0,0,0,91.59,97.9c-.9-3.24-4.49-14.36-7.64-18.63s-21.89-5.4-21.89-5.4H34.45S15.7,75,12.55,79.27,5.81,94.66,4.91,97.9a116.64,116.64,0,0,0,43.34,8.21h0Z"/><path class="cls-5" d="M48.25,73.05a22.07,22.07,0,0,1-11.94-3.82l-.83,4.64a22.16,22.16,0,0,0,12.77,4.42A22.25,22.25,0,0,0,61,73.87l-.83-4.64a22.15,22.15,0,0,1-12,3.82Z"/><path class="cls-6" d="M60.2,69.23l-.67-3.76H37l-.67,3.76a22.07,22.07,0,0,0,11.94,3.82,22.15,22.15,0,0,0,12-3.82Z"/><path class="cls-6" d="M28.55,51.06,24.6,52.24A2.07,2.07,0,0,1,22,50.85L19.4,42a2.08,2.08,0,0,1,1.39-2.57l3.94-1.18a2.08,2.08,0,0,1,2.57,1.39l2.63,8.82a2.06,2.06,0,0,1-1.38,2.57Z"/><path class="cls-6" d="M67.22,51.06l3.94,1.18a2.08,2.08,0,0,0,2.57-1.39L76.36,42A2.06,2.06,0,0,0,75,39.46l-4-1.18a2.07,2.07,0,0,0-2.56,1.39l-2.64,8.82a2.08,2.08,0,0,0,1.39,2.57Z"/><path class="cls-5" d="M67,8.79H29.25s-5.79,19.26-4.5,30.81c0,0,.62,17.66,5.58,22.31S42,70.43,48.15,70.43,61,66.56,66,61.91,71.54,39.6,71.54,39.6C72.83,28.05,67,8.79,67,8.79Z"/><path class="cls-6" d="M25.78,50.32c2.53.41,2.94-15.61,6.34-16.42,1.56-.37,1.69,1.42,3.08,1.4a9.21,9.21,0,0,0,5.71-2.07l-2.33,2.93S54,38.32,59.52,33.48s5.49-3.34,5.7-2.26,2.54,3.89,3.81,5.83-1.65,12,1.38,12.54c.7.13,4.18-21.1,3-27.22S65.51,7.2,58.46,7.27s-1.13-2.3-.28-3-6.55-.72-11.41,1.87S27.6,9.24,23.8,19.64c-2.89,7.9.07,17,.77,20s.33,10.54,1.21,10.68Z"/><path class="cls-1" d="M139.36,113.41s18.8-6.83,21.78-8.32l-10.18-5L140.53,102l-4,7.12,2.8,4.33Z"/><path class="cls-1" d="M142.59,156.55a13.7,13.7,0,0,0,.14-2.49c0,1.35-.14,2.49-.14,2.49Z"/><polygon class="cls-7" points="142.73 154.02 142.73 154.02 142.73 154.06 142.73 154.02 142.73 154.02"/><path class="cls-6" d="M6.29,98.47a121.27,121.27,0,0,0,17,5s-.33,2.6-.53,3.63c0,0-13.13-2.53-17.39-4.78l.94-3.83Z"/><path class="cls-8" d="M132.68,103.72c.83-1.2,1.11-1.2,1.11-1.2v6.74C134.66,105,148,99,151.22,84.78a28.15,28.15,0,0,0-12.54-2.27c-3.87-.5-7-.69-7-.69l-.63.19,1.59,1.65c-1.27,5.86-.84,21.26,0,20.06Z"/><path class="cls-9" d="M138.73,59s13.32,7,10.63,22.11-16.78,21.37-17.68,25.71v-6.74s-.28,0-1.11,1.2-1.27-14.2,0-20l-5.93-3.45-2.69-12L138.73,59Z"/><path class="cls-5" d="M117.8,80.43a22,22,0,0,1-12-3.82L105,81.26a20.71,20.71,0,0,0,25.55,0l-.83-4.65a22.14,22.14,0,0,1-11.94,3.82Z"/><path class="cls-6" d="M129.74,76.61l-.67-3.76H106.52l-.67,3.76a20.59,20.59,0,0,0,23.89,0Z"/><path class="cls-6" d="M98.09,58.44l-3.94,1.18a2.08,2.08,0,0,1-2.57-1.39L89,49.41a2,2,0,0,1,1.38-2.56l4-1.18a2.05,2.05,0,0,1,2.56,1.38l2.64,8.83a2.07,2.07,0,0,1-1.39,2.56Z"/><path class="cls-6" d="M136.76,58.44l4,1.18a2.07,2.07,0,0,0,2.56-1.39l2.64-8.82a2.06,2.06,0,0,0-1.39-2.56l-3.94-1.18A2.06,2.06,0,0,0,138,47.05l-2.63,8.83a2.06,2.06,0,0,0,1.38,2.56Z"/><path class="cls-5" d="M136.59,16.17H98.79S93,35.44,94.3,47c0,0,.62,17.66,5.57,22.31s11.62,8.52,17.82,8.52,12.86-3.87,17.81-8.52S141.08,47,141.08,47c1.3-11.54-4.49-30.81-4.49-30.81Z"/><path class="cls-6" d="M95.32,56.6c2.5.31.93-10,5.59-13.42,3.09-2.25,13-6.93,17.69-13,8.05,9.36,16.42,7.58,16.53,8.12.21,1.06,2.55,3.82,3.82,5.73s-1.37,11.85,1.42,12.39c.71.14,4.2-22.53,1.65-29.89-6.23-18-43.37-17.39-48.46.39-2.28,8,.07,16.75.78,19.65s.09,10,1,10.07Z"/><path class="cls-9" d="M95.06,55.3c1.63.54-.22-10.61,4.72-14.2,3.27-2.38,13.78-7.34,18.73-13.81,8.53,9.92,17.4,8,17.52,8.6.22,1.13,2.69,4,4,6.07s-.13,11.1-.13,11.1-.45,1.49.3,1.64,5.78-23.48,3.08-31.27C136.72,4.36,97.38,5,92,23.84c-2.41,8.44.08,17.74.83,20.81S94.17,55,95.06,55.3Z"/><path class="cls-7" d="M105.05,81.09s5.65,4.58,12.75,4.58,12.77-4.41,12.77-4.41-.45,2.86-.53,3.94a22.18,22.18,0,0,1-12.24,3.32,21.66,21.66,0,0,1-16.62-7.23,23.36,23.36,0,0,1,3.87-.2Z"/><path class="cls-7" d="M141.35,32.18l-6.13,6.13a.65.65,0,0,1-.91,0l-.92-.92a.66.66,0,0,1,0-.92l6.13-6.12a.65.65,0,0,1,.91,0l.92.91a.66.66,0,0,1,0,.92Z"/><path class="cls-9" d="M25.52,47.92c1.63.54,1.42-15.14,4.79-16.71S34.13,33.9,37.73,33a31.61,31.61,0,0,0,6.06-2.14l-2.47,3s13.26,2,19.1-3,5.84-3.47,6.06-2.35,2.7,4.05,4,6.07-.13,11.1-.13,11.1-.45,1.49.3,1.64,5.74-21.65,4.47-28S66.78,3.5,59.29,3.57,58.1,1.18,59,.43s-7-.75-12.14,2S26.49,5.63,22.45,16.45c-3.07,8.23.07,17.75.82,20.82s1.35,10.35,2.25,10.65Z"/><path class="cls-10" d="M35.48,73.87a22.55,22.55,0,0,0,12.77,4.42A22.56,22.56,0,0,0,61,73.87L64,74s-4,6.66-15.74,6.66S32.49,74,32.49,74l3-.13Z"/><path class="cls-5" d="M145.44,145v0a4.84,4.84,0,0,0-5.13-3.74,4.67,4.67,0,0,0-3.51,2.34,4.79,4.79,0,0,0-.14,4.12,15.54,15.54,0,0,0,3.87,5.47c3.93,3.74,3.13,5.6,2.46,7.55s-1.54,3-.14,4a1.89,1.89,0,0,0,.94.24c1.86.05,6.42-7.61,6.46-9.78,0-1.14-1.07-2.93-2.11-4.38a17.19,17.19,0,0,1-2.7-5.82Z"/><path class="cls-5" d="M159.31,104.24c4.42,9.77,9.47,21.79,8.9,23.7-1.23,4.08-4.61,13-26.69,18.19L139.38,142A68.8,68.8,0,0,1,155,128.49c1.44-.87,1.17-1.91.12-3.2-1.88-2.33-5.91-9.28-9-15.8l13.2-5.25Z"/><path class="cls-7" d="M142.16,112.4s13.83-5.08,19-7.27l-.65-2.17S147,108.38,142,110.06l.16,2.34Z"/><path class="cls-11" d="M77.17,205.1c58.66-27.59,51.43-105,51.43-105-32.14,2.14-51.43-12.94-51.43-12.94V205.1Z"/><path class="cls-12" d="M77.17,205.1c-58.65-27.59-51.42-105-51.42-105,32.14,2.14,51.42-12.94,51.42-12.94V205.1Z"/><path class="cls-7" d="M77.17,197.25c50.86-23.92,44.59-91,44.59-91C93.89,108.08,77.17,95,77.17,95V197.25Z"/><path class="cls-13" d="M77.17,197.25c-50.85-23.92-44.58-91-44.58-91C60.46,108.08,77.17,95,77.17,95V197.25Z"/><path class="cls-14" d="M77.17,194.58c48.2-22.67,42.26-86.27,42.26-86.27C93,110.07,77.17,97.69,77.17,97.69v96.89Z"/><path class="cls-15" d="M77.17,194.58C29,171.91,34.92,108.31,34.92,108.31c26.41,1.76,42.25-10.62,42.25-10.62v96.89Z"/><path class="cls-7" d="M116.91,164.94c.17-.37,10.39,1.06,26.88,0l-.08,2.53s.08,1.26-28.17.43l1.37-3Z"/><path class="cls-16" d="M119.05,168c.12-.18.91-1.82,1.45-3h-3.59l-1.37,3,3.51.06Z"/></g></g></svg>