<svg xmlns="http://www.w3.org/2000/svg" viewBox="0 0 113.55 90.21"><defs><style>.cls-1{fill:#e35014;}</style></defs><title>radio</title><g id="Layer_2" data-name="Layer 2"><g id="Layer_1-2" data-name="Layer 1"><path class="cls-1" d="M56.81,80.5a5.14,5.14,0,0,1-3,4.66,5,5,0,0,1-2.19.5,5.2,5.2,0,0,1-3.29-1.19L20.17,61.11h-15A5.16,5.16,0,0,1,0,56V35.41a5.16,5.16,0,0,1,5.16-5.16h15L48.36,6.89a5.16,5.16,0,0,1,8.45,4V80.5Zm19.82-8.06h-.37A5.14,5.14,0,0,1,72.61,71l-.69-.7a5.16,5.16,0,0,1-.5-6.72,29.95,29.95,0,0,0-.79-36.74A5.15,5.15,0,0,1,71,19.9l.69-.69a5.09,5.09,0,0,1,3.91-1.51,5.18,5.18,0,0,1,3.73,1.89,41.27,41.27,0,0,1,1.08,50.79,5.18,5.18,0,0,1-3.76,2.06ZM98,88.38a5.17,5.17,0,0,1-3.72,1.82H94a5.19,5.19,0,0,1-3.64-1.51L89.68,88a5.17,5.17,0,0,1-.3-7,54.95,54.95,0,0,0-.91-71.8,5.15,5.15,0,0,1,.21-7l.68-.68A5,5,0,0,1,93.16,0a5.18,5.18,0,0,1,3.71,1.73A66.24,66.24,0,0,1,98,88.38Z"/></g></g></svg>