<svg xmlns="http://www.w3.org/2000/svg" viewBox="0 0 100.84 249.78"><defs><style>.cls-1{fill:#aee0e9;}.cls-2{fill:#132937;}.cls-3{fill:#eaa175;}.cls-4{fill:#80c2c9;}.cls-5{fill:#d3dde6;}.cls-6{fill:#f47737;}.cls-7{fill:#b4c7dd;}.cls-8{fill:#f68f53;}</style></defs><title>sante</title><g id="Layer_2" data-name="Layer 2"><g id="Calque_1" data-name="Calque 1"><path class="cls-1" d="M4.55,126.69S-.36,158.4,0,163.31s25.68,17,28.32,17.75,7.18-53.24,7.18-53.24Z"/><path class="cls-1" d="M96.29,126.69s4.91,31.71,4.53,36.62-25.68,17-28.32,17.75-7.18-53.24-7.18-53.24Z"/><path class="cls-2" d="M21.36,69.48s-.57,17.09-3.31,19.92H79.22s-1.89-17.84-1.7-23.79Z"/><path class="cls-3" d="M49.72,135.67A133,133,0,0,1,.3,126.31c1-3.7,5.13-16.38,8.71-21.25s25-6.15,25-6.15H65.47s21.39,1.28,25,6.15,7.68,17.55,8.71,21.25c0,0-21,9.36-49.43,9.36h0Z"/><path class="cls-1" d="M49.73,98.19a25.16,25.16,0,0,1-13.62-4.36l-1,5.3a25.28,25.28,0,0,0,14.57,5,25.39,25.39,0,0,0,14.57-5l-.95-5.3A25.22,25.22,0,0,1,49.73,98.19Z"/><path class="cls-4" d="M63.35,93.83l-.76-4.29H36.87l-.76,4.29a25.16,25.16,0,0,0,13.62,4.36A25.22,25.22,0,0,0,63.35,93.83Z"/><rect class="cls-4" x="18.13" y="58.89" width="9.4" height="15.2" rx="2.35" ry="2.35" transform="translate(-18.08 9.32) rotate(-16.64)"/><rect class="cls-4" x="71.09" y="58.89" width="9.4" height="15.2" rx="2.35" ry="2.35" transform="translate(129.36 151.9) rotate(-163.36)"/><path class="cls-1" d="M71.16,24.9H28.05s-6.6,22-5.12,35.14c0,0,.7,20.14,6.36,25.44S42.54,95.2,49.61,95.2s14.66-4.42,20.31-9.72S76.28,60,76.28,60C77.76,46.87,71.16,24.9,71.16,24.9Z"/><path class="cls-4" d="M24.72,70.65c1.9-.55.32-11.5,5.66-15.38,3.53-2.57,14.87-7.92,20.22-14.91,9.2,10.7,18.78,8.67,18.9,9.29.25,1.21,2.91,4.36,4.37,6.55s.13,11.91,0,12.4a.89.89,0,1,0,1.76.23s4.65-24.23,1.74-32.64C70.25,15.61,27.79,16.3,22,36.63c-2.61,9.11.05,27.05.86,30.36S23.74,70.94,24.72,70.65Z"/><path class="cls-3" d="M90.45,219.17c2.37,5.56,7.68,17.55,8.71,21.25,0,0-21,9.36-49.43,9.36h0A133,133,0,0,1,.3,240.42c1-3.7,5.13-16.38,8.71-21.25,0,0,7.25-78.06,9.51-87.13s65.71-1.13,65.71-1.13S89.11,216.05,90.45,219.17Z"/><path class="cls-2" d="M23.8,69.53c1.86.61-.25-12.1,5.38-16.2C32.92,50.61,44.9,45,50.55,37.58c9.72,11.31,19.84,9.16,20,9.81.26,1.28,3.08,4.61,4.61,6.92S75,67,75,67s-.38,1.69.35,1.88,6.59-26.79,3.51-35.67c-7.52-21.75-52.39-21-58.54.46-2.76,9.63.09,20.24.94,23.74S22.78,69.18,23.8,69.53Z"/><path class="cls-5" d="M67.61,34.36c-4.84-6.19-10.09-7.93-18.56-7.93s-13.72,1.74-18.56,7.93L18.84,13.65C24.41,5.42,38.36,0,49.05,0,59.18,0,72.71,4.87,78.36,12.39Z"/><rect class="cls-6" x="46.18" y="5.81" width="4.91" height="13.22"/><rect class="cls-6" x="46.18" y="5.81" width="4.91" height="13.22" transform="translate(36.22 61.05) rotate(-90)"/><path class="cls-7" d="M69.89,29.71l-2.28,4.65c-4.84-6.19-10.09-7.93-18.56-7.93s-13.72,1.74-18.56,7.93l-2.61-4.63s4.94-7.82,21-7.82S69.89,29.71,69.89,29.71Z"/><rect class="cls-8" x="47.21" y="106.81" width="5.03" height="142.97"/><path class="cls-6" d="M48.75,249.78V112.35l-11.58,2,2-6-12,.8,8-10.25a24.5,24.5,0,0,0,14.53,5.26,24.5,24.5,0,0,0,14.53-5.26l8,10.25-12-.8,2,6-11.58-2V249.78Z"/><circle class="cls-8" cx="57.14" cy="124.1" r="2.43"/><circle class="cls-6" cx="57.14" cy="124.1" r="2"/><circle class="cls-8" cx="57.14" cy="154.75" r="2.43"/><circle class="cls-6" cx="57.14" cy="154.75" r="2"/><circle class="cls-8" cx="57.14" cy="185.4" r="2.43"/><circle class="cls-6" cx="57.14" cy="185.4" r="2"/><circle class="cls-8" cx="57.14" cy="216.05" r="2.43"/><circle class="cls-6" cx="57.14" cy="216.05" r="2"/><path class="cls-4" d="M84.24,131.22s6.34-1.63,12.15-3.82l.38,2.46a71.35,71.35,0,0,1-12.38,3.94Z"/><path class="cls-4" d="M18.52,132s-8.27-2-14.16-4.13L4,130.37A122.58,122.58,0,0,0,18,134.51S18.36,132.67,18.52,132Z"/><path class="cls-4" d="M18,134.43c-1.05,5.07-4.6,39.37-4.6,39.37l-2.69-1.53,4.62-39Z"/><path class="cls-4" d="M84.37,133.59c.34,5.61,2.48,40.51,2.48,40.51l2.74-1.54-2.49-40Z"/><path class="cls-8" d="M23.78,130.6H40.95a0,0,0,0,1,0,0v15.07a2.67,2.67,0,0,1-2.67,2.67H26.45a2.67,2.67,0,0,1-2.67-2.67V130.6A0,0,0,0,1,23.78,130.6Z"/><rect class="cls-6" x="23.78" y="130.6" width="17.17" height="1.98"/></g></g></svg>