<svg xmlns="http://www.w3.org/2000/svg" viewBox="0 0 240.92 97.21"><defs><style>.cls-1{fill:#22335a;}.cls-2{fill:#ef9c34;}.cls-3{fill:#e35014;}.cls-4{fill:#f08050;}.cls-5{fill:#de4e2e;}.cls-6{fill:#e7937b;}.cls-7{fill:#d73718;}.cls-8{fill:#db5e25;}</style></defs><title>Asset 47</title><g id="Layer_2" data-name="Layer 2"><g id="Layer_1-2" data-name="Layer 1"><path class="cls-1" d="M12.58,92h0c0-.1-.06-.61-.06-1.44a27.34,27.34,0,0,1,4.12-14c3.62-6,10.38-12.45,23.1-17a63.15,63.15,0,0,1,21.89-3.94c7.5,0,13.81,1.25,20.42,1.26,6.92,0,14.13-1.43,23.08-7.17l-.91-1.41c-8.72,5.57-15.49,6.9-22.17,6.9-6.39,0-12.73-1.25-20.42-1.26a64.81,64.81,0,0,0-22.45,4c-13,4.64-20.15,11.4-24,17.7a29.14,29.14,0,0,0-4.36,14.85,11.47,11.47,0,0,0,.09,1.66L12.58,92Zm6.33,1a14.33,14.33,0,0,0-2-4.06,10.56,10.56,0,0,0-3-2.84A8.86,8.86,0,0,0,9.2,84.8a12.25,12.25,0,0,0-4.07.75l.55,1.58a10.74,10.74,0,0,1,3.52-.65A7.06,7.06,0,0,1,13,87.54a9.77,9.77,0,0,1,3.33,3.69,13.46,13.46,0,0,1,.74,1.6c.08.21.13.37.17.48l0,.12v0h0L18.91,93Zm5.2-2.86a20.25,20.25,0,0,0-3.22-6.37A16.39,16.39,0,0,0,16,79.38a15.42,15.42,0,0,0-7.82-2,22.31,22.31,0,0,0-5.3.69l.41,1.63A20.09,20.09,0,0,1,8.19,79a13.77,13.77,0,0,1,7,1.79,15.74,15.74,0,0,1,5.76,6.09,18.92,18.92,0,0,1,1.21,2.61c.13.34.21.6.27.78s.05.16.06.2v0h0l1.62-.42Zm8-3a50.32,50.32,0,0,0-5.63-9.46,30.58,30.58,0,0,0-6.63-6.56,15.6,15.6,0,0,0-8.94-3,14.28,14.28,0,0,0-4.66.8l.54,1.58A12.71,12.71,0,0,1,11,69.76a14,14,0,0,1,8,2.75,33.35,33.35,0,0,1,8.56,9.55c1,1.61,1.79,3,2.32,4.09.26.53.46.94.59,1.23l.15.33.05.11,1.54-.66Zm4.64-6.84a50.59,50.59,0,0,0-5-10,29.08,29.08,0,0,0-6.17-6.92,14.18,14.18,0,0,0-8.71-3.23l-.57,0,.08,1.67h.49a12.44,12.44,0,0,1,7.69,2.88c3.4,2.62,6.08,6.66,7.88,10,.91,1.69,1.59,3.21,2.05,4.31.23.54.4,1,.51,1.29a3.45,3.45,0,0,1,.13.35l0,.11,1.59-.55Zm4.66-4.94a36.1,36.1,0,0,0-2.67-11,21.33,21.33,0,0,0-5.41-7.78,15.66,15.66,0,0,0-10-3.86l-.06,1.67a14,14,0,0,1,9,3.45c3.38,2.94,5.29,7.33,6.32,11a37.39,37.39,0,0,1,1,4.68c.08.59.14,1.07.17,1.4,0,.16,0,.29,0,.37v.12l1.67-.09Zm4.61-5.64s0-.54,0-1.42a33.05,33.05,0,0,0-1.57-10.2,18.55,18.55,0,0,0-3.11-5.8,13.13,13.13,0,0,0-5.72-4.11l-.57,1.57a11.54,11.54,0,0,1,5,3.6,19.23,19.23,0,0,1,3.59,8.1,33.49,33.49,0,0,1,.71,6.84c0,.42,0,.75,0,1s0,.2,0,.25v.08l1.67.12ZM53.54,67a28.88,28.88,0,0,0,.71-6.41,20.46,20.46,0,0,0-1.19-7.22A12,12,0,0,0,48,47.13l-.86,1.44A10.36,10.36,0,0,1,51.5,54a18.91,18.91,0,0,1,1.08,6.63,29.47,29.47,0,0,1-.33,4.28c-.09.55-.17,1-.23,1.28s-.06.26-.07.34l0,.1,1.62.41Zm8.63.11a33.25,33.25,0,0,0,2.08-10.61A14.29,14.29,0,0,0,63,50.39a8.88,8.88,0,0,0-4.79-4.46l-.63,1.54a7.25,7.25,0,0,1,3.91,3.65,12.48,12.48,0,0,1,1,5.39,28.27,28.27,0,0,1-1,6.88c-.25.94-.49,1.72-.68,2.27-.09.27-.17.49-.22.63l-.06.16,0,0,1.56.62Zm8.6-1.05a27.42,27.42,0,0,0,1.72-3.77A24.19,24.19,0,0,0,74.22,54a12.49,12.49,0,0,0-.79-4.54,9.64,9.64,0,0,0-2.84-4l-1.08,1.28a8,8,0,0,1,2.36,3.3A10.72,10.72,0,0,1,72.54,54a22.43,22.43,0,0,1-1.61,7.7c-.4,1.07-.81,2-1.11,2.58-.16.32-.28.56-.37.72l-.1.19,0,.06,1.45.82Zm8.54-1.56a21,21,0,0,0,2.37-3.18,14.61,14.61,0,0,0,2.4-7.4,8.89,8.89,0,0,0-1-4.09A10.92,10.92,0,0,0,79.78,46l-1,1.34a9.25,9.25,0,0,1,2.84,3.23,7.16,7.16,0,0,1,.78,3.33,13,13,0,0,1-2.14,6.52,20.3,20.3,0,0,1-1.5,2.13c-.2.26-.37.46-.49.59l-.13.15,0,0h0l1.21,1.15Zm12.2.49a30.28,30.28,0,0,0,2.08-3.62,18.74,18.74,0,0,0,2.11-7.83,8.65,8.65,0,0,0-1.25-4.64A9.36,9.36,0,0,0,90,45.35l-.65,1.55A7.64,7.64,0,0,1,93,49.8a6.85,6.85,0,0,1,1,3.75,17.17,17.17,0,0,1-1.93,7.1,26.4,26.4,0,0,1-1.35,2.45c-.18.3-.33.53-.44.69l-.12.18,0,.06,1.37,1Z"/><path class="cls-1" d="M10.84,90.41A2.75,2.75,0,1,1,8.1,93.16a2.75,2.75,0,0,1,2.74-2.75Z"/><path class="cls-1" d="M18.36,91.72a2.75,2.75,0,1,1-2.75,2.74,2.75,2.75,0,0,1,2.75-2.74Z"/><path class="cls-1" d="M23.71,89A2.75,2.75,0,1,1,21,91.72,2.75,2.75,0,0,1,23.71,89Z"/><path class="cls-1" d="M4.63,84.05A2.75,2.75,0,1,1,1.88,86.8a2.75,2.75,0,0,1,2.75-2.75Z"/><path class="cls-1" d="M2.75,76.25A2.75,2.75,0,1,1,0,79a2.74,2.74,0,0,1,2.75-2.74Z"/><path class="cls-1" d="M6.51,66.85A2.75,2.75,0,1,1,3.76,69.6a2.75,2.75,0,0,1,2.75-2.75Z"/><path class="cls-1" d="M16.05,58.46a2.75,2.75,0,1,1-2.75,2.75,2.75,2.75,0,0,1,2.75-2.75Z"/><path class="cls-1" d="M23.42,50.8a2.75,2.75,0,1,1-2.75,2.75,2.75,2.75,0,0,1,2.75-2.75Z"/><path class="cls-1" d="M35.28,45.6a2.75,2.75,0,1,1-2.75,2.74,2.74,2.74,0,0,1,2.75-2.74Z"/><path class="cls-1" d="M47.13,44.88a2.75,2.75,0,1,1-2.75,2.74,2.74,2.74,0,0,1,2.75-2.74Z"/><path class="cls-1" d="M57.39,43.72a2.75,2.75,0,1,1-2.74,2.75,2.75,2.75,0,0,1,2.74-2.75Z"/><path class="cls-1" d="M69.68,42.27A2.75,2.75,0,1,1,66.94,45a2.75,2.75,0,0,1,2.74-2.75Z"/><path class="cls-1" d="M79.51,43.57a2.75,2.75,0,1,1-2.74,2.75,2.75,2.75,0,0,1,2.74-2.75Z"/><path class="cls-1" d="M89.78,43.43A2.75,2.75,0,1,1,87,46.18a2.74,2.74,0,0,1,2.75-2.75Z"/><path class="cls-1" d="M31.52,85.5a2.75,2.75,0,1,1-2.75,2.75,2.75,2.75,0,0,1,2.75-2.75Z"/><path class="cls-1" d="M36,77.4a2.75,2.75,0,1,1-2.75,2.75A2.74,2.74,0,0,1,36,77.4Z"/><path class="cls-1" d="M40.48,72.49a2.75,2.75,0,1,1-2.75,2.74,2.75,2.75,0,0,1,2.75-2.74Z"/><path class="cls-1" d="M45.54,66.85a2.75,2.75,0,1,1-2.75,2.75,2.75,2.75,0,0,1,2.75-2.75Z"/><path class="cls-1" d="M52.62,64.25A2.75,2.75,0,1,1,49.88,67a2.75,2.75,0,0,1,2.74-2.74Z"/><path class="cls-1" d="M61.15,64a2.75,2.75,0,1,1-2.74,2.75A2.75,2.75,0,0,1,61.15,64Z"/><path class="cls-1" d="M70.12,62.8a2.75,2.75,0,1,1-2.75,2.75,2.75,2.75,0,0,1,2.75-2.75Z"/><path class="cls-1" d="M78.36,61.79a2.75,2.75,0,1,1-2.75,2.75,2.75,2.75,0,0,1,2.75-2.75Z"/><path class="cls-1" d="M91.22,61.79a2.75,2.75,0,1,1-2.74,2.75,2.75,2.75,0,0,1,2.74-2.75Z"/><path class="cls-1" d="M228.33,5.23h0c0,.1.06.61.06,1.44a27.34,27.34,0,0,1-4.12,14c-3.63,6-10.38,12.45-23.1,17a63.16,63.16,0,0,1-21.9,3.94c-7.49,0-13.8-1.25-20.41-1.26-6.92,0-14.14,1.43-23.08,7.17l.9,1.41c8.73-5.58,15.49-6.9,22.18-6.9,6.39,0,12.73,1.25,20.41,1.26a64.9,64.9,0,0,0,22.46-4.05c13-4.64,20.15-11.4,24-17.7a29,29,0,0,0,4.36-14.85A12.64,12.64,0,0,0,230,5l-1.66.21ZM222,4.2a14.33,14.33,0,0,0,2,4.06,10.56,10.56,0,0,0,3,2.84,8.83,8.83,0,0,0,4.69,1.31,12.29,12.29,0,0,0,4.07-.75l-.56-1.58a10.64,10.64,0,0,1-3.51.65,7,7,0,0,1-3.81-1.06A9.77,9.77,0,0,1,224.58,6a12,12,0,0,1-.74-1.6c-.08-.21-.14-.37-.17-.48l0-.12v0h0L222,4.2Zm-5.2,2.86A20.25,20.25,0,0,0,220,13.43a16.39,16.39,0,0,0,4.88,4.4,15.38,15.38,0,0,0,7.81,2,22.24,22.24,0,0,0,5.3-.69l-.4-1.63a20.17,20.17,0,0,1-4.9.65,13.73,13.73,0,0,1-7-1.79A15.84,15.84,0,0,1,220,10.29a19.63,19.63,0,0,1-1.21-2.62c-.12-.33-.21-.59-.26-.77a1.89,1.89,0,0,1-.06-.21l0,0h0l-1.62.42Zm-8,3a50.32,50.32,0,0,0,5.63,9.46A30.36,30.36,0,0,0,221,26.07,15.58,15.58,0,0,0,230,29.12a14.28,14.28,0,0,0,4.66-.8l-.55-1.58a12.61,12.61,0,0,1-4.11.71,14,14,0,0,1-8-2.75,33.35,33.35,0,0,1-8.56-9.55c-1-1.61-1.79-3.05-2.32-4.09-.26-.53-.46-1-.59-1.23l-.15-.33-.05-.11-1.54.66Zm-4.64,6.84a49.94,49.94,0,0,0,5,10,28.83,28.83,0,0,0,6.16,6.92A14.13,14.13,0,0,0,224,37h.57l-.07-1.67H224a12.44,12.44,0,0,1-7.68-2.88c-3.4-2.62-6.09-6.66-7.89-10-.9-1.69-1.58-3.21-2-4.31-.23-.54-.4-1-.52-1.29s-.1-.27-.12-.35l0-.11-1.58.55Zm-4.66,4.94a36.1,36.1,0,0,0,2.67,11,21.21,21.21,0,0,0,5.41,7.78,15.66,15.66,0,0,0,10,3.86l.06-1.67a14,14,0,0,1-9-3.45c-3.38-2.94-5.29-7.33-6.32-11a36,36,0,0,1-1-4.68c-.09-.59-.14-1.07-.17-1.4,0-.16,0-.29,0-.37v-.12l-1.67.09Zm-4.62,5.64s0,.54,0,1.42a32.75,32.75,0,0,0,1.57,10.2,18.52,18.52,0,0,0,3.1,5.8A13.24,13.24,0,0,0,205.21,49l.58-1.57a11.54,11.54,0,0,1-5-3.6,19.23,19.23,0,0,1-3.59-8.1,33.49,33.49,0,0,1-.71-6.84c0-.42,0-.75,0-1s0-.2,0-.25v-.08l-1.67-.12Zm-7.47,2.73a28.15,28.15,0,0,0-.71,6.4,20.48,20.48,0,0,0,1.19,7.23A12,12,0,0,0,193,50.08l.86-1.44a10.36,10.36,0,0,1-4.39-5.4,18.93,18.93,0,0,1-1.08-6.64,29.72,29.72,0,0,1,.33-4.28c.08-.54.17-1,.23-1.27s0-.26.07-.34l0-.11-1.62-.4Zm-8.63-.11a33.17,33.17,0,0,0-2.08,10.61,14.14,14.14,0,0,0,1.22,6.12,8.88,8.88,0,0,0,4.79,4.46l.63-1.55a7.2,7.2,0,0,1-3.91-3.64,12.33,12.33,0,0,1-1.05-5.39,27.33,27.33,0,0,1,1-6.88c.25-.94.49-1.73.68-2.27.09-.27.16-.49.22-.63l.06-.16,0-.05-1.56-.62Zm-8.61,1.05a30.64,30.64,0,0,0-1.72,3.77,24.2,24.2,0,0,0-1.72,8.3,12.4,12.4,0,0,0,.79,4.53,9.6,9.6,0,0,0,2.84,4l1.08-1.28a8,8,0,0,1-2.36-3.3,10.73,10.73,0,0,1-.68-3.93,22.43,22.43,0,0,1,1.62-7.7c.4-1.07.81-2,1.11-2.59.16-.31.28-.55.37-.71l.1-.19,0-.06-1.46-.82Zm-8.53,1.56a20.59,20.59,0,0,0-2.38,3.18,14.7,14.7,0,0,0-2.39,7.4,9,9,0,0,0,1,4.09,11.07,11.07,0,0,0,3.34,3.81l1-1.34a9.25,9.25,0,0,1-2.84-3.23,7.19,7.19,0,0,1-.78-3.33,13,13,0,0,1,2.14-6.52,18.91,18.91,0,0,1,1.5-2.13c.2-.26.37-.46.49-.59l.13-.15,0,0h0l-1.21-1.15Zm-12.2-.49a28,28,0,0,0-2.09,3.62,18.89,18.89,0,0,0-2.1,7.83,8.56,8.56,0,0,0,1.25,4.64,9.24,9.24,0,0,0,4.46,3.55l.64-1.54a7.56,7.56,0,0,1-3.68-2.9,6.88,6.88,0,0,1-1-3.75,17.34,17.34,0,0,1,1.94-7.1,26.4,26.4,0,0,1,1.35-2.45c.18-.3.33-.53.44-.69l.12-.18,0-.06-1.37-1Z"/><path class="cls-1" d="M230.08,6.79a2.75,2.75,0,1,1,2.74-2.74,2.75,2.75,0,0,1-2.74,2.74Z"/><path class="cls-1" d="M222.56,5.49a2.75,2.75,0,1,1,2.75-2.74,2.75,2.75,0,0,1-2.75,2.74Z"/><path class="cls-1" d="M217.21,8.24A2.75,2.75,0,1,1,220,5.49a2.75,2.75,0,0,1-2.75,2.75Z"/><path class="cls-1" d="M236.29,13.16A2.75,2.75,0,1,1,239,10.41a2.75,2.75,0,0,1-2.75,2.75Z"/><path class="cls-1" d="M238.17,21a2.75,2.75,0,1,1,2.75-2.74A2.75,2.75,0,0,1,238.17,21Z"/><path class="cls-1" d="M234.41,30.36a2.75,2.75,0,1,1,2.75-2.75,2.75,2.75,0,0,1-2.75,2.75Z"/><path class="cls-1" d="M224.87,38.74A2.75,2.75,0,1,1,227.62,36a2.75,2.75,0,0,1-2.75,2.74Z"/><path class="cls-1" d="M217.5,46.41a2.75,2.75,0,1,1,2.74-2.75,2.75,2.75,0,0,1-2.74,2.75Z"/><path class="cls-1" d="M205.64,51.61a2.75,2.75,0,1,1,2.75-2.75,2.75,2.75,0,0,1-2.75,2.75Z"/><path class="cls-1" d="M193.79,52.33a2.75,2.75,0,1,1,2.74-2.74,2.75,2.75,0,0,1-2.74,2.74Z"/><path class="cls-1" d="M183.52,53.49a2.75,2.75,0,1,1,2.75-2.75,2.75,2.75,0,0,1-2.75,2.75Z"/><path class="cls-1" d="M171.24,54.94A2.75,2.75,0,1,1,174,52.19a2.75,2.75,0,0,1-2.74,2.75Z"/><path class="cls-1" d="M161.4,53.64a2.75,2.75,0,1,1,2.75-2.75,2.75,2.75,0,0,1-2.75,2.75Z"/><path class="cls-1" d="M151.14,53.78A2.75,2.75,0,1,1,153.89,51a2.75,2.75,0,0,1-2.75,2.75Z"/><path class="cls-1" d="M209.4,11.71A2.75,2.75,0,1,1,212.15,9a2.75,2.75,0,0,1-2.75,2.75Z"/><path class="cls-1" d="M204.92,19.81a2.75,2.75,0,1,1,2.75-2.75,2.75,2.75,0,0,1-2.75,2.75Z"/><path class="cls-1" d="M200.44,24.72A2.75,2.75,0,1,1,203.19,22a2.75,2.75,0,0,1-2.75,2.75Z"/><path class="cls-1" d="M195.38,30.36a2.75,2.75,0,1,1,2.75-2.75,2.75,2.75,0,0,1-2.75,2.75Z"/><path class="cls-1" d="M188.29,33A2.75,2.75,0,1,1,191,30.21,2.75,2.75,0,0,1,188.29,33Z"/><path class="cls-1" d="M179.77,33.25a2.75,2.75,0,1,1,2.74-2.75,2.75,2.75,0,0,1-2.74,2.75Z"/><path class="cls-1" d="M170.8,34.41a2.75,2.75,0,1,1,2.75-2.75,2.75,2.75,0,0,1-2.75,2.75Z"/><path class="cls-1" d="M162.56,35.42a2.75,2.75,0,1,1,2.75-2.75,2.74,2.74,0,0,1-2.75,2.75Z"/><path class="cls-1" d="M149.7,35.42a2.75,2.75,0,1,1,2.74-2.75,2.75,2.75,0,0,1-2.74,2.75Z"/><path class="cls-2" d="M116.87,24.84C119.31,26,121,36,122.59,39.26a60.74,60.74,0,0,1,3.26,7.93c.67,1.89,1.59,2.23,2.25,2.3s1.07-.14.57.81c-1.11,2.12,7.53,9,6.07,13.51s-14.3-7.4-17.82-5-9,10.17-11.72,8.68c-1.83-1,1.26-12.14.7-15.34s-13-13.82-9.58-16.87c4.37-3.9,12.74,7.49,15.3,1.93,2.8-6.08,2.85-13.57,5.25-12.41"/><path class="cls-3" d="M134.5,63.3h0c.29-.37,2.1-3.66,2.1-3.66l-.88-1.17-3.75-2,0,.2c-2-2.76-4.4-5.33-4-6.32.53-1.19,5.56-3.84,7.28-6.62l0,0c.46-.66,2.37-4.11,2.37-4.11l-3.41.49,0,.19c-3.36-.48-11.26,2.15-12.69-.35s-3.44-9.46-5.39-12.3h0l1.45-4L116.1,23s-2.08,3.56-2.22,3.84h0c-.88,1.54-.86,6.32-2.33,10.23-1.06,2.83-4.54.05-7.92-2l.53-.66-4.44-4.07s-1.88,3.18-2.27,3.91v0c-1.48,2.94,9.63,12.8,10.39,15.59s-2.23,13.85-.5,14.92c2.58,1.59,6.85-5.92,9.76-7.77s15.67,9,17.4,6.27"/><path class="cls-4" d="M117.26,22.72c2.29,1.28,4.72,10.37,6.45,13.4.87,1.51,4.08,1.15,7.24.73s6.3-.9,6.88.41c1.59,3.58-7,7.71-7.67,9.28-.79,1.79,7.56,8.74,6.67,12.63s-14.64-7.77-17.55-5.91-7.18,9.36-9.76,7.77c-1.73-1.07,1.29-12,.5-14.92S97.13,32.56,99.9,30.17c3.54-3.08,12.06,7.87,13.83,3.14,1.94-5.16,1.28-11.84,3.53-10.59"/><path class="cls-5" d="M117.46,23.69,116,25.11c.79.15,1.16-.32,1.49-.81.08-.12,0-.4-.07-.61"/><polyline class="cls-6" points="137.17 36.66 137.17 36.66 137.17 36.66 137.17 36.66"/><path class="cls-5" d="M137.17,36.66h0c-.4.48-.4.48.1,1.2.39-.09.23-.51.31-.79l-.41-.41"/><path class="cls-5" d="M103.55,31l-.63.62.12.14a.46.46,0,0,0,.65.11c.21-.15.23-.37,0-.66l-.19-.21"/><path class="cls-5" d="M101.85,31.51l-.78.79c.11,0,.25.14.33.11.41-.11.57-.41.45-.9"/><path class="cls-6" d="M89.8,40.26l-.31.31.34.15,0-.46"/><polygon class="cls-6" points="134.49 33.97 134.29 33.77 134.49 33.97 134.49 33.97"/><path class="cls-5" d="M112.17,35.59a.47.47,0,0,0-.31-.12c-.14.32-.23.77-.72.84-.29,0-.56.18-.43.53l.15.21a1.69,1.69,0,0,0,.45.32,4.71,4.71,0,0,0,.94.31c0-.72,0-1.28,0-1.85l-.1-.24"/><path class="cls-7" d="M128.63,59.36a1.32,1.32,0,0,0-.53-.33l-.22.09a1.28,1.28,0,0,0-.21.38.8.8,0,0,0,.1.89l0,.06a.91.91,0,0,0,1,.12.46.46,0,0,0,.2-.7,1.71,1.71,0,0,0-.35-.51"/><path class="cls-5" d="M110.2,56l-.22-.19c-.18-.14-.41-.24-.54,0,.12.54.23,1.08.36,1.69a5.19,5.19,0,0,0,.72.2c.23,0,.39-.11.34-.35A2.44,2.44,0,0,0,110.2,56"/><path class="cls-5" d="M134.88,38.64l-.2-.18-1.05.71.75,1.17a11,11,0,0,0,.69-.92c.14-.24.09-.5-.19-.78"/><path class="cls-7" d="M109.19,49.28a2,2,0,0,0-.38-.17c-.08.18-.18.28-.16.39a8.22,8.22,0,0,0,.3,1.26l.15.24a.61.61,0,0,0,.37.17.36.36,0,0,0,.35-.48,14.11,14.11,0,0,0-.61-1.38l0,0"/><path class="cls-7" d="M102.45,36.5a.93.93,0,0,0,.17.39h.14c-.1-.13-.21-.26-.31-.4"/><path class="cls-5" d="M103.34,36a.56.56,0,0,0-.29-.16.53.53,0,0,0-.47.2.55.55,0,0,0-.13.49c.1.14.21.27.31.4a1.76,1.76,0,0,0,.61,0c.13,0,.19-.3.18-.48a.73.73,0,0,0-.21-.43"/><path class="cls-5" d="M115.34,48.83a1.4,1.4,0,0,0-.26-.21c-.41.15-.44.51-.46.87a.54.54,0,0,0,.19.38.81.81,0,0,0,.46.25.41.41,0,0,0,.48-.5,1.59,1.59,0,0,0-.41-.79"/><path class="cls-7" d="M110.13,62.16l-.07,0c-.15-.09-.34-.22-.46-.2s-.19.21-.18.35a4.9,4.9,0,0,0,.19.86,3.48,3.48,0,0,0,.56,0c.39-.14.41-.38.09-.76l-.13-.15"/><path class="cls-5" d="M116.83,36.89c-.69.41-.7.43-.43,1.15.86-.41.88-.49.43-1.15"/><path class="cls-5" d="M120.81,40.68a1.33,1.33,0,0,0-.53-.29.85.85,0,0,0-.07,1l.09.11a1.08,1.08,0,0,0,.43.26c.23.06.36-.12.35-.33a1,1,0,0,0-.27-.72"/><path class="cls-5" d="M118.1,43.22l-.09-.06a1.57,1.57,0,0,0-.58-.1,3.66,3.66,0,0,0-.14.51.49.49,0,0,0,.16.42l.16.13c.27.16.53.14.63-.09a.79.79,0,0,0,.07-.46.93.93,0,0,0-.21-.35"/><path class="cls-7" d="M107,43.41c-.35.15-.61.18-.63.3a2.35,2.35,0,0,0,.26,1.46c.46-.41.4-1,.37-1.76"/><path class="cls-7" d="M99.54,33.21l-.1-.08a.41.41,0,0,0-.42.08.71.71,0,0,0,.19.9,3,3,0,0,0,.31.25,4.8,4.8,0,0,0,.21-.83.58.58,0,0,0-.19-.32"/><path class="cls-5" d="M123.48,48.7a.67.67,0,0,0-.32-.14l-.15.13a1.36,1.36,0,0,0,.21,1.19c.53-.34.62-.68.29-1.15l0,0"/><path class="cls-5" d="M136.1,56.21c-.54.55-.54.55,0,1.51a1.38,1.38,0,0,0,0-1.51m0,0h0"/><path class="cls-7" d="M119.59,55.1a.49.49,0,0,0-.54-.08c0,.23,0,.5,0,.92.77-.22.87-.31.72-.64l-.13-.2"/><path class="cls-5" d="M105.7,34.27l-.32-.1a.26.26,0,0,0-.1.29,1.21,1.21,0,0,0,.27.47,1,1,0,0,0,.8.27c-.21-.31-.4-.62-.63-.91l0,0"/><path class="cls-7" d="M134.65,42.82c-.18.15-.35.29-.53.42.16.09.25.08.35,0a.55.55,0,0,0,.18-.39"/><path class="cls-5" d="M134.44,42.34h0c-.2-.2-.46-.15-.7.15a.91.91,0,0,0-.1.29l.09.14a2.51,2.51,0,0,0,.39.32c.18-.13.35-.27.53-.42a.7.7,0,0,0-.21-.48"/><path class="cls-5" d="M133.88,56.77l-.06-.05a1.92,1.92,0,0,0-.55-.19,2.44,2.44,0,0,0,.1.77l.08.1a.46.46,0,0,0,.49.08c.2-.09.17-.48-.06-.71"/><path class="cls-5" d="M113.14,56.89s-.15,0-.25,0a1.26,1.26,0,0,0-.1,1l.08.13.09.07h.22c.37-.27.35-.68,0-1.15h0"/><path class="cls-5" d="M127.26,50.17c-.18.6-.24.79,0,1a2.87,2.87,0,0,0,.43.31,3.23,3.23,0,0,0,0-.82.53.53,0,0,0-.18-.26l0,0-.06-.06-.11-.11"/><path class="cls-5" d="M121.59,32.69c-.17,0-.34-.08-.38,0a1.12,1.12,0,0,0-.22.48l.24.26a.75.75,0,0,0,.45-.23c0-.08-.05-.29-.09-.49"/><path class="cls-5" d="M127.51,40.13l0,0c-.07.42-.12.68-.16.95a.35.35,0,0,0,.09.3l.19.09c.11,0,.26,0,.29-.12.14-.32.14-.67-.39-1.19"/><path class="cls-5" d="M130.53,44.18l-.1-.07c-.33-.1-.43.12-.47.36a1.68,1.68,0,0,0,.07.4,1,1,0,0,0,.38.1c.27,0,.35-.27.27-.55l-.15-.24"/><path class="cls-5" d="M128.84,49.39l-.07-.06a1.31,1.31,0,0,0-.48,0c-.15.06-.07.36.12.55h0c.2.19.43.22.55.08s.09-.37-.12-.58"/><path class="cls-7" d="M133,59.81a2.1,2.1,0,0,0-.53-.31c.07.34.13.65.25,1.19.36-.48.47-.69.28-.88"/><path class="cls-5" d="M125.3,40.14c-.25,0-.42,0-.53.07s-.12.45.09.66h0c.18.17.49.21.52,0a2.91,2.91,0,0,0-.08-.76"/><path class="cls-5" d="M128.06,42.64c-.22,0-.4-.12-.52-.08s-.24.4-.1.61l0,0c.16.16.51.21.59,0a1.74,1.74,0,0,0,0-.6"/><path class="cls-6" d="M119.5,63.26a.87.87,0,0,0,0,1.05c.51-.26.51-.31,0-1.05"/><path class="cls-5" d="M117.64,39.92a1.21,1.21,0,0,0-.39.17s0,.18,0,.28a1.62,1.62,0,0,0,.44,0,2,2,0,0,0-.08-.45"/><path class="cls-5" d="M126.58,47.59l-.11-.08a3.43,3.43,0,0,0-.56.06l0,.2a.35.35,0,0,0,.54,0l.08-.2Z"/><path class="cls-5" d="M135.49,55.49a1.42,1.42,0,0,0-.6-.35,3.3,3.3,0,0,0,.26.43l0,0c.29.22.61.41.92.61h0l-.12-.1a2.45,2.45,0,0,1-.23-.29,3.14,3.14,0,0,0-.25-.32"/><path class="cls-5" d="M117.1,29.62l-.19,0a2.75,2.75,0,0,0,0,.5l.18.08a2.77,2.77,0,0,0,.18-.43l-.15-.19Z"/><path class="cls-7" d="M126.89,57.81c-.16-.07-.26-.14-.31-.13a.37.37,0,0,0-.11.57h0l.31,0a1.7,1.7,0,0,0,.1-.47"/><path class="cls-5" d="M130.92,56.25l-.09-.08a3.28,3.28,0,0,0-.2.31l0,.12.11,0a2,2,0,0,0,.15-.33"/><path class="cls-7" d="M130.62,59.06c-.11,0-.16,0-.18.06a1,1,0,0,0-.1.29v0l.17.13.12-.3s0-.08,0-.2"/><polyline class="cls-5" points="111.54 58.98 111.39 58.87 111.32 59.13 111.52 59.21 111.56 59.02 111.54 58.98"/><path class="cls-5" d="M113.63,43.71c-.12-.05-.22-.11-.25-.09l-.07.19,0,0,.17.11.13-.25"/><path class="cls-5" d="M131.76,55.82h-.25c0,.1,0,.21,0,.31h.21a1.33,1.33,0,0,0,.06-.3"/><path class="cls-5" d="M115.31,32.4l-.31-.12c0,.13,0,.27,0,.41l.21.07a1.69,1.69,0,0,0,.13-.36"/><path class="cls-6" d="M98.92,49l-.22-.17-.09.18.15.2.16-.21"/><path class="cls-5" d="M109.35,38.79l-.19,0a1.88,1.88,0,0,0,0,.33h.27a1.44,1.44,0,0,0-.13-.31"/><polygon class="cls-5" points="122.56 43.93 122.47 43.87 122.45 43.96 122.54 44.01 122.56 43.93 122.56 43.93"/><polygon class="cls-5" points="121.13 35.36 121.05 35.29 120.93 35.39 121.1 35.54 121.13 35.36 121.13 35.36"/><polygon class="cls-5" points="116.8 46.96 116.7 46.94 116.68 47.13 116.78 47.15 116.8 46.96 116.8 46.96"/><polygon class="cls-8" points="124.79 60.3 124.59 60.18 124.56 60.27 124.69 60.45 124.79 60.3 124.79 60.3"/><polygon class="cls-7" points="122.71 55.84 122.52 55.88 122.55 55.99 122.75 56.05 122.71 55.84 122.71 55.84"/><path class="cls-7" d="M104.29,41.52l-.25,0c0,.11,0,.21.07.32h.19a1,1,0,0,0,0-.29"/><polyline class="cls-6" points="95.8 36.13 95.72 36.14 95.69 36.25 95.77 36.28 95.8 36.13"/><polygon class="cls-8" points="95.9 36.12 95.8 36.13 95.77 36.28 95.9 36.33 95.9 36.12 95.9 36.12"/><polygon class="cls-5" points="100.97 30.41 100.86 30.37 100.88 30.47 100.99 30.52 100.97 30.41 100.97 30.41"/><polygon class="cls-6" points="112.97 62.97 112.89 62.93 112.92 63.01 112.97 62.97 112.97 62.97"/><polygon class="cls-5" points="125.95 50.56 125.83 50.64 125.92 50.64 125.95 50.56 125.95 50.56"/><polygon class="cls-8" points="121.59 58.99 121.48 58.97 121.51 59.12 121.59 59.09 121.59 58.99 121.59 58.99"/><polygon class="cls-8" points="123.66 60.22 123.63 60.3 123.72 60.29 123.66 60.22 123.66 60.22"/><polygon class="cls-5" points="125.47 37.62 125.36 37.57 125.5 37.73 125.47 37.62 125.47 37.62"/><polygon class="cls-5" points="119.32 47.85 119.23 47.81 119.34 47.94 119.32 47.85 119.32 47.85"/><polygon class="cls-6" points="123.7 64.71 123.63 64.75 123.74 64.78 123.7 64.71 123.7 64.71"/><polygon class="cls-6" points="122.54 69.64 122.43 69.62 122.43 69.73 122.6 69.74 122.54 69.64 122.54 69.64"/></g></g></svg>