<svg xmlns="http://www.w3.org/2000/svg" viewBox="0 0 1172.42 111.99"><defs><style>.cls-1{fill:#ef9c34;}.cls-2{fill:#e35014;}.cls-3{fill:#f08050;}.cls-4{fill:#de4e2e;}.cls-5{fill:#e7937b;}.cls-6{fill:#d73718;}.cls-7{fill:#db5e25;}</style></defs><title>separator</title><g id="Layer_2" data-name="Layer 2"><g id="Layer_1-2" data-name="Layer 1"><path class="cls-1" d="M986,21.12c3.23-1.13,13.7,6.33,18,7.78a75.75,75.75,0,0,1,10,4.19c2.3,1.08,3.43.56,4.08,0s.83-1.08,1.24.21c.9,2.89,14.8,1.34,17.52,6.67s-19.43,6.17-20.39,11.51,1.07,17.14-2.71,18.25c-2.54.75-9.75-12-13.11-14.35s-24-.74-23.68-6.52c.43-7.41,18.11-4.7,15.43-12-2.94-7.95-9.6-14.7-6.41-15.81"/><path class="cls-2" d="M1036.18,39.76h0c-.07-.59-1.39-5.15-1.39-5.15l-1.84-.27-5.18,1.54.15.21c-4.3-.64-8.71-.83-9.2-2.11-.59-1.53,1.53-8.41.59-12.44v0c-.17-1-1.55-5.8-1.55-5.8l-2.62,3.48.15.2c-3.44,2.59-8.15,12-11.67,11.05S992.07,25,987.78,24.24h0l-2.31-4.9-1.84.83s1.31,5.06,1.44,5.43h0c.59,2.17,4.88,6.43,7.07,11.25,1.58,3.48-4,4.1-8.87,5.31l-.11-1.07-7.63.33S976.73,46,977,46.94l0,0c1.31,4,20.08,2.84,23.25,4.65,3.32,1.9,10.41,14.39,12.91,13.8,3.73-.89.83-11.43,1.78-15.69.91-4.11,22-6,21.19-10"/><path class="cls-3" d="M984.43,18.87c3.19-.9,13.5,5.06,17.77,6.22,2.12.58,4.68-2.62,7.13-5.82s4.83-6.45,6.53-5.8c4.62,1.78.66,13.15,1.44,15.17.89,2.31,14.58,1.07,17.27,5.33s-20,6.16-21,10.43,1.95,14.8-1.78,15.69c-2.5.59-9.59-11.9-12.91-13.8s-23.66-.59-23.33-5.21c.42-5.92,17.85-3.76,15.2-9.57-2.89-6.35-9.46-11.75-6.32-12.64"/><path class="cls-4" d="M985.48,19.57c0,.84,0,1.69,0,2.53a1.72,1.72,0,0,0,.62-2.05c0-.18-.4-.33-.61-.48"/><polyline class="cls-5" points="1014.72 13.53 1014.72 13.53 1014.73 13.53 1014.72 13.53"/><path class="cls-4" d="M1014.73,13.53h0c.07.79.08.79,1.17,1,.26-.43-.26-.66-.43-1h-.73"/><path class="cls-4" d="M979.56,38.54c0,.38,0,.75,0,1.13h.23c.37,0,.63-.14.68-.48s-.12-.54-.54-.63c-.12,0-.24,0-.36,0"/><path class="cls-4" d="M978.51,40.54V42c.14-.07.35-.11.4-.2a.83.83,0,0,0-.4-1.21"/><path class="cls-5" d="M975.55,59.15v.56l.44-.18-.44-.38"/><path class="cls-5" d="M1009.93,13.52h0Z"/><path class="cls-4" d="M991.39,35a.65.65,0,0,0-.39.17c.17.42.49.9.11,1.39-.23.3-.34.67.09.86a.81.81,0,0,0,.33.06,2.42,2.42,0,0,0,.68-.11,6.59,6.59,0,0,0,1.12-.57c-.63-.65-1.11-1.17-1.63-1.67a.46.46,0,0,0-.31-.13"/><path class="cls-6" d="M1027.4,41.49a1.64,1.64,0,0,0-.77.18c-.05.1-.13.19-.11.27a1.45,1.45,0,0,0,.15.54c.22.47.53.71.88.71h.1a1.14,1.14,0,0,0,1-.75c.16-.35,0-.67-.44-.81a2.37,2.37,0,0,0-.77-.14"/><path class="cls-4" d="M1007.91,55l-.37,0c-.28,0-.57.15-.51.45l1.84,1.19a6.59,6.59,0,0,0,.83-.46.36.36,0,0,0,0-.62,3,3,0,0,0-1.78-.59"/><path class="cls-4" d="M1014.45,17.35a2,2,0,0,0-.34,0l-.3,1.57,1.71.39a13,13,0,0,0-.2-1.45c-.09-.34-.37-.53-.87-.53"/><path class="cls-6" d="M1001,49.87a2,2,0,0,0-.49.19c.09.23.08.41.2.49a12.12,12.12,0,0,0,1.4.85.67.67,0,0,0,.34.09.76.76,0,0,0,.49-.18.45.45,0,0,0-.12-.74,18,18,0,0,0-1.77-.69h0"/><path class="cls-6" d="M983.51,44.47a1.51,1.51,0,0,0,.49.2l.14-.13-.63-.07"/><path class="cls-4" d="M983.83,43.19a.75.75,0,0,0-.41.12.74.74,0,0,0,.09,1.16l.63.07a2,2,0,0,0,.53-.56c.07-.16-.1-.44-.27-.59a.88.88,0,0,0-.57-.2"/><path class="cls-4" d="M1006.08,44a2.09,2.09,0,0,0-.42,0c-.23.49.06.85.37,1.19a.68.68,0,0,0,.5.17,1.06,1.06,0,0,0,.64-.2.51.51,0,0,0,0-.87,1.94,1.94,0,0,0-1.07-.34"/><path class="cls-6" d="M1013.35,60.56h-.11c-.21.06-.51.11-.59.24s0,.35.15.47a8.18,8.18,0,0,0,.94.61,3.29,3.29,0,0,0,.45-.56c.23-.47,0-.71-.59-.75l-.25,0"/><path class="cls-4" d="M996.73,31.94c-.26,1-.25,1,.63,1.42.41-1.14.36-1.24-.63-1.42"/><path class="cls-4" d="M1003.68,31.77a1.6,1.6,0,0,0-.73.21,1,1,0,0,0,.8.94l.18,0a1.31,1.31,0,0,0,.61-.16c.27-.15.23-.42,0-.61a1.31,1.31,0,0,0-.89-.4"/><path class="cls-4" d="M1003.53,36.47l-.14,0a2.33,2.33,0,0,0-.61.43,5.7,5.7,0,0,0,.33.59.64.64,0,0,0,.52.23,1.15,1.15,0,0,0,.26,0c.39-.09.6-.34.48-.64a.93.93,0,0,0-.34-.47,1.12,1.12,0,0,0-.5-.13"/><path class="cls-6" d="M993.77,46.57c-.17.44-.39.7-.3.83A3.12,3.12,0,0,0,995,48.47c0-.78-.5-1.21-1.25-1.9"/><path class="cls-6" d="M978,44.12l-.17,0c-.16.07-.34.32-.29.45a.87.87,0,0,0,1,.63,3.37,3.37,0,0,0,.5,0,6.33,6.33,0,0,0-.56-.93.78.78,0,0,0-.45-.12"/><path class="cls-4" d="M1013.25,36.56a.89.89,0,0,0-.41.15l0,.26a1.74,1.74,0,0,0,1.26.87c.17-.77-.06-1.15-.77-1.28h0"/><path class="cls-4" d="M1031.26,32c0,1,0,1,1.37,1.33a1.71,1.71,0,0,0-1.37-1.33m0,0h0"/><path class="cls-6" d="M1015.5,45.77a.61.61,0,0,0-.56.41l.78.87c.49-.89.51-1,.08-1.22a.89.89,0,0,0-.3-.06"/><path class="cls-4" d="M984.42,39.56a.49.49,0,0,0-.37.2.36.36,0,0,0,.16.35,1.47,1.47,0,0,0,.66.17,1.31,1.31,0,0,0,1-.47c-.46-.09-.92-.2-1.38-.25h0"/><path class="cls-6" d="M1018,21.31c0,.28-.07.56-.1.84.22-.06.29-.16.29-.34a.72.72,0,0,0-.19-.5"/><path class="cls-4" d="M1017.36,21.06h0c-.35,0-.54.27-.49.75a1.52,1.52,0,0,0,.18.36l.2,0a2.92,2.92,0,0,0,.64-.07c0-.28.07-.56.1-.84a.84.84,0,0,0-.63-.25"/><path class="cls-4" d="M1029.78,34.48h-.09a2.39,2.39,0,0,0-.67.33,3.4,3.4,0,0,0,.78.59l.16,0a.58.58,0,0,0,.51-.36c.1-.27-.28-.58-.69-.58"/><path class="cls-4" d="M1011.32,53.15c-.06,0-.15.11-.26.19a1.6,1.6,0,0,0,.81,1l.19,0,.14,0a.31.31,0,0,0,.2-.2c.09-.57-.29-.91-1.07-1h0"/><path class="cls-4" d="M1018,34.49c.37.71.49.92.85.92a3.77,3.77,0,0,0,.66-.1,4.69,4.69,0,0,0-.72-.75.74.74,0,0,0-.39-.07h-.4"/><path class="cls-4" d="M997.23,23.92c-.17.14-.38.24-.37.32a1.49,1.49,0,0,0,.25.63l.44,0a1,1,0,0,0,.2-.6c0-.13-.31-.23-.52-.37"/><path class="cls-4" d="M1009.19,25.28h0c.3.43.49.72.7,1a.45.45,0,0,0,.34.18l.26-.09a.39.39,0,0,0,.15-.36c-.17-.41-.47-.72-1.41-.72"/><path class="cls-4" d="M1015.51,26.21l-.15,0c-.39.2-.28.49-.09.74a1.55,1.55,0,0,0,.41.3c.15-.09.36-.14.43-.25.2-.28.08-.55-.25-.73a.75.75,0,0,0-.35-.08"/><path class="cls-4" d="M1018.66,32.38h-.12a2,2,0,0,0-.41.45c-.09.18.25.38.59.38h0c.35,0,.59-.18.56-.42s-.25-.41-.63-.41"/><path class="cls-6" d="M1031.69,38a2.57,2.57,0,0,0-.74.2l1.28.84c-.1-.75-.2-1-.54-1"/><path class="cls-4" d="M1007.22,27.27c-.2.25-.38.38-.41.53s.29.52.66.52h0c.32,0,.63-.25.49-.44a3.73,3.73,0,0,0-.75-.61"/><path class="cls-4" d="M1011.92,27c-.23.16-.46.25-.54.39s.16.57.46.63h.08c.28,0,.64-.28.55-.5s-.32-.32-.55-.53"/><path class="cls-5" d="M1022.72,53.15a1.09,1.09,0,0,0,.95.92c.22-.68.18-.72-.95-.92"/><path class="cls-4" d="M1000.16,33.93c-.09.22-.2.36-.19.5s.18.15.27.22a1.6,1.6,0,0,0,.39-.39s-.23-.16-.47-.33"/><path class="cls-4" d="M1015,32.8l-.17,0a5.89,5.89,0,0,0-.44.55l.23.14c.4,0,.46-.24.49-.47l-.11-.24Z"/><path class="cls-4" d="M1030.08,31.89a1.76,1.76,0,0,0-.85.22,4.35,4.35,0,0,0,.62.16h0c.47-.06.91-.18,1.37-.27h0l-.21,0a2.53,2.53,0,0,1-.46-.06,2.74,2.74,0,0,0-.51-.06"/><path class="cls-4" d="M990.46,25.19l-.14.21a4.6,4.6,0,0,0,.43.46l.24-.08a3.32,3.32,0,0,0-.22-.55l-.31,0Z"/><path class="cls-6" d="M1024.45,41.66c-.2.09-.35.11-.39.17a.47.47,0,0,0,.42.6h0c.11,0,.32-.19.3-.25a2,2,0,0,0-.33-.52"/><path class="cls-4" d="M1026.66,36.65l-.15,0c0,.16.06.31.1.46l.14.07.08-.11a2.65,2.65,0,0,0-.17-.44"/><path class="cls-6" d="M1028.91,39.44c-.07.13-.11.18-.1.21a1.17,1.17,0,0,0,.16.36h0l.27,0c-.06-.13-.11-.25-.17-.37s-.08-.06-.2-.17"/><path class="cls-4" d="M1011.76,56.45l-.23,0,.17.29.25-.11-.13-.21h-.06"/><path class="cls-4" d="M1000,40.91c-.14.06-.29.1-.3.15l.11.23h.05l.26,0-.12-.34"/><path class="cls-4" d="M1027,35.53l-.23.22q.14.14.27.3l.18-.2a1.14,1.14,0,0,0-.22-.32"/><path class="cls-4" d="M991.34,29.28l-.38.17c.11.13.21.27.34.4l.25-.12a2.27,2.27,0,0,0-.21-.45"/><path class="cls-5" d="M991.53,58.8l-.35.06.09.24a.87.87,0,0,0,.3,0c0-.11,0-.22,0-.34"/><path class="cls-4" d="M991.73,40.33l-.18.16a2.85,2.85,0,0,0,.33.25l.24-.24a1.92,1.92,0,0,0-.39-.17"/><polygon class="cls-4" points="1008.15 33.11 1008.02 33.14 1008.08 33.23 1008.21 33.21 1008.15 33.11 1008.15 33.11"/><path class="cls-4" d="M999.2,26.72h-.13l0,.2.29,0-.14-.19Z"/><polygon class="cls-4" points="1005.71 40.98 1005.6 41.05 1005.76 41.24 1005.87 41.17 1005.71 40.98 1005.71 40.98"/><path class="cls-7" d="M1024.8,45.77l-.28.07,0,.11a1.35,1.35,0,0,0,.28,0l0-.22Z"/><polygon class="cls-6" points="1018.95 43.64 1018.82 43.85 1018.93 43.92 1019.17 43.8 1018.95 43.64 1018.95 43.64"/><path class="cls-6" d="M989.65,47.31a2.38,2.38,0,0,0-.25.2l.34.22.17-.17a1,1,0,0,0-.26-.25"/><polyline class="cls-5" points="977.23 50.08 977.16 50.17 977.23 50.29 977.33 50.25 977.23 50.08"/><polygon class="cls-7" points="977.3 49.98 977.23 50.08 977.33 50.25 977.49 50.17 977.3 49.98 977.3 49.98"/><polygon class="cls-4" points="976.73 40.34 976.6 40.4 976.71 40.47 976.84 40.42 976.73 40.34 976.73 40.34"/><polygon class="cls-5" points="1016.62 58.74 1016.51 58.78 1016.61 58.82 1016.62 58.74 1016.62 58.74"/><polygon class="cls-4" points="1017.12 36.01 1017.09 36.19 1017.17 36.11 1017.12 36.01 1017.12 36.01"/><polygon class="cls-7" points="1020.76 47.46 1020.66 47.54 1020.81 47.65 1020.86 47.55 1020.76 47.46 1020.76 47.46"/><polygon class="cls-7" points="1023.72 46.71 1023.77 46.81 1023.84 46.71 1023.72 46.71 1023.72 46.71"/><polygon class="cls-4" points="1005.11 24.86 1004.97 24.91 1005.24 24.93 1005.11 24.86 1005.11 24.86"/><polygon class="cls-4" points="1008.76 39.52 1008.64 39.57 1008.86 39.59 1008.76 39.52 1008.76 39.52"/><polygon class="cls-5" points="1027.78 50.69 1027.75 50.79 1027.88 50.72 1027.78 50.69 1027.78 50.69"/><polygon class="cls-5" points="1031.15 56.14 1031.04 56.23 1031.13 56.32 1031.29 56.18 1031.15 56.14 1031.15 56.14"/><path class="cls-1" d="M1121.31,7.73c3.23-1.13,13.7,6.33,18,7.78a75.75,75.75,0,0,1,10,4.19c2.3,1.09,3.43.57,4.08.05s.83-1.09,1.24.2c.9,2.89,14.8,1.34,17.52,6.67s-19.43,6.18-20.39,11.51,1.07,17.14-2.71,18.25c-2.55.75-9.75-12-13.11-14.35s-24-.74-23.68-6.52c.43-7.41,18.11-4.7,15.43-12-2.94-7.95-9.6-14.7-6.41-15.81"/><path class="cls-2" d="M1171.51,26.37h0c-.07-.59-1.39-5.15-1.39-5.15l-1.84-.27-5.18,1.54.15.21c-4.3-.63-8.71-.83-9.2-2.1-.59-1.54,1.53-8.42.59-12.45v0c-.17-1-1.55-5.8-1.55-5.8l-2.62,3.48.15.2c-3.44,2.59-8.15,12-11.67,11.05s-11.55-5.39-15.84-6.18h0l-2.31-4.9-1.84.83s1.31,5.06,1.44,5.43h0c.59,2.17,4.88,6.43,7.07,11.24,1.58,3.48-4,4.1-8.87,5.31l-.11-1.07-7.63.33s1.17,4.54,1.47,5.53l0,0c1.31,4,20.08,2.84,23.25,4.65S1146,52.63,1148.54,52c3.73-.89.83-11.43,1.78-15.69s22-6,21.19-10"/><path class="cls-3" d="M1119.76,5.49c3.19-.91,13.5,5,17.77,6.21,2.12.58,4.68-2.62,7.13-5.82s4.83-6.45,6.53-5.8c4.62,1.78.66,13.15,1.44,15.18.89,2.31,14.58,1.06,17.27,5.33s-20.05,6.15-21,10.42,1.95,14.8-1.78,15.69c-2.5.6-9.59-11.9-12.91-13.8s-23.66-.59-23.33-5.21c.42-5.92,17.85-3.75,15.2-9.57-2.89-6.35-9.46-11.75-6.32-12.63"/><path class="cls-4" d="M1120.81,6.18c0,.84,0,1.69,0,2.53a1.72,1.72,0,0,0,.62-2.05c0-.18-.4-.32-.61-.48"/><path class="cls-4" d="M1114.89,25.15c0,.38,0,.75,0,1.13l.23,0c.37,0,.63-.14.68-.49s-.12-.54-.54-.63c-.12,0-.24,0-.36,0"/><path class="cls-4" d="M1113.84,27.15v1.41c.14-.07.35-.11.4-.2a.83.83,0,0,0-.4-1.21"/><path class="cls-5" d="M1110.88,45.76v.56l.44-.18-.44-.38"/><path class="cls-4" d="M1126.72,21.56a.61.61,0,0,0-.39.18c.17.41.49.89.11,1.39-.23.29-.34.66.09.85a.81.81,0,0,0,.33.06,2.42,2.42,0,0,0,.68-.11,6.59,6.59,0,0,0,1.12-.57c-.63-.65-1.11-1.17-1.63-1.67a.46.46,0,0,0-.31-.13"/><path class="cls-6" d="M1162.73,28.1a1.77,1.77,0,0,0-.77.18c0,.11-.13.19-.11.28a1.51,1.51,0,0,0,.15.54,1,1,0,0,0,.88.7h.1a1.17,1.17,0,0,0,1-.75c.15-.35,0-.67-.45-.81a2.37,2.37,0,0,0-.77-.14"/><path class="cls-4" d="M1143.24,41.62a2.36,2.36,0,0,0-.37,0c-.28,0-.57.15-.51.45l1.84,1.19a6.59,6.59,0,0,0,.83-.46.36.36,0,0,0,0-.62,3,3,0,0,0-1.78-.58"/><path class="cls-4" d="M1149.78,4l-.34,0-.3,1.57,1.71.39a12.52,12.52,0,0,0-.2-1.44c-.09-.35-.37-.54-.87-.54"/><path class="cls-6" d="M1136.31,36.48a2,2,0,0,0-.49.19c.09.23.08.41.2.49a10.92,10.92,0,0,0,1.4.86.77.77,0,0,0,.34.08.81.81,0,0,0,.49-.17.46.46,0,0,0-.12-.75,18,18,0,0,0-1.77-.69h0"/><path class="cls-6" d="M1118.84,31.08a1.51,1.51,0,0,0,.49.2l.14-.13-.63-.07"/><path class="cls-4" d="M1119.16,29.8a.75.75,0,0,0-.41.12.69.69,0,0,0-.24.6.68.68,0,0,0,.33.56l.63.07a2,2,0,0,0,.53-.56c.07-.15-.1-.44-.27-.59a.94.94,0,0,0-.57-.2"/><path class="cls-4" d="M1141.41,30.57a2.09,2.09,0,0,0-.42.05c-.23.49.06.85.37,1.19a.68.68,0,0,0,.5.17,1.06,1.06,0,0,0,.64-.2.51.51,0,0,0,0-.87,1.94,1.94,0,0,0-1.07-.34"/><path class="cls-6" d="M1148.68,47.17h-.11c-.21.06-.51.11-.59.24s0,.35.15.47a7,7,0,0,0,.94.61,3.29,3.29,0,0,0,.45-.56c.23-.47,0-.7-.59-.75l-.25,0"/><path class="cls-4" d="M1132.06,18.56c-.26,1-.25,1,.64,1.41.4-1.14.35-1.23-.64-1.41"/><path class="cls-4" d="M1139,18.38a1.6,1.6,0,0,0-.73.21,1,1,0,0,0,.8.94l.18,0a1.44,1.44,0,0,0,.61-.15c.27-.16.23-.43,0-.62a1.31,1.31,0,0,0-.89-.4"/><path class="cls-4" d="M1138.86,23.08l-.14,0a2.15,2.15,0,0,0-.61.44,5.42,5.42,0,0,0,.33.58.64.64,0,0,0,.52.24,1.17,1.17,0,0,0,.26,0c.39-.09.6-.34.48-.64a.93.93,0,0,0-.34-.47,1.12,1.12,0,0,0-.5-.13"/><path class="cls-6" d="M1129.1,33.18c-.17.45-.39.71-.3.83a3.06,3.06,0,0,0,1.55,1.07c0-.78-.5-1.21-1.25-1.9"/><path class="cls-6" d="M1113.29,30.73l-.17,0c-.16.07-.34.32-.29.45a.87.87,0,0,0,1,.63,3.37,3.37,0,0,0,.5,0,6.33,6.33,0,0,0-.56-.93.78.78,0,0,0-.45-.12"/><path class="cls-4" d="M1148.58,23.17a.8.8,0,0,0-.41.16l0,.25a1.78,1.78,0,0,0,1.26.88c.17-.78-.06-1.16-.77-1.28h-.05"/><path class="cls-4" d="M1166.59,18.6c0,1,0,1,1.37,1.33a1.72,1.72,0,0,0-1.37-1.33"/><path class="cls-6" d="M1150.83,32.38a.61.61,0,0,0-.56.41l.78.87c.49-.89.51-1,.08-1.22a.89.89,0,0,0-.3-.06"/><path class="cls-4" d="M1119.75,26.17a.49.49,0,0,0-.37.2.35.35,0,0,0,.16.35,1.47,1.47,0,0,0,.66.17,1.31,1.31,0,0,0,1-.47c-.46-.09-.92-.19-1.38-.25h0"/><path class="cls-6" d="M1153.32,7.92c0,.28-.07.56-.1.84.22-.06.29-.16.29-.34a.72.72,0,0,0-.19-.5"/><path class="cls-4" d="M1152.69,7.67h0c-.35,0-.54.27-.49.75a1.52,1.52,0,0,0,.18.36l.2.05a2.92,2.92,0,0,0,.64-.07c0-.28.07-.56.1-.84a.84.84,0,0,0-.63-.25"/><path class="cls-4" d="M1165.11,21.09H1165a2.7,2.7,0,0,0-.67.33c.31.24.5.5.78.59l.16,0a.59.59,0,0,0,.51-.37c.1-.27-.28-.58-.69-.58"/><path class="cls-4" d="M1146.65,39.76c-.06,0-.15.11-.26.19a1.6,1.6,0,0,0,.81,1l.19,0,.14,0a.32.32,0,0,0,.2-.19c.09-.58-.29-.92-1.07-1h0"/><path class="cls-4" d="M1153.28,21.1c.37.71.49.92.85.92a3.77,3.77,0,0,0,.66-.1,4.69,4.69,0,0,0-.72-.75.74.74,0,0,0-.39-.07h-.4"/><path class="cls-4" d="M1132.56,10.53c-.17.14-.38.24-.37.32a1.49,1.49,0,0,0,.25.63l.44,0a1,1,0,0,0,.2-.6c0-.13-.31-.23-.52-.37"/><path class="cls-4" d="M1144.52,11.89h0c.3.43.49.72.7,1a.42.42,0,0,0,.34.18l.25-.08c.11-.09.2-.27.16-.37-.17-.41-.47-.72-1.41-.72"/><path class="cls-4" d="M1150.84,12.82l-.15,0c-.39.2-.28.48-.09.74a1.81,1.81,0,0,0,.41.29c.15-.09.36-.14.43-.25.2-.28.08-.55-.25-.73a.75.75,0,0,0-.35-.08"/><path class="cls-4" d="M1154,19h-.12a1.76,1.76,0,0,0-.41.44c-.09.19.25.38.59.38h0c.35,0,.59-.18.56-.42s-.25-.41-.63-.41"/><path class="cls-6" d="M1167,24.61a2.36,2.36,0,0,0-.74.21l1.28.83c-.1-.75-.2-1-.54-1"/><path class="cls-4" d="M1142.55,13.88c-.2.25-.38.38-.41.53s.29.52.66.52h0c.32,0,.63-.25.49-.44a3.73,3.73,0,0,0-.75-.61"/><path class="cls-4" d="M1147.25,13.65c-.23.16-.46.25-.54.39s.16.57.46.63h.08c.28,0,.64-.28.55-.5s-.32-.32-.55-.53"/><path class="cls-5" d="M1158.05,39.76a1.11,1.11,0,0,0,1,.93c.22-.69.18-.73-1-.93"/><path class="cls-4" d="M1135.49,20.54c-.09.22-.2.36-.19.5s.18.15.27.23a1.84,1.84,0,0,0,.39-.4s-.23-.16-.47-.33"/><path class="cls-4" d="M1150.35,19.41l-.17,0c-.15.18-.31.36-.44.55l.23.14c.4,0,.46-.24.49-.47l-.11-.24Z"/><path class="cls-4" d="M1165.41,18.5a1.76,1.76,0,0,0-.85.22,4.35,4.35,0,0,0,.62.16h0c.47-.07.91-.19,1.37-.28h0l-.21,0a2.53,2.53,0,0,1-.46-.06,2.74,2.74,0,0,0-.51-.06"/><path class="cls-4" d="M1125.79,11.8l-.14.21a6.11,6.11,0,0,0,.43.47l.24-.09a3.71,3.71,0,0,0-.22-.55l-.31,0Z"/><path class="cls-6" d="M1159.78,28.27c-.2.09-.35.11-.39.17a.47.47,0,0,0,.42.6h0c.11,0,.32-.18.3-.25a2,2,0,0,0-.33-.52"/><path class="cls-4" d="M1162,23.27h-.15c0,.16.06.31.1.46l.14.07.08-.11a2.56,2.56,0,0,0-.17-.43"/><path class="cls-6" d="M1164.24,26.05c-.07.13-.11.18-.1.21a1.17,1.17,0,0,0,.16.36h0l.27,0c-.06-.12-.11-.25-.17-.37s-.08-.06-.2-.17"/><path class="cls-4" d="M1147.09,43.06l-.23,0,.17.29.25-.11-.13-.21h-.06"/><path class="cls-4" d="M1135.29,27.52c-.14.07-.29.1-.3.15l.11.23h.05l.26-.05-.12-.34"/><path class="cls-4" d="M1162.36,22.14l-.23.22.27.3.18-.2a1.31,1.31,0,0,0-.22-.32"/><path class="cls-4" d="M1126.67,15.89l-.38.17c.11.13.21.27.34.4l.25-.12a2.57,2.57,0,0,0-.21-.45"/><path class="cls-5" d="M1126.86,45.42l-.35,0,.09.24c.06,0,.2,0,.3,0s0-.22,0-.33"/><path class="cls-4" d="M1127.06,26.94l-.18.16a2.85,2.85,0,0,0,.33.25l.24-.24a2.71,2.71,0,0,0-.39-.17"/><polygon class="cls-4" points="1143.48 19.73 1143.35 19.75 1143.41 19.84 1143.54 19.82 1143.48 19.73 1143.48 19.73"/><path class="cls-4" d="M1134.53,13.33l-.13,0,0,.19.29,0-.14-.19Z"/><polygon class="cls-4" points="1141.04 27.59 1140.93 27.67 1141.09 27.85 1141.2 27.78 1141.04 27.59 1141.04 27.59"/><path class="cls-7" d="M1160.13,32.38l-.28.07,0,.11a1.35,1.35,0,0,0,.28,0l0-.22Z"/><polygon class="cls-6" points="1154.28 30.25 1154.15 30.46 1154.26 30.53 1154.5 30.41 1154.28 30.25 1154.28 30.25"/><path class="cls-6" d="M1125,33.92a2.38,2.38,0,0,0-.25.2l.34.22.17-.17a1.25,1.25,0,0,0-.26-.25"/><polyline class="cls-5" points="1112.56 36.69 1112.49 36.78 1112.56 36.9 1112.66 36.86 1112.56 36.69"/><polygon class="cls-7" points="1112.63 36.59 1112.56 36.69 1112.66 36.86 1112.82 36.78 1112.63 36.59 1112.63 36.59"/><polygon class="cls-4" points="1112.06 26.95 1111.93 27.01 1112.04 27.08 1112.17 27.03 1112.06 26.95 1112.06 26.95"/><polygon class="cls-5" points="1151.95 45.35 1151.84 45.39 1151.94 45.43 1151.95 45.35 1151.95 45.35"/><polygon class="cls-4" points="1152.45 22.62 1152.42 22.8 1152.5 22.72 1152.45 22.62 1152.45 22.62"/><polygon class="cls-7" points="1156.09 34.07 1155.99 34.15 1156.14 34.26 1156.19 34.16 1156.09 34.07 1156.09 34.07"/><polygon class="cls-7" points="1159.05 33.32 1159.1 33.42 1159.17 33.33 1159.05 33.32 1159.05 33.32"/><polygon class="cls-4" points="1140.44 11.47 1140.3 11.52 1140.57 11.54 1140.44 11.47 1140.44 11.47"/><polygon class="cls-4" points="1144.09 26.14 1143.97 26.18 1144.2 26.2 1144.09 26.14 1144.09 26.14"/><polygon class="cls-5" points="1163.11 37.3 1163.08 37.4 1163.21 37.34 1163.11 37.3 1163.11 37.3"/><polygon class="cls-5" points="1166.48 42.76 1166.37 42.84 1166.46 42.94 1166.62 42.79 1166.48 42.76 1166.48 42.76"/><path class="cls-1" d="M1071.15,30c1.7-.6,7.19,3.32,9.47,4.08a42.4,42.4,0,0,1,5.26,2.2c1.2.58,1.8.3,2.14,0s.44-.57.65.11c.47,1.52,7.77.7,9.21,3.5s-10.21,3.25-10.72,6.05.57,9-1.42,9.59c-1.34.39-5.12-6.3-6.89-7.54s-12.61-.39-12.44-3.43c.22-3.89,9.52-2.47,8.1-6.29-1.54-4.17-5-7.72-3.36-8.3"/><path class="cls-2" d="M1097.52,39.78h0c0-.31-.73-2.7-.73-2.7l-1-.14-2.71.81.07.11c-2.25-.34-4.57-.44-4.83-1.11s.8-4.42.31-6.54v0c-.09-.53-.82-3.05-.82-3.05L1086.47,29l.08.11c-1.81,1.36-4.28,6.31-6.13,5.8s-6.07-2.83-8.32-3.24h0l-1.22-2.57-1,.43s.69,2.66.76,2.86h0c.3,1.14,2.56,3.38,3.71,5.91.83,1.82-2.11,2.15-4.66,2.78l-.06-.56-4,.18s.61,2.38.77,2.9v0c.69,2.07,10.55,1.49,12.21,2.44s5.47,7.56,6.79,7.25c2-.47.43-6,.93-8.24s11.58-3.17,11.13-5.24"/><path class="cls-3" d="M1070.34,28.81c1.67-.48,7.09,2.65,9.33,3.26,1.11.31,2.46-1.37,3.75-3.05s2.54-3.39,3.43-3.05c2.43.93.34,6.9.75,8s7.67.56,9.08,2.8-10.54,3.24-11,5.48,1,7.77-.93,8.24c-1.32.31-5-6.25-6.78-7.25s-12.43-.31-12.26-2.74c.22-3.11,9.38-2,8-5-1.51-3.34-5-6.18-3.31-6.64"/><path class="cls-4" d="M1070.88,29.17V30.5a.91.91,0,0,0,.33-1.08c0-.09-.21-.17-.33-.25"/><path class="cls-4" d="M1086.25,26h0c0,.42,0,.42.61.52.14-.23-.13-.35-.22-.52h-.39"/><path class="cls-4" d="M1067.77,39.14v.59h.12c.2,0,.33-.07.36-.26s-.07-.28-.29-.32l-.19,0"/><path class="cls-4" d="M1067.22,40.19v.74l.21-.11c.14-.24.07-.46-.21-.63"/><path class="cls-5" d="M1065.67,50v.29l.23-.09-.23-.2"/><polygon class="cls-5" points="1083.73 26 1083.53 26 1083.73 26 1083.73 26"/><path class="cls-4" d="M1074,37.25l-.2.09c.08.22.25.47,0,.73s-.18.35.05.46l.18,0a1.35,1.35,0,0,0,.35-.06,3.29,3.29,0,0,0,.59-.3c-.33-.34-.58-.62-.86-.88l-.16-.07"/><path class="cls-6" d="M1092.91,40.69a.93.93,0,0,0-.4.09l-.06.15a1,1,0,0,0,.07.28.56.56,0,0,0,.47.37h0a.61.61,0,0,0,.51-.39c.08-.19,0-.35-.23-.43a1.53,1.53,0,0,0-.41-.07"/><path class="cls-4" d="M1082.67,47.79h-.19c-.15,0-.3.08-.27.24l1,.62a3,3,0,0,0,.43-.24.19.19,0,0,0,0-.33,1.67,1.67,0,0,0-.94-.3"/><path class="cls-4" d="M1086.1,28l-.17,0-.16.82.9.21a6.91,6.91,0,0,0-.11-.76c0-.19-.19-.29-.46-.29"/><path class="cls-6" d="M1079,45.09l-.26.1c0,.12,0,.22.11.26a6,6,0,0,0,.73.45l.18,0,.26-.09a.24.24,0,0,0-.06-.39,7.6,7.6,0,0,0-.94-.36h0"/><path class="cls-6" d="M1069.85,42.25a.7.7,0,0,0,.26.11l.07-.07-.33,0"/><path class="cls-4" d="M1070,41.58l-.21.06a.35.35,0,0,0-.13.32.36.36,0,0,0,.17.29l.33,0a1,1,0,0,0,.28-.29c0-.08,0-.24-.14-.31a.46.46,0,0,0-.3-.11"/><path class="cls-4" d="M1081.71,42l-.22,0c-.12.26,0,.45.19.63a.38.38,0,0,0,.27.09.52.52,0,0,0,.33-.11.26.26,0,0,0,0-.45,1,1,0,0,0-.56-.18"/><path class="cls-6" d="M1085.53,50.71h-.06c-.11,0-.26.06-.31.13l.08.24a4.52,4.52,0,0,0,.49.33,2.05,2.05,0,0,0,.24-.3c.12-.24,0-.37-.31-.39h-.13"/><path class="cls-4" d="M1076.8,35.67c-.14.52-.13.53.33.75.21-.6.19-.65-.33-.75"/><path class="cls-4" d="M1080.45,35.58a.89.89,0,0,0-.39.11.54.54,0,0,0,.43.49l.09,0a.79.79,0,0,0,.32-.08c.14-.08.12-.23,0-.33a.68.68,0,0,0-.46-.21"/><path class="cls-4" d="M1080.37,38.05h-.07a1,1,0,0,0-.32.23c.07.13.11.22.17.31a.34.34,0,0,0,.27.12l.14,0c.2,0,.31-.18.25-.33l-.18-.25-.26-.07"/><path class="cls-6" d="M1075.24,43.36c-.09.23-.2.37-.15.43a1.61,1.61,0,0,0,.81.57c0-.41-.26-.64-.66-1"/><path class="cls-6" d="M1066.93,42.07h-.08l-.16.24a.47.47,0,0,0,.51.33l.26,0a3.17,3.17,0,0,0-.29-.49l-.24-.06"/><path class="cls-4" d="M1085.48,38.1l-.22.08v.13a.88.88,0,0,0,.66.46c.09-.4,0-.6-.41-.67h0"/><path class="cls-4" d="M1094.94,35.7c0,.51,0,.51.72.7a.91.91,0,0,0-.72-.7m0,0h0"/><path class="cls-6" d="M1086.66,42.94a.33.33,0,0,0-.3.21l.42.46c.25-.47.26-.55,0-.64l-.15,0"/><path class="cls-4" d="M1070.33,39.67l-.2.11.09.18a.76.76,0,0,0,.35.09.67.67,0,0,0,.5-.25c-.24,0-.48-.1-.73-.13h0"/><path class="cls-6" d="M1088,30.08c0,.15,0,.3,0,.45.12,0,.16-.09.16-.18a.37.37,0,0,0-.11-.27"/><path class="cls-4" d="M1087.64,30h0c-.18,0-.28.15-.25.4l.09.19.11,0a1.31,1.31,0,0,0,.33,0c0-.15,0-.3,0-.45a.43.43,0,0,0-.32-.13"/><path class="cls-4" d="M1094.16,37h-.05a1.21,1.21,0,0,0-.35.17,1.52,1.52,0,0,0,.41.31h.08a.3.3,0,0,0,.27-.19c.06-.14-.14-.31-.36-.31"/><path class="cls-4" d="M1084.46,46.82l-.13.09a.82.82,0,0,0,.42.52l.1,0h.07l.11-.1c0-.3-.15-.49-.56-.52h0"/><path class="cls-4" d="M1087.94,37c.2.37.26.49.45.49a2.54,2.54,0,0,0,.35-.06,2.35,2.35,0,0,0-.38-.39l-.21,0h-.21"/><path class="cls-4" d="M1077.06,31.46l-.19.17a.72.72,0,0,0,.13.33h.23a.5.5,0,0,0,.1-.32c0-.07-.16-.12-.27-.19"/><path class="cls-4" d="M1083.34,32.17h0c.16.23.26.38.37.52l.18.1.13,0,.08-.19c-.08-.22-.24-.38-.74-.38"/><path class="cls-4" d="M1086.66,32.66h-.08c-.2.11-.14.26,0,.39l.21.16.23-.13c.1-.15,0-.29-.13-.39l-.19,0"/><path class="cls-4" d="M1088.32,35.9h-.06a.7.7,0,0,0-.22.23c0,.1.13.2.31.2h0c.18,0,.3-.1.29-.22s-.13-.22-.33-.22"/><path class="cls-6" d="M1095.16,38.86a1.46,1.46,0,0,0-.39.1l.68.44c-.06-.39-.11-.54-.29-.54"/><path class="cls-4" d="M1082.31,33.22c-.11.13-.2.2-.22.28s.15.27.35.27h0c.17,0,.34-.13.26-.23a1.75,1.75,0,0,0-.39-.32"/><path class="cls-4" d="M1084.78,33.1c-.13.08-.24.13-.28.2s.08.3.24.33h0c.14,0,.34-.15.29-.27s-.17-.16-.29-.27"/><path class="cls-5" d="M1090.45,46.82a.57.57,0,0,0,.5.48c.12-.36.1-.38-.5-.48"/><path class="cls-4" d="M1078.6,36.72a.79.79,0,0,0-.1.26l.14.12.21-.21s-.12-.08-.25-.17"/><path class="cls-4" d="M1086.41,36.12h-.09c-.08.1-.16.19-.23.29l.12.07c.21,0,.24-.12.26-.24l-.06-.13Z"/><path class="cls-4" d="M1094.32,35.65a.92.92,0,0,0-.45.11,1.85,1.85,0,0,0,.33.08h0c.24,0,.48-.09.72-.14h0l-.11,0-.24,0a1.24,1.24,0,0,0-.27,0"/><path class="cls-4" d="M1073.5,32.13l-.07.1.22.25.13,0a1.69,1.69,0,0,0-.12-.28l-.16,0Z"/><path class="cls-6" d="M1091.36,40.78c-.11,0-.19,0-.2.09s.06.31.21.31h0l.16-.13a1.16,1.16,0,0,0-.18-.27"/><polyline class="cls-4" points="1092.52 38.15 1092.44 38.16 1092.5 38.4 1092.57 38.44 1092.61 38.38 1092.52 38.15"/><polyline class="cls-6" points="1093.7 39.61 1093.65 39.72 1093.74 39.91 1093.75 39.92 1093.9 39.89 1093.81 39.7 1093.7 39.61"/><polyline class="cls-4" points="1084.69 48.55 1084.57 48.57 1084.66 48.72 1084.79 48.66 1084.72 48.55 1084.69 48.55"/><polyline class="cls-4" points="1078.49 40.38 1078.34 40.46 1078.4 40.58 1078.42 40.59 1078.56 40.56 1078.49 40.38"/><polyline class="cls-4" points="1092.72 37.56 1092.6 37.67 1092.74 37.83 1092.83 37.72 1092.72 37.56"/><path class="cls-4" d="M1074,34.27l-.2.09.17.21.14-.06-.11-.24"/><polyline class="cls-5" points="1074.07 49.79 1073.88 49.82 1073.93 49.94 1074.09 49.96 1074.07 49.79"/><polyline class="cls-4" points="1074.17 40.08 1074.07 40.16 1074.25 40.29 1074.38 40.17 1074.17 40.08"/><polygon class="cls-4" points="1082.8 36.29 1082.73 36.3 1082.76 36.35 1082.83 36.34 1082.8 36.29 1082.8 36.29"/><polygon class="cls-4" points="1078.1 32.93 1078.02 32.94 1078.02 33.04 1078.17 33.03 1078.1 32.93 1078.1 32.93"/><polygon class="cls-4" points="1081.51 40.42 1081.46 40.46 1081.54 40.56 1081.6 40.52 1081.51 40.42 1081.51 40.42"/><polygon class="cls-7" points="1091.54 42.94 1091.4 42.97 1091.42 43.03 1091.57 43.05 1091.54 42.94 1091.54 42.94"/><polygon class="cls-6" points="1088.47 41.82 1088.4 41.93 1088.46 41.97 1088.59 41.9 1088.47 41.82 1088.47 41.82"/><polyline class="cls-6" points="1073.08 43.75 1072.94 43.85 1073.13 43.97 1073.22 43.88 1073.08 43.75"/><polyline class="cls-5" points="1066.55 45.2 1066.51 45.25 1066.55 45.31 1066.6 45.29 1066.55 45.2"/><polygon class="cls-7" points="1066.59 45.15 1066.55 45.2 1066.6 45.29 1066.69 45.25 1066.59 45.15 1066.59 45.15"/><polygon class="cls-4" points="1066.29 40.09 1066.22 40.11 1066.28 40.15 1066.35 40.13 1066.29 40.09 1066.29 40.09"/><polygon class="cls-5" points="1087.25 49.75 1087.19 49.77 1087.24 49.79 1087.25 49.75 1087.25 49.75"/><polygon class="cls-4" points="1087.51 37.81 1087.49 37.9 1087.54 37.86 1087.51 37.81 1087.51 37.81"/><polygon class="cls-7" points="1089.42 43.83 1089.37 43.87 1089.45 43.93 1089.47 43.87 1089.42 43.83 1089.42 43.83"/><polygon class="cls-7" points="1090.98 43.43 1091 43.48 1091.04 43.43 1090.98 43.43 1090.98 43.43"/><polygon class="cls-4" points="1081.2 31.95 1081.13 31.98 1081.27 31.99 1081.2 31.95 1081.2 31.95"/><polygon class="cls-4" points="1083.12 39.66 1083.06 39.68 1083.17 39.69 1083.12 39.66 1083.12 39.66"/><polygon class="cls-5" points="1093.11 45.52 1093.09 45.57 1093.16 45.54 1093.11 45.52 1093.11 45.52"/><polygon class="cls-5" points="1094.88 48.39 1094.82 48.43 1094.87 48.48 1094.96 48.41 1094.88 48.39 1094.88 48.39"/><path class="cls-1" d="M593.1,63.3c3.23-1.13,13.7,6.33,18,7.78a77.16,77.16,0,0,1,10,4.18c2.3,1.09,3.43.57,4.08,0s.83-1.09,1.24.21c.9,2.89,14.8,1.33,17.52,6.67s-19.43,6.17-20.39,11.51,1.07,17.14-2.72,18.25c-2.54.74-9.74-12-13.1-14.35s-24-.75-23.68-6.52c.43-7.41,18.11-4.7,15.43-12-2.94-8-9.6-14.7-6.41-15.81"/><path class="cls-2" d="M643.3,81.94h0c-.07-.6-1.39-5.15-1.39-5.15l-1.84-.27-5.18,1.54.15.21c-4.3-.64-8.71-.83-9.2-2.11-.59-1.53,1.53-8.41.59-12.44v0c-.17-1-1.55-5.81-1.55-5.81l-2.62,3.49.15.2c-3.44,2.59-8.15,12-11.67,11s-11.55-5.4-15.84-6.18h0l-2.31-4.9-1.84.83s1.31,5.06,1.44,5.43h0c.59,2.17,4.88,6.43,7.07,11.25,1.58,3.48-4,4.1-8.87,5.31l-.11-1.07-7.63.33s1.17,4.53,1.47,5.53l0,0c1.31,4,20.08,2.84,23.25,4.66,3.32,1.89,10.41,14.39,12.91,13.8,3.73-.89.83-11.43,1.78-15.7.91-4.1,22-6,21.19-10"/><path class="cls-3" d="M591.55,61.05c3.19-.9,13.5,5.06,17.77,6.22,2.12.58,4.68-2.62,7.13-5.82s4.83-6.45,6.53-5.8c4.62,1.78.66,13.14,1.44,15.17.89,2.31,14.58,1.07,17.27,5.33s-20.05,6.16-21,10.42,1.95,14.81-1.78,15.7c-2.5.59-9.59-11.91-12.91-13.8s-23.66-.59-23.33-5.21c.42-5.92,17.85-3.76,15.2-9.57-2.89-6.36-9.46-11.75-6.32-12.64"/><path class="cls-4" d="M592.6,61.74c0,.85,0,1.69,0,2.54a1.72,1.72,0,0,0,.62-2.05c0-.18-.4-.33-.61-.49"/><polyline class="cls-5" points="621.85 55.7 621.85 55.71 621.85 55.7 621.85 55.7"/><path class="cls-4" d="M621.85,55.7h0c.07.79.08.79,1.17,1,.26-.43-.26-.66-.43-1h-.73"/><path class="cls-4" d="M586.68,80.72c0,.38,0,.75,0,1.13h.23c.37,0,.63-.14.68-.49s-.12-.54-.54-.62l-.36,0"/><path class="cls-4" d="M585.63,82.71v1.41c.14-.06.35-.1.4-.19a.84.84,0,0,0-.4-1.22"/><path class="cls-5" d="M582.67,101.33v.56l.44-.18-.44-.38"/><path class="cls-5" d="M617.05,55.7h0Z"/><path class="cls-4" d="M598.51,77.13a.65.65,0,0,0-.39.17c.17.42.49.9.11,1.39-.23.3-.34.67.09.86a.81.81,0,0,0,.33.06,2.42,2.42,0,0,0,.68-.11,7.91,7.91,0,0,0,1.12-.57c-.63-.65-1.11-1.17-1.63-1.67a.46.46,0,0,0-.31-.13"/><path class="cls-6" d="M634.52,83.67a1.76,1.76,0,0,0-.77.17c0,.11-.13.2-.11.28a1.51,1.51,0,0,0,.15.54c.22.47.53.71.88.71h.1a1.11,1.11,0,0,0,1-.75c.16-.34,0-.66-.44-.8a2.37,2.37,0,0,0-.77-.14"/><path class="cls-4" d="M615,97.18l-.37,0c-.28,0-.57.16-.51.46L616,98.85a6.59,6.59,0,0,0,.83-.46.37.37,0,0,0,0-.63,3,3,0,0,0-1.78-.58"/><path class="cls-4" d="M621.57,59.52l-.34,0-.3,1.57,1.71.39a12.72,12.72,0,0,0-.2-1.45c-.09-.35-.37-.54-.87-.54"/><path class="cls-6" d="M608.1,92.05a2,2,0,0,0-.49.19c.09.23.08.41.2.49a12.12,12.12,0,0,0,1.4.85.66.66,0,0,0,.34.08.75.75,0,0,0,.49-.17.45.45,0,0,0-.12-.74,15.82,15.82,0,0,0-1.77-.69h0"/><path class="cls-6" d="M590.63,86.65a1.32,1.32,0,0,0,.49.19l.14-.12-.63-.07"/><path class="cls-4" d="M591,85.37a.75.75,0,0,0-.41.12.74.74,0,0,0,.09,1.16l.63.07a2,2,0,0,0,.53-.56c.07-.16-.1-.44-.27-.59a.88.88,0,0,0-.57-.2"/><path class="cls-4" d="M613.2,86.14a1.55,1.55,0,0,0-.42,0c-.23.49.06.85.37,1.18a.68.68,0,0,0,.5.18,1.06,1.06,0,0,0,.64-.2.51.51,0,0,0,0-.87,1.94,1.94,0,0,0-1.07-.34"/><path class="cls-6" d="M620.47,102.74h-.11c-.21.06-.51.11-.59.23s0,.36.15.48a9.79,9.79,0,0,0,.94.61,3.74,3.74,0,0,0,.45-.56c.23-.47,0-.71-.59-.75l-.25,0"/><path class="cls-4" d="M603.85,74.12c-.26,1-.25,1,.63,1.42.41-1.14.36-1.24-.63-1.42"/><path class="cls-4" d="M610.8,74a1.49,1.49,0,0,0-.73.21,1.06,1.06,0,0,0,.8.94h.18a1.31,1.31,0,0,0,.61-.15c.27-.15.23-.42,0-.61a1.31,1.31,0,0,0-.89-.4"/><path class="cls-4" d="M610.65,78.65l-.14,0a2.33,2.33,0,0,0-.61.43,4.58,4.58,0,0,0,.33.58.62.62,0,0,0,.52.24,1.15,1.15,0,0,0,.26,0c.39-.09.6-.34.48-.64a.93.93,0,0,0-.34-.47,1.12,1.12,0,0,0-.5-.13"/><path class="cls-6" d="M600.89,88.75c-.17.44-.39.7-.3.83a3.12,3.12,0,0,0,1.55,1.07c0-.78-.5-1.21-1.25-1.9"/><path class="cls-6" d="M585.08,86.29l-.17,0c-.16.06-.34.31-.29.44a.88.88,0,0,0,1,.64,3.37,3.37,0,0,0,.5-.05,6.33,6.33,0,0,0-.56-.93.78.78,0,0,0-.45-.13"/><path class="cls-4" d="M620.37,78.74a.89.89,0,0,0-.41.15l0,.26a1.74,1.74,0,0,0,1.26.87c.17-.77-.06-1.15-.77-1.28h0"/><path class="cls-4" d="M638.38,74.16c0,1,0,1,1.37,1.34a1.73,1.73,0,0,0-1.37-1.34m0,0h0"/><path class="cls-6" d="M622.62,88a.61.61,0,0,0-.56.41l.78.87c.49-.89.51-1.06.08-1.22a.89.89,0,0,0-.3-.06"/><path class="cls-4" d="M591.54,81.74a.51.51,0,0,0-.37.19.37.37,0,0,0,.16.36,1.47,1.47,0,0,0,.66.17,1.29,1.29,0,0,0,1-.48c-.46-.08-.92-.19-1.38-.24h0"/><path class="cls-6" d="M625.11,63.48c0,.29-.07.57-.1.85.22-.06.29-.16.29-.34a.75.75,0,0,0-.19-.51"/><path class="cls-4" d="M624.48,63.23h0c-.35,0-.54.28-.49.76a1.28,1.28,0,0,0,.18.35l.2.06a3.71,3.71,0,0,0,.64-.07c0-.28.07-.56.1-.85a.88.88,0,0,0-.63-.25"/><path class="cls-4" d="M636.9,76.65h-.09a2.26,2.26,0,0,0-.67.33,3.4,3.4,0,0,0,.78.59l.16,0a.58.58,0,0,0,.51-.36c.1-.27-.28-.59-.69-.59"/><path class="cls-4" d="M618.44,95.33c-.07,0-.15.11-.26.18a1.62,1.62,0,0,0,.81,1l.19,0,.14,0a.31.31,0,0,0,.2-.2c.09-.57-.29-.92-1.07-1h0"/><path class="cls-4" d="M625.07,76.67c.37.7.49.92.85.92a3.77,3.77,0,0,0,.66-.1,4.3,4.3,0,0,0-.72-.75.74.74,0,0,0-.39-.07h-.4"/><path class="cls-4" d="M604.35,66.1c-.17.14-.38.24-.37.32a1.49,1.49,0,0,0,.25.63l.44,0a1,1,0,0,0,.2-.61c0-.12-.31-.22-.52-.36"/><path class="cls-4" d="M616.31,67.45h0c.3.44.49.72.7,1a.45.45,0,0,0,.34.18l.25-.09a.38.38,0,0,0,.16-.36c-.17-.41-.47-.73-1.41-.73"/><path class="cls-4" d="M622.63,68.39l-.15,0c-.39.2-.28.49-.09.74a1.55,1.55,0,0,0,.41.3c.15-.09.36-.14.43-.25.2-.29.08-.55-.25-.74a.91.91,0,0,0-.35-.07"/><path class="cls-4" d="M625.78,74.56h-.12a2,2,0,0,0-.41.45c-.09.18.25.38.59.38h0c.35,0,.59-.19.56-.43s-.25-.4-.63-.4"/><path class="cls-6" d="M638.81,80.18a2.28,2.28,0,0,0-.74.2l1.28.84c-.1-.75-.2-1-.54-1"/><path class="cls-4" d="M614.34,69.45c-.2.24-.38.38-.41.53s.29.52.66.52h0c.32,0,.63-.25.49-.44a3.73,3.73,0,0,0-.75-.61"/><path class="cls-4" d="M619,69.21c-.23.17-.46.26-.54.39s.16.58.46.64H619c.28,0,.64-.28.55-.5s-.32-.32-.55-.54"/><path class="cls-5" d="M629.84,95.33a1.1,1.1,0,0,0,.95.92c.22-.68.18-.72-.95-.92"/><path class="cls-4" d="M607.28,76.11c-.09.21-.2.36-.19.5s.18.15.27.22a1.8,1.8,0,0,0,.39-.39s-.23-.16-.47-.33"/><path class="cls-4" d="M622.14,75,622,75a5.58,5.58,0,0,0-.44.55l.23.15c.4,0,.46-.25.49-.47l-.11-.25Z"/><path class="cls-4" d="M637.2,74.07a1.76,1.76,0,0,0-.85.22,4.35,4.35,0,0,0,.62.16h0c.47-.07.91-.18,1.37-.28h0l-.21,0a2.49,2.49,0,0,1-.46-.05,2.74,2.74,0,0,0-.51-.06"/><path class="cls-4" d="M597.58,67.37l-.14.2a3.8,3.8,0,0,0,.43.47l.24-.09a3.6,3.6,0,0,0-.22-.54l-.31,0Z"/><path class="cls-6" d="M631.57,83.84a1.66,1.66,0,0,0-.39.16.48.48,0,0,0,.42.61h0c.11,0,.32-.19.3-.25a1.82,1.82,0,0,0-.33-.52"/><path class="cls-4" d="M633.78,78.83l-.15,0c0,.15.06.31.1.46l.14.07.08-.11a2.65,2.65,0,0,0-.17-.44"/><path class="cls-6" d="M636,81.62c-.07.13-.11.18-.1.21a1.28,1.28,0,0,0,.16.36h0l.27,0c-.06-.13-.11-.25-.17-.37s-.08-.07-.2-.17"/><path class="cls-4" d="M618.88,98.63l-.23,0c.06.09.11.19.17.29l.25-.11-.13-.21h-.06"/><path class="cls-4" d="M607.08,83.09c-.14.06-.29.1-.3.14l.11.24h.05l.26,0-.12-.34"/><path class="cls-4" d="M634.15,77.7a2.54,2.54,0,0,1-.23.22l.27.3.18-.2a1.53,1.53,0,0,0-.22-.32"/><path class="cls-4" d="M598.46,71.46l-.38.17c.11.13.21.27.34.4l.25-.13a2.49,2.49,0,0,0-.21-.44"/><path class="cls-5" d="M598.65,101l-.35.06.09.24a.87.87,0,0,0,.3,0c0-.11,0-.22,0-.34"/><path class="cls-4" d="M598.85,82.51l-.18.16a2.85,2.85,0,0,0,.33.25c.06-.07.13-.13.24-.24a1.92,1.92,0,0,0-.39-.17"/><polygon class="cls-4" points="615.27 75.29 615.14 75.32 615.2 75.41 615.33 75.38 615.27 75.29 615.27 75.29"/><path class="cls-4" d="M606.32,68.9h-.14v.2l.29,0-.14-.18Z"/><polygon class="cls-4" points="612.83 83.16 612.72 83.23 612.88 83.42 612.99 83.35 612.83 83.16 612.83 83.16"/><path class="cls-7" d="M631.92,88l-.28.07,0,.11.28,0,0-.22Z"/><polygon class="cls-6" points="626.07 85.82 625.94 86.02 626.05 86.1 626.29 85.98 626.07 85.82 626.07 85.82"/><path class="cls-6" d="M596.77,89.49l-.25.19.34.23.17-.17a.89.89,0,0,0-.26-.25"/><polyline class="cls-5" points="584.35 92.26 584.28 92.35 584.35 92.47 584.45 92.42 584.35 92.26"/><polygon class="cls-7" points="584.42 92.16 584.35 92.26 584.45 92.42 584.61 92.35 584.42 92.16 584.42 92.16"/><polygon class="cls-4" points="583.85 82.52 583.72 82.57 583.83 82.65 583.96 82.6 583.85 82.52 583.85 82.52"/><polygon class="cls-5" points="623.74 100.92 623.63 100.95 623.73 101 623.74 100.92 623.74 100.92"/><polygon class="cls-4" points="624.24 78.19 624.21 78.37 624.29 78.29 624.24 78.19 624.24 78.19"/><polygon class="cls-7" points="627.88 89.64 627.77 89.72 627.93 89.83 627.98 89.73 627.88 89.64 627.88 89.64"/><polygon class="cls-7" points="630.84 88.89 630.89 88.99 630.96 88.89 630.84 88.89 630.84 88.89"/><polygon class="cls-4" points="612.23 67.04 612.09 67.09 612.36 67.11 612.23 67.04 612.23 67.04"/><polygon class="cls-4" points="615.88 81.7 615.76 81.75 615.99 81.76 615.88 81.7 615.88 81.7"/><polygon class="cls-5" points="634.9 92.87 634.87 92.97 635 92.9 634.9 92.87 634.9 92.87"/><polygon class="cls-5" points="638.27 98.32 638.16 98.41 638.25 98.5 638.41 98.36 638.27 98.32 638.27 98.32"/><path class="cls-1" d="M10.43,20.27c3.23-1.13,13.7,6.33,18,7.78a76.15,76.15,0,0,1,10,4.19c2.3,1.08,3.43.56,4.08,0s.83-1.08,1.24.21c.9,2.89,14.8,1.34,17.53,6.67S41.88,45.33,40.92,50.67,42,67.81,38.2,68.92c-2.54.75-9.74-12-13.11-14.35s-24-.74-23.68-6.52c.43-7.41,18.11-4.7,15.43-12-2.94-7.95-9.6-14.7-6.41-15.81"/><path class="cls-2" d="M60.63,38.91h0c-.07-.59-1.39-5.15-1.39-5.15l-1.84-.27L52.23,35l.14.21c-4.29-.64-8.71-.83-9.2-2.11-.59-1.53,1.53-8.41.6-12.44v0c-.17-1-1.55-5.8-1.55-5.8L39.6,18.32l.14.2c-3.43,2.59-8.15,12-11.67,11.05s-11.55-5.39-15.83-6.18h0L10,18.48l-1.85.83s1.32,5.06,1.44,5.43h0c.59,2.17,4.88,6.43,7.07,11.25,1.59,3.48-4,4.1-8.86,5.31l-.12-1.07L0,40.56s1.17,4.54,1.47,5.53l0,0c1.3,4,20.07,2.85,23.25,4.66s10.4,14.39,12.9,13.8c3.74-.89.83-11.43,1.78-15.69s22-6,21.19-10"/><path class="cls-3" d="M8.89,18c3.18-.9,13.5,5.06,17.76,6.22,2.12.58,4.68-2.62,7.13-5.82s4.84-6.45,6.53-5.8c4.63,1.78.66,13.15,1.44,15.17.89,2.31,14.59,1.07,17.27,5.33S39,39.28,38,43.55,40,58.35,36.24,59.24c-2.5.59-9.59-11.9-12.91-13.8S-.32,44.85,0,40.23c.42-5.92,17.85-3.76,15.2-9.57C12.31,24.31,5.75,18.91,8.89,18"/><path class="cls-4" d="M9.93,18.72v2.53a1.73,1.73,0,0,0,.61-2.05c0-.18-.4-.33-.61-.48"/><polyline class="cls-5" points="39.18 12.68 39.18 12.68 39.18 12.68 39.18 12.68"/><path class="cls-4" d="M39.18,12.68h0c.07.79.07.79,1.17,1,.26-.43-.26-.66-.43-1h-.74"/><path class="cls-4" d="M4,37.69v1.13h.22c.38,0,.63-.14.69-.48s-.13-.54-.55-.63l-.36,0"/><path class="cls-4" d="M3,39.69V41.1c.14-.07.35-.11.4-.2A.82.82,0,0,0,3,39.69"/><path class="cls-5" d="M0,58.3v.56l.44-.18L0,58.3"/><path class="cls-5" d="M34.38,12.67h0Z"/><path class="cls-4" d="M15.85,34.1a.6.6,0,0,0-.39.17c.16.42.48.9.1,1.39-.22.3-.34.67.09.86a.84.84,0,0,0,.33.06,2.55,2.55,0,0,0,.69-.11,7.42,7.42,0,0,0,1.12-.57c-.64-.65-1.12-1.17-1.64-1.67a.46.46,0,0,0-.3-.13"/><path class="cls-6" d="M51.85,40.64a1.76,1.76,0,0,0-.77.17c0,.11-.12.2-.11.28a1.67,1.67,0,0,0,.15.54c.23.47.53.71.88.71h.1a1.15,1.15,0,0,0,1-.75c.16-.35,0-.67-.45-.81a2.32,2.32,0,0,0-.77-.14"/><path class="cls-4" d="M32.37,54.15a2.31,2.31,0,0,0-.37,0c-.29,0-.58.15-.51.45l1.84,1.19a6.45,6.45,0,0,0,.82-.46.35.35,0,0,0,0-.62,3.06,3.06,0,0,0-1.78-.59"/><path class="cls-4" d="M38.9,16.5a1.94,1.94,0,0,0-.33,0c-.1.48-.2,1-.31,1.57l1.71.39a13,13,0,0,0-.2-1.45c-.09-.34-.37-.53-.87-.53"/><path class="cls-6" d="M25.43,49a2,2,0,0,0-.49.19c.09.23.09.41.2.49a12.12,12.12,0,0,0,1.4.85.78.78,0,0,0,.83-.09.45.45,0,0,0-.12-.74A17.09,17.09,0,0,0,25.48,49h-.05"/><path class="cls-6" d="M8,43.62a1.57,1.57,0,0,0,.5.2l.14-.13L8,43.62"/><path class="cls-4" d="M8.29,42.34a.73.73,0,0,0-.41.12.71.71,0,0,0-.25.6.73.73,0,0,0,.33.56l.64.07a2.1,2.1,0,0,0,.52-.56c.08-.16-.09-.44-.27-.59a.87.87,0,0,0-.56-.2"/><path class="cls-4" d="M30.53,43.11a2,2,0,0,0-.41,0c-.24.49.05.85.36,1.19a.69.69,0,0,0,.51.17,1.08,1.08,0,0,0,.64-.2.51.51,0,0,0,0-.87,2,2,0,0,0-1.08-.34"/><path class="cls-6" d="M37.8,59.71h-.11c-.21.06-.5.11-.58.23s0,.36.14.48a8.44,8.44,0,0,0,1,.61,3.89,3.89,0,0,0,.45-.56c.23-.47,0-.71-.6-.75l-.25,0"/><path class="cls-4" d="M21.18,31.09c-.26,1-.25,1,.64,1.42.4-1.14.36-1.24-.64-1.42"/><path class="cls-4" d="M28.13,30.92a1.6,1.6,0,0,0-.73.21,1,1,0,0,0,.81.94l.17,0a1.39,1.39,0,0,0,.62-.16c.26-.15.22-.42,0-.61a1.31,1.31,0,0,0-.89-.4"/><path class="cls-4" d="M28,35.62l-.14,0a2.33,2.33,0,0,0-.61.43,5.7,5.7,0,0,0,.33.59.61.61,0,0,0,.52.23l.26,0c.39-.09.6-.34.48-.64a1,1,0,0,0-.35-.47,1.11,1.11,0,0,0-.49-.13"/><path class="cls-6" d="M18.22,45.72c-.17.44-.39.7-.29.83a3,3,0,0,0,1.54,1.07c0-.78-.49-1.21-1.25-1.9"/><path class="cls-6" d="M2.41,43.27l-.17,0c-.16.07-.33.32-.29.45a.87.87,0,0,0,1,.63,3.37,3.37,0,0,0,.5,0,5,5,0,0,0-.56-.93.78.78,0,0,0-.45-.12"/><path class="cls-4" d="M37.7,35.71a.89.89,0,0,0-.41.15l0,.26a1.7,1.7,0,0,0,1.25.87c.17-.77-.05-1.15-.77-1.28h0"/><path class="cls-4" d="M55.72,31.14c0,1,0,1,1.36,1.33a1.71,1.71,0,0,0-1.36-1.33m0,0h0"/><path class="cls-6" d="M40,44.92a.62.62,0,0,0-.56.41l.79.87c.49-.89.5-1.06.07-1.22a.84.84,0,0,0-.3-.06"/><path class="cls-4" d="M8.88,38.71a.51.51,0,0,0-.38.2.36.36,0,0,0,.16.35,1.47,1.47,0,0,0,.66.17,1.3,1.3,0,0,0,1-.47c-.46-.09-.91-.2-1.38-.25h0"/><path class="cls-6" d="M42.44,20.45c0,.29-.06.57-.1.85.22-.06.29-.16.29-.34a.75.75,0,0,0-.19-.51"/><path class="cls-4" d="M41.81,20.21h0c-.34,0-.53.27-.48.75a1.19,1.19,0,0,0,.17.36l.2.05a2.92,2.92,0,0,0,.64-.07c0-.28.07-.56.1-.85a.88.88,0,0,0-.63-.24"/><path class="cls-4" d="M54.23,33.63h-.09a2.39,2.39,0,0,0-.67.33,3.4,3.4,0,0,0,.78.59l.16,0a.58.58,0,0,0,.51-.36c.11-.27-.27-.58-.69-.58"/><path class="cls-4" d="M35.78,52.3c-.07,0-.16.11-.26.19a1.58,1.58,0,0,0,.8,1l.19,0,.14,0c.09,0,.2-.12.21-.2.08-.57-.29-.91-1.08-1h0"/><path class="cls-4" d="M42.4,33.64c.38.7.49.92.85.92a3.65,3.65,0,0,0,.66-.1,4.29,4.29,0,0,0-.72-.75.7.7,0,0,0-.39-.07h-.4"/><path class="cls-4" d="M21.68,23.07c-.17.14-.37.24-.36.32a1.36,1.36,0,0,0,.24.63L22,24a.9.9,0,0,0,.2-.6c0-.13-.31-.23-.52-.37"/><path class="cls-4" d="M33.64,24.43h0c.31.43.5.72.71,1a.42.42,0,0,0,.34.18l.25-.09a.37.37,0,0,0,.15-.36c-.16-.41-.47-.72-1.41-.72"/><path class="cls-4" d="M40,25.36l-.15,0c-.39.2-.27.49-.09.74s.26.19.41.3c.16-.09.36-.14.43-.25.2-.28.08-.55-.25-.73a.75.75,0,0,0-.35-.08"/><path class="cls-4" d="M43.11,31.53H43c-.1.11-.33.26-.42.45s.25.38.59.38h0c.35,0,.59-.18.56-.42s-.25-.41-.63-.41"/><path class="cls-6" d="M56.14,37.15a2.57,2.57,0,0,0-.74.2l1.28.84c-.1-.75-.2-1-.54-1"/><path class="cls-4" d="M31.67,26.42c-.2.25-.38.38-.41.53s.29.52.67.52h0c.32,0,.64-.25.5-.44a4.16,4.16,0,0,0-.76-.61"/><path class="cls-4" d="M36.37,26.19c-.23.16-.46.25-.53.39s.15.57.45.63h.08c.28,0,.65-.28.56-.5s-.33-.32-.56-.53"/><path class="cls-5" d="M47.18,52.3a1.07,1.07,0,0,0,.94.92c.23-.68.19-.72-.94-.92"/><path class="cls-4" d="M24.61,33.08a1.68,1.68,0,0,0-.19.5c0,.07.18.15.28.22a1.75,1.75,0,0,0,.38-.39s-.22-.16-.47-.33"/><path class="cls-4" d="M39.48,31.94l-.17,0a6,6,0,0,0-.45.55l.23.14c.4,0,.47-.24.5-.47l-.11-.25Z"/><path class="cls-4" d="M54.53,31a1.79,1.79,0,0,0-.85.22,4.72,4.72,0,0,0,.62.16h.05c.46-.06.91-.18,1.36-.28h0l-.21,0a2.54,2.54,0,0,1-.45-.06,2.75,2.75,0,0,0-.52-.06"/><path class="cls-4" d="M14.91,24.34l-.14.21a6.17,6.17,0,0,0,.43.46l.24-.08a3.32,3.32,0,0,0-.22-.55l-.31,0Z"/><path class="cls-6" d="M48.91,40.81c-.21.09-.36.11-.39.17-.13.23.12.6.41.6h0c.11,0,.32-.19.3-.25a2.4,2.4,0,0,0-.33-.52"/><path class="cls-4" d="M51.11,35.8l-.14,0a2.52,2.52,0,0,0,.1.46l.13.07.08-.11a2.65,2.65,0,0,0-.17-.44"/><path class="cls-6" d="M53.36,38.59c-.06.13-.11.18-.1.21a1,1,0,0,0,.17.36h0l.27,0c-.06-.13-.11-.25-.17-.37s-.07-.07-.2-.17"/><path class="cls-4" d="M36.22,55.6l-.24,0c.06.1.12.19.17.29l.26-.11-.14-.21h-.05"/><path class="cls-4" d="M24.41,40.06c-.14.06-.29.1-.3.14l.12.24h0l.26-.05c0-.11-.07-.22-.12-.34"/><path class="cls-4" d="M51.49,34.68a2.22,2.22,0,0,0-.23.22l.27.29L51.7,35a1.11,1.11,0,0,0-.21-.32"/><path class="cls-4" d="M15.8,28.43l-.39.17c.11.13.22.27.34.4l.26-.12a3,3,0,0,0-.21-.45"/><path class="cls-5" d="M16,58l-.35.06.08.24a.93.93,0,0,0,.31,0c0-.11,0-.22,0-.34"/><path class="cls-4" d="M16.18,39.48l-.18.16a4.08,4.08,0,0,0,.33.25l.24-.24a1.92,1.92,0,0,0-.39-.17"/><polygon class="cls-4" points="32.6 32.26 32.48 32.29 32.54 32.38 32.66 32.36 32.6 32.26 32.6 32.26"/><path class="cls-4" d="M23.66,25.87h-.14l0,.2.3,0-.14-.19Z"/><polygon class="cls-4" points="30.16 40.13 30.05 40.2 30.21 40.39 30.33 40.32 30.16 40.13 30.16 40.13"/><path class="cls-7" d="M49.25,44.92,49,45l.05.11a1.18,1.18,0,0,0,.28,0l0-.22Z"/><polygon class="cls-6" points="43.41 42.79 43.27 42.99 43.39 43.07 43.62 42.95 43.41 42.79 43.41 42.79"/><path class="cls-6" d="M14.1,46.46l-.25.19.35.23.17-.17a1.31,1.31,0,0,0-.27-.25"/><polyline class="cls-5" points="1.68 49.23 1.61 49.32 1.69 49.44 1.78 49.4 1.68 49.23"/><polygon class="cls-7" points="1.75 49.13 1.68 49.23 1.78 49.4 1.94 49.32 1.75 49.13 1.75 49.13"/><polygon class="cls-4" points="1.18 39.49 1.05 39.55 1.16 39.62 1.29 39.57 1.18 39.49 1.18 39.49"/><polygon class="cls-5" points="41.07 57.89 40.96 57.93 41.07 57.97 41.07 57.89 41.07 57.89"/><polygon class="cls-4" points="41.58 35.16 41.54 35.34 41.63 35.26 41.58 35.16 41.58 35.16"/><polygon class="cls-7" points="45.21 46.61 45.11 46.69 45.26 46.8 45.31 46.7 45.21 46.61 45.21 46.61"/><polygon class="cls-7" points="48.17 45.86 48.23 45.96 48.29 45.86 48.17 45.86 48.17 45.86"/><polygon class="cls-4" points="29.57 24.01 29.43 24.06 29.69 24.08 29.57 24.01 29.57 24.01"/><polygon class="cls-4" points="33.22 38.67 33.1 38.72 33.32 38.74 33.22 38.67 33.22 38.67"/><polygon class="cls-5" points="52.24 49.84 52.2 49.94 52.33 49.87 52.24 49.84 52.24 49.84"/><polygon class="cls-5" points="55.61 55.29 55.49 55.38 55.59 55.47 55.75 55.33 55.61 55.29 55.61 55.29"/><path class="cls-1" d="M126.22,14.33c3.24-1.13,13.7,6.32,18,7.78a77.75,77.75,0,0,1,10,4.18c2.29,1.09,3.42.57,4.08.05s.83-1.09,1.23.21c.91,2.89,14.8,1.33,17.53,6.67s-19.43,6.17-20.39,11.5S157.78,61.87,154,63c-2.54.74-9.74-12-13.1-14.36s-24-.74-23.68-6.51c.42-7.41,18.11-4.7,15.42-12-2.93-7.94-9.59-14.69-6.41-15.8"/><path class="cls-2" d="M176.42,33v0c-.08-.59-1.4-5.15-1.4-5.15l-1.84-.26L168,29.08l.15.21c-4.3-.64-8.71-.83-9.2-2.11-.59-1.53,1.53-8.42.59-12.44v-.05c-.17-1-1.55-5.8-1.55-5.8l-2.62,3.49.15.2c-3.44,2.59-8.15,12-11.67,11s-11.55-5.4-15.84-6.18h0l-2.31-4.91-1.85.84s1.32,5.05,1.45,5.43h0c.58,2.17,4.88,6.43,7.07,11.25,1.58,3.48-4,4.1-8.87,5.3l-.11-1.06-7.63.33s1.17,4.53,1.47,5.53l0,0c1.31,4,20.07,2.84,23.25,4.66S151,59.22,153.46,58.62c3.73-.88.83-11.42,1.78-15.69.91-4.11,22-6,21.18-10"/><path class="cls-3" d="M124.68,12.08c3.19-.9,13.5,5.06,17.76,6.22,2.13.58,4.68-2.62,7.13-5.82s4.84-6.46,6.53-5.8c4.63,1.78.66,13.14,1.44,15.17.89,2.31,14.59,1.07,17.28,5.33s-20.06,6.16-21,10.42,2,14.81-1.77,15.7c-2.51.59-9.6-11.91-12.91-13.8s-23.66-.59-23.33-5.21c.41-5.92,17.84-3.76,15.2-9.57-2.89-6.36-9.46-11.75-6.32-12.64"/><path class="cls-4" d="M125.72,12.77v2.54a1.71,1.71,0,0,0,.61-2.06c0-.18-.39-.32-.61-.48"/><polyline class="cls-5" points="154.97 6.73 154.97 6.73 154.98 6.73 154.97 6.73"/><path class="cls-4" d="M155,6.73h0c.07.79.07.79,1.17,1,.26-.43-.26-.66-.43-1H155"/><path class="cls-4" d="M119.8,31.75v1.13H120c.37,0,.63-.14.68-.49s-.13-.54-.55-.62c-.11,0-.24,0-.36,0"/><path class="cls-4" d="M118.76,33.74c0,.47,0,.94,0,1.41.14-.06.35-.1.4-.2.27-.47.14-.88-.39-1.21"/><path class="cls-5" d="M115.8,52.35v.57l.43-.18-.43-.39"/><path class="cls-5" d="M150.17,6.73h0Z"/><path class="cls-4" d="M131.64,28.16a.57.57,0,0,0-.39.17c.16.42.49.89.11,1.39-.23.3-.34.67.08.86a.86.86,0,0,0,.34.06,2.55,2.55,0,0,0,.68-.12,6.87,6.87,0,0,0,1.12-.56c-.63-.65-1.12-1.17-1.64-1.67a.4.4,0,0,0-.3-.13"/><path class="cls-6" d="M167.65,34.7a1.76,1.76,0,0,0-.77.17c0,.11-.13.2-.12.28a2.07,2.07,0,0,0,.15.54c.23.46.54.71.89.71h.09a1.14,1.14,0,0,0,1-.75c.16-.34,0-.66-.44-.81a2.65,2.65,0,0,0-.77-.13"/><path class="cls-4" d="M148.16,48.21l-.37,0c-.28,0-.58.16-.51.46l1.84,1.19a6.63,6.63,0,0,0,.83-.47.36.36,0,0,0,0-.62,3,3,0,0,0-1.78-.58"/><path class="cls-4" d="M154.69,10.55l-.33,0c-.09.48-.19,1-.31,1.57l1.72.38a12.84,12.84,0,0,0-.2-1.44c-.09-.35-.37-.54-.88-.54"/><path class="cls-6" d="M141.23,43.08a2.1,2.1,0,0,0-.5.19c.09.23.09.41.2.49a14.09,14.09,0,0,0,1.4.85.85.85,0,0,0,.35.08.77.77,0,0,0,.49-.17.47.47,0,0,0-.12-.75c-.57-.25-1.17-.49-1.78-.69h0"/><path class="cls-6" d="M123.76,37.68a1.52,1.52,0,0,0,.49.19l.14-.12-.63-.07"/><path class="cls-4" d="M124.08,36.4a.74.74,0,0,0-.41.11.69.69,0,0,0-.24.61.68.68,0,0,0,.33.56l.63.07a2,2,0,0,0,.53-.57c.07-.15-.1-.44-.28-.58a.83.83,0,0,0-.56-.2"/><path class="cls-4" d="M146.32,37.17a2,2,0,0,0-.41,0c-.24.5.05.86.36,1.19a.71.71,0,0,0,.51.18,1.08,1.08,0,0,0,.64-.2.51.51,0,0,0,0-.87,2,2,0,0,0-1.08-.34"/><path class="cls-6" d="M153.6,53.76l-.12,0c-.21,0-.5.11-.58.23s0,.36.15.47a8.06,8.06,0,0,0,.94.62,4.33,4.33,0,0,0,.45-.56c.23-.47,0-.71-.6-.76l-.24,0"/><path class="cls-4" d="M137,25.15c-.26,1-.25,1,.63,1.41.4-1.14.36-1.23-.63-1.41"/><path class="cls-4" d="M143.92,25a1.49,1.49,0,0,0-.73.21,1.06,1.06,0,0,0,.81.93l.18,0a1.31,1.31,0,0,0,.61-.15c.27-.15.22-.43,0-.61a1.27,1.27,0,0,0-.89-.4"/><path class="cls-4" d="M143.78,29.68l-.14,0a2.12,2.12,0,0,0-.61.43,4.58,4.58,0,0,0,.33.58.62.62,0,0,0,.52.24l.26,0c.39-.09.6-.35.48-.64a.94.94,0,0,0-.34-.47,1.12,1.12,0,0,0-.5-.13"/><path class="cls-6" d="M134,39.78c-.17.44-.39.7-.3.83a3,3,0,0,0,1.54,1.07c0-.78-.49-1.21-1.24-1.9"/><path class="cls-6" d="M118.2,37.32l-.16,0c-.17.06-.34.31-.3.44a.88.88,0,0,0,1,.63,3.13,3.13,0,0,0,.5,0,4.66,4.66,0,0,0-.56-.93.69.69,0,0,0-.45-.13"/><path class="cls-4" d="M153.5,29.77a.89.89,0,0,0-.41.15l0,.26a1.72,1.72,0,0,0,1.26.87c.16-.77-.06-1.15-.78-1.28h0"/><path class="cls-4" d="M171.51,25.19c0,1,0,1,1.37,1.33a1.73,1.73,0,0,0-1.37-1.33m0,0h0"/><path class="cls-6" d="M155.75,39a.61.61,0,0,0-.57.41l.79.86c.49-.89.5-1,.07-1.21a.79.79,0,0,0-.29-.06"/><path class="cls-4" d="M124.67,32.76a.53.53,0,0,0-.38.2.33.33,0,0,0,.17.35,1.49,1.49,0,0,0,.66.18,1.27,1.27,0,0,0,.95-.48c-.46-.08-.91-.19-1.38-.24h0"/><path class="cls-6" d="M158.23,14.51l-.09.85c.22-.06.29-.16.29-.34a.8.8,0,0,0-.2-.51"/><path class="cls-4" d="M157.61,14.26h0c-.35,0-.54.28-.49.76a1.16,1.16,0,0,0,.18.35l.2.05a4.08,4.08,0,0,0,.64-.06l.09-.85a.84.84,0,0,0-.62-.25"/><path class="cls-4" d="M170,27.68h-.09a2.77,2.77,0,0,0-.67.32,2.91,2.91,0,0,0,.78.59l.16,0a.55.55,0,0,0,.51-.37c.11-.26-.27-.58-.69-.58"/><path class="cls-4" d="M151.57,46.36c-.07,0-.16.11-.26.18a1.59,1.59,0,0,0,.81,1l.19,0,.14,0a.33.33,0,0,0,.2-.2c.08-.57-.29-.92-1.07-1h0"/><path class="cls-4" d="M158.19,27.69c.38.71.5.93.85.93a3.23,3.23,0,0,0,.67-.11,5.15,5.15,0,0,0-.72-.75.89.89,0,0,0-.4-.06h-.4"/><path class="cls-4" d="M137.48,17.13c-.17.14-.38.24-.37.32a1.42,1.42,0,0,0,.25.63h.44a.93.93,0,0,0,.19-.6c0-.13-.3-.22-.51-.36"/><path class="cls-4" d="M149.43,18.48h0c.31.44.5.72.71,1a.45.45,0,0,0,.34.18l.25-.09a.38.38,0,0,0,.16-.36c-.17-.42-.48-.73-1.42-.73"/><path class="cls-4" d="M155.76,19.41l-.16,0c-.38.2-.27.49-.09.74a2,2,0,0,0,.41.29,1.5,1.5,0,0,0,.44-.24c.2-.29.08-.56-.25-.74a1,1,0,0,0-.35-.08"/><path class="cls-4" d="M158.91,25.59h-.12a1.78,1.78,0,0,0-.42.44c-.09.19.26.39.6.39h0c.34,0,.58-.19.56-.43s-.25-.4-.63-.4"/><path class="cls-6" d="M171.94,31.21a2.32,2.32,0,0,0-.75.2l1.29.83c-.1-.75-.2-1-.54-1"/><path class="cls-4" d="M147.46,20.47c-.19.25-.37.39-.41.54s.29.51.67.52h0c.31,0,.63-.25.49-.45a4.73,4.73,0,0,0-.76-.61"/><path class="cls-4" d="M152.16,20.24c-.23.17-.45.25-.53.39s.15.58.46.64h.07c.29,0,.65-.27.56-.49s-.32-.32-.56-.54"/><path class="cls-5" d="M163,46.36a1.09,1.09,0,0,0,.95.92c.22-.69.18-.73-.95-.92"/><path class="cls-4" d="M140.4,27.13a1.63,1.63,0,0,0-.19.51c0,.07.18.15.28.22a2.39,2.39,0,0,0,.39-.39s-.23-.16-.48-.34"/><path class="cls-4" d="M155.27,26l-.17,0a5.58,5.58,0,0,0-.44.55l.23.14c.4,0,.46-.24.49-.47l-.11-.24Z"/><path class="cls-4" d="M170.32,25.1a1.85,1.85,0,0,0-.84.21,3.25,3.25,0,0,0,.61.16h0c.46-.07.91-.18,1.37-.28h0l-.2,0a2.53,2.53,0,0,1-.46-.06,4,4,0,0,0-.52,0"/><path class="cls-4" d="M130.71,18.4l-.14.2a3.8,3.8,0,0,0,.43.47l.24-.09a3.65,3.65,0,0,0-.23-.54l-.3,0Z"/><path class="cls-6" d="M164.7,34.87c-.21.08-.36.1-.39.16a.48.48,0,0,0,.41.61h0c.11,0,.32-.19.3-.26a2.21,2.21,0,0,0-.33-.51"/><path class="cls-4" d="M166.91,29.86l-.15,0a3.63,3.63,0,0,0,.1.45l.13.08.09-.11c-.05-.15-.11-.3-.17-.44"/><path class="cls-6" d="M169.16,32.65c-.07.13-.12.17-.11.21a1.69,1.69,0,0,0,.17.36h0l.27,0a2.92,2.92,0,0,0-.17-.36s-.07-.07-.19-.17"/><path class="cls-4" d="M152,49.66l-.23,0L152,50l.25-.11-.14-.21H152"/><path class="cls-4" d="M140.21,34.12c-.15.06-.3.09-.31.14l.12.24h0l.25-.06-.11-.33"/><path class="cls-4" d="M167.28,28.73l-.23.22.27.3.17-.2a1.17,1.17,0,0,0-.21-.32"/><path class="cls-4" d="M131.59,22.49l-.38.16a4.39,4.39,0,0,0,.33.4l.26-.12a2.2,2.2,0,0,0-.21-.44"/><path class="cls-5" d="M131.78,52l-.35.06.09.23c.06.05.2,0,.3.05s0-.22,0-.34"/><path class="cls-4" d="M132,33.54l-.19.16a2.93,2.93,0,0,0,.34.24l.24-.23a2.57,2.57,0,0,0-.39-.17"/><polygon class="cls-4" points="148.4 26.32 148.27 26.35 148.33 26.44 148.45 26.41 148.4 26.32 148.4 26.32"/><path class="cls-4" d="M139.45,19.93h-.14v.2l.29,0-.14-.18Z"/><polygon class="cls-4" points="145.96 34.18 145.85 34.26 146.01 34.45 146.12 34.37 145.96 34.18 145.96 34.18"/><path class="cls-7" d="M165.05,39l-.29.07.05.11.28,0,0-.22Z"/><polygon class="cls-6" points="159.2 36.85 159.07 37.05 159.18 37.13 159.42 37 159.2 36.85 159.2 36.85"/><path class="cls-6" d="M129.9,40.52l-.26.19.35.23.17-.18a1.21,1.21,0,0,0-.26-.24"/><polyline class="cls-5" points="117.47 43.29 117.41 43.38 117.48 43.49 117.57 43.45 117.47 43.29"/><polygon class="cls-7" points="117.55 43.19 117.47 43.29 117.57 43.45 117.74 43.38 117.55 43.19 117.55 43.19"/><polygon class="cls-4" points="116.98 33.55 116.84 33.6 116.95 33.67 117.09 33.62 116.98 33.55 116.98 33.55"/><polygon class="cls-5" points="156.87 51.95 156.75 51.98 156.86 52.02 156.87 51.95 156.87 51.95"/><polygon class="cls-4" points="157.37 29.22 157.34 29.4 157.42 29.32 157.37 29.22 157.37 29.22"/><polygon class="cls-7" points="161.01 40.67 160.9 40.75 161.06 40.86 161.1 40.75 161.01 40.67 161.01 40.67"/><polygon class="cls-7" points="163.96 39.91 164.02 40.02 164.09 39.92 163.96 39.91 163.96 39.91"/><polygon class="cls-4" points="145.36 18.07 145.22 18.12 145.49 18.14 145.36 18.07 145.36 18.07"/><polygon class="cls-4" points="149.01 32.73 148.89 32.78 149.11 32.79 149.01 32.73 149.01 32.73"/><polygon class="cls-5" points="168.03 43.9 167.99 43.99 168.13 43.93 168.03 43.9 168.03 43.9"/><polygon class="cls-5" points="171.4 49.35 171.28 49.44 171.38 49.53 171.54 49.39 171.4 49.35 171.4 49.35"/><path class="cls-1" d="M78.94,24c1.7-.59,7.2,3.33,9.47,4.09a40.33,40.33,0,0,1,5.26,2.2c1.21.57,1.8.3,2.14,0s.44-.58.65.11c.48,1.51,7.78.7,9.21,3.5S95.46,37.21,95,40s.56,9-1.43,9.59c-1.33.4-5.12-6.29-6.88-7.54S74,41.67,74.21,38.64c.22-3.89,9.51-2.47,8.1-6.29-1.54-4.18-5-7.72-3.37-8.31"/><path class="cls-2" d="M105.32,33.84h0c0-.31-.73-2.71-.73-2.71l-1-.14-2.72.81.08.11c-2.26-.33-4.58-.43-4.84-1.1s.81-4.42.32-6.54v0c-.09-.53-.82-3-.82-3L94.27,23l.07.1c-1.8,1.36-4.28,6.31-6.13,5.81s-6.07-2.83-8.32-3.25h0L78.69,23.1l-1,.44s.69,2.66.76,2.85h0c.31,1.14,2.57,3.38,3.72,5.91.83,1.83-2.12,2.16-4.66,2.79l-.06-.56-4,.17s.62,2.39.77,2.91h0c.69,2.08,10.55,1.5,12.22,2.45s5.47,7.56,6.78,7.25c2-.47.44-6,.93-8.25s11.58-3.16,11.14-5.23"/><path class="cls-3" d="M78.13,22.86c1.68-.47,7.09,2.66,9.33,3.27,1.12.3,2.46-1.38,3.75-3.06s2.54-3.39,3.43-3.05c2.43.94.35,6.91.76,8s7.66.56,9.07,2.8-10.53,3.23-11,5.47,1,7.78-.94,8.25c-1.31.31-5-6.26-6.78-7.25S73.29,37,73.46,34.53c.22-3.11,9.38-2,8-5-1.52-3.34-5-6.17-3.32-6.64"/><path class="cls-4" d="M78.68,23.23v1.33A.92.92,0,0,0,79,23.48c0-.09-.21-.17-.32-.25"/><polyline class="cls-5" points="94.05 20.05 94.05 20.05 94.05 20.05 94.05 20.05"/><path class="cls-4" d="M94.05,20.05h0c0,.41,0,.41.61.51.14-.22-.14-.35-.23-.52h-.38"/><path class="cls-4" d="M75.57,33.2v.59h.12a.32.32,0,0,0,.36-.26c0-.17-.07-.28-.29-.33h-.19"/><path class="cls-4" d="M75,34.24V35l.21-.1c.14-.25.07-.46-.21-.64"/><path class="cls-5" d="M73.46,44v.3l.23-.1-.23-.2"/><polygon class="cls-5" points="91.53 20.05 91.33 20.05 91.53 20.05 91.53 20.05"/><path class="cls-4" d="M81.79,31.31l-.21.09c.09.22.26.47.06.73s-.18.35,0,.45l.17,0a1,1,0,0,0,.36-.06,4.55,4.55,0,0,0,.59-.29c-.34-.35-.59-.62-.86-.88l-.16-.07"/><path class="cls-6" d="M100.71,34.75a.85.85,0,0,0-.41.09l-.06.14a1,1,0,0,0,.08.29c.12.24.28.37.46.37h.06a.59.59,0,0,0,.5-.4c.09-.18,0-.35-.23-.42a1.16,1.16,0,0,0-.4-.07"/><path class="cls-4" d="M90.47,41.85h-.2c-.15,0-.3.08-.26.24l1,.62a4.56,4.56,0,0,0,.44-.24.19.19,0,0,0,0-.33,1.59,1.59,0,0,0-.93-.3"/><path class="cls-4" d="M93.9,22.06h-.18l-.16.83.9.2a5.2,5.2,0,0,0-.1-.76c0-.18-.2-.28-.46-.28"/><path class="cls-6" d="M86.83,39.15l-.26.1c0,.12,0,.21.1.25a4.56,4.56,0,0,0,.74.45l.18,0,.25-.09a.25.25,0,0,0-.06-.4q-.45-.19-.93-.36h0"/><path class="cls-6" d="M77.65,36.31a.64.64,0,0,0,.26.1l.07-.06-.33,0"/><path class="cls-4" d="M77.82,35.64l-.22.06a.38.38,0,0,0,.05.61l.33,0a1.14,1.14,0,0,0,.28-.3c0-.08-.06-.23-.15-.31a.51.51,0,0,0-.29-.1"/><path class="cls-4" d="M89.5,36l-.22,0c-.12.26,0,.45.2.62a.31.31,0,0,0,.26.09.57.57,0,0,0,.34-.1.28.28,0,0,0,0-.46A1,1,0,0,0,89.5,36"/><path class="cls-6" d="M93.32,44.76h-.06c-.11,0-.26.06-.3.12l.07.25a4.43,4.43,0,0,0,.5.32,2.24,2.24,0,0,0,.24-.29c.12-.25,0-.37-.32-.4h-.13"/><path class="cls-4" d="M84.59,29.73c-.13.52-.13.53.34.74.21-.6.18-.65-.34-.74"/><path class="cls-4" d="M88.24,29.64a.77.77,0,0,0-.38.11.56.56,0,0,0,.42.49h.1a.66.66,0,0,0,.32-.08c.14-.08.11-.22,0-.32a.68.68,0,0,0-.47-.21"/><path class="cls-4" d="M88.17,32.11h-.08a1.36,1.36,0,0,0-.32.23c.08.13.11.22.17.3a.34.34,0,0,0,.28.13l.14,0c.2,0,.31-.18.25-.34l-.18-.24-.26-.07"/><path class="cls-6" d="M83,37.41c-.09.24-.21.37-.16.44a1.6,1.6,0,0,0,.81.56c0-.41-.26-.63-.65-1"/><path class="cls-6" d="M74.73,36.12l-.09,0-.15.23a.46.46,0,0,0,.51.33,1.28,1.28,0,0,0,.26,0,3,3,0,0,0-.29-.49l-.24-.07"/><path class="cls-4" d="M93.27,32.16l-.22.08v.13a.89.89,0,0,0,.66.46c.09-.41,0-.61-.4-.67h0"/><path class="cls-4" d="M102.73,29.75c0,.52,0,.52.72.7a.91.91,0,0,0-.72-.7m0,0h0"/><path class="cls-6" d="M94.45,37a.33.33,0,0,0-.29.22l.41.46c.26-.47.27-.56,0-.64l-.16,0"/><path class="cls-4" d="M78.13,33.73l-.2.1L78,34a.79.79,0,0,0,.35.09.66.66,0,0,0,.5-.25c-.24,0-.48-.1-.72-.13h0"/><path class="cls-6" d="M95.76,24.14c0,.15,0,.3-.05.44.11,0,.15-.08.15-.17a.41.41,0,0,0-.1-.27"/><path class="cls-4" d="M95.43,24h0c-.18,0-.28.14-.25.4l.09.18.1,0a2,2,0,0,0,.34,0c0-.14,0-.29.05-.44a.45.45,0,0,0-.33-.13"/><path class="cls-4" d="M102,31.06h0a2.18,2.18,0,0,0-.36.17c.17.13.27.27.41.31l.09,0a.31.31,0,0,0,.27-.19c.05-.14-.15-.31-.37-.31"/><path class="cls-4" d="M92.26,40.87l-.14.1a.83.83,0,0,0,.43.52l.1,0h.07l.11-.11c0-.3-.16-.48-.57-.52h0"/><path class="cls-4" d="M95.74,31.07c.2.37.26.48.45.48a2,2,0,0,0,.34-.05,2.07,2.07,0,0,0-.38-.4l-.2,0h-.21"/><path class="cls-4" d="M84.85,25.52l-.19.16a.68.68,0,0,0,.13.33H85a.49.49,0,0,0,.11-.31c0-.07-.17-.12-.28-.19"/><path class="cls-4" d="M91.14,26.23h0c.17.23.27.38.38.52l.17.1.14-.05.08-.19c-.09-.22-.25-.38-.74-.38"/><path class="cls-4" d="M94.46,26.72h-.08c-.2.11-.15.26,0,.39l.22.15.22-.13c.11-.15,0-.29-.13-.38l-.18,0"/><path class="cls-4" d="M96.11,30h-.06c0,.06-.17.13-.22.23s.14.21.32.21h0c.18,0,.31-.1.3-.23s-.14-.21-.34-.21"/><path class="cls-6" d="M103,32.91a1.17,1.17,0,0,0-.39.11l.67.44c0-.4-.1-.55-.28-.55"/><path class="cls-4" d="M90.1,27.27c-.1.13-.2.2-.21.28s.15.27.35.28h0c.17,0,.33-.13.26-.24a2.63,2.63,0,0,0-.4-.32"/><path class="cls-4" d="M92.57,27.15c-.12.09-.24.13-.28.21s.08.3.24.33h0c.15,0,.34-.14.29-.26s-.17-.17-.29-.28"/><path class="cls-5" d="M98.25,40.87a.58.58,0,0,0,.5.49c.11-.36.09-.39-.5-.49"/><path class="cls-4" d="M86.39,30.77a.83.83,0,0,0-.1.27l.15.11.2-.2s-.12-.09-.25-.18"/><path class="cls-4" d="M94.2,30.18h-.09a3.25,3.25,0,0,0-.23.29l.12.07c.21,0,.24-.12.26-.25l-.06-.12Z"/><path class="cls-4" d="M102.11,29.7a.91.91,0,0,0-.44.12,1.8,1.8,0,0,0,.32.08h0c.25,0,.48-.1.72-.15h-.11l-.24,0a2,2,0,0,0-.27,0"/><path class="cls-4" d="M81.3,26.18l-.08.11.23.25.13-.05a2.52,2.52,0,0,0-.12-.29l-.16,0Z"/><path class="cls-6" d="M99.16,34.84c-.11,0-.19,0-.21.08a.25.25,0,0,0,.22.32h0l.16-.13a1.11,1.11,0,0,0-.17-.27"/><polyline class="cls-4" points="100.32 32.2 100.24 32.21 100.29 32.45 100.36 32.49 100.41 32.44 100.32 32.2"/><polyline class="cls-6" points="101.5 33.67 101.44 33.78 101.53 33.97 101.55 33.97 101.69 33.95 101.6 33.76 101.5 33.67"/><polyline class="cls-4" points="92.49 42.61 92.37 42.63 92.46 42.78 92.59 42.72 92.52 42.61 92.49 42.61"/><polyline class="cls-4" points="86.29 34.44 86.13 34.52 86.19 34.64 86.22 34.65 86.35 34.62 86.29 34.44"/><polyline class="cls-4" points="100.51 31.61 100.39 31.73 100.53 31.88 100.63 31.78 100.51 31.61"/><path class="cls-4" d="M81.76,28.33l-.2.09.18.21.13-.06-.11-.24"/><polyline class="cls-5" points="81.86 43.84 81.68 43.87 81.72 44 81.88 44.02 81.86 43.84"/><polyline class="cls-4" points="81.97 34.14 81.87 34.22 82.05 34.35 82.17 34.23 81.97 34.14"/><polygon class="cls-4" points="90.59 30.35 90.53 30.36 90.56 30.41 90.62 30.39 90.59 30.35 90.59 30.35"/><polygon class="cls-4" points="85.89 26.99 85.82 26.99 85.81 27.1 85.97 27.08 85.89 26.99 85.89 26.99"/><polygon class="cls-4" points="89.31 34.48 89.25 34.52 89.34 34.62 89.4 34.58 89.31 34.48 89.31 34.48"/><polygon class="cls-7" points="99.34 36.99 99.19 37.03 99.22 37.09 99.36 37.11 99.34 36.99 99.34 36.99"/><polygon class="cls-6" points="96.27 35.88 96.2 35.98 96.26 36.02 96.38 35.96 96.27 35.88 96.27 35.88"/><polyline class="cls-6" points="80.87 37.8 80.74 37.91 80.92 38.02 81.01 37.93 80.87 37.8"/><polyline class="cls-5" points="74.35 39.26 74.31 39.31 74.35 39.37 74.4 39.35 74.35 39.26"/><polygon class="cls-7" points="74.39 39.21 74.35 39.26 74.4 39.35 74.48 39.31 74.39 39.21 74.39 39.21"/><polygon class="cls-4" points="74.08 34.14 74.02 34.17 74.07 34.21 74.14 34.18 74.08 34.14 74.08 34.14"/><polygon class="cls-5" points="95.04 43.81 94.98 43.83 95.04 43.85 95.04 43.81 95.04 43.81"/><polygon class="cls-4" points="95.31 31.87 95.29 31.96 95.33 31.92 95.31 31.87 95.31 31.87"/><polygon class="cls-7" points="97.22 37.88 97.16 37.92 97.24 37.98 97.27 37.93 97.22 37.88 97.22 37.88"/><polygon class="cls-7" points="98.77 37.49 98.8 37.54 98.83 37.49 98.77 37.49 98.77 37.49"/><polygon class="cls-4" points="89 26.01 88.92 26.04 89.06 26.05 89 26.01 89 26.01"/><polygon class="cls-4" points="90.91 33.71 90.85 33.74 90.97 33.75 90.91 33.71 90.91 33.71"/><polygon class="cls-5" points="100.91 39.58 100.89 39.63 100.96 39.6 100.91 39.58 100.91 39.58"/><polygon class="cls-5" points="102.68 42.44 102.62 42.49 102.67 42.54 102.75 42.46 102.68 42.44 102.68 42.44"/></g></g></svg>