<svg xmlns="http://www.w3.org/2000/svg" viewBox="0 0 368 60.87"><defs><style>.cls-1{fill:#fff;}</style></defs><title>Asset 52</title><g id="Layer_2" data-name="Layer 2"><g id="Layer_1-2" data-name="Layer 1"><path class="cls-1" d="M97.06,57.79a2.47,2.47,0,0,1-1.52-.36,7.78,7.78,0,0,1-1.69-2.23c-.65-1.13-1.38-2.34-2.08-3.36a1.52,1.52,0,0,1-.28,0l-.54,0v1c0,.51,0,1,0,1.55a5.81,5.81,0,0,0,.19,1.88,1.2,1.2,0,0,0,1.17.81v.54l-.44,0c-.5,0-1.19,0-2.09,0s-1.58,0-2.08,0l-.46,0V57.1a1.23,1.23,0,0,0,.94-.38,1.85,1.85,0,0,0,.39-1,25,25,0,0,0,.07-2.82V49.63a13.75,13.75,0,0,0-.21-3.46c-.13-.51-.53-.72-1.19-.8v-.54a11,11,0,0,0,1.15,0c1,0,1.31,0,2.5-.06s1.63-.06,2.09-.06a4.54,4.54,0,0,1,2.75.65A3.18,3.18,0,0,1,97,47.9a3.8,3.8,0,0,1-2.8,3.52,32,32,0,0,1,2,2.9,15.17,15.17,0,0,0,1.71,2.3,1.4,1.4,0,0,0,.81.48v.54a6.66,6.66,0,0,1-1.59.15m-4.94-12a5.34,5.34,0,0,0-1.15.15c0,1.14,0,3.19,0,4.79a7.34,7.34,0,0,0,.85,0,2.41,2.41,0,0,0,2.63-2.47,2.35,2.35,0,0,0-2.31-2.52Z"/><path class="cls-1" d="M103.37,46l-.74-.44,1.57-2.32,1.82.34L103.37,46Zm3.54,11.38c-.14.24-.3.29-1.17.29-.54,0-1.07,0-1.61,0-.76,0-1.52,0-2.28,0s-1.52,0-2.29,0v-.45a1.11,1.11,0,0,0,1.1-1.17,17.85,17.85,0,0,0,0-1.81V49.72a4.12,4.12,0,0,0-.18-1.55c-.14-.41-.42-.6-1-.67v-.44H107c0,.46,0,.93,0,1.4s0,.74,0,1.12h-.57c-.11-1.22-.63-1.56-2.53-1.56-.34,0-.8,0-1.18,0,0,.62,0,.82,0,1.74v1.84c.24,0,.43,0,.71,0,1.65,0,2.16-.24,2.26-1.1h.57c0,.26,0,.78,0,1.57s0,1.29,0,1.54h-.57c0-.9-.48-1.12-2.12-1.12h-.85c0,1,0,2,0,3,0,.67.11.89.5,1a4.36,4.36,0,0,0,1.09.08c1.71,0,2.32-.38,2.68-1.68l.62.13a10.27,10.27,0,0,1-.65,2.33Z"/><path class="cls-1" d="M113.53,52.93a3.55,3.55,0,0,1-.44,0l-.36-.81c1.5-.09,2.32-.82,2.32-2A2,2,0,0,0,113,47.9a2.82,2.82,0,0,0-.6.06c0,1,0,2,0,2.95v2.78a8.82,8.82,0,0,0,.17,2.84,1,1,0,0,0,1,.66v.45h-.38c-.42,0-1,0-1.75,0s-1.33,0-1.72,0h-.39v-.45a1.11,1.11,0,0,0,1.1-1.17,21.54,21.54,0,0,0,0-2.33v-4a4.12,4.12,0,0,0-.18-1.55,1,1,0,0,0-1-.67v-.44h1.89c.81,0,1.62-.09,2.43-.09,2.25,0,3.6,1.12,3.6,3s-1.54,3-3.63,3"/><path class="cls-1" d="M128,47.85a2.06,2.06,0,0,0-.29,1.19c0,.68,0,1.2,0,2.19,0,.36,0,1.46,0,2.56a3.82,3.82,0,0,1-.64,2.44,4,4,0,0,1-3.52,1.6,4.14,4.14,0,0,1-2.47-.67c-1.11-.71-1.54-1.65-1.54-3.33s0-2.45,0-3a14.31,14.31,0,0,0-.09-2.45c-.1-.57-.4-.8-1.07-.87v-.44h.37c.41,0,1,0,1.76,0s1.35,0,1.76,0h.37v.44c-.5.07-.73.19-.89.46a2.36,2.36,0,0,0-.22,1.25c0,1,0,2,0,3,0,2.72.06,3.25.55,3.82a2.33,2.33,0,0,0,1.79.75,2.4,2.4,0,0,0,2.42-1.6,9.58,9.58,0,0,0,.24-3V50.63c0-1.81-.05-2.37-.23-2.64a1,1,0,0,0-.82-.49v-.44c.63,0,.85,0,1.65,0s1,0,1.66,0v.44a1.06,1.06,0,0,0-.74.35"/><path class="cls-1" d="M137.7,56.9a4.84,4.84,0,0,1-3.2.75c-.86,0-1.73-.06-2.59-.06-.35,0-1,0-1.44,0h-.19v-.45c.74-.06,1-.44,1.09-1.17a20.26,20.26,0,0,0,.06-2.33v-3a8.33,8.33,0,0,0-.17-2.52,1,1,0,0,0-1-.67v-.44c.73,0,1.15,0,2.17,0s2.3-.05,3.22-.05c1.46,0,2.8.7,2.8,2.35,0,1.22-.77,2-2.27,2.43a2.76,2.76,0,0,1,2.56,2.87,2.59,2.59,0,0,1-1.06,2.21m-3.46-9-.85,0c0,1,0,2.81-.06,3.48.17,0,.39,0,.69,0,1.56,0,2.45-.65,2.45-1.79s-.83-1.75-2.23-1.75Zm0,4.43c-.27,0-.55,0-1,0,0,.44,0,.51,0,1.25v.93a5.65,5.65,0,0,0,.14,1.68c.13.4.51.59,1.18.59a1.9,1.9,0,0,0,2.11-2.08,2.27,2.27,0,0,0-2.45-2.41Z"/><path class="cls-1" d="M147.73,57.42c-.15.22-.34.27-1.13.27-.4,0-.81,0-1.21,0-1,0-1.87-.06-2.94-.06-.82,0-1.35,0-1.86,0v-.45a1,1,0,0,0,.78-.31c.28-.34.36-.75.36-1.9,0-.8,0-1.43,0-2.26V51c0-2.14,0-2.42-.18-2.85s-.44-.6-1-.67v-.44H141c.43,0,1,0,1.81,0s1.39,0,1.79,0h.4v.44c-.8,0-1.15.43-1.25,1.19a21.7,21.7,0,0,0,0,2.33v2.65c0,2.21,0,2.48.22,2.7s.51.25,1.2.25a3.43,3.43,0,0,0,1.74-.31,2.09,2.09,0,0,0,.94-1.39l.6.17a11.4,11.4,0,0,1-.65,2.33"/><path class="cls-1" d="M153.24,57.63c-.39,0-1,0-1.72,0s-1.33,0-1.75,0h-.38v-.45c.74-.06,1-.44,1.09-1.17a19.12,19.12,0,0,0,.07-2.33V51c0-.41,0-.84,0-1.3a4.24,4.24,0,0,0-.16-1.55c-.14-.41-.44-.6-1-.67v-.44h.38c.42,0,1,0,1.75,0s1.33,0,1.72,0h.39v.44a1.14,1.14,0,0,0-1.1,1.19,23.1,23.1,0,0,0-.05,2.33v2.67c0,2.08,0,2.43.18,2.84a1,1,0,0,0,1,.66v.45Z"/><path class="cls-1" d="M168.08,60.5a8,8,0,0,1-3.81-1.08,19.2,19.2,0,0,1-2.44-1.69,6.11,6.11,0,0,1-1.26.1,5,5,0,0,1-5.33-5.25,5.42,5.42,0,0,1,5.67-5.71c3.27,0,5.44,2.09,5.44,5.23a5.67,5.67,0,0,1-2.95,5.14c.57.29,1.14.61,1.7.94a7.4,7.4,0,0,0,3.77,1.4,4,4,0,0,0,1.83-.46l.2.55a4.89,4.89,0,0,1-2.82.83M160.58,48c-1.92,0-3.31,1.61-3.31,3.88,0,2.76,1.64,4.94,3.72,4.94s3.33-1.65,3.33-4c0-2.72-1.64-4.86-3.74-4.86Z"/><path class="cls-1" d="M177.34,47.85a2.15,2.15,0,0,0-.28,1.19c0,.68-.05,1.2-.05,2.19,0,.36,0,1.46,0,2.56a3.88,3.88,0,0,1-.63,2.44,4,4,0,0,1-3.52,1.6,4.19,4.19,0,0,1-2.48-.67c-1.11-.71-1.53-1.65-1.53-3.33s0-2.45,0-3a14.31,14.31,0,0,0-.1-2.45c-.09-.57-.4-.8-1.06-.87v-.44h.36c.42,0,1,0,1.77,0s1.34,0,1.76,0H172v.44c-.49.07-.73.19-.89.46a2.58,2.58,0,0,0-.22,1.25c0,1-.05,2-.05,3,0,2.72.07,3.25.56,3.82a2.31,2.31,0,0,0,1.79.75,2.4,2.4,0,0,0,2.41-1.6,9.27,9.27,0,0,0,.24-3V50.63c0-1.81,0-2.37-.22-2.64a1,1,0,0,0-.83-.49v-.44c.64,0,.86,0,1.66,0s1,0,1.66,0v.44a1.09,1.09,0,0,0-.75.35"/><path class="cls-1" d="M187,57.4c-.14.24-.3.29-1.17.29-.55,0-1.07,0-1.6,0-.77,0-1.53,0-2.3,0s-1.51,0-2.28,0v-.45a1.11,1.11,0,0,0,1.1-1.17,17.85,17.85,0,0,0,0-1.81V49.72a4.12,4.12,0,0,0-.18-1.55,1,1,0,0,0-1-.67v-.44h7.43c0,.46,0,.93,0,1.4s0,.74,0,1.12h-.57c-.12-1.22-.64-1.56-2.52-1.56-.35,0-.81,0-1.19,0,0,.62,0,.82,0,1.74v1.84c.24,0,.43,0,.71,0,1.65,0,2.15-.24,2.25-1.1h.58c0,.26,0,.78,0,1.57s0,1.29,0,1.54h-.58c0-.9-.47-1.12-2.11-1.12h-.85c0,1,0,2,0,3,0,.67.12.89.5,1a4.36,4.36,0,0,0,1.09.08c1.71,0,2.32-.38,2.68-1.68l.62.13A10.85,10.85,0,0,1,187,57.4"/><path class="cls-1" d="M201.7,47.92c0-1.38-.83-1.92-3-1.92-.45,0-.87,0-1.35.06,0,1.32,0,2.24,0,4.34.47,0,.69,0,1,0,1.79,0,2.32-.31,2.42-1.35h.69c0,.54,0,1.1,0,1.64,0,.7,0,1.44,0,2.14h-.69c-.13-1.14-.58-1.38-2.59-1.38-.35,0-.49,0-.85,0v2.15c0,.43,0,.89,0,1.38,0,1.06.11,2,1.37,2.06v.54l-.47,0c-.48,0-1.19,0-2.09,0s-1.61,0-2.11,0l-.46,0V57.1a1.35,1.35,0,0,0,1.32-1.42,26.31,26.31,0,0,0,.06-2.82v-4.8a5.31,5.31,0,0,0-.21-1.89,1.2,1.2,0,0,0-1.17-.8v-.54h8.83c0,.36,0,1,0,1.79a10.76,10.76,0,0,0,0,1.3Z"/><path class="cls-1" d="M212.32,57.77a2,2,0,0,1-1.25-.31,6.5,6.5,0,0,1-1.4-1.83c-.54-.94-1.14-1.94-1.71-2.78h-.69v.84c0,.43,0,.85,0,1.29a4.71,4.71,0,0,0,.16,1.55,1,1,0,0,0,1,.66v.45h-.37c-.41,0-1,0-1.73,0s-1.3,0-1.71,0h-.38v-.45a1.06,1.06,0,0,0,.78-.31,1.52,1.52,0,0,0,.31-.86,19.12,19.12,0,0,0,.07-2.33V51a11.38,11.38,0,0,0-.18-2.85c-.11-.43-.44-.6-1-.67v-.44c.32,0,.63,0,1,0,.82,0,1.08,0,2.06,0S208.59,47,209,47a3.69,3.69,0,0,1,2.27.55,2.58,2.58,0,0,1,1,2.07,3.13,3.13,0,0,1-2.31,2.91,25.8,25.8,0,0,1,1.63,2.4A13,13,0,0,0,213,56.8a1.08,1.08,0,0,0,.67.39v.45a6,6,0,0,1-1.32.13m-4.08-9.94a4.16,4.16,0,0,0-1,.13c0,.94,0,2.63,0,3.95a5.24,5.24,0,0,0,.7.05,2,2,0,0,0,2.18-2.05,1.94,1.94,0,0,0-1.91-2.08Z"/><path class="cls-1" d="M223.77,57.63c-.4,0-1,0-1.69,0s-1.32,0-1.72,0H220v-.45c.5,0,.81-.29.81-.74a3,3,0,0,0-.21-.86c-.19-.58-.32-1-.51-1.52H217l-.31.92a6,6,0,0,0-.37,1.51c0,.46.21.66.71.69v.45c-.59,0-.82,0-1.58,0s-1,0-1.57,0v-.45a.72.72,0,0,0,.49-.22,5.64,5.64,0,0,0,1.08-2L217,51.1c.41-1,1-2.69,1.45-4h1.08c.15.49.48,1.26.7,1.84l2.24,5.72a17.43,17.43,0,0,0,.85,1.91,1.23,1.23,0,0,0,.83.66v.45Zm-5.14-7.78c-.41,1.08-1,2.47-1.22,3.25h2.35l-1.13-3.25Z"/><path class="cls-1" d="M235.07,48c-.18.28-.21.55-.24,1.38-.05,1.42-.07,3.65-.07,4.71V56.5c0,.36.05.92.05,1.14h-1.08c-1-1.35-3.17-4-3.17-4l-3.24-4c0,.34,0,.13,0,1.16v1c0,1.19,0,2.37.07,3.55a3,3,0,0,0,.25,1.31.85.85,0,0,0,.86.45v.45c-.56,0-1.13,0-1.68,0s-1.13,0-1.7,0v-.45c1.05,0,1.08-.9,1.11-1.73,0-.66,0-1.21,0-2.23V49.88c0-1.32-.06-1.63-.3-2s-.37-.35-.84-.4v-.44c.52,0,.71,0,1.38,0s.84,0,1.37,0a19.4,19.4,0,0,0,1.58,2c1.56,1.89,2.95,3.49,4.27,5.14V50.73a12.4,12.4,0,0,0-.11-2.39,1,1,0,0,0-1-.84v-.44c.65,0,.87,0,1.68,0s1,0,1.68,0v.44a.88.88,0,0,0-.88.48"/><path class="cls-1" d="M246.14,57.26a8,8,0,0,1-3.19.57l-.15.64h.3a1,1,0,0,1,1,1c0,.86-.69,1.45-1.77,1.45a2.46,2.46,0,0,1-1-.2l.22-.62a1.65,1.65,0,0,0,.58.13c.44,0,.74-.23.74-.62s-.16-.51-.39-.51a.58.58,0,0,0-.35.13l-.35-.1.31-1.28a4.88,4.88,0,0,1-3.27-1.48,5.51,5.51,0,0,1-1.5-4c0-3.42,2.2-5.48,5.84-5.48a10,10,0,0,1,3.07.46c0,.36,0,.73,0,1.08s0,.84,0,1.2h-.61c-.26-1.12-1.16-1.73-2.61-1.73-2.23,0-3.6,1.49-3.6,4,0,2.85,1.61,4.94,3.81,4.94a2.49,2.49,0,0,0,2.6-1.94l.6.13a14.08,14.08,0,0,0-.34,2.28"/><path class="cls-1" d="M257.15,57.63c-.4,0-1,0-1.7,0s-1.32,0-1.71,0h-.37v-.45c.51,0,.81-.29.81-.74a3.24,3.24,0,0,0-.2-.86c-.2-.58-.33-1-.52-1.52h-3l-.32.92a6.27,6.27,0,0,0-.36,1.51c0,.46.2.66.71.69v.45c-.6,0-.83,0-1.59,0s-1,0-1.57,0v-.45a.68.68,0,0,0,.49-.22,5.48,5.48,0,0,0,1.08-2l1.51-3.84c.42-1,1-2.69,1.46-4h1.08c.15.49.47,1.26.7,1.84l2.23,5.72a15.25,15.25,0,0,0,.86,1.91,1.23,1.23,0,0,0,.83.66v.45ZM252,49.85c-.42,1.08-1,2.47-1.22,3.25h2.34L252,49.85Z"/><path class="cls-1" d="M262.33,57.63c-.39,0-1,0-1.73,0s-1.33,0-1.75,0h-.37v-.45c.74-.06,1-.44,1.09-1.17a20.26,20.26,0,0,0,.06-2.33V51c0-.41,0-.84,0-1.3a4.48,4.48,0,0,0-.16-1.55,1,1,0,0,0-1-.67v-.44h.37c.42,0,1,0,1.75,0s1.34,0,1.73,0h.38v.44a1.13,1.13,0,0,0-1.09,1.19,23.1,23.1,0,0,0-.05,2.33v2.67a8.82,8.82,0,0,0,.17,2.84,1,1,0,0,0,1,.66v.45Z"/><path class="cls-1" d="M267.26,57.83a6.68,6.68,0,0,1-2.66-.54c-.05-.6-.16-1.52-.29-2.28l.6-.1a2.43,2.43,0,0,0,2.45,2c1.12,0,1.89-.58,1.89-1.47,0-.72-.5-1.21-1.21-1.65l-1.67-1.07a3.17,3.17,0,0,1-1.8-2.88c0-1.78,1.34-2.92,3.43-2.92a5.61,5.61,0,0,1,2.61.57c0,.38,0,.51,0,1s0,.73,0,1.17H270a2,2,0,0,0-2-1.78,1.55,1.55,0,0,0-1.69,1.5c0,.76.52,1.26,1.36,1.8L269,52c1.29.84,2,1.65,2,2.91,0,1.74-1.53,2.91-3.75,2.91"/><path class="cls-1" d="M280,57.4c-.14.24-.31.29-1.17.29-.55,0-1.07,0-1.61,0-.76,0-1.52,0-2.29,0s-1.52,0-2.27,0v-.45A1.09,1.09,0,0,0,273.76,56a14.89,14.89,0,0,0,.06-1.81V49.72a4.34,4.34,0,0,0-.18-1.55,1,1,0,0,0-1-.67v-.44h7.42c0,.46,0,.93,0,1.4s0,.74,0,1.12h-.57c-.11-1.22-.64-1.56-2.53-1.56-.35,0-.81,0-1.19,0,0,.62-.05.82-.05,1.74v1.84c.24,0,.43,0,.72,0,1.65,0,2.16-.24,2.25-1.1h.57c0,.26,0,.78,0,1.57s0,1.29,0,1.54h-.57c0-.9-.47-1.12-2.11-1.12h-.86c0,1,0,2,0,3,0,.67.1.89.48,1a4.5,4.5,0,0,0,1.1.08c1.71,0,2.32-.38,2.68-1.68l.62.13A10.85,10.85,0,0,1,280,57.4"/><polygon class="cls-1" points="78.64 54.59 0.04 54.59 0.04 49.7 78.64 49.7 78.64 54.59 78.64 54.59"/><polygon class="cls-1" points="368 54.59 289.4 54.59 289.4 49.7 368 49.7 368 54.59 368 54.59"/><path class="cls-1" d="M0,31.53V1.38A1.06,1.06,0,0,1,1.06.27H11.13c7.06,0,12.41,5.13,12.41,13v6.32c0,7.85-5.35,13-12.37,13H1.06A1,1,0,0,1,0,31.53Zm4.94-3.65h6.23c4,0,7.34-2.95,7.34-8.31V13.34C18.51,8,15.14,5,11.13,5H4.94v22.9Z"/><path class="cls-1" d="M36.84,28.81A4.46,4.46,0,0,0,41.36,26a1.33,1.33,0,0,1,1.11-.65h3a.7.7,0,0,1,.74.74,2.45,2.45,0,0,1-.18.78,9.51,9.51,0,0,1-9.14,6.15c-5.54,0-10-4-10-10.49v-3c0-6.46,4.39-10.52,9.93-10.52s9.83,4.2,9.83,10.38v2.18a1.09,1.09,0,0,1-1.1,1.06H31.8v.64c0,3.33,2.17,5.5,5,5.5Zm4.94-10.16c0-3.37-2.13-5.36-5-5.36s-5,2-5,5.36v.51h10v-.51ZM43.07.78a.64.64,0,0,1-.19.46L39.24,6.46a1,1,0,0,1-.83.46h-3c-.37,0-.51-.18-.51-.46a3.69,3.69,0,0,1,.23-.6L37.71,1a1.18,1.18,0,0,1,1.11-.7h3.69a.53.53,0,0,1,.56.51Z"/><path class="cls-1" d="M61.3,13.89H56.73V31.53a1.08,1.08,0,0,1-1.11,1.06H52.8a1,1,0,0,1-1.06-1.06V13.89H48.56a1,1,0,0,1-1.06-1.06V10.62a1.05,1.05,0,0,1,1.06-1.11h3.18v-1c0-6.1,2.31-8.27,8.08-8.27H61.3a1.06,1.06,0,0,1,1.06,1.11V3.65A1,1,0,0,1,61.3,4.71H59.82c-2.58,0-3.09.74-3.09,3.78v1H61.3a1.05,1.05,0,0,1,1.06,1.11v2.21a1,1,0,0,1-1.06,1.06Z"/><path class="cls-1" d="M74.27,28.81A4.45,4.45,0,0,0,78.79,26a1.35,1.35,0,0,1,1.11-.65h3a.7.7,0,0,1,.74.74,2.47,2.47,0,0,1-.19.78,9.5,9.5,0,0,1-9.14,6.15c-5.54,0-10-4-10-10.49v-3c0-6.46,4.38-10.52,9.92-10.52s9.84,4.2,9.84,10.38v2.18A1.09,1.09,0,0,1,83,22.67H69.24v.64c0,3.33,2.17,5.5,5,5.5Zm4.94-10.16c0-3.37-2.12-5.36-5-5.36s-5,2-5,5.36v.51h10v-.51Z"/><path class="cls-1" d="M88,31.53V10.62a1.06,1.06,0,0,1,1.07-1.11H91.9A1.05,1.05,0,0,1,93,10.62v1.52a7.08,7.08,0,0,1,6.37-3.09c5.68,0,8.41,4.24,8.41,10.52v12a1,1,0,0,1-1.06,1.06h-2.82a1,1,0,0,1-1.06-1.06V19c0-3.69-2.08-5.68-4.94-5.68S93,15.28,93,19V31.53a1,1,0,0,1-1.06,1.06H89.09A1,1,0,0,1,88,31.53Z"/><path class="cls-1" d="M111.38,26.64a1.6,1.6,0,0,1,0-.65.72.72,0,0,1,.79-.74H115a.86.86,0,0,1,.88.69c.32,1.25,1.34,3.1,4.66,3.1,2.63,0,4.29-.83,4.29-2.91,0-4.8-13.11-.92-13.11-10.34,0-4.76,4.11-6.74,8.73-6.74,5.68,0,7.89,3.46,8.63,6.14a2.24,2.24,0,0,1,.09.64.81.81,0,0,1-.83.79h-2.86c-.55,0-.69-.23-.88-.74-.46-1.29-1.24-2.82-4.34-2.82-2,0-3.78.6-3.78,2.5,0,5.08,13.06,1.2,13.06,10.43,0,5.22-4.24,7.07-9.05,7.07-5.63,0-8.58-3.33-9.09-6.42Z"/><path class="cls-1" d="M142.4,28.81A4.48,4.48,0,0,0,146.93,26a1.31,1.31,0,0,1,1.1-.65h3a.7.7,0,0,1,.74.74,2.47,2.47,0,0,1-.19.78,9.5,9.5,0,0,1-9.14,6.15c-5.54,0-10-4-10-10.49v-3c0-6.46,4.38-10.52,9.92-10.52s9.84,4.2,9.84,10.38v2.18a1.09,1.09,0,0,1-1.11,1.06H137.37v.64c0,3.33,2.17,5.5,5,5.5Zm4.94-10.16c0-3.37-2.12-5.36-5-5.36s-5,2-5,5.36v.51h10v-.51Z"/><path class="cls-1" d="M175.08,10.62V31.53A1,1,0,0,1,174,32.59H171.2a1,1,0,0,1-1.06-1.06V30.1a6.87,6.87,0,0,1-6.18,3c-5.41,0-8-4-8-10.49v-12A1.05,1.05,0,0,1,157,9.51h2.82a1.05,1.05,0,0,1,1.06,1.11V23.13c0,3.69,1.76,5.68,4.57,5.68s4.71-2,4.71-5.68V10.62a1.05,1.05,0,0,1,1.06-1.11H174a1.05,1.05,0,0,1,1.06,1.11Z"/><path class="cls-1" d="M180.11,31.53V10.62a1.05,1.05,0,0,1,1.06-1.11h2.54a1.09,1.09,0,0,1,1.11,1.11V13A6.79,6.79,0,0,1,191,9.51h.6a1.05,1.05,0,0,1,1.06,1.11v2.77a1,1,0,0,1-1.06,1.06h-.69c-3.84,0-5.87,2.31-5.87,6.65V31.53a1.05,1.05,0,0,1-1.11,1.06h-2.72a1,1,0,0,1-1.06-1.06Z"/><path class="cls-1" d="M211.73,32.08V29.36a7.59,7.59,0,0,1-6.79,3.7c-5.12,0-9-3.56-9-10V19.11c0-6.46,3.88-10.06,9-10.06a7.52,7.52,0,0,1,6.79,3.69V.83a.51.51,0,0,1,.51-.56h1.2a.54.54,0,0,1,.55.56V32.08a.49.49,0,0,1-.55.51h-1.2a.46.46,0,0,1-.51-.51Zm0-9.14V18.79c0-4.9-2.95-7.57-6.79-7.57-4,0-6.74,2.81-6.74,7.94v3.78c0,5.17,2.78,8,6.7,8s6.83-2.82,6.83-7.95Z"/><path class="cls-1" d="M228.67,30.89c1.8,0,5-.38,6.51-4.85.09-.28.18-.42.46-.42h1.43a.32.32,0,0,1,.33.32,2.72,2.72,0,0,1-.14.61,8.6,8.6,0,0,1-8.59,6.51c-5.22,0-9.14-3.56-9.14-10V19.11c0-6.46,3.87-10.06,9.05-10.06s9,3.6,9,10.06v2.4a.5.5,0,0,1-.56.51H221.79v1.25c0,4.84,3,7.62,6.88,7.62Zm6.69-11.82c0-5-2.81-7.85-6.78-7.85s-6.79,2.81-6.79,7.85v.78h13.57v-.78Z"/><path class="cls-1" d="M241.77,26.91a.41.41,0,0,1,.1-.32.42.42,0,0,1,.41-.23h1.2c.37,0,.46.09.56.42.51,2.12,2.49,4.11,6.14,4.11,3.18,0,6.05-1,6.05-4.34,0-7-14.08-1.44-14.08-11.41,0-4.52,4.29-6.09,7.57-6.09,8.31,0,8.12,6.09,8.12,6.09v.09a.52.52,0,0,1-.51.42h-1.24c-.33,0-.46-.14-.51-.51-.23-1.52-.92-3.92-5.86-3.92-2.17,0-5.31.83-5.31,3.92,0,7.3,14.08,1.85,14.08,11.41,0,4.7-3.74,6.51-8.36,6.51-4.94,0-7.94-2.87-8.36-6.15Z"/><path class="cls-1" d="M276.86,31.53V30a7.31,7.31,0,0,1-6.46,3.05c-5,0-8.45-3.7-8.45-10.72V19.57c0-6.88,3.28-10.52,8.45-10.52a7.35,7.35,0,0,1,6.46,3V1.38A1.06,1.06,0,0,1,277.92.27h2.82a1.06,1.06,0,0,1,1.06,1.11V31.53a1,1,0,0,1-1.06,1.06h-2.82a1,1,0,0,1-1.06-1.06Zm0-8.4V18.88c0-3.18-1.75-5.59-5-5.59s-5,2.45-5,5.73v4.11c0,3.28,1.66,5.68,4.94,5.68s5-2.4,5-5.68Z"/><path class="cls-1" d="M287,31.53V10.62A1.06,1.06,0,0,1,288,9.51h2.54a1.09,1.09,0,0,1,1.11,1.11V13a6.76,6.76,0,0,1,6.14-3.46h.6a1.06,1.06,0,0,1,1.06,1.11v2.77a1,1,0,0,1-1.06,1.06h-.7c-3.83,0-5.86,2.31-5.86,6.65V31.53a1.05,1.05,0,0,1-1.11,1.06H288A1.05,1.05,0,0,1,287,31.53Z"/><path class="cls-1" d="M311.57,9.05c5.54,0,9.92,4.06,9.92,10.52v3c0,6.47-4.38,10.49-9.92,10.49s-9.93-4-9.93-10.49v-3c0-6.46,4.34-10.52,9.93-10.52Zm0,19.76c2.86,0,4.94-2,4.94-5.68V19c0-3.69-2.08-5.68-4.94-5.68s-5,2-5,5.68v4.16c0,3.69,2.13,5.68,5,5.68Z"/><path class="cls-1" d="M331.23,3a3,3,0,0,1-6.05,0,3,3,0,0,1,6.05,0Zm-5.49,28.53V10.62a1.05,1.05,0,0,1,1.06-1.11h2.82a1.05,1.05,0,0,1,1.06,1.11V31.53a1,1,0,0,1-1.06,1.06H326.8a1,1,0,0,1-1.06-1.06Z"/><path class="cls-1" d="M337.09,25.21V13.89h-3.18a1,1,0,0,1-1.06-1.06V10.62a1.05,1.05,0,0,1,1.06-1.11c2.26,0,3.23-.51,3.23-2.91v-2a1.05,1.05,0,0,1,1.06-1.11h2.68A1.09,1.09,0,0,1,342,4.62V9.51h4.66a1.05,1.05,0,0,1,1.06,1.11v2.21a1,1,0,0,1-1.06,1.06H342V24.47c0,2.63.32,3.6,3,3.6h1.62a1.08,1.08,0,0,1,1.06,1.11v2.35a1,1,0,0,1-1.06,1.06H344.2c-5.54,0-7.11-2.63-7.11-7.38Z"/><path class="cls-1" d="M349.65,26.64a1.6,1.6,0,0,1,0-.65.72.72,0,0,1,.79-.74h2.86a.86.86,0,0,1,.88.69c.32,1.25,1.33,3.1,4.66,3.1,2.63,0,4.29-.83,4.29-2.91,0-4.8-13.11-.92-13.11-10.34,0-4.76,4.11-6.74,8.73-6.74,5.68,0,7.89,3.46,8.63,6.14a2.24,2.24,0,0,1,.09.64.81.81,0,0,1-.83.79h-2.86c-.55,0-.69-.23-.88-.74-.46-1.29-1.24-2.82-4.34-2.82-2,0-3.78.6-3.78,2.5,0,5.08,13.06,1.2,13.06,10.43,0,5.22-4.25,7.07-9.05,7.07-5.63,0-8.58-3.33-9.09-6.42Z"/></g></g></svg>