<svg xmlns="http://www.w3.org/2000/svg" viewBox="0 0 1129.42 1222.91"><defs><style>.cls-1{fill:#f6f6f5;}.cls-1,.cls-2{opacity:0.7;}.cls-2{fill:#f3f3f1;}</style></defs><title>smoke</title><g id="Layer_2" data-name="Layer 2"><g id="Calque_1" data-name="Calque 1"><path class="cls-1" d="M570.75,1220.25s-.85-49.23,20.06-76.11c84.72-109,141.22,12.74,197.52-174.89S938.67,907.66,1004,822.37,1209.24,485.52,1069.63,371s-26.85-215.95-116.92-278S655.57-81.72,476.56,94.42,51,62.3,140,347.17C183.79,487.39-81.31,883.75,400.3,914.05c123.12,7.75,6.19,102,80.45,175.07C565.42,1172.44,570.75,1220.25,570.75,1220.25Z"/><path class="cls-1" d="M570.42,1219.25s-14-47.78,17.66-161.18c40.54-145.06,258.28-22,291.58-143.8S1124.44,415,1065.89,312.68,704-32,517.3,4.55,245.81,269.77,110.71,323.68-36,695.61,76.73,742c102.35,42.16-8.32,238.43,202.35,233.39C422.3,972,561.3,1194.47,570.42,1219.25Z"/><path class="cls-2" d="M568.85,1222.91s70.06-78.32,60.56-214c-7.67-109.63,322-306.07,359-423C1103.18,222.25,720.18-23,367.55,13.29,190,31.58-121.4,121.32,118.76,393.72c135.71,153.93,49.34,365.51,161,465.86S601.31,994,568.85,1222.91Z"/></g></g></svg>