<svg xmlns="http://www.w3.org/2000/svg" viewBox="0 0 61.54 56.42"><defs><style>.cls-1{isolation:isolate;}.cls-2{fill:#ef9b41;}.cls-3{fill:#282E5E;}.cls-4{fill:#5764CC;}.cls-5{mix-blend-mode:multiply;}.cls-6{opacity:0.65;}.cls-7{fill:#2F46FF;}</style></defs><title>starfish</title><g class="cls-1"><g id="Layer_2" data-name="Layer 2"><g id="Calque_1" data-name="Calque 1"><path class="cls-2" d="M10.43,7.74c3.24-1.13,13.7,6.32,18,7.77a77.53,77.53,0,0,1,10,4.19c4.7,2.23,4.53-2.28,5.32.26.9,2.89,14.8,1.33,17.53,6.66S41.88,32.8,40.92,38.13,42,55.27,38.2,56.39c-2.54.74-9.74-12-13.11-14.36s-24-.74-23.67-6.52c.42-7.4,18.1-4.69,15.42-12C13.9,15.59,7.24,8.85,10.43,7.74Z"/><path class="cls-3" d="M60.63,26.38v0c-.07-.59-1.39-5.15-1.39-5.15L57.4,21l-5.17,1.53.14.22c-4.29-.64-8.71-.83-9.2-2.11-.59-1.54,1.53-8.42.6-12.45v0c-.18-1-1.56-5.8-1.56-5.8L39.6,5.79l.14.19C36.31,8.57,31.59,18,28.07,17s-11.55-5.4-15.83-6.18h0L10,5.94,8.1,6.78s1.32,5.05,1.45,5.43h0c.59,2.17,4.88,6.43,7.07,11.24,1.59,3.48-4,4.11-8.86,5.31l-.12-1.07L0,28s1.17,4.53,1.47,5.53l0,0c1.3,4,20.07,2.84,23.25,4.66S35.16,52.63,37.67,52c3.73-.89.82-11.43,1.77-15.69S61.48,30.32,60.63,26.38Z"/><path class="cls-4" d="M8.89,5.49c3.19-.9,13.5,5.06,17.76,6.22S36.94-1.21,40.31.08c4.63,1.78.66,13.15,1.44,15.18.89,2.31,14.59,1.07,17.27,5.33S39,26.75,38,31,40,45.82,36.24,46.7c-2.5.6-9.59-11.9-12.9-13.79S-.32,32.31,0,27.69c.42-5.92,17.85-3.75,15.2-9.56C12.31,11.77,5.75,6.38,8.89,5.49Z"/><g class="cls-5"><g class="cls-6"><path class="cls-7" d="M9.93,6.18c.21.16.58.3.61.48a1.74,1.74,0,0,1-.61,2.06Z"/><path class="cls-7" d="M39.92.14c.17.32.69.56.43,1-1.1-.19-1.1-.19-1.17-1Z"/><path class="cls-7" d="M4,25.16a2.19,2.19,0,0,1,.36,0c.42.08.6.3.55.62s-.41.53-.91.47Z"/><path class="cls-7" d="M3,27.15c.54.33.66.74.4,1.21,0,.09-.26.14-.4.2Z"/><path class="cls-7" d="M0,45.76l.44.39L0,46.33Z"/><path class="cls-7" d="M34,.14h.37"/><path class="cls-7" d="M17.79,23.37a7.29,7.29,0,0,1-1.12.56,1.72,1.72,0,0,1-1,.06c-.43-.19-.31-.57-.09-.86.38-.5.06-1-.1-1.39.3-.26.54-.19.69,0C16.67,22.19,17.15,22.71,17.79,23.37Z"/><path class="cls-7" d="M51.08,28.28a2,2,0,0,1,1.54,0c.43.15.61.46.45.81a1.15,1.15,0,0,1-1,.75c-.39.05-.73-.2-1-.7a1.74,1.74,0,0,1-.15-.54C51,28.48,51,28.39,51.08,28.28Z"/><path class="cls-7" d="M33.33,43.28l-1.84-1.19c-.07-.3.22-.42.51-.45a3,3,0,0,1,2.15.56.35.35,0,0,1,0,.62A5.42,5.42,0,0,1,33.33,43.28Z"/><path class="cls-7" d="M38.57,4c.71-.09,1.1.1,1.2.52A12.84,12.84,0,0,1,40,5.94l-1.71-.39Z"/><path class="cls-7" d="M24.94,36.67c.18-.06.41-.22.54-.18a17.09,17.09,0,0,1,1.77.69.46.46,0,0,1,.12.75.79.79,0,0,1-.83.09,10.92,10.92,0,0,1-1.4-.86C25,37.08,25,36.91,24.94,36.67Z"/><path class="cls-7" d="M8.46,31.28c-.61-.14-.8-.43-.83-.76a.72.72,0,0,1,.25-.6.86.86,0,0,1,1,.08c.18.15.35.44.27.59A2.88,2.88,0,0,1,8.46,31.28Z"/><path class="cls-7" d="M30.12,30.62a1.92,1.92,0,0,1,1.49.3.51.51,0,0,1,0,.87,1,1,0,0,1-1.15,0C30.17,31.47,29.88,31.12,30.12,30.62Z"/><path class="cls-7" d="M38.2,48.5a7.22,7.22,0,0,1-1-.61c-.13-.11-.22-.36-.14-.47s.37-.18.58-.23a1.09,1.09,0,0,1,.36,0c.63.05.83.28.6.76A4.59,4.59,0,0,1,38.2,48.5Z"/><path class="cls-7" d="M21.18,18.56c1,.18,1,.27.64,1.41C20.93,19.57,20.92,19.55,21.18,18.56Z"/><path class="cls-7" d="M27.4,18.6a1.25,1.25,0,0,1,1.62.19.36.36,0,0,1,0,.61,1.29,1.29,0,0,1-.79.13A1,1,0,0,1,27.4,18.6Z"/><path class="cls-7" d="M27.24,23.54a2.37,2.37,0,0,1,.61-.44.85.85,0,0,1,1,.59c.12.29-.09.54-.48.64a.72.72,0,0,1-.78-.21A4.58,4.58,0,0,1,27.24,23.54Z"/><path class="cls-7" d="M18.22,33.18c.76.7,1.29,1.13,1.25,1.91A3.1,3.1,0,0,1,17.93,34C17.83,33.89,18.05,33.63,18.22,33.18Z"/><path class="cls-7" d="M3.42,31.78c-1,.18-1.33-.13-1.47-.58,0-.13.13-.38.29-.45a.78.78,0,0,1,.62.11A4.86,4.86,0,0,1,3.42,31.78Z"/><path class="cls-7" d="M38.52,24.46a1.73,1.73,0,0,1-1.25-.87c0-.08,0-.22,0-.26a.76.76,0,0,1,.46-.15C38.47,23.3,38.69,23.68,38.52,24.46Z"/><path class="cls-7" d="M55.71,18.6a1.73,1.73,0,0,1,1.37,1.33c-1.35-.35-1.35-.35-1.36-1.33Z"/><path class="cls-7" d="M40.18,33.66l-.79-.86a.62.62,0,0,1,.86-.36C40.68,32.61,40.67,32.77,40.18,33.66Z"/><path class="cls-7" d="M10.28,26.42a1.24,1.24,0,0,1-1.62.3.34.34,0,0,1-.16-.35.54.54,0,0,1,.4-.2C9.37,26.23,9.82,26.33,10.28,26.42Z"/><path class="cls-7" d="M41.5,8.78c0-.11-.16-.23-.17-.35,0-.48.14-.76.48-.76a.76.76,0,0,1,.82.75c0,.3-.18.39-.93.41A1.43,1.43,0,0,1,41.5,8.78Z"/><path class="cls-7" d="M53.47,21.42a2.31,2.31,0,0,1,.67-.32c.45-.05.89.29.78.57a.55.55,0,0,1-.67.34A2.91,2.91,0,0,1,53.47,21.42Z"/><path class="cls-7" d="M35.52,40c.1-.08.19-.19.26-.18.79.07,1.16.42,1.08,1a.35.35,0,0,1-.21.2.49.49,0,0,1-.32,0A1.59,1.59,0,0,1,35.52,40Z"/><path class="cls-7" d="M43.91,21.92c-1,.2-1,.2-1.51-.82.32,0,.64,0,.79.07A4.67,4.67,0,0,1,43.91,21.92Z"/><path class="cls-7" d="M21.68,10.54c.21.13.5.23.52.36a.9.9,0,0,1-.2.6.74.74,0,0,1-.44,0,1.44,1.44,0,0,1-.24-.63C21.31,10.78,21.51,10.68,21.68,10.54Z"/><path class="cls-7" d="M33.6,11.89c1,0,1.29.31,1.45.72a.38.38,0,0,1-.15.37.4.4,0,0,1-.59-.1C34.1,12.61,33.91,12.33,33.6,11.89Z"/><path class="cls-7" d="M40.13,13.88a1.73,1.73,0,0,1-.41-.29c-.18-.25-.3-.54.09-.74a.68.68,0,0,1,.5.05c.33.18.45.45.25.74C40.49,13.74,40.29,13.8,40.13,13.88Z"/><path class="cls-7" d="M43,19c.45,0,.72.15.75.4s-.22.42-.57.43-.69-.2-.6-.39A1.78,1.78,0,0,1,43,19Z"/><path class="cls-7" d="M56.68,25.65l-1.28-.83C56.38,24.44,56.53,24.52,56.68,25.65Z"/><path class="cls-7" d="M31.67,13.88a4.16,4.16,0,0,1,.76.61c.14.2-.18.45-.5.45s-.72-.25-.67-.52S31.47,14.13,31.67,13.88Z"/><path class="cls-7" d="M36.37,13.65c.23.22.49.35.56.53s-.35.55-.64.5-.58-.41-.45-.64S36.14,13.81,36.37,13.65Z"/><path class="cls-7" d="M48.12,40.69a1.08,1.08,0,0,1-.94-.92C48.31,40,48.35,40,48.12,40.69Z"/><path class="cls-7" d="M24.61,20.54c.25.17.49.3.47.34a2.31,2.31,0,0,1-.38.39c-.1-.08-.28-.15-.28-.23A1.68,1.68,0,0,1,24.61,20.54Z"/><path class="cls-7" d="M39.48,19.41c0,.08.12.17.11.24,0,.23-.1.47-.5.47-.08,0-.23-.12-.22-.14a5.58,5.58,0,0,1,.44-.55S39.42,19.42,39.48,19.41Z"/><path class="cls-7" d="M55.72,18.6c-.46.1-.91.21-1.37.28a2.32,2.32,0,0,1-.67-.16c.93-.48,1.48,0,2-.12Z"/><path class="cls-7" d="M15.2,12.48a6.29,6.29,0,0,1-.43-.47s.07-.18.14-.21.28,0,.31,0a3.6,3.6,0,0,1,.22.54Z"/><path class="cls-7" d="M48.91,28.28a2.6,2.6,0,0,1,.33.51c0,.07-.19.25-.3.25-.29,0-.55-.37-.42-.6C48.55,28.38,48.7,28.36,48.91,28.28Z"/><path class="cls-7" d="M51.2,23.82c-.05,0-.12-.05-.13-.08a2.42,2.42,0,0,1-.1-.45.68.68,0,0,1,.15,0,3.29,3.29,0,0,1,.16.44S51.23,23.78,51.2,23.82Z"/><path class="cls-7" d="M53.36,26.06c.13.1.18.13.2.17l.17.36c-.11,0-.28.06-.3,0a1.14,1.14,0,0,1-.17-.35S53.3,26.19,53.36,26.06Z"/><path class="cls-7" d="M36.41,43.29l-.26.1L36,43.11c.1,0,.23-.06.29,0S36.36,43.21,36.41,43.29Z"/><path class="cls-7" d="M24.42,27.52l.11.34c-.1,0-.24.08-.3,0a.25.25,0,0,1-.12-.23C24.12,27.62,24.27,27.59,24.42,27.52Z"/><path class="cls-7" d="M51.26,22.36l.23-.22a1.46,1.46,0,0,1,.21.32c0,.06-.11.13-.17.2Z"/><path class="cls-7" d="M15.8,15.89a3.58,3.58,0,0,1,.21.45s-.25.13-.26.12a4.47,4.47,0,0,1-.34-.4Z"/><path class="cls-7" d="M16,45.42l0,.33c-.11,0-.25,0-.31,0s-.06-.15-.08-.23Z"/><path class="cls-7" d="M16.57,27.12l-.23.23a2.93,2.93,0,0,1-.34-.24s.14-.17.18-.16A1.49,1.49,0,0,1,16.57,27.12Z"/><path class="cls-7" d="M32.66,19.82s-.1,0-.12,0,0-.06-.06-.09.09,0,.12,0S32.64,19.79,32.66,19.82Z"/><path class="cls-7" d="M23.8,13.52l-.3,0a1.23,1.23,0,0,1,0-.2s.12,0,.14,0A1.24,1.24,0,0,1,23.8,13.52Z"/><path class="cls-7" d="M30.16,27.59l.17.19-.12.08c-.05-.07-.11-.13-.16-.19A.79.79,0,0,1,30.16,27.59Z"/><path class="cls-7" d="M49.25,32.38c0,.08,0,.15,0,.23l-.28,0s-.06-.11-.05-.12Z"/><path class="cls-7" d="M43.41,30.26l.21.15a1.67,1.67,0,0,1-.23.12s-.12-.06-.12-.07A.9.9,0,0,1,43.41,30.26Z"/><path class="cls-7" d="M14.1,33.92a1.66,1.66,0,0,1,.27.25s-.11.12-.17.18l-.35-.23Z"/><path class="cls-7" d="M1.76,36.6l.18.19-.25.11s-.09-.08-.08-.11A.66.66,0,0,1,1.76,36.6Z"/><path class="cls-7" d="M1.18,27l.11.07s-.09.06-.13,0-.07,0-.11-.07Z"/><polygon class="cls-7" points="41.07 45.35 41.07 45.43 40.96 45.39 41.07 45.35"/><path class="cls-7" d="M41.63,22.72l-.09.08,0-.17Z"/><path class="cls-7" d="M45.31,34.16l-.05.11-.15-.12.1-.07Z"/><polygon class="cls-7" points="48.29 33.33 48.23 33.42 48.17 33.32 48.29 33.33"/><path class="cls-7" d="M29.43,11.53s.09-.06.14,0,.08,0,.12.07Z"/><path class="cls-7" d="M33.21,26.14l.11.06H33.1Z"/><path class="cls-7" d="M52.24,37.31l.09,0-.13.06Z"/><path class="cls-7" d="M55.61,42.76l.14,0-.16.14s-.1-.07-.1-.1S55.56,42.79,55.61,42.76Z"/></g></g></g></g></g></svg>