<svg xmlns="http://www.w3.org/2000/svg" viewBox="0 0 196.87 69.81"><defs><style>.cls-1{fill:#ef9c34;}.cls-2{fill:#e35014;}.cls-3{fill:#f08050;}.cls-4{fill:#de4e2e;}.cls-5{fill:#e7937b;}.cls-6{fill:#d73718;}.cls-7{fill:#db5e25;}</style></defs><title>Asset 50</title><g id="Layer_2" data-name="Layer 2"><g id="Layer_1-2" data-name="Layer 1"><path class="cls-1" d="M10.43,21.12c3.23-1.13,13.7,6.33,18,7.78a75.75,75.75,0,0,1,10,4.19c2.3,1.08,3.43.56,4.08,0s.83-1.08,1.24.21c.9,2.89,14.8,1.34,17.52,6.67S41.87,46.18,40.91,51.52,42,68.66,38.2,69.77c-2.54.75-9.75-12-13.11-14.35s-24-.74-23.68-6.52c.43-7.41,18.11-4.7,15.43-12C13.9,29,7.24,22.23,10.43,21.12"/><path class="cls-2" d="M60.63,39.76h0c-.07-.59-1.39-5.15-1.39-5.15l-1.84-.27-5.18,1.54.15.21c-4.3-.64-8.71-.83-9.2-2.11-.59-1.53,1.53-8.41.59-12.44v0c-.17-1-1.55-5.8-1.55-5.8l-2.62,3.48.15.2c-3.44,2.59-8.15,12-11.67,11.05S16.52,25,12.23,24.24h0l-2.31-4.9-1.84.83s1.31,5.06,1.44,5.43h0c.59,2.17,4.88,6.43,7.07,11.25,1.58,3.48-4,4.1-8.87,5.31l-.11-1.07L0,41.41S1.18,46,1.48,46.94l0,0c1.31,4,20.08,2.84,23.25,4.65S35.16,66,37.66,65.42c3.73-.89.83-11.43,1.78-15.69.91-4.11,22-6,21.19-10"/><path class="cls-3" d="M8.88,18.87c3.19-.9,13.5,5.06,17.77,6.22,2.12.58,4.68-2.62,7.13-5.82s4.83-6.45,6.53-5.8c4.62,1.78.66,13.15,1.44,15.17C42.64,31,56.33,29.71,59,34S39,40.13,38,44.4,40,59.2,36.24,60.09c-2.5.59-9.59-11.9-12.91-13.8S-.33,45.7,0,41.08c.42-5.92,17.85-3.76,15.2-9.57-2.89-6.35-9.46-11.75-6.32-12.64"/><path class="cls-4" d="M9.93,19.57c0,.84,0,1.69,0,2.53a1.72,1.72,0,0,0,.62-2.05c0-.18-.4-.33-.61-.48"/><polyline class="cls-5" points="39.17 13.53 39.17 13.53 39.18 13.53 39.17 13.53"/><path class="cls-4" d="M39.18,13.53h0c.07.79.08.79,1.17,1,.26-.43-.26-.66-.43-1h-.73"/><path class="cls-4" d="M4,38.54c0,.38,0,.75,0,1.13h.23c.37,0,.63-.14.68-.48s-.12-.54-.54-.63c-.12,0-.24,0-.36,0"/><path class="cls-4" d="M3,40.54V42c.14-.07.35-.11.4-.2A.83.83,0,0,0,3,40.54"/><path class="cls-5" d="M0,59.15v.56l.44-.18L0,59.15"/><path class="cls-5" d="M34.38,13.52h0Z"/><path class="cls-4" d="M15.84,35a.65.65,0,0,0-.39.17c.17.42.49.9.11,1.39-.23.3-.34.67.09.86a.81.81,0,0,0,.33.06,2.42,2.42,0,0,0,.68-.11,6.59,6.59,0,0,0,1.12-.57c-.63-.65-1.11-1.17-1.63-1.67a.46.46,0,0,0-.31-.13"/><path class="cls-6" d="M51.85,41.49a1.64,1.64,0,0,0-.77.18c0,.1-.13.19-.11.27a1.45,1.45,0,0,0,.15.54c.22.47.53.71.88.71h.1a1.14,1.14,0,0,0,1-.75c.16-.35,0-.67-.44-.81a2.37,2.37,0,0,0-.77-.14"/><path class="cls-4" d="M32.36,55,32,55c-.28,0-.57.15-.51.45l1.84,1.19a6.59,6.59,0,0,0,.83-.46.36.36,0,0,0,0-.62A3,3,0,0,0,32.36,55"/><path class="cls-4" d="M38.9,17.35a2,2,0,0,0-.34,0l-.3,1.57,1.71.39a13,13,0,0,0-.2-1.45c-.09-.34-.37-.53-.87-.53"/><path class="cls-6" d="M25.43,49.87a2,2,0,0,0-.49.19c.09.23.08.41.2.49a12.12,12.12,0,0,0,1.4.85.67.67,0,0,0,.34.09.76.76,0,0,0,.49-.18.45.45,0,0,0-.12-.74,18,18,0,0,0-1.77-.69h-.05"/><path class="cls-6" d="M8,44.47a1.51,1.51,0,0,0,.49.2l.14-.13L8,44.47"/><path class="cls-4" d="M8.28,43.19a.75.75,0,0,0-.41.12A.74.74,0,0,0,8,44.47l.63.07A2,2,0,0,0,9.12,44c.07-.16-.1-.44-.27-.59a.88.88,0,0,0-.57-.2"/><path class="cls-4" d="M30.53,44a2.09,2.09,0,0,0-.42,0c-.23.49.06.85.37,1.19a.68.68,0,0,0,.5.17,1.06,1.06,0,0,0,.64-.2.51.51,0,0,0,0-.87A1.94,1.94,0,0,0,30.53,44"/><path class="cls-6" d="M37.8,60.56h-.11c-.21.06-.51.11-.59.24s0,.35.15.47a8.18,8.18,0,0,0,.94.61,3.29,3.29,0,0,0,.45-.56c.23-.47,0-.71-.59-.75l-.25,0"/><path class="cls-4" d="M21.18,31.94c-.26,1-.25,1,.63,1.42.41-1.14.36-1.24-.63-1.42"/><path class="cls-4" d="M28.13,31.77a1.6,1.6,0,0,0-.73.21,1,1,0,0,0,.8.94l.18,0a1.31,1.31,0,0,0,.61-.16c.27-.15.23-.42,0-.61a1.31,1.31,0,0,0-.89-.4"/><path class="cls-4" d="M28,36.47l-.14,0a2.33,2.33,0,0,0-.61.43,5.7,5.7,0,0,0,.33.59.64.64,0,0,0,.52.23,1.15,1.15,0,0,0,.26,0c.39-.09.6-.34.48-.64a.93.93,0,0,0-.34-.47,1.12,1.12,0,0,0-.5-.13"/><path class="cls-6" d="M18.22,46.57c-.17.44-.39.7-.3.83a3.12,3.12,0,0,0,1.55,1.07c0-.78-.5-1.21-1.25-1.9"/><path class="cls-6" d="M2.41,44.12l-.17,0c-.16.07-.34.32-.29.45a.87.87,0,0,0,1,.63,3.37,3.37,0,0,0,.5,0,6.33,6.33,0,0,0-.56-.93.78.78,0,0,0-.45-.12"/><path class="cls-4" d="M37.7,36.56a.89.89,0,0,0-.41.15l0,.26a1.74,1.74,0,0,0,1.26.87c.17-.77-.06-1.15-.77-1.28h0"/><path class="cls-4" d="M55.71,32c0,1,0,1,1.37,1.33A1.71,1.71,0,0,0,55.71,32m0,0h0"/><path class="cls-6" d="M40,45.77a.61.61,0,0,0-.56.41l.78.87c.49-.89.51-1,.08-1.22a.89.89,0,0,0-.3-.06"/><path class="cls-4" d="M8.87,39.56a.49.49,0,0,0-.37.2.36.36,0,0,0,.16.35,1.47,1.47,0,0,0,.66.17,1.31,1.31,0,0,0,1-.47c-.46-.09-.92-.2-1.38-.25h0"/><path class="cls-6" d="M42.44,21.31c0,.28-.07.56-.1.84.22-.06.29-.16.29-.34a.72.72,0,0,0-.19-.5"/><path class="cls-4" d="M41.81,21.06h0c-.35,0-.54.27-.49.75a1.52,1.52,0,0,0,.18.36l.2,0a2.92,2.92,0,0,0,.64-.07c0-.28.07-.56.1-.84a.84.84,0,0,0-.63-.25"/><path class="cls-4" d="M54.23,34.48h-.09a2.39,2.39,0,0,0-.67.33,3.4,3.4,0,0,0,.78.59l.16,0a.58.58,0,0,0,.51-.36c.1-.27-.28-.58-.69-.58"/><path class="cls-4" d="M35.77,53.15c-.06,0-.15.11-.26.19a1.6,1.6,0,0,0,.81,1l.19,0,.14,0a.31.31,0,0,0,.2-.2c.09-.57-.29-.91-1.07-1h0"/><path class="cls-4" d="M42.4,34.49c.37.71.49.92.85.92a3.77,3.77,0,0,0,.66-.1,4.69,4.69,0,0,0-.72-.75.74.74,0,0,0-.39-.07h-.4"/><path class="cls-4" d="M21.68,23.92c-.17.14-.38.24-.37.32a1.49,1.49,0,0,0,.25.63l.44,0a1,1,0,0,0,.2-.6c0-.13-.31-.23-.52-.37"/><path class="cls-4" d="M33.64,25.28h0c.3.43.49.72.7,1a.45.45,0,0,0,.34.18l.26-.09a.39.39,0,0,0,.15-.36c-.17-.41-.47-.72-1.41-.72"/><path class="cls-4" d="M40,26.21l-.15,0c-.39.2-.28.49-.09.74a1.55,1.55,0,0,0,.41.3c.15-.09.36-.14.43-.25.2-.28.08-.55-.25-.73a.75.75,0,0,0-.35-.08"/><path class="cls-4" d="M43.11,32.38H43a2,2,0,0,0-.41.45c-.09.18.25.38.59.38h0c.35,0,.59-.18.56-.42s-.25-.41-.63-.41"/><path class="cls-6" d="M56.14,38a2.57,2.57,0,0,0-.74.2l1.28.84c-.1-.75-.2-1-.54-1"/><path class="cls-4" d="M31.67,27.27c-.2.25-.38.38-.41.53s.29.52.66.52h0c.32,0,.63-.25.49-.44a3.73,3.73,0,0,0-.75-.61"/><path class="cls-4" d="M36.37,27c-.23.16-.46.25-.54.39s.16.57.46.63h.08c.28,0,.64-.28.55-.5s-.32-.32-.55-.53"/><path class="cls-5" d="M47.17,53.15a1.09,1.09,0,0,0,.95.92c.22-.68.18-.72-.95-.92"/><path class="cls-4" d="M24.61,33.93c-.09.22-.2.36-.19.5s.18.15.27.22a1.6,1.6,0,0,0,.39-.39s-.23-.16-.47-.33"/><path class="cls-4" d="M39.47,32.8l-.17,0a5.89,5.89,0,0,0-.44.55l.23.14c.4,0,.46-.24.49-.47l-.11-.24Z"/><path class="cls-4" d="M54.53,31.89a1.76,1.76,0,0,0-.85.22,4.35,4.35,0,0,0,.62.16h0c.47-.06.91-.18,1.37-.27h0l-.21,0A2.53,2.53,0,0,1,55,32a2.74,2.74,0,0,0-.51-.06"/><path class="cls-4" d="M14.91,25.19l-.14.21a4.6,4.6,0,0,0,.43.46l.24-.08a3.32,3.32,0,0,0-.22-.55l-.31,0Z"/><path class="cls-6" d="M48.9,41.66c-.2.09-.35.11-.39.17a.47.47,0,0,0,.42.6h0c.11,0,.32-.19.3-.25a2,2,0,0,0-.33-.52"/><path class="cls-4" d="M51.11,36.65l-.15,0c0,.16.06.31.1.46l.14.07.08-.11a2.65,2.65,0,0,0-.17-.44"/><path class="cls-6" d="M53.36,39.44c-.07.13-.11.18-.1.21a1.17,1.17,0,0,0,.16.36h0l.27,0c-.06-.13-.11-.25-.17-.37s-.08-.06-.2-.17"/><path class="cls-4" d="M36.21,56.45l-.23,0,.17.29.25-.11-.13-.21h-.06"/><path class="cls-4" d="M24.41,40.91c-.14.06-.29.1-.3.15l.11.23h.05l.26,0-.12-.34"/><path class="cls-4" d="M51.48,35.53l-.23.22.27.3.18-.2a1.14,1.14,0,0,0-.22-.32"/><path class="cls-4" d="M15.79,29.28l-.38.17c.11.13.21.27.34.4l.25-.12a2.27,2.27,0,0,0-.21-.45"/><path class="cls-5" d="M16,58.8l-.35.06.09.24a.87.87,0,0,0,.3,0c0-.11,0-.22,0-.34"/><path class="cls-4" d="M16.18,40.33l-.18.16a2.85,2.85,0,0,0,.33.25l.24-.24a1.92,1.92,0,0,0-.39-.17"/><polygon class="cls-4" points="32.6 33.11 32.47 33.14 32.53 33.23 32.66 33.21 32.6 33.11 32.6 33.11"/><path class="cls-4" d="M23.65,26.72h-.13l0,.2.29,0-.14-.19Z"/><polygon class="cls-4" points="30.16 40.98 30.05 41.05 30.21 41.24 30.32 41.17 30.16 40.98 30.16 40.98"/><path class="cls-7" d="M49.25,45.77l-.28.07L49,46a1.35,1.35,0,0,0,.28,0l0-.22Z"/><polygon class="cls-6" points="43.4 43.64 43.27 43.85 43.38 43.92 43.62 43.8 43.4 43.64 43.4 43.64"/><path class="cls-6" d="M14.1,47.31a2.38,2.38,0,0,0-.25.2l.34.22.17-.17a1,1,0,0,0-.26-.25"/><polyline class="cls-5" points="1.68 50.08 1.61 50.17 1.68 50.29 1.78 50.25 1.68 50.08"/><polygon class="cls-7" points="1.75 49.98 1.68 50.08 1.78 50.25 1.94 50.17 1.75 49.98 1.75 49.98"/><polygon class="cls-4" points="1.18 40.34 1.05 40.4 1.16 40.47 1.29 40.42 1.18 40.34 1.18 40.34"/><polygon class="cls-5" points="41.07 58.74 40.96 58.78 41.06 58.82 41.07 58.74 41.07 58.74"/><polygon class="cls-4" points="41.57 36.01 41.54 36.19 41.62 36.11 41.57 36.01 41.57 36.01"/><polygon class="cls-7" points="45.21 47.46 45.11 47.54 45.26 47.65 45.31 47.55 45.21 47.46 45.21 47.46"/><polygon class="cls-7" points="48.17 46.71 48.22 46.81 48.29 46.71 48.17 46.71 48.17 46.71"/><polygon class="cls-4" points="29.56 24.86 29.42 24.91 29.69 24.93 29.56 24.86 29.56 24.86"/><polygon class="cls-4" points="33.21 39.52 33.09 39.57 33.31 39.59 33.21 39.52 33.21 39.52"/><polygon class="cls-5" points="52.23 50.69 52.2 50.79 52.33 50.72 52.23 50.69 52.23 50.69"/><polygon class="cls-5" points="55.6 56.14 55.49 56.23 55.58 56.32 55.74 56.18 55.6 56.14 55.6 56.14"/><path class="cls-1" d="M145.76,7.73c3.23-1.13,13.7,6.33,18,7.78a75.75,75.75,0,0,1,10,4.19c2.3,1.09,3.43.57,4.08.05s.83-1.09,1.24.2c.9,2.89,14.8,1.34,17.52,6.67S177.2,32.8,176.24,38.13s1.07,17.14-2.71,18.25c-2.55.75-9.75-12-13.11-14.35s-24-.74-23.68-6.52c.43-7.41,18.11-4.7,15.43-12-2.94-7.95-9.6-14.7-6.41-15.81"/><path class="cls-2" d="M196,26.37h0c-.07-.59-1.39-5.15-1.39-5.15l-1.84-.27-5.18,1.54.15.21c-4.3-.63-8.71-.83-9.2-2.1-.59-1.54,1.53-8.42.59-12.45v0c-.17-1-1.55-5.8-1.55-5.8l-2.62,3.48.15.2C171.63,8.57,166.92,18,163.4,17s-11.55-5.39-15.84-6.18h0l-2.31-4.9-1.84.83s1.31,5.06,1.44,5.43h0c.59,2.17,4.88,6.43,7.07,11.24,1.58,3.48-4,4.1-8.87,5.31L143,27.69l-7.63.33s1.17,4.54,1.47,5.53l0,0c1.31,4,20.08,2.84,23.25,4.65S170.49,52.63,173,52c3.73-.89.83-11.43,1.78-15.69s22-6,21.19-10"/><path class="cls-3" d="M144.21,5.49c3.19-.91,13.5,5,17.77,6.21,2.12.58,4.68-2.62,7.13-5.82s4.83-6.45,6.53-5.8c4.62,1.78.66,13.15,1.44,15.18.89,2.31,14.58,1.06,17.27,5.33s-20,6.15-21,10.42,2,14.8-1.78,15.69c-2.5.6-9.59-11.9-12.91-13.8s-23.66-.59-23.33-5.21c.42-5.92,17.85-3.75,15.2-9.57-2.89-6.35-9.46-11.75-6.32-12.63"/><path class="cls-4" d="M145.26,6.18c0,.84,0,1.69,0,2.53a1.72,1.72,0,0,0,.62-2.05c0-.18-.4-.32-.61-.48"/><polyline class="cls-5" points="174.5 0.14 174.5 0.14 174.51 0.14 174.5 0.14"/><path class="cls-4" d="M174.51.14h0c.07.79.08.79,1.17,1,.26-.43-.26-.66-.43-1h-.73"/><path class="cls-4" d="M139.34,25.15c0,.38,0,.75,0,1.13l.23,0c.37,0,.63-.14.68-.49s-.12-.54-.54-.63c-.12,0-.24,0-.36,0"/><path class="cls-4" d="M138.29,27.15v1.41c.14-.07.35-.11.4-.2a.83.83,0,0,0-.4-1.21"/><path class="cls-5" d="M135.33,45.76v.56l.44-.18-.44-.38"/><path class="cls-5" d="M169.71.13h0Z"/><path class="cls-4" d="M151.17,21.56a.61.61,0,0,0-.39.18c.17.41.49.89.11,1.39-.23.29-.34.66.09.85a.81.81,0,0,0,.33.06,2.42,2.42,0,0,0,.68-.11,6.59,6.59,0,0,0,1.12-.57c-.63-.65-1.11-1.17-1.63-1.67a.46.46,0,0,0-.31-.13"/><path class="cls-6" d="M187.18,28.1a1.77,1.77,0,0,0-.77.18c0,.11-.13.19-.11.28a1.51,1.51,0,0,0,.15.54,1,1,0,0,0,.88.7h.1a1.17,1.17,0,0,0,1-.75c.15-.35,0-.67-.45-.81a2.37,2.37,0,0,0-.77-.14"/><path class="cls-4" d="M167.69,41.62a2.36,2.36,0,0,0-.37,0c-.28,0-.57.15-.51.45l1.84,1.19a6.59,6.59,0,0,0,.83-.46.36.36,0,0,0,0-.62,3,3,0,0,0-1.78-.58"/><path class="cls-4" d="M174.23,4l-.34,0-.3,1.57,1.71.39a12.52,12.52,0,0,0-.2-1.44c-.09-.35-.37-.54-.87-.54"/><path class="cls-6" d="M160.76,36.48a2,2,0,0,0-.49.19c.09.23.08.41.2.49a10.92,10.92,0,0,0,1.4.86.77.77,0,0,0,.34.08.81.81,0,0,0,.49-.17.46.46,0,0,0-.12-.75,18,18,0,0,0-1.77-.69h-.05"/><path class="cls-6" d="M143.29,31.08a1.51,1.51,0,0,0,.49.2l.14-.13-.63-.07"/><path class="cls-4" d="M143.61,29.8a.75.75,0,0,0-.41.12.69.69,0,0,0-.24.6.68.68,0,0,0,.33.56l.63.07a2,2,0,0,0,.53-.56c.07-.15-.1-.44-.27-.59a.94.94,0,0,0-.57-.2"/><path class="cls-4" d="M165.86,30.57a2.09,2.09,0,0,0-.42.05c-.23.49.06.85.37,1.19a.68.68,0,0,0,.5.17,1.06,1.06,0,0,0,.64-.2.51.51,0,0,0,0-.87,1.94,1.94,0,0,0-1.07-.34"/><path class="cls-6" d="M173.13,47.17H173c-.21.06-.51.11-.59.24s0,.35.15.47a7,7,0,0,0,.94.61,3.29,3.29,0,0,0,.45-.56c.23-.47,0-.7-.59-.75l-.25,0"/><path class="cls-4" d="M156.51,18.56c-.26,1-.25,1,.64,1.41.4-1.14.35-1.23-.64-1.41"/><path class="cls-4" d="M163.46,18.38a1.6,1.6,0,0,0-.73.21,1,1,0,0,0,.8.94l.18,0a1.44,1.44,0,0,0,.61-.15c.27-.16.23-.43,0-.62a1.31,1.31,0,0,0-.89-.4"/><path class="cls-4" d="M163.31,23.08l-.14,0a2.15,2.15,0,0,0-.61.44,5.42,5.42,0,0,0,.33.58.64.64,0,0,0,.52.24,1.17,1.17,0,0,0,.26,0c.39-.09.6-.34.48-.64a.93.93,0,0,0-.34-.47,1.12,1.12,0,0,0-.5-.13"/><path class="cls-6" d="M153.55,33.18c-.17.45-.39.71-.3.83a3.06,3.06,0,0,0,1.55,1.07c0-.78-.5-1.21-1.25-1.9"/><path class="cls-6" d="M137.74,30.73l-.17,0c-.16.07-.34.32-.29.45a.87.87,0,0,0,1,.63,3.37,3.37,0,0,0,.5,0,6.33,6.33,0,0,0-.56-.93.78.78,0,0,0-.45-.12"/><path class="cls-4" d="M173,23.17a.8.8,0,0,0-.41.16l0,.25a1.78,1.78,0,0,0,1.26.88c.17-.78-.06-1.16-.77-1.28H173"/><path class="cls-4" d="M191,18.6c0,1,0,1,1.37,1.33A1.72,1.72,0,0,0,191,18.6"/><path class="cls-6" d="M175.28,32.38a.61.61,0,0,0-.56.41l.78.87c.49-.89.51-1,.08-1.22a.89.89,0,0,0-.3-.06"/><path class="cls-4" d="M144.2,26.17a.49.49,0,0,0-.37.2.35.35,0,0,0,.16.35,1.47,1.47,0,0,0,.66.17,1.31,1.31,0,0,0,1-.47c-.46-.09-.92-.19-1.38-.25h0"/><path class="cls-6" d="M177.77,7.92c0,.28-.07.56-.1.84.22-.06.29-.16.29-.34a.72.72,0,0,0-.19-.5"/><path class="cls-4" d="M177.14,7.67h0c-.35,0-.54.27-.49.75a1.52,1.52,0,0,0,.18.36l.2.05a2.92,2.92,0,0,0,.64-.07c0-.28.07-.56.1-.84a.84.84,0,0,0-.63-.25"/><path class="cls-4" d="M189.56,21.09h-.09a2.7,2.7,0,0,0-.67.33c.31.24.5.5.78.59l.16,0a.59.59,0,0,0,.51-.37c.1-.27-.28-.58-.69-.58"/><path class="cls-4" d="M171.1,39.76c-.06,0-.15.11-.26.19a1.6,1.6,0,0,0,.81,1l.19,0,.14,0a.32.32,0,0,0,.2-.19c.09-.58-.29-.92-1.07-1h0"/><path class="cls-4" d="M177.73,21.1c.37.71.49.92.85.92a3.77,3.77,0,0,0,.66-.1,4.69,4.69,0,0,0-.72-.75.74.74,0,0,0-.39-.07h-.4"/><path class="cls-4" d="M157,10.53c-.17.14-.38.24-.37.32a1.49,1.49,0,0,0,.25.63l.44,0a1,1,0,0,0,.2-.6c0-.13-.31-.23-.52-.37"/><path class="cls-4" d="M169,11.89h0c.3.43.49.72.7,1a.42.42,0,0,0,.34.18l.25-.08c.11-.09.2-.27.16-.37-.17-.41-.47-.72-1.41-.72"/><path class="cls-4" d="M175.29,12.82l-.15,0c-.39.2-.28.48-.09.74a1.81,1.81,0,0,0,.41.29c.15-.09.36-.14.43-.25.2-.28.08-.55-.25-.73a.75.75,0,0,0-.35-.08"/><path class="cls-4" d="M178.44,19h-.12a1.76,1.76,0,0,0-.41.44c-.09.19.25.38.59.38h0c.35,0,.59-.18.56-.42s-.25-.41-.63-.41"/><path class="cls-6" d="M191.47,24.61a2.36,2.36,0,0,0-.74.21l1.28.83c-.1-.75-.2-1-.54-1"/><path class="cls-4" d="M167,13.88c-.2.25-.38.38-.41.53s.29.52.66.52h0c.32,0,.63-.25.49-.44a3.73,3.73,0,0,0-.75-.61"/><path class="cls-4" d="M171.7,13.65c-.23.16-.46.25-.54.39s.16.57.46.63h.08c.28,0,.64-.28.55-.5s-.32-.32-.55-.53"/><path class="cls-5" d="M182.5,39.76a1.11,1.11,0,0,0,.95.93c.22-.69.18-.73-.95-.93"/><path class="cls-4" d="M159.94,20.54c-.09.22-.2.36-.19.5s.18.15.27.23a1.84,1.84,0,0,0,.39-.4s-.23-.16-.47-.33"/><path class="cls-4" d="M174.8,19.41l-.17,0c-.15.18-.31.36-.44.55l.23.14c.4,0,.46-.24.49-.47l-.11-.24Z"/><path class="cls-4" d="M189.86,18.5a1.76,1.76,0,0,0-.85.22,4.35,4.35,0,0,0,.62.16h0c.47-.07.91-.19,1.37-.28h0l-.21,0a2.53,2.53,0,0,1-.46-.06,2.74,2.74,0,0,0-.51-.06"/><path class="cls-4" d="M150.24,11.8l-.14.21a6.11,6.11,0,0,0,.43.47l.24-.09a3.71,3.71,0,0,0-.22-.55l-.31,0Z"/><path class="cls-6" d="M184.23,28.27c-.2.09-.35.11-.39.17a.47.47,0,0,0,.42.6h0c.11,0,.32-.18.3-.25a2,2,0,0,0-.33-.52"/><path class="cls-4" d="M186.44,23.27h-.15c0,.16.06.31.1.46l.14.07.08-.11a2.56,2.56,0,0,0-.17-.43"/><path class="cls-6" d="M188.69,26.05c-.07.13-.11.18-.1.21a1.17,1.17,0,0,0,.16.36h0l.27,0c-.06-.12-.11-.25-.17-.37s-.08-.06-.2-.17"/><path class="cls-4" d="M171.54,43.06l-.23,0,.17.29.25-.11-.13-.21h-.06"/><path class="cls-4" d="M159.74,27.52c-.14.07-.29.1-.3.15l.11.23h0l.26-.05-.12-.34"/><path class="cls-4" d="M186.81,22.14l-.23.22.27.3.18-.2a1.31,1.31,0,0,0-.22-.32"/><path class="cls-4" d="M151.12,15.89l-.38.17c.11.13.21.27.34.4l.25-.12a2.57,2.57,0,0,0-.21-.45"/><path class="cls-5" d="M151.31,45.42l-.35,0,.09.24c.06,0,.2,0,.3,0s0-.22,0-.33"/><path class="cls-4" d="M151.51,26.94l-.18.16a2.85,2.85,0,0,0,.33.25l.24-.24a2.71,2.71,0,0,0-.39-.17"/><polygon class="cls-4" points="167.93 19.73 167.8 19.75 167.86 19.84 167.99 19.82 167.93 19.73 167.93 19.73"/><path class="cls-4" d="M159,13.33l-.13,0,0,.19.29,0-.14-.19Z"/><polygon class="cls-4" points="165.49 27.59 165.38 27.67 165.54 27.85 165.65 27.78 165.49 27.59 165.49 27.59"/><path class="cls-7" d="M184.58,32.38l-.28.07,0,.11a1.35,1.35,0,0,0,.28,0l0-.22Z"/><polygon class="cls-6" points="178.73 30.25 178.6 30.46 178.71 30.53 178.95 30.41 178.73 30.25 178.73 30.25"/><path class="cls-6" d="M149.43,33.92a2.38,2.38,0,0,0-.25.2l.34.22.17-.17a1.25,1.25,0,0,0-.26-.25"/><polyline class="cls-5" points="137.01 36.69 136.94 36.78 137.01 36.9 137.11 36.86 137.01 36.69"/><polygon class="cls-7" points="137.08 36.59 137.01 36.69 137.11 36.86 137.27 36.78 137.08 36.59 137.08 36.59"/><polygon class="cls-4" points="136.51 26.95 136.38 27.01 136.49 27.08 136.62 27.03 136.51 26.95 136.51 26.95"/><polygon class="cls-5" points="176.4 45.35 176.29 45.39 176.39 45.43 176.4 45.35 176.4 45.35"/><polygon class="cls-4" points="176.9 22.62 176.87 22.8 176.95 22.72 176.9 22.62 176.9 22.62"/><polygon class="cls-7" points="180.54 34.07 180.44 34.15 180.59 34.26 180.64 34.16 180.54 34.07 180.54 34.07"/><polygon class="cls-7" points="183.5 33.32 183.55 33.42 183.62 33.33 183.5 33.32 183.5 33.32"/><polygon class="cls-4" points="164.89 11.47 164.75 11.52 165.02 11.54 164.89 11.47 164.89 11.47"/><polygon class="cls-4" points="168.54 26.14 168.42 26.18 168.65 26.2 168.54 26.14 168.54 26.14"/><polygon class="cls-5" points="187.56 37.3 187.53 37.4 187.66 37.34 187.56 37.3 187.56 37.3"/><polygon class="cls-5" points="190.93 42.76 190.82 42.84 190.91 42.94 191.07 42.79 190.93 42.76 190.93 42.76"/><path class="cls-1" d="M95.6,30c1.7-.6,7.19,3.32,9.47,4.08a42.4,42.4,0,0,1,5.26,2.2c1.2.58,1.8.3,2.14,0s.44-.57.65.11c.47,1.52,7.77.7,9.21,3.5S112.12,43.16,111.61,46s.57,9-1.42,9.59c-1.34.39-5.12-6.3-6.89-7.54s-12.61-.39-12.44-3.43c.22-3.89,9.52-2.47,8.1-6.29-1.54-4.17-5-7.72-3.36-8.3"/><path class="cls-2" d="M122,39.78h0c0-.31-.73-2.7-.73-2.7l-1-.14-2.71.81.07.11c-2.25-.34-4.57-.44-4.83-1.11s.8-4.42.31-6.54v0c-.09-.53-.82-3.05-.82-3.05L110.92,29l.08.11c-1.81,1.36-4.28,6.31-6.13,5.8S98.8,32,96.55,31.63h0l-1.22-2.57-1,.43s.69,2.66.76,2.86h0c.3,1.14,2.56,3.38,3.71,5.91.83,1.82-2.11,2.15-4.66,2.78l-.06-.56-4,.18s.61,2.38.77,2.9v0c.69,2.07,10.55,1.49,12.21,2.44s5.47,7.56,6.79,7.25c2-.47.43-6,.93-8.24s11.58-3.17,11.13-5.24"/><path class="cls-3" d="M94.79,28.81c1.67-.48,7.09,2.65,9.33,3.26,1.11.31,2.46-1.37,3.75-3.05s2.54-3.39,3.43-3.05c2.43.93.34,6.9.75,8s7.67.56,9.08,2.8-10.54,3.24-11,5.48,1,7.77-.93,8.24c-1.32.31-5-6.25-6.78-7.25S90,42.9,90.12,40.47c.22-3.11,9.38-2,8-5-1.51-3.34-5-6.18-3.31-6.64"/><path class="cls-4" d="M95.33,29.17V30.5a.91.91,0,0,0,.33-1.08c0-.09-.21-.17-.33-.25"/><path class="cls-4" d="M110.7,26h0c0,.42,0,.42.61.52.14-.23-.13-.35-.22-.52h-.39"/><path class="cls-4" d="M92.22,39.14v.59h.12c.2,0,.33-.07.36-.26s-.07-.28-.29-.32l-.19,0"/><path class="cls-4" d="M91.67,40.19v.74l.21-.11c.14-.24.07-.46-.21-.63"/><path class="cls-5" d="M90.12,50v.29l.23-.09-.23-.2"/><polygon class="cls-5" points="108.18 26 107.98 26 108.18 26 108.18 26"/><path class="cls-4" d="M98.44,37.25l-.2.09c.08.22.25.47.05.73s-.18.35,0,.46l.18,0a1.35,1.35,0,0,0,.35-.06,3.29,3.29,0,0,0,.59-.3c-.33-.34-.58-.62-.86-.88l-.16-.07"/><path class="cls-6" d="M117.36,40.69a.93.93,0,0,0-.4.09l-.06.15a1,1,0,0,0,.07.28.56.56,0,0,0,.47.37h0a.61.61,0,0,0,.51-.39c.08-.19,0-.35-.23-.43a1.53,1.53,0,0,0-.41-.07"/><path class="cls-4" d="M107.12,47.79h-.19c-.15,0-.3.08-.27.24l1,.62a3,3,0,0,0,.43-.24.19.19,0,0,0,0-.33,1.67,1.67,0,0,0-.94-.3"/><path class="cls-4" d="M110.55,28l-.17,0-.16.82.9.21a6.91,6.91,0,0,0-.11-.76c0-.19-.19-.29-.46-.29"/><path class="cls-6" d="M103.48,45.09l-.26.1c0,.12,0,.22.11.26a6,6,0,0,0,.73.45l.18,0,.26-.09a.24.24,0,0,0-.06-.39,7.6,7.6,0,0,0-.94-.36h0"/><path class="cls-6" d="M94.3,42.25a.7.7,0,0,0,.26.11l.07-.07-.33,0"/><path class="cls-4" d="M94.47,41.58l-.21.06a.35.35,0,0,0-.13.32.36.36,0,0,0,.17.29l.33,0a1,1,0,0,0,.28-.29c0-.08,0-.24-.14-.31a.46.46,0,0,0-.3-.11"/><path class="cls-4" d="M106.16,42l-.22,0c-.12.26,0,.45.19.63a.38.38,0,0,0,.27.09.52.52,0,0,0,.33-.11.26.26,0,0,0,0-.45,1,1,0,0,0-.56-.18"/><path class="cls-6" d="M110,50.71h-.06c-.11,0-.26.06-.31.13l.08.24a4.52,4.52,0,0,0,.49.33,2.05,2.05,0,0,0,.24-.3c.12-.24,0-.37-.31-.39H110"/><path class="cls-4" d="M101.25,35.67c-.14.52-.13.53.33.75.21-.6.19-.65-.33-.75"/><path class="cls-4" d="M104.9,35.58a.89.89,0,0,0-.39.11.54.54,0,0,0,.43.49l.09,0a.79.79,0,0,0,.32-.08c.14-.08.12-.23,0-.33a.68.68,0,0,0-.46-.21"/><path class="cls-4" d="M104.82,38.05h-.07a1,1,0,0,0-.32.23c.07.13.11.22.17.31a.34.34,0,0,0,.27.12l.14,0c.2,0,.31-.18.25-.33l-.18-.25-.26-.07"/><path class="cls-6" d="M99.69,43.36c-.09.23-.2.37-.15.43a1.61,1.61,0,0,0,.81.57c0-.41-.26-.64-.66-1"/><path class="cls-6" d="M91.38,42.07H91.3l-.16.24a.47.47,0,0,0,.51.33l.26,0a3.17,3.17,0,0,0-.29-.49l-.24-.06"/><path class="cls-4" d="M109.93,38.1l-.22.08v.13a.88.88,0,0,0,.66.46c.09-.4,0-.6-.41-.67h0"/><path class="cls-4" d="M119.39,35.7c0,.51,0,.51.72.7a.91.91,0,0,0-.72-.7m0,0h0"/><path class="cls-6" d="M111.11,42.94a.33.33,0,0,0-.3.21l.42.46c.25-.47.26-.55,0-.64l-.15,0"/><path class="cls-4" d="M94.78,39.67l-.2.11.09.18a.76.76,0,0,0,.35.09.67.67,0,0,0,.5-.25c-.24,0-.48-.1-.73-.13h0"/><path class="cls-6" d="M112.41,30.08c0,.15,0,.3,0,.45.12,0,.16-.09.16-.18a.37.37,0,0,0-.11-.27"/><path class="cls-4" d="M112.09,30h0c-.18,0-.28.15-.25.4l.09.19.11,0a1.31,1.31,0,0,0,.33,0c0-.15,0-.3,0-.45a.43.43,0,0,0-.32-.13"/><path class="cls-4" d="M118.61,37h0a1.21,1.21,0,0,0-.35.17,1.52,1.52,0,0,0,.41.31h.08a.3.3,0,0,0,.27-.19c.06-.14-.14-.31-.36-.31"/><path class="cls-4" d="M108.91,46.82l-.13.09a.82.82,0,0,0,.42.52l.1,0h.07l.11-.1c0-.3-.15-.49-.56-.52h0"/><path class="cls-4" d="M112.39,37c.2.37.26.49.45.49a2.54,2.54,0,0,0,.35-.06,2.35,2.35,0,0,0-.38-.39l-.21,0h-.21"/><path class="cls-4" d="M101.51,31.46l-.19.17a.72.72,0,0,0,.13.33h.23a.5.5,0,0,0,.1-.32c0-.07-.16-.12-.27-.19"/><path class="cls-4" d="M107.79,32.17h0c.16.23.26.38.37.52l.18.1.13,0,.08-.19c-.08-.22-.24-.38-.74-.38"/><path class="cls-4" d="M111.11,32.66H111c-.2.11-.14.26,0,.39l.21.16.23-.13c.1-.15,0-.29-.13-.39l-.19,0"/><path class="cls-4" d="M112.77,35.9h-.06a.7.7,0,0,0-.22.23c0,.1.13.2.31.2h0c.18,0,.3-.1.29-.22s-.13-.22-.33-.22"/><path class="cls-6" d="M119.61,38.86a1.46,1.46,0,0,0-.39.1l.68.44c-.06-.39-.11-.54-.29-.54"/><path class="cls-4" d="M106.76,33.22c-.11.13-.2.2-.22.28s.15.27.35.27h0c.17,0,.34-.13.26-.23a1.75,1.75,0,0,0-.39-.32"/><path class="cls-4" d="M109.23,33.1c-.13.08-.24.13-.28.2s.08.3.24.33h0c.14,0,.34-.15.29-.27s-.17-.16-.29-.27"/><path class="cls-5" d="M114.9,46.82a.57.57,0,0,0,.5.48c.12-.36.1-.38-.5-.48"/><path class="cls-4" d="M103.05,36.72a.79.79,0,0,0-.1.26l.14.12.21-.21s-.12-.08-.25-.17"/><path class="cls-4" d="M110.86,36.12h-.09c-.08.1-.16.19-.23.29l.12.07c.21,0,.24-.12.26-.24l-.06-.13Z"/><path class="cls-4" d="M118.77,35.65a.92.92,0,0,0-.45.11,1.85,1.85,0,0,0,.33.08h0c.24,0,.48-.09.72-.14h0l-.11,0-.24,0a1.24,1.24,0,0,0-.27,0"/><path class="cls-4" d="M98,32.13l-.07.1.22.25.13,0a1.69,1.69,0,0,0-.12-.28l-.16,0Z"/><path class="cls-6" d="M115.81,40.78c-.11,0-.19,0-.2.09s.06.31.21.31h0l.16-.13a1.16,1.16,0,0,0-.18-.27"/><polyline class="cls-4" points="116.97 38.15 116.89 38.16 116.95 38.4 117.02 38.44 117.06 38.38 116.97 38.15"/><polyline class="cls-6" points="118.15 39.61 118.1 39.72 118.19 39.91 118.2 39.92 118.35 39.89 118.26 39.7 118.15 39.61"/><polyline class="cls-4" points="109.14 48.55 109.02 48.57 109.11 48.72 109.24 48.66 109.17 48.55 109.14 48.55"/><polyline class="cls-4" points="102.94 40.38 102.79 40.46 102.85 40.58 102.87 40.59 103.01 40.56 102.94 40.38"/><polyline class="cls-4" points="117.17 37.56 117.05 37.67 117.19 37.83 117.28 37.72 117.17 37.56"/><path class="cls-4" d="M98.42,34.27l-.2.09.17.21.14-.06-.11-.24"/><polyline class="cls-5" points="98.52 49.79 98.33 49.82 98.38 49.94 98.54 49.96 98.52 49.79"/><polyline class="cls-4" points="98.62 40.08 98.52 40.16 98.7 40.29 98.83 40.17 98.62 40.08"/><polygon class="cls-4" points="107.25 36.29 107.18 36.3 107.21 36.35 107.28 36.34 107.25 36.29 107.25 36.29"/><polygon class="cls-4" points="102.55 32.93 102.47 32.94 102.47 33.04 102.62 33.03 102.55 32.93 102.55 32.93"/><polygon class="cls-4" points="105.96 40.42 105.91 40.46 105.99 40.56 106.05 40.52 105.96 40.42 105.96 40.42"/><polygon class="cls-7" points="115.99 42.94 115.85 42.97 115.87 43.03 116.02 43.05 115.99 42.94 115.99 42.94"/><polygon class="cls-6" points="112.92 41.82 112.85 41.93 112.91 41.97 113.04 41.9 112.92 41.82 112.92 41.82"/><polyline class="cls-6" points="97.53 43.75 97.39 43.85 97.58 43.97 97.67 43.88 97.53 43.75"/><polyline class="cls-5" points="91 45.2 90.96 45.25 91 45.31 91.05 45.29 91 45.2"/><polygon class="cls-7" points="91.04 45.15 91 45.2 91.05 45.29 91.14 45.25 91.04 45.15 91.04 45.15"/><polygon class="cls-4" points="90.74 40.09 90.67 40.11 90.73 40.15 90.8 40.13 90.74 40.09 90.74 40.09"/><polygon class="cls-5" points="111.7 49.75 111.64 49.77 111.69 49.79 111.7 49.75 111.7 49.75"/><polygon class="cls-4" points="111.96 37.81 111.94 37.9 111.99 37.86 111.96 37.81 111.96 37.81"/><polygon class="cls-7" points="113.87 43.83 113.82 43.87 113.9 43.93 113.92 43.87 113.87 43.83 113.87 43.83"/><polygon class="cls-7" points="115.43 43.43 115.45 43.48 115.49 43.43 115.43 43.43 115.43 43.43"/><polygon class="cls-4" points="105.65 31.95 105.58 31.98 105.72 31.99 105.65 31.95 105.65 31.95"/><polygon class="cls-4" points="107.57 39.66 107.51 39.68 107.62 39.69 107.57 39.66 107.57 39.66"/><polygon class="cls-5" points="117.56 45.52 117.54 45.57 117.61 45.54 117.56 45.52 117.56 45.52"/><polygon class="cls-5" points="119.33 48.39 119.27 48.43 119.32 48.48 119.41 48.41 119.33 48.39 119.33 48.39"/></g></g></svg>