<svg xmlns="http://www.w3.org/2000/svg" viewBox="0 0 119.56 155.47"><defs><style>.cls-1{fill:#26315e;}</style></defs><title>yanis</title><g id="Layer_2" data-name="Layer 2"><g id="Layer_1-2" data-name="Layer 1"><path class="cls-1" d="M118.92,74.91c-.5-.66-1.09-1.52-1.77-2.3A5,5,0,0,0,113,70.78l-1.59.06a1.25,1.25,0,0,1-1-1.41c.1-1.94.36-3.89.32-5.83-.11-5.46-.27-10.92-.54-16.38a27.41,27.41,0,0,0-2.12-9.85,13.41,13.41,0,0,1-.69-2.63A28.62,28.62,0,0,0,106,29.52a34.09,34.09,0,0,0-2.73-5.6,15.35,15.35,0,0,1-1.41-2.77,30.5,30.5,0,0,0-6.16-8.91c-.88-1-1.81-1.86-2.65-2.85a12.5,12.5,0,0,0-2.91-2.57c-2-1.22-4-2.39-6-3.55a10.66,10.66,0,0,0-2.13-1A52.67,52.67,0,0,0,71.23.38C69.29.22,67.35,0,65.41,0s-3.88.38-5.82.57-3.62.31-5.43.49a20,20,0,0,0-2.32.34c-3.16.74-6.32,1.49-9.48,2.28a19.83,19.83,0,0,0-5,2A64.7,64.7,0,0,0,26.7,12.93a36.65,36.65,0,0,0-6.6,7.14,70.2,70.2,0,0,1-4.31,6.49A7.19,7.19,0,0,0,15,27.91c-1.68,3.24-2.59,6.79-3.94,10.16A9.22,9.22,0,0,0,10.7,40c-.51,3.34-.94,6.69-1.53,10A63.1,63.1,0,0,0,8.4,60.08c-.05,2.86.12,5.72.17,8.58,0,.91,0,1.82-.1,2.72,0,.22-.3.41-.52.71-.94.13-2,.25-3,.42a3.8,3.8,0,0,0-2.35,1.28C.7,76.07-.48,78.6.19,81.69A22.16,22.16,0,0,1,.61,84,14.07,14.07,0,0,0,3,90.13a23.13,23.13,0,0,0,6,6.55c.73.52,1.44,1.08,2.11,1.57a66.12,66.12,0,0,1,2.32,7.57,14.12,14.12,0,0,0,.72,2.23c1.09,3.06,2.28,6.08,3.63,9a13.9,13.9,0,0,1,.5,1.39,5.38,5.38,0,0,1-.55,1.15,45.37,45.37,0,0,0-4.46,6.84c-1.52,2.73-2.79,5.58-4.08,8.42q-2.74,6-4.93,12.3a11.32,11.32,0,0,0-.37,1.5,1.67,1.67,0,0,0,1.16,1.8,20.63,20.63,0,0,0,5,.58c1.81-.06,3.63.07,5.45.15,1,0,2.07.21,3.11.23,1.89,0,2.64-.65,3-2.4a8.05,8.05,0,0,0,.14-1.55c0-2.6.24-5.2.27-7.79,0-4,.83-8,.93-12a1.55,1.55,0,0,1,.3-.69c.06-.1.21-.14.34-.21,1.31.46,1.95,1.63,2.71,2.65s2,1.66,2.52,3a20.15,20.15,0,0,1,0,2.69,53.46,53.46,0,0,0-.22,7.8,25.24,25.24,0,0,1-.29,5.82,5.82,5.82,0,0,0,0,1.56,2.59,2.59,0,0,0,1.63,2,6.25,6.25,0,0,0,.74.21c2.83.4,5.7.34,8.54.46a3.19,3.19,0,0,0,3.11-2,5.74,5.74,0,0,0,.69-2.61c0-1-.1-2.08-.1-3.12a12.52,12.52,0,0,1,.13-1.93,1.47,1.47,0,0,1,1-1.22,14.21,14.21,0,0,1,4.08,2.08c.22,2.09.21,4.16.24,6.23a15,15,0,0,0,.09,2.33,5.11,5.11,0,0,0,.63,1.31,36.64,36.64,0,0,0,7.88.66,11.51,11.51,0,0,1,4.63.43,1.65,1.65,0,0,0,.77.05,2.86,2.86,0,0,0,2.91-2.12,7.73,7.73,0,0,0,.32-2.7,10.91,10.91,0,0,1,.45-3.85,2,2,0,0,1,1-1.25l4.23-.68c.16.31.46.63.48,1,.07,2.07,0,4.15.14,6.23.09,2.35.68,3,2.92,3.38a6.48,6.48,0,0,0,1.16.16q3.9.09,7.79.14a6.48,6.48,0,0,0,1.16-.16,3.26,3.26,0,0,0,2.66-3c0-.13,0-.26,0-.39.11-2.86.23-5.71.33-8.57.12-3.11.22-6.23.32-9a15.64,15.64,0,0,1,2.23-3.56,33.76,33.76,0,0,0,2-3.31,12.68,12.68,0,0,1,2.18-3.2c.56.55.34,1.19.26,1.77-.34,2.45-.86,4.87-1.06,7.33-.39,4.78-.94,9.56-1,14.37,0,1.94-.15,3.89-.21,5.83,0,.12.1.24.14.33a1.49,1.49,0,0,0,1.61.9,13.2,13.2,0,0,1,4.25-.17,14.06,14.06,0,0,0,2.34,0c1.3-.08,2.6-.18,3.89-.36,2.39-.34,3.29-1.6,3-4.1a11.27,11.27,0,0,0-.32-1.93c-1.22-4.12-1.75-8.39-2.56-12.59a50.18,50.18,0,0,0-4.73-14c-.54-1-1.1-2.07-1.64-3.1a3.06,3.06,0,0,1-.5-2,8.54,8.54,0,0,1,.35-1,98.17,98.17,0,0,0,6-14.39,3.87,3.87,0,0,1,.55-.9c.22,0,.38,0,.46,0s.37.35.56.53c2.07,2.09,4.61,2.18,7.25,1.57a3.83,3.83,0,0,0,1.62-1,10.44,10.44,0,0,0,3-6.17,7.52,7.52,0,0,0-.35-4.59,8.18,8.18,0,0,1-.37-1.35c.64-2.28,1.3-4.39,1.81-6.53a13.45,13.45,0,0,0-.09-7.89Zm-3.13,18.57a13.49,13.49,0,0,1-1.51,4.74,4.18,4.18,0,0,1-2.73,2,2.44,2.44,0,0,1-1.14,0,7.85,7.85,0,0,1-1.44-.54,2.57,2.57,0,0,1-1.57-2.05c-.07-.63-.05-1.28-.08-2.12,5-1.07,4.64-1.28,7.54-3.29.09-.06.25,0,.38,0a1.23,1.23,0,0,1,.55,1.31Zm-3.28-2.77c-.93.36-1.89.75-2.87,1.08a1.35,1.35,0,0,1-1.48-.38c.14-.31.21-.75.47-1a17.37,17.37,0,0,1,1.67-1,1.42,1.42,0,0,0,0-2.52,3.79,3.79,0,0,0-1.06-.28,6.24,6.24,0,0,0-2.86,2.65c-.85,1.46-1.72,2.91-2.5,4.41a8.08,8.08,0,0,0-.76,2.2,44.37,44.37,0,0,1-2.25,7c-1.14,2.9-2.25,5.81-3.37,8.72a9.69,9.69,0,0,1-.6,1.44c-1.59,2.69-2.7,5.62-4.08,8.41A38,38,0,0,1,82.27,134.9a32,32,0,0,1-7.16,4.66,13.56,13.56,0,0,1-2.89,1.14c-3.09.5-5.87,2.13-9,2.43a12,12,0,0,1-3.49,0,10.65,10.65,0,0,0-2.32-.2,12.61,12.61,0,0,1-4.94-1A118.09,118.09,0,0,1,40,136.51a30.8,30.8,0,0,1-8.36-6.31c-1.42-1.53-2.8-3.09-4.07-4.72-2.08-2.67-4.07-5.4-6.07-8.12a18.86,18.86,0,0,1-2.59-5.22c-1.3-3.8-2.91-7.5-4-11.39a11.14,11.14,0,0,0-3.49-5.84C9,94,7.18,92.07,5.52,89.83a13.67,13.67,0,0,1-2.74-7.57A11.26,11.26,0,0,1,3.29,78c.61-1.87,1.46-2.91,4.07-2.71.64.05,1.29.13,1.94.16a4,4,0,0,0,.76-.11,1.54,1.54,0,0,0,1-1.07,20.28,20.28,0,0,0,.1-2.33c0-1.56-.15-3.12-.23-4.67a71.54,71.54,0,0,1,.79-14.76c.4-2.56.62-5.15,1.08-7.7a31.2,31.2,0,0,1,1-3.75c.11-.33.47-.59.7-.88a8,8,0,0,1,3.85.63,19.87,19.87,0,0,0,11.89.45c2.27-.54,4.47-1.35,7-2.12a44.15,44.15,0,0,0,7.6,2,21.78,21.78,0,0,0,5.4.49,57.87,57.87,0,0,0,7-.63,35.18,35.18,0,0,1,9.29-.46c3.73.47,7.51.53,11.25,1,2.7.32,5.41.53,8.11,1,3.07.5,6.2.59,9.31.8,3.63.25,7.25.52,10.89.64a2.67,2.67,0,0,1,.75.34,11.37,11.37,0,0,1,.84,3.74c.28,4.67.58,9.34.64,14a55.53,55.53,0,0,1-.63,7.37,13.15,13.15,0,0,0,.08,3.49,1.7,1.7,0,0,0,1.74,1.25,7.82,7.82,0,0,0,1.83-.59,2.46,2.46,0,0,1,2.24.11,5.46,5.46,0,0,1,3.33,4.89c.22,4.59-.94,8.74-4.39,12.11ZM96.21,69.1a7.75,7.75,0,0,0-1.75-.82c-2-.64-4-1-5.95-1.83A4.33,4.33,0,0,0,87,66.2a33.68,33.68,0,0,0-10.38,1.37A7.77,7.77,0,0,0,72,71a6.06,6.06,0,0,0-.72,1.79,1.17,1.17,0,0,0,.79,1.48c2.39-.2,4.71-.36,7-.58a18.38,18.38,0,0,1,6.57.51c2,.54,4.11.52,6.14.92a6.81,6.81,0,0,0,2.69-.16A3,3,0,0,0,96.84,73a4.5,4.5,0,0,0,0-3.05,1.73,1.73,0,0,0-.68-.89ZM20.3,62.78c.42.3.82.62,1.37,1,1.28-.73,1.61-1.21,1.43-1.88-.07-.25-.23-.47-.31-.71-.42-1.31-.35-1.64.58-2.36A10.48,10.48,0,0,0,24.61,58,2,2,0,0,0,25,56.9c.05-.4-.5-.92-1-1a4,4,0,0,0-.77-.1,1.65,1.65,0,0,1-1.42-.54c-.12-.84-.22-1.73-.36-2.62a1.41,1.41,0,0,0-1.07-1,1.5,1.5,0,0,0-1.36.56,9,9,0,0,0-.82,1.31c-.35.69-.62,1.43-1,2.08a1.56,1.56,0,0,1-.95.6c-.63.11-1.29,0-1.93.11a3.11,3.11,0,0,0-.93.51,1.64,1.64,0,0,0,.31,1.53c.47.6,1.34.83,1.58,1.74-.32.91-.68,1.88-1,2.85a1.34,1.34,0,0,0,.52,1.36.93.93,0,0,0,1.08,0c1.06-.74,2.1-1.5,3.24-2.33.43.3.84.58,1.24.88ZM93.79,83.67C93,83,92.16,82.41,91.56,82a15.64,15.64,0,0,0-8-.37c-3.18.65-6.32,1.47-9.48,2.18a8.38,8.38,0,0,0-3.15,1.48c-1.77,1.26-1.18,2.83.23,3.79a6.39,6.39,0,0,0,1.07.46,16,16,0,0,0,4.13,1.08c1,.15,2.06.24,3.08.46a7.57,7.57,0,0,0,4.22-.11,5.94,5.94,0,0,1,1.52-.3,21.4,21.4,0,0,0,4.53-1.1,12.29,12.29,0,0,0,4.65-2.76A1.73,1.73,0,0,0,94.64,85a4.82,4.82,0,0,0-.85-1.29ZM76.71,88.36A5.11,5.11,0,0,1,72.4,87.3c-.13-.09-.15-.49-.07-.67a1.39,1.39,0,0,1,.56-.51A12.59,12.59,0,0,1,77.16,85c.29,1.48.3,2.48-.45,3.4Zm15.2-2.23a2.33,2.33,0,0,1-.26.28,8.52,8.52,0,0,1-4.45,1.47,10.77,10.77,0,0,1-.52-3.36c0-.37.34-.85.63-.84,1,0,2-.05,3.06,0a2.6,2.6,0,0,1,1.61,1,1.13,1.13,0,0,1-.07,1.4ZM71.47,111.42a3.4,3.4,0,0,0-1.14,0c-1,.24-2,.55-3,.86A32.69,32.69,0,0,1,57.86,114c-1.55,0-3.1.14-4.65.24a9.94,9.94,0,0,0-1.51.26,1.92,1.92,0,0,0-1.2,1.82,1.69,1.69,0,0,0,.89,1.6,8.65,8.65,0,0,0,3.15.76c1.87-.35,3.52-.65,5.16-1,2.41-.49,4.83-1,7.22-1.5A20.49,20.49,0,0,0,70.59,115a3,3,0,0,0,1.7-2.46,1.24,1.24,0,0,0-.82-1.16Zm-37.21-34c-.25,0-.51,0-.77,0V77.3c-1.54.17-3.09.3-4.62.54s-2.79.52-4.17.84A19,19,0,0,0,19.39,81a4.34,4.34,0,0,0-1.1,1.08,2.51,2.51,0,0,0,.42,3.47,5.37,5.37,0,0,0,2.85,1.12c1.28.14,2.57.26,3.86.37A32.09,32.09,0,0,0,35,86.16,20.73,20.73,0,0,0,38.34,85a7.68,7.68,0,0,0,3-2.34,2.18,2.18,0,0,0-.3-3.1,9.11,9.11,0,0,0-6.83-2.2ZM23.42,84.72a4.13,4.13,0,0,1-3.27-1c.09-.36.07-.83.29-1.07a3.7,3.7,0,0,1,3-1.41c.08.13.19.22.21.34.13.88.24,1.77.36,2.6-.25.23-.42.52-.61.54Zm12-1.17c-.66-1-.24-2.12-.45-3.09a1.2,1.2,0,0,1,1.26-.71,5.57,5.57,0,0,1,1.16.12,1.84,1.84,0,0,1,1.48,1.66c-.66,1.49-2.13,1.62-3.45,2ZM60,123.61A2.42,2.42,0,0,0,57,125.17a3,3,0,0,0,2.7,3.64,3.33,3.33,0,0,0,.93-.34,2.67,2.67,0,0,0,1.32-2.6A2.77,2.77,0,0,0,60,123.61ZM53,102a4.49,4.49,0,0,1,2.65.42,8.56,8.56,0,0,0,1.51.43l2.79-1,2.71.87a4.47,4.47,0,0,0,2-1.27c.21-.3.39-1,.21-1.09a1.43,1.43,0,0,0-.64-.36c-.51-.06-1,0-1.54-.06L61,98.41a5.14,5.14,0,0,0-1.11.4c-.53.36-1,.85-1.53,1.17a2.53,2.53,0,0,1-1,.12c-.86-.53-.66-1.86-1.81-2-1.19.1-1.66,1.75-3.07,1.41a1.57,1.57,0,0,1-1-1.13c-.12-.89-.17-1.8-.23-2.7,0-.3.51-.74.81-.68s.74.25,1.12.31A1.48,1.48,0,0,0,55,94.17a1.52,1.52,0,0,0-.61-1.72l-2.94-.78a9.16,9.16,0,0,1-.49-4.3,53.56,53.56,0,0,0-.26-6.59,21.52,21.52,0,0,0-1.25-5.69,7,7,0,0,0-1.62-2.63,21.13,21.13,0,0,0-5.62-4.14,13.39,13.39,0,0,0-6.66-1.9,15.53,15.53,0,0,1-2.69-.37,13.66,13.66,0,0,0-7.27.78c-1,.39-2,.69-2.9,1.14a5.28,5.28,0,0,0-1.52,1.18,6,6,0,0,0-1.47,3.13,1.53,1.53,0,0,0,1,1.7,10.47,10.47,0,0,0,2.13-.23,25.85,25.85,0,0,1,6.94-.87,67.26,67.26,0,0,1,7.77.37c2.58.23,5.19-.23,7.87.26a6,6,0,0,1,2.8,4.78,49.24,49.24,0,0,1,.59,8.92c-.13,1.8-.11,3.61-.15,5.43a20.49,20.49,0,0,0-1.81,1.54,3.78,3.78,0,0,0-1.1,3.21,4.58,4.58,0,0,0,3.17,4,9,9,0,0,0,4.2.6Zm-4.44-4.41-.23.09a.73.73,0,0,1-.09-.31,1,1,0,0,1,.14-.29c.07.06.17.11.19.19a.86.86,0,0,1,0,.32Z"/></g></g></svg>