<svg xmlns="http://www.w3.org/2000/svg" viewBox="0 0 118.24 179.82"><defs><style>.cls-1{fill:#26315e;}</style></defs><title>zoe</title><g id="Layer_2" data-name="Layer 2"><g id="Layer_1-2" data-name="Layer 1"><path class="cls-1" d="M118.1,108.33a113.36,113.36,0,0,1-.84-11.79,46.87,46.87,0,0,0-.68-7c-.51-2.78-.84-5.59-1.22-8.39-.31-2.32-.92-4.59-1-6.94a12.94,12.94,0,0,0-.33-1.44c-.19-1-.38-1.93-.53-2.9-.25-1.58-.42-3.17-.73-4.74-.51-2.53-1.23-5-1.64-7.57a24.68,24.68,0,0,0-2.3-7,39.86,39.86,0,0,0-3.29-6.19A37.55,37.55,0,0,1,102,38.79,6.49,6.49,0,0,0,100.76,37c-3.11-3-5.6-6.54-8.68-9.56a14,14,0,0,0-4.66-4.14,18,18,0,0,0-3.85-2.16,9.66,9.66,0,0,1-1.94-1.06,70.94,70.94,0,0,0-7.06-3.19,50.13,50.13,0,0,0-11.6-2c-5.21-.08-10.33.35-15.16,2.52a18.46,18.46,0,0,1-2.8.95c-.27.07-.64-.2-1-.33.1-.56.17-1,.28-1.51a29.49,29.49,0,0,0,.94-8c-.06-2.09-.17-4.18-.28-6.27A2.19,2.19,0,0,0,44.15.52a1.89,1.89,0,0,0-1.8-.46,44.88,44.88,0,0,0-7.16,5.63,28.47,28.47,0,0,0-5.38,7A30.81,30.81,0,0,0,27,20.29a11.61,11.61,0,0,0,.56,7.94,1.87,1.87,0,0,1,.21,1.51c-1.28.88-2.53-.38-3.86-.24s-2.33,1.29-3.45,2c-3.38,2.19-3.33,2.26-6.07,5.3a15.66,15.66,0,0,0-2.49,3.64c-.64,1.33-1.41,2.59-2.18,3.86a36.26,36.26,0,0,0-2.91,6.37,6.89,6.89,0,0,0-.34,4,1.88,1.88,0,0,0,1.36,1.58,2.24,2.24,0,0,1,1.43.65c-1.4,2.92-2.57,6-4.16,8.94A19.76,19.76,0,0,0,3,71.32C2.21,75.06,1.43,78.79.85,82.56.18,86.93-.36,91.33.3,95.78A22.92,22.92,0,0,1,.37,99.1,9.32,9.32,0,0,0,.72,102c.78,2.58,1.46,5.2,2.27,7.78a24.5,24.5,0,0,0,4.24,8.13c1.47,1.83,3,3.55,4.61,5.29A33.76,33.76,0,0,0,19,129.61a14.46,14.46,0,0,1,1.78,1.33,5.84,5.84,0,0,1,.69,1A25.1,25.1,0,0,1,19,136.81a42.36,42.36,0,0,0-5.77,11.5A17.54,17.54,0,0,1,12.07,151,43.08,43.08,0,0,0,10,156.17c-.57,1.49-1.19,3-1.7,4.48-.95,2.8-1.85,5.61-2.73,8.43a3.6,3.6,0,0,0,0,2.18c.07.22.28.53.44.54a1.6,1.6,0,0,0,1-.2A2.88,2.88,0,0,0,7.78,170a132,132,0,0,1,6.93-18.67c1.4-3,2.81-6,4.34-9,1.36-2.62,2.88-5.15,4.36-7.71a2.26,2.26,0,0,1,1.36-1.24,7.14,7.14,0,0,1,3,1.29,4.39,4.39,0,0,1-.43,1c-2.22,3-3.66,6.39-5.31,9.7-.93,1.87-1.81,3.77-2.72,5.66-.42.88-.91,1.74-1.31,2.64-1.79,4-3.61,8.1-5.33,12.18-.77,1.81-1.38,3.68-2,5.56a2.17,2.17,0,0,0,.69,2.36,7.75,7.75,0,0,0,3.19.76,69.1,69.1,0,0,0,7.75-.2,3,3,0,0,0,2.59-1.81c.49-1,.9-2,1.34-3,1.37-3.16,2.62-6.38,4.23-9.43,1.39-2.61,2.84-5.18,4.19-7.81a39.19,39.19,0,0,1,3.17-5,1.44,1.44,0,0,1,1.4-.67c1.41.92,3,1.9,4.49,2.94.26.18.36.59.51.85a3.88,3.88,0,0,1-.27.78q-2.24,3.83-4.51,7.63a37.69,37.69,0,0,0-2.7,5.25c-.55,1.37-1.27,2.66-1.91,4-.74,1.55-1.5,3.1-2.22,4.66a6.93,6.93,0,0,0-.45,1.4,1.7,1.7,0,0,0,1,2c3.88-.17,7.93.29,12-.12a6.64,6.64,0,0,0,1.16-.32,12.27,12.27,0,0,0,1-1.45c.89-1.76,1.7-3.55,2.6-5.3,1-2,2-3.94,3.14-5.86,1.41-2.45,2.89-4.86,4.36-7.28.12-.2.37-.31.64-.52.77.06,1.62.11,2.47.2s2-.15,2.84.48a1.89,1.89,0,0,1,0,.71A50.2,50.2,0,0,1,60.42,163c-2.3,3.94-4,8.18-6.09,12.22a5.13,5.13,0,0,0-.25.69c-.28.79.41,1.95,1.23,1.91a52.55,52.55,0,0,1,7.73.4c.85.08,1.72.07,2.58.07a1.87,1.87,0,0,0,2-1.32,21.62,21.62,0,0,1,.92-2.4,112.63,112.63,0,0,1,7.28-12.42c1-1.52,2.09-3,3.1-4.59,1.76-2.68,3.49-5.37,5.23-8.06a2.07,2.07,0,0,1,1.06-1,1,1,0,0,1,.19.32,1.78,1.78,0,0,1,.06.72c-.92,2.94-1.26,6-1.92,9a3.4,3.4,0,0,1-.32.67c-.49.36-1,.72-1.56,1.13-1.25,2.72-3,5.29-4.21,8.09S74.11,174,73.33,177a2.48,2.48,0,0,0,2.2,1.9c2.92.41,5.88.41,8.8.9a5.73,5.73,0,0,0,3.25-.47,3.62,3.62,0,0,0,2.09-2,39.5,39.5,0,0,1,3.6-6.38c2.34-1,4.6-2,6.87-2.88.15-.06.41.14.65.23,0,1.18-.92,2-1.29,3s-.87,2-1.26,3.07a13.12,13.12,0,0,0-1.24,3c.34,1.74.94,2.15,2.52,2.1,1.73-.05,3.45-.13,5.17-.21a4.47,4.47,0,0,0,1.1-.11c2.38-.64,3-1.43,2.95-3.55-.08-2.34-.26-4.67-.34-7a54.1,54.1,0,0,1,0-6.86,8.88,8.88,0,0,1,.6-1.11,35.92,35.92,0,0,0,3.63-6.42,26.32,26.32,0,0,0,2.18-6.65c.18-1,.4-1.92.58-2.89.48-2.54,1.13-5.06,1.38-7.62.33-3.44.81-6.84,1.27-10.26a17.13,17.13,0,0,0,.18-2.58c-.07-2.83-.17-5.65-.3-8.48a21.92,21.92,0,0,1,.12-4,12.66,12.66,0,0,0,0-3.31ZM40.2,25.84a14.35,14.35,0,0,1,7.3-5.95,37.64,37.64,0,0,1,9.26-2.37,33.37,33.37,0,0,1,11,.39c.84.2,1.69.34,2.53.51a28.78,28.78,0,0,1,9.54,3.8c2.72,1.68,5.26,3.6,7.81,5.53a23.72,23.72,0,0,1,2.11,2c-.15.15-.26.31-.31.29a8.11,8.11,0,0,1-1.7-.58,29.78,29.78,0,0,0-9.43-3,37.33,37.33,0,0,0-8.44-.79,39.56,39.56,0,0,1-6.25-.17c-3-.36-5.87.35-8.77.91-.36.07-.7.22-1.07.29a25.56,25.56,0,0,0-10.74,4.61,4,4,0,0,1-.64.35A1.12,1.12,0,0,1,41.22,31a10.11,10.11,0,0,1-1.34-3,2.78,2.78,0,0,1,.32-2.13ZM29.85,34.29a7.64,7.64,0,0,1,1.79-3.55,4.22,4.22,0,0,1,2.82-1.51l1.73.63a2.49,2.49,0,0,1,1.62,2.22c.43,2.19-1.79,5.43-4.49,5.82a3.11,3.11,0,0,1-3.47-3.61ZM22.6,68.67c1.71-2.7,3.28-5.49,4.87-8.27a124.05,124.05,0,0,1,8.78-13.21,22.07,22.07,0,0,1,8.45-7c.09,0,.21,0,.31,0,.09.23.27.46.24.67a33.41,33.41,0,0,1-3.07,9.43c-1.71,3.55-3.29,7.16-4.94,10.73-.46,1-.89,2-1.42,3-1.27,2.38-2.62,4.73-3.88,7.13a20.36,20.36,0,0,1-2.1,3A38.66,38.66,0,0,1,16.72,84.75c-.1,0-.24,0-.36,0-.14-.18-.42-.39-.38-.53A53.51,53.51,0,0,1,22.6,68.67Zm.76,60.3a43,43,0,0,1-7.08-4.65A36.36,36.36,0,0,1,9,115.1a44.59,44.59,0,0,1-5-11.49,22.63,22.63,0,0,1-.64-3.24A87.53,87.53,0,0,1,3.22,86c.14-2,.38-3.92.68-5.86a24.15,24.15,0,0,1,.89-4A99.24,99.24,0,0,1,8.35,65.69c.92-2,1.74-4.07,2.74-6,.88-1.75,1.94-3.41,2.86-5,3.56-1.55,5.14-2,6.42-1.75-1.16,2.18-1.67,4.63-3,6.71C16,63.16,14.7,66.73,13.67,70.4A25.44,25.44,0,0,1,13,72.9a37.56,37.56,0,0,0-1.88,9,42.44,42.44,0,0,0-.22,4.79,5,5,0,0,1-.77,2.81,16.83,16.83,0,0,0-2.45,8A14.22,14.22,0,0,0,11,108.18a5.77,5.77,0,0,0,3.36,2.12c.49.1,1,.14,1.46.26A2.1,2.1,0,0,1,17.37,112l.49,1.39c.92,2.67,1.76,5.38,2.79,8,.71,1.83,1.72,3.54,2.54,5.33.3.64.85,1.21.78,2-.12.31-.34.41-.61.26ZM16.1,107.42c0,.16-.31.4-.5.42a1.88,1.88,0,0,1-1.06-.12,5.59,5.59,0,0,1-1.46-1.08,13.91,13.91,0,0,1-2.69-4.77,5,5,0,0,1-.26-1.44,24.35,24.35,0,0,1,.7-6.91,3.36,3.36,0,0,1,1.79-2.32c.23.24.62.46.68.75.39,1.92.76,3.84,1,5.78a57.75,57.75,0,0,0,1.7,7.89,5.41,5.41,0,0,1,.06,1.8Zm66,37a31.62,31.62,0,0,1-11.31,6.83,50.29,50.29,0,0,1-6.5,1.35,4.84,4.84,0,0,1-1.47.05,64,64,0,0,1-8.38-1.31,41.91,41.91,0,0,1-12.06-5.48,36.86,36.86,0,0,1-11.93-12.4c-1.5-2.55-3-5.07-4.36-7.72a17.06,17.06,0,0,0-1.28-2.24,34.42,34.42,0,0,1-4-8.69,19.23,19.23,0,0,1-.65-2.12c-.87-3.71-1.66-7.45-2.6-11.14A26.92,26.92,0,0,1,16.62,95a22.15,22.15,0,0,0-.26-2.57,12.79,12.79,0,0,1-.24-1.82,18,18,0,0,1,.34-2.21,46,46,0,0,1,5.35-3.32c2.53-1.37,4.45-3.5,6.67-5.23,1.76-2.68,4.44-4.65,5.8-7.62,2.55-3.22,4-7.07,6-10.59a16,16,0,0,0,.71-1.7,12.62,12.62,0,0,1,.86-2c1.62-2.52,2.44-5.37,3.45-8.15a55.18,55.18,0,0,0,2.09-6.29,6.15,6.15,0,0,1,.51-1.11c.31.18.67.28.83.51a9.79,9.79,0,0,1,.89,1.62A19.69,19.69,0,0,0,55.45,52c3.58,2.83,7,5.79,10.89,8.26C69,62,71.54,64,74.13,65.86c.9.65,1.82,1.28,2.71,1.94a75,75,0,0,1,7.84,6.73,27.83,27.83,0,0,1,5.4,7.88c.11.22-.16.63-.23.88-3.3-.23-6.48-.54-9.67-.62a39.12,39.12,0,0,0-9.13,1.11,2.91,2.91,0,0,0-1,.45c-.3.2-.62.48-.53.89a1.72,1.72,0,0,0,.47.93,3.26,3.26,0,0,0,1.29.67,18.16,18.16,0,0,0,2.91.46,70.77,70.77,0,0,0,8.86.26c1.22-.07,2.46,0,3.69,0,1,0,2,.15,2.94.28a3.29,3.29,0,0,1,3.1,2.71c.15.72.41,1.42.53,2.14a3,3,0,0,1-.2,1c-.19,0-.33.07-.42,0a15.76,15.76,0,0,0-6.87-1,55.6,55.6,0,0,0-11.73,1.2c-1.09.24-2.16.51-3.23.79a3.12,3.12,0,0,0-2.11,1.92,1.52,1.52,0,0,0-.2.7,4.76,4.76,0,0,0,1.73,3.9,12.15,12.15,0,0,0,5,2.2,24.59,24.59,0,0,1,2.52.54c4,1.16,8,.76,12.1.25a11.53,11.53,0,0,0,1.76-.55,6.24,6.24,0,0,1,2.13-.53c.15.18.43.36.42.53a77.52,77.52,0,0,1-3.1,18.13c-.47,1.53-1,3.06-1.4,4.59a13.76,13.76,0,0,0-.4,1.8,55,55,0,0,1-2.82,11.62c-1.39,1.51-2.79,3.25-4.42,4.73Zm11.38-44a3.11,3.11,0,0,1-.55.48,10.74,10.74,0,0,1-5.72,1.72c-.32,0-1.16-.24-1.16-.37l-.19-6.43a5.17,5.17,0,0,1,3.33-.2,22.22,22.22,0,0,1,3.58,1.13,2.27,2.27,0,0,1,.71,3.67ZM78,101.07c-.18.26-.33.61-.44.6a10.28,10.28,0,0,1-5.75-2,4.81,4.81,0,0,1-.8-1.15c.25-.53.45-1,.62-1.34,2.8-1.29,2.8-1.29,5.33-1.16-.72,2.07.57,3.49,1,5Zm37.74,19.57a29.16,29.16,0,0,1-.16,3c-.19,2.32-.33,4.66-.63,7-.39,2.93-.24,5.9-.88,8.8a72.91,72.91,0,0,1-3.36,10.92c-1.49,2.25-2.45,4.82-4.26,6.88-1.94,2.22-3.79,4.53-5.87,7-2.68,2.28-6.17,3.41-9.83,4.12a3.56,3.56,0,0,1-3.8-1.26,11.94,11.94,0,0,0-.37-1.61c-.77-2.08-.36-4.13.07-6.18a4.45,4.45,0,0,1,.24-.7,40.41,40.41,0,0,0,2.16-10.07,19.13,19.13,0,0,1,.62-3.26c.45-1.66.75-3.36,1.07-5,.39-2.05.51-4.16,1.42-6.09a5.31,5.31,0,0,0,.24-1.08c.68-3.25,1.37-6.5,2-9.75a4.17,4.17,0,0,1,.14-.72c1.06-2.55,1-5.32,1.56-8a5.55,5.55,0,0,0,.1-1.47,20.12,20.12,0,0,1,.36-5.14,3.07,3.07,0,0,0,.1-.74c0-4,.13-8.12-.67-12.15-.48-2.41-1.23-4.78-1.64-7.19-.6-3.5-2.27-6.45-4.07-9.4A38.2,38.2,0,0,0,79.44,67.13q-4.68-3.28-9.07-7a61,61,0,0,0-6.92-4.91,79.5,79.5,0,0,1-8.19-6.3A15.64,15.64,0,0,1,50.5,41.2,14.38,14.38,0,0,1,50,39a1.47,1.47,0,0,1,.58-1.45,22,22,0,0,1,5.3-.56c2.83.09,5.67,0,8.5,0a12.2,12.2,0,0,1,3.3.3,5.75,5.75,0,0,0,1.08.22c6.43.55,12.53,2.53,18.7,4.19a28,28,0,0,1,6.4,2.84,12,12,0,0,1,1.48,1.09,17.27,17.27,0,0,0,1.71,1.41c2.16,1.27,3.71,3.22,5.47,4.91a23.17,23.17,0,0,1,2.68,3.52c.7,1,1.27,2.12,2,3.1,2.44,3.27,3.36,7.07,4,11-.07,2.74.74,5.35,1.23,8,.36,1.93.84,3.84,1.21,5.77.16.84.21,1.71.29,2.56.35,3.8.68,7.6,1,11.4a5.82,5.82,0,0,1,.08.73c-.15,3.82.48,7.61.51,11.43s.18,7.38.24,11.08Zm-53.83-10a1.41,1.41,0,0,1-1.33-.28c-1.07-.83-1.1-.78-2.15.09a5.45,5.45,0,0,1-.8.46c-.87-.1-1.39-.87-2.36-.56-.22.27-.5.67-.83,1a4.16,4.16,0,0,1-.89.65,1.16,1.16,0,0,1-1.51-.6,8,8,0,0,1-.22-1.08,57.83,57.83,0,0,1,.08-10.69,77.69,77.69,0,0,0,.2-8.49,8.93,8.93,0,0,0-.76-3.59,3.33,3.33,0,0,0-1.73-1.81,13.71,13.71,0,0,0-6.84-1.25c-2.2.16-4.41.17-6.62.19a14.56,14.56,0,0,0-1.47.12c-2.07.27-4.15.54-6.22.85a33.9,33.9,0,0,0-3.61.72,4.8,4.8,0,0,0-1.61.85,1.38,1.38,0,0,0-.51.93,2.79,2.79,0,0,0,.36,1.05l2.46.67a25.41,25.41,0,0,1,5.92-.62c1.84-.07,3.69-.19,5.53-.32,1.35-.09,2.7-.3,4-.33,2.7,0,5.41-.09,8,1.16a5.23,5.23,0,0,1,.51,1.33c.28,2.43.88,4.85.52,7.33a16.3,16.3,0,0,0,0,1.85,62.35,62.35,0,0,1-.17,6.27,15.35,15.35,0,0,0,1.22,7.55,2.35,2.35,0,0,0,2.09,1.52l2.72-.67,1.77.38c1-.16,2-.34,2.92-.46a2.88,2.88,0,0,0,2.7-2.6,1.28,1.28,0,0,0-1.43-1.63ZM43.16,94.55c-3-1.55-6.39-1.56-9.35-1.85a45.75,45.75,0,0,0-9.39,1.49,4.94,4.94,0,0,0-2.24,1.22,3.16,3.16,0,0,0-1.07,2.26,4.46,4.46,0,0,0,2.37,4.25,11.32,11.32,0,0,0,3.4,1.36,56.17,56.17,0,0,0,8.75,1,14.81,14.81,0,0,0,8.09-2.06,5.2,5.2,0,0,0,2.55-3,2.83,2.83,0,0,0-.91-3.31,18,18,0,0,0-2.2-1.31Zm-14.51,7.06A6.44,6.44,0,0,1,24,99.84,1.88,1.88,0,0,1,24.24,97a7.56,7.56,0,0,1,4.14-1.11c.21,0,.4.24.58.36,0,.85-.08,1.69,0,2.53s.26,1.42.38,2.14c.05.3-.35.71-.67.71Zm15.13-2a3,3,0,0,1-1.28,1.25A12.13,12.13,0,0,1,38,102.19a3.67,3.67,0,0,1-1-.26c-.43-1,0-2,0-2.92s-.12-1.92-.18-2.89c.16-.1.38-.33.56-.31a17.8,17.8,0,0,1,4.87,1.43,10.4,10.4,0,0,1,1.24.74,1.27,1.27,0,0,1,.31,1.62Zm15.71,26.8a2,2,0,0,0-1,.33c-.52.32-1,.73-1.5,1.06a6.91,6.91,0,0,1-.91.39c-1.2-.77-2-2-3.33-2.28a1.7,1.7,0,0,0-1.4,1.08,3,3,0,0,0-.16,2.15,16.21,16.21,0,0,0,3.36,6,3.65,3.65,0,0,0,1.21.8,2.13,2.13,0,0,0,2.37-.46,13.09,13.09,0,0,0,3.17-6.91,2.32,2.32,0,0,0-.54-1.86,5.74,5.74,0,0,0-1.25-.34Z"/></g></g></svg>